<?xml version="1.0" encoding="utf-8" standalone="no"?>
<!DOCTYPE svg PUBLIC "-//W3C//DTD SVG 1.1//EN"
  "http://www.w3.org/Graphics/SVG/1.1/DTD/svg11.dtd">
<svg xmlns:xlink="http://www.w3.org/1999/xlink" width="503.510937pt" height="228.904375pt" viewBox="0 0 503.510937 228.904375" xmlns="http://www.w3.org/2000/svg" version="1.1">
 <metadata>
  <rdf:RDF xmlns:dc="http://purl.org/dc/elements/1.1/" xmlns:cc="http://creativecommons.org/ns#" xmlns:rdf="http://www.w3.org/1999/02/22-rdf-syntax-ns#">
   <cc:Work>
    <dc:type rdf:resource="http://purl.org/dc/dcmitype/StillImage"/>
    <dc:date>2024-03-18T12:57:17.703491</dc:date>
    <dc:format>image/svg+xml</dc:format>
    <dc:creator>
     <cc:Agent>
      <dc:title>Matplotlib v3.7.3, https://matplotlib.org/</dc:title>
     </cc:Agent>
    </dc:creator>
   </cc:Work>
  </rdf:RDF>
 </metadata>
 <defs>
  <style type="text/css">*{stroke-linejoin: round; stroke-linecap: butt}</style>
 </defs>
 <g id="figure_1">
  <g id="patch_1">
   <path d="M 0 228.904375 
L 503.510937 228.904375 
L 503.510937 0 
L 0 0 
L 0 228.904375 
z
" style="fill: none"/>
  </g>
  <g id="axes_1">
   <g id="patch_2">
    <path d="M 40.885938 193.868438 
L 487.285937 193.868438 
L 487.285937 27.548438 
L 40.885938 27.548438 
L 40.885938 193.868438 
z
" style="fill: none"/>
   </g>
   <g id="matplotlib.axis_1">
    <g id="xtick_1">
     <g id="text_1">
      <!-- 0 -->
      <g style="fill: #757575" transform="translate(38.629688 203.575938) scale(0.08 -0.08)">
       <defs>
        <path id="Ubuntu-30" d="M 320 2221 
Q 320 3334 713 3936 
Q 1107 4538 1805 4538 
Q 2502 4538 2896 3936 
Q 3290 3334 3290 2221 
Q 3290 1107 2896 505 
Q 2502 -96 1805 -96 
Q 1107 -96 713 505 
Q 320 1107 320 2221 
z
M 2662 2221 
Q 2662 2586 2620 2912 
Q 2579 3238 2480 3481 
Q 2381 3725 2214 3869 
Q 2048 4013 1805 4013 
Q 1562 4013 1395 3869 
Q 1229 3725 1129 3481 
Q 1030 3238 988 2912 
Q 947 2586 947 2221 
Q 947 1856 988 1529 
Q 1030 1203 1129 960 
Q 1229 717 1395 573 
Q 1562 429 1805 429 
Q 2048 429 2214 573 
Q 2381 717 2480 960 
Q 2579 1203 2620 1529 
Q 2662 1856 2662 2221 
z
" transform="scale(0.015625)"/>
       </defs>
       <use xlink:href="#Ubuntu-30"/>
      </g>
     </g>
    </g>
    <g id="xtick_2">
     <g id="text_2">
      <!-- 200 -->
      <g style="fill: #757575" transform="translate(108.517188 203.575938) scale(0.08 -0.08)">
       <defs>
        <path id="Ubuntu-32" d="M 2989 3302 
Q 2989 3072 2896 2857 
Q 2803 2643 2649 2435 
Q 2496 2227 2304 2025 
Q 2112 1824 1920 1632 
Q 1811 1523 1667 1376 
Q 1523 1229 1395 1069 
Q 1267 909 1180 761 
Q 1094 614 1094 506 
L 3136 506 
L 3136 0 
L 448 0 
Q 442 38 442 76 
Q 442 115 442 147 
Q 442 448 541 707 
Q 640 966 800 1196 
Q 960 1427 1158 1632 
Q 1357 1837 1549 2029 
Q 1709 2182 1853 2332 
Q 1997 2483 2109 2633 
Q 2221 2784 2288 2944 
Q 2355 3104 2355 3283 
Q 2355 3475 2294 3609 
Q 2234 3744 2131 3833 
Q 2029 3923 1891 3964 
Q 1754 4006 1600 4006 
Q 1414 4006 1260 3955 
Q 1107 3904 985 3837 
Q 864 3770 781 3696 
Q 698 3622 653 3584 
L 358 4006 
Q 416 4070 531 4163 
Q 646 4256 806 4339 
Q 966 4422 1164 4480 
Q 1363 4538 1594 4538 
Q 2291 4538 2640 4214 
Q 2989 3891 2989 3302 
z
" transform="scale(0.015625)"/>
       </defs>
       <use xlink:href="#Ubuntu-32"/>
       <use xlink:href="#Ubuntu-30" x="56.399994"/>
       <use xlink:href="#Ubuntu-30" x="112.799988"/>
      </g>
     </g>
    </g>
    <g id="xtick_3">
     <g id="text_3">
      <!-- 400 -->
      <g style="fill: #757575" transform="translate(182.917188 203.575938) scale(0.08 -0.08)">
       <defs>
        <path id="Ubuntu-34" d="M 256 1536 
Q 378 1818 589 2192 
Q 800 2566 1065 2963 
Q 1331 3360 1635 3744 
Q 1939 4128 2246 4435 
L 2816 4435 
L 2816 1619 
L 3341 1619 
L 3341 1133 
L 2816 1133 
L 2816 0 
L 2240 0 
L 2240 1133 
L 256 1133 
L 256 1536 
z
M 2240 3731 
Q 2048 3526 1853 3273 
Q 1658 3021 1472 2745 
Q 1286 2470 1123 2182 
Q 960 1894 832 1619 
L 2240 1619 
L 2240 3731 
z
" transform="scale(0.015625)"/>
       </defs>
       <use xlink:href="#Ubuntu-34"/>
       <use xlink:href="#Ubuntu-30" x="56.399994"/>
       <use xlink:href="#Ubuntu-30" x="112.799988"/>
      </g>
     </g>
    </g>
    <g id="xtick_4">
     <g id="text_4">
      <!-- 600 -->
      <g style="fill: #757575" transform="translate(257.317187 203.575938) scale(0.08 -0.08)">
       <defs>
        <path id="Ubuntu-36" d="M 403 1779 
Q 403 2426 582 2922 
Q 762 3418 1091 3757 
Q 1421 4096 1891 4272 
Q 2362 4448 2950 4454 
L 2995 3955 
Q 2618 3949 2307 3872 
Q 1997 3795 1753 3628 
Q 1510 3462 1344 3196 
Q 1178 2931 1094 2541 
Q 1261 2618 1469 2669 
Q 1677 2720 1901 2720 
Q 2278 2720 2540 2605 
Q 2803 2490 2969 2301 
Q 3136 2112 3209 1865 
Q 3283 1619 3283 1350 
Q 3283 1107 3200 851 
Q 3117 595 2947 384 
Q 2778 173 2515 38 
Q 2253 -96 1894 -96 
Q 1165 -96 784 403 
Q 403 902 403 1779 
z
M 1837 2234 
Q 1613 2234 1421 2192 
Q 1229 2150 1037 2067 
Q 1030 1997 1027 1923 
Q 1024 1850 1024 1779 
Q 1024 1498 1062 1248 
Q 1101 998 1200 809 
Q 1299 621 1465 509 
Q 1632 397 1888 397 
Q 2099 397 2246 486 
Q 2394 576 2490 717 
Q 2586 858 2627 1021 
Q 2669 1184 2669 1338 
Q 2669 1773 2461 2003 
Q 2253 2234 1837 2234 
z
" transform="scale(0.015625)"/>
       </defs>
       <use xlink:href="#Ubuntu-36"/>
       <use xlink:href="#Ubuntu-30" x="56.399994"/>
       <use xlink:href="#Ubuntu-30" x="112.799988"/>
      </g>
     </g>
    </g>
    <g id="xtick_5">
     <g id="text_5">
      <!-- 800 -->
      <g style="fill: #757575" transform="translate(331.717188 203.575938) scale(0.08 -0.08)">
       <defs>
        <path id="Ubuntu-38" d="M 3258 1152 
Q 3258 883 3165 656 
Q 3072 429 2889 259 
Q 2707 90 2432 -3 
Q 2157 -96 1798 -96 
Q 1382 -96 1104 22 
Q 826 141 659 320 
Q 493 499 422 713 
Q 352 928 352 1120 
Q 352 1306 413 1475 
Q 474 1645 573 1792 
Q 672 1939 803 2057 
Q 934 2176 1082 2266 
Q 454 2624 454 3322 
Q 454 3565 550 3785 
Q 646 4006 822 4172 
Q 998 4339 1248 4438 
Q 1498 4538 1805 4538 
Q 2163 4538 2419 4429 
Q 2675 4320 2838 4150 
Q 3002 3981 3075 3776 
Q 3149 3571 3149 3379 
Q 3149 3194 3094 3030 
Q 3040 2867 2947 2726 
Q 2854 2586 2736 2477 
Q 2618 2368 2490 2285 
Q 3245 1926 3258 1152 
z
M 954 1114 
Q 954 998 995 873 
Q 1037 749 1139 643 
Q 1242 538 1402 467 
Q 1562 397 1805 397 
Q 2022 397 2185 461 
Q 2349 525 2451 624 
Q 2554 723 2605 851 
Q 2656 979 2656 1114 
Q 2656 1318 2579 1472 
Q 2502 1626 2358 1741 
Q 2214 1856 2012 1936 
Q 1811 2016 1555 2074 
Q 1267 1914 1110 1677 
Q 954 1440 954 1114 
z
M 2554 3386 
Q 2554 3482 2512 3597 
Q 2470 3712 2380 3811 
Q 2291 3910 2150 3977 
Q 2010 4045 1805 4045 
Q 1600 4045 1456 3981 
Q 1312 3917 1222 3817 
Q 1133 3718 1091 3600 
Q 1050 3482 1050 3366 
Q 1050 3226 1101 3085 
Q 1152 2944 1261 2822 
Q 1370 2701 1546 2605 
Q 1722 2509 1965 2451 
Q 2234 2611 2394 2825 
Q 2554 3040 2554 3386 
z
" transform="scale(0.015625)"/>
       </defs>
       <use xlink:href="#Ubuntu-38"/>
       <use xlink:href="#Ubuntu-30" x="56.399994"/>
       <use xlink:href="#Ubuntu-30" x="112.799988"/>
      </g>
     </g>
    </g>
    <g id="xtick_6">
     <g id="text_6">
      <!-- 1000 -->
      <g style="fill: #757575" transform="translate(403.860938 203.575938) scale(0.08 -0.08)">
       <defs>
        <path id="Ubuntu-31" d="M 595 3520 
Q 960 3661 1305 3881 
Q 1651 4102 1939 4435 
L 2362 4435 
L 2362 0 
L 1766 0 
L 1766 3610 
Q 1690 3539 1578 3462 
Q 1466 3386 1334 3315 
Q 1203 3245 1059 3181 
Q 915 3117 781 3072 
L 595 3520 
z
" transform="scale(0.015625)"/>
       </defs>
       <use xlink:href="#Ubuntu-31"/>
       <use xlink:href="#Ubuntu-30" x="56.399994"/>
       <use xlink:href="#Ubuntu-30" x="112.799988"/>
       <use xlink:href="#Ubuntu-30" x="169.199982"/>
      </g>
     </g>
    </g>
    <g id="xtick_7">
     <g id="text_7">
      <!-- 1200 -->
      <g style="fill: #757575" transform="translate(478.260938 203.575938) scale(0.08 -0.08)">
       <use xlink:href="#Ubuntu-31"/>
       <use xlink:href="#Ubuntu-32" x="56.399994"/>
       <use xlink:href="#Ubuntu-30" x="112.799988"/>
       <use xlink:href="#Ubuntu-30" x="169.199982"/>
      </g>
     </g>
    </g>
    <g id="text_8">
     <!-- False Fraud Predictions -->
     <g style="fill: #505050" transform="translate(40.885938 220.039375) scale(0.09 -0.09)">
      <defs>
       <path id="Ubuntu-Bold-46" d="M 512 0 
L 512 4435 
L 3482 4435 
L 3482 3597 
L 1510 3597 
L 1510 2669 
L 3264 2669 
L 3264 1830 
L 1510 1830 
L 1510 0 
L 512 0 
z
" transform="scale(0.015625)"/>
       <path id="Ubuntu-Bold-61" d="M 1734 666 
Q 1875 666 2003 672 
Q 2131 678 2208 691 
L 2208 1414 
Q 2150 1427 2035 1440 
Q 1920 1453 1824 1453 
Q 1690 1453 1571 1437 
Q 1453 1421 1363 1376 
Q 1274 1331 1222 1254 
Q 1171 1178 1171 1062 
Q 1171 838 1321 752 
Q 1472 666 1734 666 
z
M 1658 3456 
Q 2080 3456 2361 3360 
Q 2643 3264 2812 3085 
Q 2982 2906 3052 2650 
Q 3123 2394 3123 2080 
L 3123 96 
Q 2918 51 2553 -9 
Q 2189 -70 1670 -70 
Q 1344 -70 1078 -12 
Q 813 45 621 176 
Q 429 307 326 518 
Q 224 730 224 1037 
Q 224 1331 342 1536 
Q 461 1741 659 1862 
Q 858 1984 1114 2038 
Q 1370 2093 1645 2093 
Q 1830 2093 1974 2077 
Q 2118 2061 2208 2035 
L 2208 2125 
Q 2208 2368 2061 2515 
Q 1914 2662 1549 2662 
Q 1306 2662 1069 2627 
Q 832 2592 659 2528 
L 538 3296 
Q 621 3322 745 3350 
Q 870 3379 1017 3401 
Q 1165 3424 1328 3440 
Q 1491 3456 1658 3456 
z
" transform="scale(0.015625)"/>
       <path id="Ubuntu-Bold-6c" d="M 1792 -64 
Q 1376 -58 1117 25 
Q 858 109 707 259 
Q 557 410 502 624 
Q 448 838 448 1107 
L 448 4813 
L 1402 4966 
L 1402 1299 
Q 1402 1171 1421 1068 
Q 1440 966 1494 896 
Q 1549 826 1651 781 
Q 1754 736 1926 723 
L 1792 -64 
z
" transform="scale(0.015625)"/>
       <path id="Ubuntu-Bold-73" d="M 1414 685 
Q 1677 685 1785 736 
Q 1894 787 1894 934 
Q 1894 1050 1753 1136 
Q 1613 1222 1325 1331 
Q 1101 1414 918 1504 
Q 736 1594 608 1718 
Q 480 1843 409 2016 
Q 339 2189 339 2432 
Q 339 2906 691 3181 
Q 1043 3456 1658 3456 
Q 1965 3456 2246 3401 
Q 2528 3347 2694 3283 
L 2528 2541 
Q 2362 2598 2166 2643 
Q 1971 2688 1728 2688 
Q 1280 2688 1280 2438 
Q 1280 2381 1299 2336 
Q 1318 2291 1376 2249 
Q 1434 2208 1533 2160 
Q 1632 2112 1786 2054 
Q 2099 1939 2304 1827 
Q 2509 1715 2627 1584 
Q 2746 1453 2794 1293 
Q 2842 1133 2842 922 
Q 2842 422 2467 166 
Q 2093 -90 1408 -90 
Q 960 -90 662 -13 
Q 365 64 250 115 
L 410 890 
Q 653 794 909 739 
Q 1165 685 1414 685 
z
" transform="scale(0.015625)"/>
       <path id="Ubuntu-Bold-65" d="M 288 1658 
Q 288 2106 425 2442 
Q 563 2778 787 3002 
Q 1011 3226 1302 3341 
Q 1594 3456 1901 3456 
Q 2618 3456 3034 3017 
Q 3450 2579 3450 1728 
Q 3450 1645 3443 1545 
Q 3437 1446 3430 1370 
L 1267 1370 
Q 1299 1075 1542 902 
Q 1786 730 2195 730 
Q 2458 730 2710 778 
Q 2963 826 3123 896 
L 3251 122 
Q 3174 83 3046 44 
Q 2918 6 2761 -22 
Q 2605 -51 2425 -70 
Q 2246 -90 2067 -90 
Q 1613 -90 1277 44 
Q 941 179 720 412 
Q 499 646 393 966 
Q 288 1286 288 1658 
z
M 2528 2022 
Q 2522 2144 2486 2259 
Q 2451 2374 2377 2464 
Q 2304 2554 2192 2611 
Q 2080 2669 1914 2669 
Q 1754 2669 1638 2614 
Q 1523 2560 1446 2470 
Q 1370 2381 1328 2262 
Q 1286 2144 1267 2022 
L 2528 2022 
z
" transform="scale(0.015625)"/>
       <path id="Ubuntu-Bold-20" transform="scale(0.015625)"/>
       <path id="Ubuntu-Bold-72" d="M 2477 2522 
Q 2349 2554 2176 2589 
Q 2003 2624 1805 2624 
Q 1715 2624 1590 2608 
Q 1466 2592 1402 2573 
L 1402 0 
L 448 0 
L 448 3187 
Q 704 3277 1053 3357 
Q 1402 3437 1830 3437 
Q 1907 3437 2016 3427 
Q 2125 3418 2233 3402 
Q 2342 3386 2451 3363 
Q 2560 3341 2637 3309 
L 2477 2522 
z
" transform="scale(0.015625)"/>
       <path id="Ubuntu-Bold-75" d="M 3322 115 
Q 3078 45 2694 -16 
Q 2310 -77 1888 -77 
Q 1459 -77 1174 38 
Q 890 154 723 362 
Q 557 570 486 858 
Q 416 1146 416 1491 
L 416 3366 
L 1370 3366 
L 1370 1606 
Q 1370 1146 1491 941 
Q 1613 736 1946 736 
Q 2048 736 2163 745 
Q 2278 755 2368 768 
L 2368 3366 
L 3322 3366 
L 3322 115 
z
" transform="scale(0.015625)"/>
       <path id="Ubuntu-Bold-64" d="M 1261 1709 
Q 1261 1267 1459 998 
Q 1658 730 2048 730 
Q 2176 730 2285 739 
Q 2394 749 2464 762 
L 2464 2496 
Q 2374 2554 2230 2592 
Q 2086 2630 1939 2630 
Q 1261 2630 1261 1709 
z
M 3418 109 
Q 3290 70 3123 35 
Q 2957 0 2774 -25 
Q 2592 -51 2403 -67 
Q 2214 -83 2042 -83 
Q 1626 -83 1299 38 
Q 973 160 749 387 
Q 525 614 406 937 
Q 288 1261 288 1664 
Q 288 2074 390 2403 
Q 493 2733 685 2963 
Q 877 3194 1155 3315 
Q 1434 3437 1792 3437 
Q 1990 3437 2147 3398 
Q 2304 3360 2464 3290 
L 2464 4813 
L 3418 4966 
L 3418 109 
z
" transform="scale(0.015625)"/>
       <path id="Ubuntu-Bold-50" d="M 1843 4486 
Q 2835 4486 3366 4137 
Q 3898 3789 3898 2995 
Q 3898 2195 3360 1840 
Q 2822 1485 1824 1485 
L 1510 1485 
L 1510 0 
L 512 0 
L 512 4371 
Q 838 4435 1203 4460 
Q 1568 4486 1843 4486 
z
M 1907 3635 
Q 1798 3635 1692 3628 
Q 1587 3622 1510 3616 
L 1510 2336 
L 1824 2336 
Q 2342 2336 2604 2477 
Q 2867 2618 2867 3002 
Q 2867 3187 2800 3308 
Q 2733 3430 2608 3504 
Q 2483 3578 2304 3606 
Q 2125 3635 1907 3635 
z
" transform="scale(0.015625)"/>
       <path id="Ubuntu-Bold-69" d="M 1402 0 
L 448 0 
L 448 3366 
L 1402 3366 
L 1402 0 
z
M 1491 4339 
Q 1491 4077 1321 3926 
Q 1152 3776 922 3776 
Q 691 3776 521 3926 
Q 352 4077 352 4339 
Q 352 4602 521 4752 
Q 691 4902 922 4902 
Q 1152 4902 1321 4752 
Q 1491 4602 1491 4339 
z
" transform="scale(0.015625)"/>
       <path id="Ubuntu-Bold-63" d="M 288 1683 
Q 288 2048 406 2371 
Q 525 2694 749 2934 
Q 973 3174 1293 3315 
Q 1613 3456 2022 3456 
Q 2291 3456 2515 3408 
Q 2739 3360 2950 3270 
L 2752 2509 
Q 2618 2560 2458 2598 
Q 2298 2637 2099 2637 
Q 1677 2637 1469 2374 
Q 1261 2112 1261 1683 
Q 1261 1229 1456 979 
Q 1651 730 2138 730 
Q 2310 730 2508 762 
Q 2707 794 2874 864 
L 3008 83 
Q 2842 13 2592 -38 
Q 2342 -90 2042 -90 
Q 1581 -90 1248 48 
Q 915 186 700 422 
Q 486 659 387 982 
Q 288 1306 288 1683 
z
" transform="scale(0.015625)"/>
       <path id="Ubuntu-Bold-74" d="M 416 4205 
L 1370 4358 
L 1370 3366 
L 2515 3366 
L 2515 2573 
L 1370 2573 
L 1370 1389 
Q 1370 1088 1475 909 
Q 1581 730 1901 730 
Q 2054 730 2217 758 
Q 2381 787 2515 838 
L 2650 96 
Q 2477 26 2265 -25 
Q 2054 -77 1747 -77 
Q 1357 -77 1101 28 
Q 845 134 691 323 
Q 538 512 477 781 
Q 416 1050 416 1376 
L 416 4205 
z
" transform="scale(0.015625)"/>
       <path id="Ubuntu-Bold-6f" d="M 3597 1690 
Q 3597 1293 3481 963 
Q 3366 634 3148 400 
Q 2931 166 2627 38 
Q 2323 -90 1946 -90 
Q 1574 -90 1270 38 
Q 966 166 748 400 
Q 531 634 409 963 
Q 288 1293 288 1690 
Q 288 2086 413 2412 
Q 538 2739 758 2969 
Q 979 3200 1283 3328 
Q 1587 3456 1946 3456 
Q 2310 3456 2614 3328 
Q 2918 3200 3136 2969 
Q 3354 2739 3475 2412 
Q 3597 2086 3597 1690 
z
M 2624 1690 
Q 2624 2131 2448 2384 
Q 2272 2637 1946 2637 
Q 1619 2637 1440 2384 
Q 1261 2131 1261 1690 
Q 1261 1248 1440 989 
Q 1619 730 1946 730 
Q 2272 730 2448 989 
Q 2624 1248 2624 1690 
z
" transform="scale(0.015625)"/>
       <path id="Ubuntu-Bold-6e" d="M 448 3251 
Q 691 3322 1075 3382 
Q 1459 3443 1882 3443 
Q 2310 3443 2595 3331 
Q 2880 3219 3046 3014 
Q 3213 2810 3283 2528 
Q 3354 2246 3354 1901 
L 3354 0 
L 2400 0 
L 2400 1786 
Q 2400 2246 2278 2438 
Q 2157 2630 1824 2630 
Q 1722 2630 1606 2620 
Q 1491 2611 1402 2598 
L 1402 0 
L 448 0 
L 448 3251 
z
" transform="scale(0.015625)"/>
      </defs>
      <use xlink:href="#Ubuntu-Bold-46"/>
      <use xlink:href="#Ubuntu-Bold-61" x="55.024994"/>
      <use xlink:href="#Ubuntu-Bold-6c" x="110.324982"/>
      <use xlink:href="#Ubuntu-Bold-73" x="141.924973"/>
      <use xlink:href="#Ubuntu-Bold-65" x="190.424957"/>
      <use xlink:href="#Ubuntu-Bold-20" x="248.824951"/>
      <use xlink:href="#Ubuntu-Bold-46" x="272.824936"/>
      <use xlink:href="#Ubuntu-Bold-72" x="328.22493"/>
      <use xlink:href="#Ubuntu-Bold-61" x="369.424927"/>
      <use xlink:href="#Ubuntu-Bold-75" x="424.724915"/>
      <use xlink:href="#Ubuntu-Bold-64" x="483.624908"/>
      <use xlink:href="#Ubuntu-Bold-20" x="544.024902"/>
      <use xlink:href="#Ubuntu-Bold-50" x="568.024887"/>
      <use xlink:href="#Ubuntu-Bold-72" x="632.424881"/>
      <use xlink:href="#Ubuntu-Bold-65" x="673.624878"/>
      <use xlink:href="#Ubuntu-Bold-64" x="732.024872"/>
      <use xlink:href="#Ubuntu-Bold-69" x="792.424866"/>
      <use xlink:href="#Ubuntu-Bold-63" x="821.32486"/>
      <use xlink:href="#Ubuntu-Bold-74" x="871.324844"/>
      <use xlink:href="#Ubuntu-Bold-69" x="915.724838"/>
      <use xlink:href="#Ubuntu-Bold-6f" x="944.624832"/>
      <use xlink:href="#Ubuntu-Bold-6e" x="1005.324829"/>
      <use xlink:href="#Ubuntu-Bold-73" x="1064.224823"/>
     </g>
    </g>
   </g>
   <g id="matplotlib.axis_2">
    <g id="ytick_1">
     <g id="text_9">
      <!-- 0 -->
      <g style="fill: #757575" transform="translate(32.873438 196.972188) scale(0.08 -0.08)">
       <use xlink:href="#Ubuntu-30"/>
      </g>
     </g>
    </g>
    <g id="ytick_2">
     <g id="text_10">
      <!-- 50 -->
      <g style="fill: #757575" transform="translate(28.360938 176.182187) scale(0.08 -0.08)">
       <defs>
        <path id="Ubuntu-35" d="M 1274 2726 
Q 2240 2688 2691 2304 
Q 3142 1920 3142 1261 
Q 3142 966 3043 716 
Q 2944 467 2742 288 
Q 2541 109 2233 6 
Q 1926 -96 1504 -96 
Q 1338 -96 1165 -70 
Q 992 -45 845 -6 
Q 698 32 582 70 
Q 467 109 416 134 
L 531 653 
Q 640 602 886 518 
Q 1133 435 1491 435 
Q 1779 435 1974 499 
Q 2170 563 2291 672 
Q 2413 781 2467 925 
Q 2522 1069 2522 1229 
Q 2522 1472 2438 1661 
Q 2355 1850 2144 1978 
Q 1933 2106 1581 2173 
Q 1229 2240 691 2240 
Q 730 2554 752 2829 
Q 774 3104 793 3366 
Q 813 3629 825 3888 
Q 838 4147 851 4435 
L 2989 4435 
L 2989 3930 
L 1370 3930 
Q 1363 3834 1350 3670 
Q 1338 3507 1325 3331 
Q 1312 3155 1299 2988 
Q 1286 2822 1274 2726 
z
" transform="scale(0.015625)"/>
       </defs>
       <use xlink:href="#Ubuntu-35"/>
       <use xlink:href="#Ubuntu-30" x="56.399994"/>
      </g>
     </g>
    </g>
    <g id="ytick_3">
     <g id="text_11">
      <!-- 100 -->
      <g style="fill: #757575" transform="translate(23.848438 155.392188) scale(0.08 -0.08)">
       <use xlink:href="#Ubuntu-31"/>
       <use xlink:href="#Ubuntu-30" x="56.399994"/>
       <use xlink:href="#Ubuntu-30" x="112.799988"/>
      </g>
     </g>
    </g>
    <g id="ytick_4">
     <g id="text_12">
      <!-- 150 -->
      <g style="fill: #757575" transform="translate(23.848438 134.602188) scale(0.08 -0.08)">
       <use xlink:href="#Ubuntu-31"/>
       <use xlink:href="#Ubuntu-35" x="56.399994"/>
       <use xlink:href="#Ubuntu-30" x="112.799988"/>
      </g>
     </g>
    </g>
    <g id="ytick_5">
     <g id="text_13">
      <!-- 200 -->
      <g style="fill: #757575" transform="translate(23.848438 113.812188) scale(0.08 -0.08)">
       <use xlink:href="#Ubuntu-32"/>
       <use xlink:href="#Ubuntu-30" x="56.399994"/>
       <use xlink:href="#Ubuntu-30" x="112.799988"/>
      </g>
     </g>
    </g>
    <g id="ytick_6">
     <g id="text_14">
      <!-- 250 -->
      <g style="fill: #757575" transform="translate(23.848438 93.022188) scale(0.08 -0.08)">
       <use xlink:href="#Ubuntu-32"/>
       <use xlink:href="#Ubuntu-35" x="56.399994"/>
       <use xlink:href="#Ubuntu-30" x="112.799988"/>
      </g>
     </g>
    </g>
    <g id="ytick_7">
     <g id="text_15">
      <!-- 300 -->
      <g style="fill: #757575" transform="translate(23.848438 72.232188) scale(0.08 -0.08)">
       <defs>
        <path id="Ubuntu-33" d="M 1446 435 
Q 2016 435 2262 659 
Q 2509 883 2509 1261 
Q 2509 1504 2406 1670 
Q 2304 1837 2137 1936 
Q 1971 2035 1750 2076 
Q 1530 2118 1299 2118 
L 1146 2118 
L 1146 2605 
L 1357 2605 
Q 1517 2605 1686 2637 
Q 1856 2669 1997 2752 
Q 2138 2835 2227 2979 
Q 2317 3123 2317 3341 
Q 2317 3520 2253 3648 
Q 2189 3776 2083 3859 
Q 1978 3942 1840 3977 
Q 1702 4013 1549 4013 
Q 1242 4013 1027 3923 
Q 813 3834 666 3738 
L 435 4192 
Q 512 4243 630 4304 
Q 749 4365 896 4416 
Q 1043 4467 1212 4502 
Q 1382 4538 1568 4538 
Q 1920 4538 2176 4451 
Q 2432 4365 2598 4208 
Q 2765 4051 2848 3836 
Q 2931 3622 2931 3373 
Q 2931 3027 2732 2780 
Q 2534 2534 2253 2406 
Q 2426 2355 2586 2259 
Q 2746 2163 2864 2016 
Q 2982 1869 3056 1677 
Q 3130 1485 3130 1248 
Q 3130 960 3030 713 
Q 2931 467 2723 288 
Q 2515 109 2201 6 
Q 1888 -96 1459 -96 
Q 1293 -96 1117 -70 
Q 941 -45 787 -6 
Q 634 32 518 70 
Q 403 109 352 134 
L 467 653 
Q 576 602 829 518 
Q 1082 435 1446 435 
z
" transform="scale(0.015625)"/>
       </defs>
       <use xlink:href="#Ubuntu-33"/>
       <use xlink:href="#Ubuntu-30" x="56.399994"/>
       <use xlink:href="#Ubuntu-30" x="112.799988"/>
      </g>
     </g>
    </g>
    <g id="ytick_8">
     <g id="text_16">
      <!-- 350 -->
      <g style="fill: #757575" transform="translate(23.848438 51.442187) scale(0.08 -0.08)">
       <use xlink:href="#Ubuntu-33"/>
       <use xlink:href="#Ubuntu-35" x="56.399994"/>
       <use xlink:href="#Ubuntu-30" x="112.799988"/>
      </g>
     </g>
    </g>
    <g id="ytick_9">
     <g id="text_17">
      <!-- 400 -->
      <g style="fill: #757575" transform="translate(23.848438 30.652188) scale(0.08 -0.08)">
       <use xlink:href="#Ubuntu-34"/>
       <use xlink:href="#Ubuntu-30" x="56.399994"/>
       <use xlink:href="#Ubuntu-30" x="112.799988"/>
      </g>
     </g>
    </g>
    <g id="text_18">
     <!-- Missed Fraud Transactions -->
     <g style="fill: #505050" transform="translate(14.183438 140.840156) rotate(-90) scale(0.09 -0.09)">
      <defs>
       <path id="Ubuntu-Bold-4d" d="M 1690 4435 
Q 1805 4224 1955 3913 
Q 2106 3603 2269 3241 
Q 2432 2880 2592 2502 
Q 2752 2125 2893 1792 
Q 3034 2125 3194 2502 
Q 3354 2880 3517 3241 
Q 3680 3603 3830 3913 
Q 3981 4224 4096 4435 
L 5005 4435 
Q 5069 3994 5123 3446 
Q 5178 2899 5219 2307 
Q 5261 1715 5296 1120 
Q 5331 525 5357 0 
L 4384 0 
Q 4365 646 4333 1408 
Q 4301 2170 4237 2944 
Q 4122 2675 3981 2348 
Q 3840 2022 3702 1696 
Q 3565 1370 3437 1072 
Q 3309 774 3219 563 
L 2522 563 
Q 2432 774 2304 1072 
Q 2176 1370 2038 1696 
Q 1901 2022 1760 2348 
Q 1619 2675 1504 2944 
Q 1440 2170 1408 1408 
Q 1376 646 1357 0 
L 384 0 
Q 410 525 445 1120 
Q 480 1715 521 2307 
Q 563 2899 617 3446 
Q 672 3994 736 4435 
L 1690 4435 
z
" transform="scale(0.015625)"/>
       <path id="Ubuntu-Bold-54" d="M 3802 4435 
L 3802 3584 
L 2464 3584 
L 2464 0 
L 1466 0 
L 1466 3584 
L 128 3584 
L 128 4435 
L 3802 4435 
z
" transform="scale(0.015625)"/>
      </defs>
      <use xlink:href="#Ubuntu-Bold-4d"/>
      <use xlink:href="#Ubuntu-Bold-69" x="89.699982"/>
      <use xlink:href="#Ubuntu-Bold-73" x="118.599976"/>
      <use xlink:href="#Ubuntu-Bold-73" x="167.09996"/>
      <use xlink:href="#Ubuntu-Bold-65" x="215.599945"/>
      <use xlink:href="#Ubuntu-Bold-64" x="273.999939"/>
      <use xlink:href="#Ubuntu-Bold-20" x="334.399933"/>
      <use xlink:href="#Ubuntu-Bold-46" x="358.399918"/>
      <use xlink:href="#Ubuntu-Bold-72" x="413.799911"/>
      <use xlink:href="#Ubuntu-Bold-61" x="454.999908"/>
      <use xlink:href="#Ubuntu-Bold-75" x="510.299896"/>
      <use xlink:href="#Ubuntu-Bold-64" x="569.19989"/>
      <use xlink:href="#Ubuntu-Bold-20" x="629.599884"/>
      <use xlink:href="#Ubuntu-Bold-54" x="653.599869"/>
      <use xlink:href="#Ubuntu-Bold-72" x="708.124863"/>
      <use xlink:href="#Ubuntu-Bold-61" x="749.32486"/>
      <use xlink:href="#Ubuntu-Bold-6e" x="804.624847"/>
      <use xlink:href="#Ubuntu-Bold-73" x="863.524841"/>
      <use xlink:href="#Ubuntu-Bold-61" x="912.024826"/>
      <use xlink:href="#Ubuntu-Bold-63" x="967.324814"/>
      <use xlink:href="#Ubuntu-Bold-74" x="1017.324799"/>
      <use xlink:href="#Ubuntu-Bold-69" x="1061.724792"/>
      <use xlink:href="#Ubuntu-Bold-6f" x="1090.624786"/>
      <use xlink:href="#Ubuntu-Bold-6e" x="1151.324783"/>
      <use xlink:href="#Ubuntu-Bold-73" x="1210.224777"/>
     </g>
    </g>
   </g>
   <g id="PolyCollection_1"/>
   <g id="PathCollection_1">
    <path d="M 44.233938 134.165365 
C 45.382301 134.165365 46.483784 133.709115 47.2958 132.8971 
C 48.107815 132.085084 48.564065 130.983601 48.564065 129.835238 
C 48.564065 128.686874 48.107815 127.585391 47.2958 126.773375 
C 46.483784 125.96136 45.382301 125.50511 44.233938 125.50511 
C 43.085574 125.50511 41.984091 125.96136 41.172075 126.773375 
C 40.36006 127.585391 39.90381 128.686874 39.90381 129.835238 
C 39.90381 130.983601 40.36006 132.085084 41.172075 132.8971 
C 41.984091 133.709115 43.085574 134.165365 44.233938 134.165365 
L 44.233938 134.165365 
z
" clip-path="url(#p6dc811019b)" style="fill: none; stroke: #505050; stroke-width: 1.5"/>
   </g>
   <g id="patch_3">
    <path d="M 42.001938 148.130438 
L 105.241938 148.130438 
L 105.241938 119.024438 
L 42.001938 119.024438 
L 42.001938 148.130438 
z
" clip-path="url(#p6dc811019b)" style="fill: none; stroke-dasharray: 2.775,1.2; stroke-dashoffset: 0; stroke: #505050; stroke-width: 0.75; stroke-linejoin: miter"/>
   </g>
   <g id="line2d_1">
    <path d="M 40.885938 35.448638 
L 45.297331 130.244962 
L 49.708725 131.66147 
L 54.120119 135.365634 
L 58.531513 137.36888 
L 62.942907 139.155749 
L 67.354301 140.394529 
L 71.765695 140.965179 
L 76.177089 141.275638 
L 80.588483 141.472858 
L 84.999877 141.692808 
L 89.411271 141.936742 
L 93.822665 142.178796 
L 98.234059 142.406693 
L 102.645453 142.620431 
L 107.056847 142.820012 
L 111.468241 143.005434 
L 115.879634 143.177094 
L 120.291028 143.335494 
L 124.702422 143.480638 
L 129.113816 143.612526 
L 133.52521 143.731156 
L 137.936604 143.83653 
L 142.347998 143.928648 
L 146.759392 144.007508 
L 151.170786 144.073112 
L 155.58218 144.125459 
L 159.993574 144.16455 
L 164.404968 144.191851 
L 168.816362 144.217429 
L 173.227756 144.243192 
L 177.63915 144.26914 
L 182.050544 144.295272 
L 186.461938 144.32159 
L 190.873331 144.348092 
L 195.284725 144.374779 
L 199.696119 144.401651 
L 204.107513 144.428708 
L 208.518907 144.455949 
L 212.930301 144.483376 
L 217.341695 144.510987 
L 221.753089 144.538783 
L 226.164483 144.566764 
L 230.575877 144.59493 
L 234.987271 144.623281 
L 239.398665 144.651816 
L 243.810059 144.680537 
L 248.221453 144.709442 
L 252.632847 144.738532 
L 257.044241 144.767807 
L 261.455634 144.797267 
L 265.867028 144.826912 
L 270.278422 144.856741 
L 274.689816 144.886756 
L 279.10121 144.916955 
L 283.512604 144.947339 
L 287.923998 144.977908 
L 292.335392 145.008661 
L 296.746786 145.0396 
L 301.15818 145.070724 
L 305.569574 145.102032 
L 309.980968 145.133525 
L 314.392362 145.165203 
L 318.803756 145.197066 
L 323.21515 145.229114 
L 327.626544 145.261346 
L 332.037937 145.293763 
L 336.449331 145.326366 
L 340.860725 145.359153 
L 345.272119 145.392125 
L 349.683513 145.425282 
L 354.094907 145.458623 
L 358.506301 145.49215 
L 362.917695 145.525861 
L 367.329089 145.559757 
L 371.740483 145.593838 
L 376.151877 145.628104 
L 380.563271 145.662555 
L 384.974665 145.69719 
L 389.386059 145.732011 
L 393.797453 145.767016 
L 398.208847 145.802206 
L 402.620241 145.837581 
L 407.031634 145.873141 
L 411.443028 145.908886 
L 415.854422 145.944815 
L 420.265816 145.98093 
L 424.67721 146.017229 
L 429.088604 146.053713 
L 433.499998 146.090382 
L 437.911392 146.127235 
L 442.322786 146.164274 
L 446.73418 146.201498 
L 451.145574 146.238906 
L 455.556968 146.276499 
L 459.968362 146.314277 
L 464.379756 146.35224 
L 468.79115 146.390388 
L 473.202544 146.42872 
L 477.613938 146.467238 
" clip-path="url(#p6dc811019b)" style="fill: none; stroke: #4682b4; stroke-width: 1.5; stroke-linecap: square"/>
   </g>
   <g id="patch_4">
    <path d="M 40.885938 193.868438 
L 40.885938 27.548438 
" style="fill: none; stroke: #bbbbbb; stroke-linejoin: miter; stroke-linecap: square"/>
   </g>
   <g id="patch_5">
    <path d="M 40.885938 193.868438 
L 487.285937 193.868438 
" style="fill: none; stroke: #bbbbbb; stroke-linejoin: miter; stroke-linecap: square"/>
   </g>
   <g id="legend_1">
    <g id="PathCollection_2">
     <path d="M 57.985938 18.956471 
C 58.923572 18.956471 59.82293 18.583945 60.485938 17.920938 
C 61.148945 17.25793 61.521471 16.358572 61.521471 15.420938 
C 61.521471 14.483303 61.148945 13.583945 60.485938 12.920938 
C 59.82293 12.25793 58.923572 11.885404 57.985938 11.885404 
C 57.048303 11.885404 56.148945 12.25793 55.485938 12.920938 
C 54.82293 13.583945 54.450404 14.483303 54.450404 15.420938 
C 54.450404 16.358572 54.82293 17.25793 55.485938 17.920938 
C 56.148945 18.583945 57.048303 18.956471 57.985938 18.956471 
L 57.985938 18.956471 
z
" style="fill: none; stroke: #505050; stroke-width: 1.5"/>
    </g>
    <g id="text_19">
     <!-- Optimal Threshold -->
     <g style="fill: #4b4b4b" transform="translate(74.185938 17.783438) scale(0.09 -0.09)">
      <defs>
       <path id="Ubuntu-4f" d="M 371 2221 
Q 371 2790 540 3225 
Q 710 3661 1001 3952 
Q 1293 4243 1680 4390 
Q 2067 4538 2502 4538 
Q 2931 4538 3312 4390 
Q 3693 4243 3981 3952 
Q 4269 3661 4438 3225 
Q 4608 2790 4608 2221 
Q 4608 1651 4438 1216 
Q 4269 781 3981 489 
Q 3693 198 3312 51 
Q 2931 -96 2502 -96 
Q 2067 -96 1680 51 
Q 1293 198 1001 489 
Q 710 781 540 1216 
Q 371 1651 371 2221 
z
M 1024 2221 
Q 1024 1818 1126 1488 
Q 1229 1158 1417 928 
Q 1606 698 1878 573 
Q 2150 448 2490 448 
Q 2829 448 3097 573 
Q 3366 698 3555 928 
Q 3744 1158 3846 1488 
Q 3949 1818 3949 2221 
Q 3949 2624 3846 2953 
Q 3744 3283 3555 3513 
Q 3366 3744 3097 3869 
Q 2829 3994 2490 3994 
Q 2150 3994 1878 3869 
Q 1606 3744 1417 3513 
Q 1229 3283 1126 2953 
Q 1024 2624 1024 2221 
z
" transform="scale(0.015625)"/>
       <path id="Ubuntu-70" d="M 2822 1658 
Q 2822 2240 2534 2553 
Q 2246 2867 1766 2867 
Q 1498 2867 1347 2848 
Q 1197 2829 1107 2803 
L 1107 704 
Q 1216 614 1421 531 
Q 1626 448 1869 448 
Q 2125 448 2307 541 
Q 2490 634 2605 797 
Q 2720 960 2771 1181 
Q 2822 1402 2822 1658 
z
M 3443 1658 
Q 3443 1280 3344 960 
Q 3245 640 3053 409 
Q 2861 179 2582 51 
Q 2304 -77 1946 -77 
Q 1658 -77 1437 0 
Q 1216 77 1107 147 
L 1107 -1184 
L 512 -1184 
L 512 3226 
Q 723 3277 1040 3337 
Q 1357 3398 1773 3398 
Q 2157 3398 2464 3276 
Q 2771 3155 2988 2931 
Q 3206 2707 3324 2384 
Q 3443 2061 3443 1658 
z
" transform="scale(0.015625)"/>
       <path id="Ubuntu-74" d="M 1069 3328 
L 2330 3328 
L 2330 2829 
L 1069 2829 
L 1069 1293 
Q 1069 1043 1107 880 
Q 1146 717 1222 624 
Q 1299 531 1414 492 
Q 1530 454 1683 454 
Q 1952 454 2115 515 
Q 2278 576 2342 602 
L 2458 109 
Q 2368 64 2144 -3 
Q 1920 -70 1632 -70 
Q 1293 -70 1072 16 
Q 851 102 716 275 
Q 582 448 528 701 
Q 474 954 474 1286 
L 474 4256 
L 1069 4358 
L 1069 3328 
z
" transform="scale(0.015625)"/>
       <path id="Ubuntu-69" d="M 1107 0 
L 512 0 
L 512 3328 
L 1107 3328 
L 1107 0 
z
M 806 3930 
Q 646 3930 534 4035 
Q 422 4141 422 4320 
Q 422 4499 534 4604 
Q 646 4710 806 4710 
Q 966 4710 1078 4604 
Q 1190 4499 1190 4320 
Q 1190 4141 1078 4035 
Q 966 3930 806 3930 
z
" transform="scale(0.015625)"/>
       <path id="Ubuntu-6d" d="M 512 3232 
Q 717 3283 1053 3340 
Q 1389 3398 1830 3398 
Q 2150 3398 2368 3312 
Q 2586 3226 2733 3059 
Q 2778 3091 2874 3148 
Q 2970 3206 3110 3260 
Q 3251 3315 3424 3356 
Q 3597 3398 3795 3398 
Q 4179 3398 4422 3286 
Q 4666 3174 4803 2969 
Q 4941 2765 4989 2483 
Q 5037 2202 5037 1869 
L 5037 0 
L 4442 0 
L 4442 1741 
Q 4442 2035 4413 2246 
Q 4384 2458 4304 2598 
Q 4224 2739 4086 2806 
Q 3949 2874 3731 2874 
Q 3430 2874 3235 2794 
Q 3040 2714 2970 2650 
Q 3021 2483 3046 2284 
Q 3072 2086 3072 1869 
L 3072 0 
L 2477 0 
L 2477 1741 
Q 2477 2035 2445 2246 
Q 2413 2458 2333 2598 
Q 2253 2739 2115 2806 
Q 1978 2874 1766 2874 
Q 1677 2874 1574 2867 
Q 1472 2861 1379 2851 
Q 1286 2842 1209 2829 
Q 1133 2816 1107 2810 
L 1107 0 
L 512 0 
L 512 3232 
z
" transform="scale(0.015625)"/>
       <path id="Ubuntu-61" d="M 1638 429 
Q 1850 429 2013 438 
Q 2176 448 2285 474 
L 2285 1466 
Q 2221 1498 2077 1520 
Q 1933 1542 1728 1542 
Q 1594 1542 1443 1523 
Q 1293 1504 1168 1443 
Q 1043 1382 960 1276 
Q 877 1171 877 998 
Q 877 678 1081 553 
Q 1286 429 1638 429 
z
M 1587 3411 
Q 1946 3411 2192 3318 
Q 2438 3226 2588 3056 
Q 2739 2886 2803 2652 
Q 2867 2419 2867 2138 
L 2867 58 
Q 2790 45 2652 22 
Q 2515 0 2342 -19 
Q 2170 -38 1968 -54 
Q 1766 -70 1568 -70 
Q 1286 -70 1049 -12 
Q 813 45 640 169 
Q 467 294 371 499 
Q 275 704 275 992 
Q 275 1267 387 1465 
Q 499 1664 691 1785 
Q 883 1907 1139 1964 
Q 1395 2022 1677 2022 
Q 1766 2022 1862 2012 
Q 1958 2003 2044 1987 
Q 2131 1971 2195 1958 
Q 2259 1946 2285 1939 
L 2285 2106 
Q 2285 2253 2253 2397 
Q 2221 2541 2137 2653 
Q 2054 2765 1910 2832 
Q 1766 2899 1536 2899 
Q 1242 2899 1021 2857 
Q 800 2816 691 2771 
L 621 3264 
Q 736 3315 1005 3363 
Q 1274 3411 1587 3411 
z
" transform="scale(0.015625)"/>
       <path id="Ubuntu-6c" d="M 1510 -64 
Q 960 -51 729 173 
Q 499 397 499 870 
L 499 4864 
L 1094 4966 
L 1094 966 
Q 1094 819 1120 723 
Q 1146 627 1203 569 
Q 1261 512 1357 483 
Q 1453 454 1594 435 
L 1510 -64 
z
" transform="scale(0.015625)"/>
       <path id="Ubuntu-20" transform="scale(0.015625)"/>
       <path id="Ubuntu-54" d="M 3514 4435 
L 3514 3898 
L 2118 3898 
L 2118 0 
L 1498 0 
L 1498 3898 
L 102 3898 
L 102 4435 
L 3514 4435 
z
" transform="scale(0.015625)"/>
       <path id="Ubuntu-68" d="M 512 0 
L 512 4864 
L 1107 4966 
L 1107 3264 
Q 1274 3328 1462 3363 
Q 1651 3398 1837 3398 
Q 2234 3398 2496 3286 
Q 2758 3174 2915 2972 
Q 3072 2771 3136 2489 
Q 3200 2208 3200 1869 
L 3200 0 
L 2605 0 
L 2605 1741 
Q 2605 2048 2563 2265 
Q 2522 2483 2426 2617 
Q 2330 2752 2170 2813 
Q 2010 2874 1773 2874 
Q 1677 2874 1574 2861 
Q 1472 2848 1379 2832 
Q 1286 2816 1212 2797 
Q 1139 2778 1107 2765 
L 1107 0 
L 512 0 
z
" transform="scale(0.015625)"/>
       <path id="Ubuntu-72" d="M 1741 3398 
Q 1818 3398 1917 3388 
Q 2016 3379 2112 3363 
Q 2208 3347 2288 3331 
Q 2368 3315 2406 3302 
L 2304 2784 
Q 2234 2810 2070 2845 
Q 1907 2880 1651 2880 
Q 1485 2880 1321 2845 
Q 1158 2810 1107 2797 
L 1107 0 
L 512 0 
L 512 3187 
Q 723 3264 1036 3331 
Q 1350 3398 1741 3398 
z
" transform="scale(0.015625)"/>
       <path id="Ubuntu-65" d="M 326 1658 
Q 326 2099 454 2428 
Q 582 2758 793 2976 
Q 1005 3194 1280 3302 
Q 1555 3411 1843 3411 
Q 2515 3411 2873 2992 
Q 3232 2573 3232 1715 
Q 3232 1677 3232 1616 
Q 3232 1555 3226 1504 
L 947 1504 
Q 986 986 1248 717 
Q 1510 448 2067 448 
Q 2381 448 2595 502 
Q 2810 557 2918 608 
L 3002 109 
Q 2893 51 2621 -13 
Q 2349 -77 2003 -77 
Q 1568 -77 1251 54 
Q 934 186 729 416 
Q 525 646 425 963 
Q 326 1280 326 1658 
z
M 2611 1984 
Q 2618 2387 2410 2646 
Q 2202 2906 1837 2906 
Q 1632 2906 1475 2826 
Q 1318 2746 1209 2618 
Q 1101 2490 1040 2323 
Q 979 2157 960 1984 
L 2611 1984 
z
" transform="scale(0.015625)"/>
       <path id="Ubuntu-73" d="M 1286 429 
Q 1651 429 1827 525 
Q 2003 621 2003 832 
Q 2003 1050 1830 1178 
Q 1658 1306 1261 1466 
Q 1069 1542 893 1622 
Q 717 1702 589 1811 
Q 461 1920 384 2073 
Q 307 2227 307 2451 
Q 307 2893 633 3152 
Q 960 3411 1523 3411 
Q 1664 3411 1805 3395 
Q 1946 3379 2067 3356 
Q 2189 3334 2281 3308 
Q 2374 3283 2426 3264 
L 2317 2752 
Q 2221 2803 2016 2857 
Q 1811 2912 1523 2912 
Q 1274 2912 1088 2813 
Q 902 2714 902 2502 
Q 902 2394 944 2310 
Q 986 2227 1072 2160 
Q 1158 2093 1286 2035 
Q 1414 1978 1594 1914 
Q 1830 1824 2016 1737 
Q 2202 1651 2333 1536 
Q 2464 1421 2534 1257 
Q 2605 1094 2605 858 
Q 2605 397 2262 160 
Q 1920 -77 1286 -77 
Q 845 -77 595 -3 
Q 346 70 256 109 
L 365 621 
Q 467 582 691 505 
Q 915 429 1286 429 
z
" transform="scale(0.015625)"/>
       <path id="Ubuntu-6f" d="M 3450 1664 
Q 3450 1267 3334 947 
Q 3219 627 3011 396 
Q 2803 166 2515 41 
Q 2227 -83 1888 -83 
Q 1549 -83 1261 41 
Q 973 166 765 396 
Q 557 627 441 947 
Q 326 1267 326 1664 
Q 326 2054 441 2377 
Q 557 2701 765 2931 
Q 973 3162 1261 3286 
Q 1549 3411 1888 3411 
Q 2227 3411 2515 3286 
Q 2803 3162 3011 2931 
Q 3219 2701 3334 2377 
Q 3450 2054 3450 1664 
z
M 2829 1664 
Q 2829 2227 2576 2556 
Q 2323 2886 1888 2886 
Q 1453 2886 1200 2556 
Q 947 2227 947 1664 
Q 947 1101 1200 771 
Q 1453 442 1888 442 
Q 2323 442 2576 771 
Q 2829 1101 2829 1664 
z
" transform="scale(0.015625)"/>
       <path id="Ubuntu-64" d="M 2662 2624 
Q 2554 2714 2349 2797 
Q 2144 2880 1901 2880 
Q 1645 2880 1462 2787 
Q 1280 2694 1165 2531 
Q 1050 2368 998 2144 
Q 947 1920 947 1664 
Q 947 1082 1235 765 
Q 1523 448 2003 448 
Q 2246 448 2409 470 
Q 2573 493 2662 518 
L 2662 2624 
z
M 2662 4864 
L 3258 4966 
L 3258 96 
Q 3053 38 2733 -19 
Q 2413 -77 1997 -77 
Q 1613 -77 1305 44 
Q 998 166 780 390 
Q 563 614 444 937 
Q 326 1261 326 1664 
Q 326 2048 425 2368 
Q 525 2688 717 2918 
Q 909 3149 1187 3277 
Q 1466 3405 1824 3405 
Q 2112 3405 2333 3328 
Q 2554 3251 2662 3181 
L 2662 4864 
z
" transform="scale(0.015625)"/>
      </defs>
      <use xlink:href="#Ubuntu-4f"/>
      <use xlink:href="#Ubuntu-70" x="77.799988"/>
      <use xlink:href="#Ubuntu-74" x="136.699982"/>
      <use xlink:href="#Ubuntu-69" x="176.899979"/>
      <use xlink:href="#Ubuntu-6d" x="202.199966"/>
      <use xlink:href="#Ubuntu-61" x="288.299957"/>
      <use xlink:href="#Ubuntu-6c" x="340.499954"/>
      <use xlink:href="#Ubuntu-20" x="367.799942"/>
      <use xlink:href="#Ubuntu-54" x="390.899933"/>
      <use xlink:href="#Ubuntu-68" x="447.399918"/>
      <use xlink:href="#Ubuntu-72" x="504.499908"/>
      <use xlink:href="#Ubuntu-65" x="543.099899"/>
      <use xlink:href="#Ubuntu-73" x="598.999893"/>
      <use xlink:href="#Ubuntu-68" x="643.599884"/>
      <use xlink:href="#Ubuntu-6f" x="700.699875"/>
      <use xlink:href="#Ubuntu-6c" x="759.69986"/>
      <use xlink:href="#Ubuntu-64" x="786.999847"/>
     </g>
    </g>
   </g>
  </g>
 </g>
 <defs>
  <clipPath id="p6dc811019b">
   <rect x="40.885938" y="27.548438" width="446.4" height="166.32"/>
  </clipPath>
 </defs>
</svg>
