<?xml version="1.0" encoding="utf-8" standalone="no"?>
<!DOCTYPE svg PUBLIC "-//W3C//DTD SVG 1.1//EN"
  "http://www.w3.org/Graphics/SVG/1.1/DTD/svg11.dtd">
<svg xmlns:xlink="http://www.w3.org/1999/xlink" width="476.436406pt" height="216.8255pt" viewBox="0 0 476.436406 216.8255" xmlns="http://www.w3.org/2000/svg" version="1.1">
 <metadata>
  <rdf:RDF xmlns:dc="http://purl.org/dc/elements/1.1/" xmlns:cc="http://creativecommons.org/ns#" xmlns:rdf="http://www.w3.org/1999/02/22-rdf-syntax-ns#">
   <cc:Work>
    <dc:type rdf:resource="http://purl.org/dc/dcmitype/StillImage"/>
    <dc:date>2024-04-16T14:49:59.744657</dc:date>
    <dc:format>image/svg+xml</dc:format>
    <dc:creator>
     <cc:Agent>
      <dc:title>Matplotlib v3.7.3, https://matplotlib.org/</dc:title>
     </cc:Agent>
    </dc:creator>
   </cc:Work>
  </rdf:RDF>
 </metadata>
 <defs>
  <style type="text/css">*{stroke-linejoin: round; stroke-linecap: butt}</style>
 </defs>
 <g id="figure_1">
  <g id="patch_1">
   <path d="M 0 216.8255 
L 476.436406 216.8255 
L 476.436406 0 
L 0 0 
L 0 216.8255 
z
" style="fill: none"/>
  </g>
  <g id="axes_1">
   <g id="patch_2">
    <path d="M 22.836406 209.6255 
L 469.236406 209.6255 
L 469.236406 15.5855 
L 22.836406 15.5855 
L 22.836406 209.6255 
z
" style="fill: none"/>
   </g>
   <g id="matplotlib.axis_1">
    <g id="xtick_1"/>
    <g id="xtick_2"/>
    <g id="xtick_3"/>
    <g id="xtick_4"/>
    <g id="xtick_5"/>
    <g id="xtick_6"/>
    <g id="text_1">
     <!-- Time -->
     <g style="fill: #5b5b5b" transform="translate(234.290312 205.384875) scale(0.1 -0.1)">
      <defs>
       <path id="Ubuntu-Bold-54" d="M 3802 4435 
L 3802 3584 
L 2464 3584 
L 2464 0 
L 1466 0 
L 1466 3584 
L 128 3584 
L 128 4435 
L 3802 4435 
z
" transform="scale(0.015625)"/>
       <path id="Ubuntu-Bold-69" d="M 1402 0 
L 448 0 
L 448 3366 
L 1402 3366 
L 1402 0 
z
M 1491 4339 
Q 1491 4077 1321 3926 
Q 1152 3776 922 3776 
Q 691 3776 521 3926 
Q 352 4077 352 4339 
Q 352 4602 521 4752 
Q 691 4902 922 4902 
Q 1152 4902 1321 4752 
Q 1491 4602 1491 4339 
z
" transform="scale(0.015625)"/>
       <path id="Ubuntu-Bold-6d" d="M 2298 1786 
Q 2298 2246 2179 2438 
Q 2061 2630 1773 2630 
Q 1683 2630 1587 2620 
Q 1491 2611 1402 2598 
L 1402 0 
L 448 0 
L 448 3251 
Q 570 3283 733 3318 
Q 896 3354 1078 3382 
Q 1261 3411 1453 3427 
Q 1645 3443 1830 3443 
Q 2195 3443 2422 3350 
Q 2650 3258 2797 3130 
Q 3002 3277 3267 3360 
Q 3533 3443 3757 3443 
Q 4160 3443 4419 3331 
Q 4678 3219 4832 3014 
Q 4986 2810 5043 2528 
Q 5101 2246 5101 1901 
L 5101 0 
L 4147 0 
L 4147 1786 
Q 4147 2246 4028 2438 
Q 3910 2630 3622 2630 
Q 3546 2630 3408 2592 
Q 3270 2554 3181 2496 
Q 3226 2349 3238 2185 
Q 3251 2022 3251 1837 
L 3251 0 
L 2298 0 
L 2298 1786 
z
" transform="scale(0.015625)"/>
       <path id="Ubuntu-Bold-65" d="M 288 1658 
Q 288 2106 425 2442 
Q 563 2778 787 3002 
Q 1011 3226 1302 3341 
Q 1594 3456 1901 3456 
Q 2618 3456 3034 3017 
Q 3450 2579 3450 1728 
Q 3450 1645 3443 1545 
Q 3437 1446 3430 1370 
L 1267 1370 
Q 1299 1075 1542 902 
Q 1786 730 2195 730 
Q 2458 730 2710 778 
Q 2963 826 3123 896 
L 3251 122 
Q 3174 83 3046 44 
Q 2918 6 2761 -22 
Q 2605 -51 2425 -70 
Q 2246 -90 2067 -90 
Q 1613 -90 1277 44 
Q 941 179 720 412 
Q 499 646 393 966 
Q 288 1286 288 1658 
z
M 2528 2022 
Q 2522 2144 2486 2259 
Q 2451 2374 2377 2464 
Q 2304 2554 2192 2611 
Q 2080 2669 1914 2669 
Q 1754 2669 1638 2614 
Q 1523 2560 1446 2470 
Q 1370 2381 1328 2262 
Q 1286 2144 1267 2022 
L 2528 2022 
z
" transform="scale(0.015625)"/>
      </defs>
      <use xlink:href="#Ubuntu-Bold-54"/>
      <use xlink:href="#Ubuntu-Bold-69" x="61.399994"/>
      <use xlink:href="#Ubuntu-Bold-6d" x="90.299988"/>
      <use xlink:href="#Ubuntu-Bold-65" x="176.499969"/>
     </g>
    </g>
   </g>
   <g id="matplotlib.axis_2">
    <g id="ytick_1"/>
    <g id="ytick_2">
     <g id="text_2">
      <!-- Fold K -->
      <g style="fill: #5b5b5b" transform="translate(7.2 164.607219) scale(0.09 -0.09)">
       <defs>
        <path id="Ubuntu-Bold-46" d="M 512 0 
L 512 4435 
L 3482 4435 
L 3482 3597 
L 1510 3597 
L 1510 2669 
L 3264 2669 
L 3264 1830 
L 1510 1830 
L 1510 0 
L 512 0 
z
" transform="scale(0.015625)"/>
        <path id="Ubuntu-Bold-6f" d="M 3597 1690 
Q 3597 1293 3481 963 
Q 3366 634 3148 400 
Q 2931 166 2627 38 
Q 2323 -90 1946 -90 
Q 1574 -90 1270 38 
Q 966 166 748 400 
Q 531 634 409 963 
Q 288 1293 288 1690 
Q 288 2086 413 2412 
Q 538 2739 758 2969 
Q 979 3200 1283 3328 
Q 1587 3456 1946 3456 
Q 2310 3456 2614 3328 
Q 2918 3200 3136 2969 
Q 3354 2739 3475 2412 
Q 3597 2086 3597 1690 
z
M 2624 1690 
Q 2624 2131 2448 2384 
Q 2272 2637 1946 2637 
Q 1619 2637 1440 2384 
Q 1261 2131 1261 1690 
Q 1261 1248 1440 989 
Q 1619 730 1946 730 
Q 2272 730 2448 989 
Q 2624 1248 2624 1690 
z
" transform="scale(0.015625)"/>
        <path id="Ubuntu-Bold-6c" d="M 1792 -64 
Q 1376 -58 1117 25 
Q 858 109 707 259 
Q 557 410 502 624 
Q 448 838 448 1107 
L 448 4813 
L 1402 4966 
L 1402 1299 
Q 1402 1171 1421 1068 
Q 1440 966 1494 896 
Q 1549 826 1651 781 
Q 1754 736 1926 723 
L 1792 -64 
z
" transform="scale(0.015625)"/>
        <path id="Ubuntu-Bold-64" d="M 1261 1709 
Q 1261 1267 1459 998 
Q 1658 730 2048 730 
Q 2176 730 2285 739 
Q 2394 749 2464 762 
L 2464 2496 
Q 2374 2554 2230 2592 
Q 2086 2630 1939 2630 
Q 1261 2630 1261 1709 
z
M 3418 109 
Q 3290 70 3123 35 
Q 2957 0 2774 -25 
Q 2592 -51 2403 -67 
Q 2214 -83 2042 -83 
Q 1626 -83 1299 38 
Q 973 160 749 387 
Q 525 614 406 937 
Q 288 1261 288 1664 
Q 288 2074 390 2403 
Q 493 2733 685 2963 
Q 877 3194 1155 3315 
Q 1434 3437 1792 3437 
Q 1990 3437 2147 3398 
Q 2304 3360 2464 3290 
L 2464 4813 
L 3418 4966 
L 3418 109 
z
" transform="scale(0.015625)"/>
        <path id="Ubuntu-Bold-20" transform="scale(0.015625)"/>
        <path id="Ubuntu-Bold-4b" d="M 3130 0 
Q 2995 218 2812 470 
Q 2630 723 2416 976 
Q 2202 1229 1971 1462 
Q 1741 1696 1510 1875 
L 1510 0 
L 512 0 
L 512 4435 
L 1510 4435 
L 1510 2758 
Q 1901 3168 2294 3613 
Q 2688 4058 3027 4435 
L 4211 4435 
Q 3757 3898 3299 3398 
Q 2842 2899 2336 2394 
Q 2867 1952 3363 1344 
Q 3859 736 4314 0 
L 3130 0 
z
" transform="scale(0.015625)"/>
       </defs>
       <use xlink:href="#Ubuntu-Bold-46"/>
       <use xlink:href="#Ubuntu-Bold-6f" x="56.399994"/>
       <use xlink:href="#Ubuntu-Bold-6c" x="117.099991"/>
       <use xlink:href="#Ubuntu-Bold-64" x="148.699982"/>
       <use xlink:href="#Ubuntu-Bold-20" x="209.099976"/>
       <use xlink:href="#Ubuntu-Bold-4b" x="233.09996"/>
      </g>
     </g>
    </g>
    <g id="ytick_3"/>
    <g id="ytick_4">
     <g id="text_3">
      <!-- Fold 4 -->
      <g style="fill: #5b5b5b" transform="translate(8.244844 116.097219) scale(0.09 -0.09)">
       <defs>
        <path id="Ubuntu-Bold-34" d="M 2042 3270 
Q 1792 2944 1510 2560 
Q 1229 2176 1037 1773 
L 2042 1773 
L 2042 3270 
z
M 2976 4435 
L 2976 1773 
L 3450 1773 
L 3450 992 
L 2976 992 
L 2976 0 
L 2042 0 
L 2042 992 
L 128 992 
L 128 1690 
Q 269 1971 480 2326 
Q 691 2682 950 3056 
Q 1210 3430 1498 3788 
Q 1786 4147 2074 4435 
L 2976 4435 
z
" transform="scale(0.015625)"/>
       </defs>
       <use xlink:href="#Ubuntu-Bold-46"/>
       <use xlink:href="#Ubuntu-Bold-6f" x="56.399994"/>
       <use xlink:href="#Ubuntu-Bold-6c" x="117.099991"/>
       <use xlink:href="#Ubuntu-Bold-64" x="148.699982"/>
       <use xlink:href="#Ubuntu-Bold-20" x="209.099976"/>
       <use xlink:href="#Ubuntu-Bold-34" x="233.09996"/>
      </g>
     </g>
    </g>
    <g id="ytick_5">
     <g id="text_4">
      <!-- Fold 3 -->
      <g style="fill: #5b5b5b" transform="translate(8.244844 91.842219) scale(0.09 -0.09)">
       <defs>
        <path id="Ubuntu-Bold-33" d="M 1459 -96 
Q 1286 -96 1094 -73 
Q 902 -51 723 -12 
Q 544 26 397 70 
Q 250 115 166 154 
L 352 947 
Q 518 877 777 797 
Q 1037 717 1421 717 
Q 1862 717 2067 883 
Q 2272 1050 2272 1331 
Q 2272 1504 2198 1622 
Q 2125 1741 1997 1814 
Q 1869 1888 1693 1917 
Q 1517 1946 1318 1946 
L 947 1946 
L 947 2714 
L 1370 2714 
Q 1510 2714 1641 2739 
Q 1773 2765 1875 2825 
Q 1978 2886 2038 2992 
Q 2099 3098 2099 3258 
Q 2099 3379 2048 3468 
Q 1997 3558 1917 3616 
Q 1837 3674 1731 3702 
Q 1626 3731 1517 3731 
Q 1242 3731 1008 3648 
Q 774 3565 582 3443 
L 243 4141 
Q 346 4205 483 4275 
Q 621 4346 787 4403 
Q 954 4461 1142 4499 
Q 1331 4538 1542 4538 
Q 1933 4538 2217 4445 
Q 2502 4352 2688 4182 
Q 2874 4013 2963 3785 
Q 3053 3558 3053 3290 
Q 3053 3027 2905 2780 
Q 2758 2534 2509 2406 
Q 2854 2266 3043 1987 
Q 3232 1709 3232 1318 
Q 3232 1011 3129 752 
Q 3027 493 2809 304 
Q 2592 115 2256 9 
Q 1920 -96 1459 -96 
z
" transform="scale(0.015625)"/>
       </defs>
       <use xlink:href="#Ubuntu-Bold-46"/>
       <use xlink:href="#Ubuntu-Bold-6f" x="56.399994"/>
       <use xlink:href="#Ubuntu-Bold-6c" x="117.099991"/>
       <use xlink:href="#Ubuntu-Bold-64" x="148.699982"/>
       <use xlink:href="#Ubuntu-Bold-20" x="209.099976"/>
       <use xlink:href="#Ubuntu-Bold-33" x="233.09996"/>
      </g>
     </g>
    </g>
    <g id="ytick_6">
     <g id="text_5">
      <!-- Fold 2 -->
      <g style="fill: #5b5b5b" transform="translate(8.244844 67.587219) scale(0.09 -0.09)">
       <defs>
        <path id="Ubuntu-Bold-32" d="M 3174 3270 
Q 3174 3027 3078 2803 
Q 2982 2579 2828 2371 
Q 2675 2163 2483 1971 
Q 2291 1779 2106 1606 
Q 2010 1517 1898 1405 
Q 1786 1293 1683 1177 
Q 1581 1062 1501 963 
Q 1421 864 1402 800 
L 3309 800 
L 3309 0 
L 352 0 
Q 339 70 339 179 
Q 339 288 339 333 
Q 339 640 438 896 
Q 538 1152 698 1373 
Q 858 1594 1059 1786 
Q 1261 1978 1459 2170 
Q 1613 2317 1747 2448 
Q 1882 2579 1984 2704 
Q 2086 2829 2144 2953 
Q 2202 3078 2202 3206 
Q 2202 3488 2042 3603 
Q 1882 3718 1645 3718 
Q 1472 3718 1321 3664 
Q 1171 3610 1046 3536 
Q 922 3462 832 3388 
Q 742 3315 698 3270 
L 224 3936 
Q 506 4198 880 4368 
Q 1254 4538 1683 4538 
Q 2074 4538 2355 4448 
Q 2637 4358 2819 4195 
Q 3002 4032 3088 3798 
Q 3174 3565 3174 3270 
z
" transform="scale(0.015625)"/>
       </defs>
       <use xlink:href="#Ubuntu-Bold-46"/>
       <use xlink:href="#Ubuntu-Bold-6f" x="56.399994"/>
       <use xlink:href="#Ubuntu-Bold-6c" x="117.099991"/>
       <use xlink:href="#Ubuntu-Bold-64" x="148.699982"/>
       <use xlink:href="#Ubuntu-Bold-20" x="209.099976"/>
       <use xlink:href="#Ubuntu-Bold-32" x="233.09996"/>
      </g>
     </g>
    </g>
    <g id="ytick_7">
     <g id="text_6">
      <!-- Fold 1 -->
      <g style="fill: #5b5b5b" transform="translate(8.244844 43.332219) scale(0.09 -0.09)">
       <defs>
        <path id="Ubuntu-Bold-31" d="M 448 3514 
Q 634 3590 835 3689 
Q 1037 3789 1229 3907 
Q 1421 4026 1597 4157 
Q 1773 4288 1914 4435 
L 2579 4435 
L 2579 0 
L 1626 0 
L 1626 3194 
Q 1434 3066 1197 2960 
Q 960 2854 736 2778 
L 448 3514 
z
" transform="scale(0.015625)"/>
       </defs>
       <use xlink:href="#Ubuntu-Bold-46"/>
       <use xlink:href="#Ubuntu-Bold-6f" x="56.399994"/>
       <use xlink:href="#Ubuntu-Bold-6c" x="117.099991"/>
       <use xlink:href="#Ubuntu-Bold-64" x="148.699982"/>
       <use xlink:href="#Ubuntu-Bold-20" x="209.099976"/>
       <use xlink:href="#Ubuntu-Bold-31" x="233.09996"/>
      </g>
     </g>
    </g>
   </g>
   <g id="patch_3">
    <path d="M 448.945497 187.796 
L 441.566985 190.2215 
L 441.566985 187.808128 
L 43.127315 187.808128 
L 43.127315 187.783873 
L 441.566985 187.783873 
L 441.566985 185.3705 
z
" style="fill: #5b5b5b; stroke: #5b5b5b; stroke-linejoin: miter"/>
   </g>
   <g id="patch_4">
    <path d="M 448.945497 187.796 
L 441.566985 190.2215 
L 441.566985 187.808128 
L 43.127315 187.808128 
L 43.127315 187.783873 
L 441.566985 187.783873 
L 441.566985 185.3705 
z
" style="fill: #5b5b5b; stroke: #5b5b5b; stroke-linejoin: miter"/>
   </g>
   <g id="patch_5">
    <path d="M 448.945497 187.796 
L 441.566985 190.2215 
L 441.566985 187.808128 
L 43.127315 187.808128 
L 43.127315 187.783873 
L 441.566985 187.783873 
L 441.566985 185.3705 
z
" style="fill: #5b5b5b; stroke: #5b5b5b; stroke-linejoin: miter"/>
   </g>
   <g id="patch_6">
    <path d="M 448.945497 187.796 
L 441.566985 190.2215 
L 441.566985 187.808128 
L 43.127315 187.808128 
L 43.127315 187.783873 
L 441.566985 187.783873 
L 441.566985 185.3705 
z
" style="fill: #5b5b5b; stroke: #5b5b5b; stroke-linejoin: miter"/>
   </g>
   <g id="line2d_1">
    <path d="M 43.127315 39.8405 
L 77.252935 39.8405 
" clip-path="url(#pf122c3f3d7)" style="fill: none; stroke: #5b5b5b; stroke-width: 15"/>
   </g>
   <g id="line2d_2">
    <path d="M 80.019877 39.8405 
L 114.145497 39.8405 
" clip-path="url(#pf122c3f3d7)" style="fill: none; stroke: #bbbbbb; stroke-width: 15"/>
   </g>
   <g id="line2d_3">
    <path d="M 116.912439 39.8405 
L 151.038059 39.8405 
" clip-path="url(#pf122c3f3d7)" style="fill: none; stroke: #00937f; stroke-width: 15"/>
   </g>
   <g id="line2d_4">
    <path d="M 153.805001 39.8405 
L 409.285993 39.8405 
" clip-path="url(#pf122c3f3d7)" style="fill: none; stroke: #bbbbbb; stroke-width: 15"/>
   </g>
   <g id="line2d_5">
    <path d="M 412.052935 39.8405 
L 446.178555 39.8405 
" clip-path="url(#pf122c3f3d7)" style="fill: none; stroke: #af4035; stroke-width: 15"/>
   </g>
   <g id="line2d_6">
    <path d="M 412.052935 39.8405 
L 446.178555 39.8405 
" clip-path="url(#pf122c3f3d7)" style="fill: none; stroke: #af4035; stroke-width: 15"/>
   </g>
   <g id="line2d_7">
    <path d="M 43.127315 136.8605 
L 446.178555 136.8605 
" clip-path="url(#pf122c3f3d7)" style="fill: none; stroke-dasharray: 0.75,1.2375; stroke-dashoffset: 0; stroke: #bbbbbb; stroke-width: 0.75"/>
   </g>
   <g id="line2d_8">
    <path d="M 43.127315 161.1155 
L 335.500869 161.1155 
" clip-path="url(#pf122c3f3d7)" style="fill: none; stroke: #bbbbbb; stroke-width: 15"/>
   </g>
   <g id="line2d_9">
    <path d="M 338.267811 161.1155 
L 372.393431 161.1155 
" clip-path="url(#pf122c3f3d7)" style="fill: none; stroke: #5b5b5b; stroke-width: 15"/>
   </g>
   <g id="line2d_10">
    <path d="M 375.160373 161.1155 
L 409.285993 161.1155 
" clip-path="url(#pf122c3f3d7)" style="fill: none; stroke: #bbbbbb; stroke-width: 15"/>
   </g>
   <g id="line2d_11">
    <path d="M 412.052935 161.1155 
L 446.178555 161.1155 
" clip-path="url(#pf122c3f3d7)" style="fill: none; stroke: #af4035; stroke-width: 15"/>
   </g>
   <g id="line2d_12">
    <path d="M 80.019877 64.0955 
L 114.145497 64.0955 
" clip-path="url(#pf122c3f3d7)" style="fill: none; stroke: #5b5b5b; stroke-width: 15"/>
   </g>
   <g id="line2d_13">
    <path d="M 116.912439 64.0955 
L 151.038059 64.0955 
" clip-path="url(#pf122c3f3d7)" style="fill: none; stroke: #bbbbbb; stroke-width: 15"/>
   </g>
   <g id="line2d_14">
    <path d="M 153.805001 64.0955 
L 187.930621 64.0955 
" clip-path="url(#pf122c3f3d7)" style="fill: none; stroke: #00937f; stroke-width: 15"/>
   </g>
   <g id="line2d_15">
    <path d="M 43.127315 64.0955 
L 77.252935 64.0955 
" clip-path="url(#pf122c3f3d7)" style="fill: none; stroke: #bbbbbb; stroke-width: 15"/>
   </g>
   <g id="line2d_16">
    <path d="M 190.697563 64.0955 
L 409.285993 64.0955 
" clip-path="url(#pf122c3f3d7)" style="fill: none; stroke: #bbbbbb; stroke-width: 15"/>
   </g>
   <g id="line2d_17">
    <path d="M 412.052935 64.0955 
L 446.178555 64.0955 
" clip-path="url(#pf122c3f3d7)" style="fill: none; stroke: #af4035; stroke-width: 15"/>
   </g>
   <g id="line2d_18">
    <path d="M 412.052935 64.0955 
L 446.178555 64.0955 
" clip-path="url(#pf122c3f3d7)" style="fill: none; stroke: #af4035; stroke-width: 15"/>
   </g>
   <g id="line2d_19">
    <path d="M 43.127315 136.8605 
L 446.178555 136.8605 
" clip-path="url(#pf122c3f3d7)" style="fill: none; stroke-dasharray: 0.75,1.2375; stroke-dashoffset: 0; stroke: #bbbbbb; stroke-width: 0.75"/>
   </g>
   <g id="line2d_20">
    <path d="M 43.127315 161.1155 
L 335.500869 161.1155 
" clip-path="url(#pf122c3f3d7)" style="fill: none; stroke: #bbbbbb; stroke-width: 15"/>
   </g>
   <g id="line2d_21">
    <path d="M 338.267811 161.1155 
L 372.393431 161.1155 
" clip-path="url(#pf122c3f3d7)" style="fill: none; stroke: #5b5b5b; stroke-width: 15"/>
   </g>
   <g id="line2d_22">
    <path d="M 375.160373 161.1155 
L 409.285993 161.1155 
" clip-path="url(#pf122c3f3d7)" style="fill: none; stroke: #bbbbbb; stroke-width: 15"/>
   </g>
   <g id="line2d_23">
    <path d="M 412.052935 161.1155 
L 446.178555 161.1155 
" clip-path="url(#pf122c3f3d7)" style="fill: none; stroke: #af4035; stroke-width: 15"/>
   </g>
   <g id="line2d_24">
    <path d="M 116.912439 88.3505 
L 151.038059 88.3505 
" clip-path="url(#pf122c3f3d7)" style="fill: none; stroke: #5b5b5b; stroke-width: 15"/>
   </g>
   <g id="line2d_25">
    <path d="M 153.805001 88.3505 
L 187.930621 88.3505 
" clip-path="url(#pf122c3f3d7)" style="fill: none; stroke: #bbbbbb; stroke-width: 15"/>
   </g>
   <g id="line2d_26">
    <path d="M 190.697563 88.3505 
L 224.823183 88.3505 
" clip-path="url(#pf122c3f3d7)" style="fill: none; stroke: #00937f; stroke-width: 15"/>
   </g>
   <g id="line2d_27">
    <path d="M 43.127315 88.3505 
L 114.145497 88.3505 
" clip-path="url(#pf122c3f3d7)" style="fill: none; stroke: #bbbbbb; stroke-width: 15"/>
   </g>
   <g id="line2d_28">
    <path d="M 227.590125 88.3505 
L 409.285993 88.3505 
" clip-path="url(#pf122c3f3d7)" style="fill: none; stroke: #bbbbbb; stroke-width: 15"/>
   </g>
   <g id="line2d_29">
    <path d="M 412.052935 88.3505 
L 446.178555 88.3505 
" clip-path="url(#pf122c3f3d7)" style="fill: none; stroke: #af4035; stroke-width: 15"/>
   </g>
   <g id="line2d_30">
    <path d="M 412.052935 88.3505 
L 446.178555 88.3505 
" clip-path="url(#pf122c3f3d7)" style="fill: none; stroke: #af4035; stroke-width: 15"/>
   </g>
   <g id="line2d_31">
    <path d="M 43.127315 136.8605 
L 446.178555 136.8605 
" clip-path="url(#pf122c3f3d7)" style="fill: none; stroke-dasharray: 0.75,1.2375; stroke-dashoffset: 0; stroke: #bbbbbb; stroke-width: 0.75"/>
   </g>
   <g id="line2d_32">
    <path d="M 43.127315 161.1155 
L 335.500869 161.1155 
" clip-path="url(#pf122c3f3d7)" style="fill: none; stroke: #bbbbbb; stroke-width: 15"/>
   </g>
   <g id="line2d_33">
    <path d="M 338.267811 161.1155 
L 372.393431 161.1155 
" clip-path="url(#pf122c3f3d7)" style="fill: none; stroke: #5b5b5b; stroke-width: 15"/>
   </g>
   <g id="line2d_34">
    <path d="M 375.160373 161.1155 
L 409.285993 161.1155 
" clip-path="url(#pf122c3f3d7)" style="fill: none; stroke: #bbbbbb; stroke-width: 15"/>
   </g>
   <g id="line2d_35">
    <path d="M 412.052935 161.1155 
L 446.178555 161.1155 
" clip-path="url(#pf122c3f3d7)" style="fill: none; stroke: #af4035; stroke-width: 15"/>
   </g>
   <g id="line2d_36">
    <path d="M 153.805001 112.6055 
L 187.930621 112.6055 
" clip-path="url(#pf122c3f3d7)" style="fill: none; stroke: #5b5b5b; stroke-width: 15"/>
   </g>
   <g id="line2d_37">
    <path d="M 190.697563 112.6055 
L 224.823183 112.6055 
" clip-path="url(#pf122c3f3d7)" style="fill: none; stroke: #bbbbbb; stroke-width: 15"/>
   </g>
   <g id="line2d_38">
    <path d="M 227.590125 112.6055 
L 261.715745 112.6055 
" clip-path="url(#pf122c3f3d7)" style="fill: none; stroke: #00937f; stroke-width: 15"/>
   </g>
   <g id="line2d_39">
    <path d="M 43.127315 112.6055 
L 151.038059 112.6055 
" clip-path="url(#pf122c3f3d7)" style="fill: none; stroke: #bbbbbb; stroke-width: 15"/>
   </g>
   <g id="line2d_40">
    <path d="M 264.482687 112.6055 
L 409.285993 112.6055 
" clip-path="url(#pf122c3f3d7)" style="fill: none; stroke: #bbbbbb; stroke-width: 15"/>
   </g>
   <g id="line2d_41">
    <path d="M 412.052935 112.6055 
L 446.178555 112.6055 
" clip-path="url(#pf122c3f3d7)" style="fill: none; stroke: #af4035; stroke-width: 15"/>
   </g>
   <g id="line2d_42">
    <path d="M 412.052935 112.6055 
L 446.178555 112.6055 
" clip-path="url(#pf122c3f3d7)" style="fill: none; stroke: #af4035; stroke-width: 15"/>
   </g>
   <g id="line2d_43">
    <path d="M 43.127315 136.8605 
L 446.178555 136.8605 
" clip-path="url(#pf122c3f3d7)" style="fill: none; stroke-dasharray: 0.75,1.2375; stroke-dashoffset: 0; stroke: #bbbbbb; stroke-width: 0.75"/>
   </g>
   <g id="line2d_44">
    <path d="M 43.127315 161.1155 
L 335.500869 161.1155 
" clip-path="url(#pf122c3f3d7)" style="fill: none; stroke: #bbbbbb; stroke-width: 15"/>
   </g>
   <g id="line2d_45">
    <path d="M 338.267811 161.1155 
L 372.393431 161.1155 
" clip-path="url(#pf122c3f3d7)" style="fill: none; stroke: #5b5b5b; stroke-width: 15"/>
   </g>
   <g id="line2d_46">
    <path d="M 375.160373 161.1155 
L 409.285993 161.1155 
" clip-path="url(#pf122c3f3d7)" style="fill: none; stroke: #bbbbbb; stroke-width: 15"/>
   </g>
   <g id="line2d_47">
    <path d="M 412.052935 161.1155 
L 446.178555 161.1155 
" clip-path="url(#pf122c3f3d7)" style="fill: none; stroke: #af4035; stroke-width: 15"/>
   </g>
   <g id="legend_1">
    <g id="line2d_48">
     <defs>
      <path id="md222a8c3f1" d="M -2.5 2.5 
L 2.5 2.5 
L 2.5 -2.5 
L -2.5 -2.5 
z
" style="stroke: #5b5b5b; stroke-linejoin: miter"/>
     </defs>
     <g>
      <use xlink:href="#md222a8c3f1" x="43.839606" y="13.8075" style="fill: #5b5b5b; stroke: #5b5b5b; stroke-linejoin: miter"/>
     </g>
    </g>
    <g id="text_7">
     <!-- Train -->
     <g style="fill: #4b4b4b" transform="translate(51.839606 16.6075) scale(0.08 -0.08)">
      <defs>
       <path id="Ubuntu-54" d="M 3514 4435 
L 3514 3898 
L 2118 3898 
L 2118 0 
L 1498 0 
L 1498 3898 
L 102 3898 
L 102 4435 
L 3514 4435 
z
" transform="scale(0.015625)"/>
       <path id="Ubuntu-72" d="M 1741 3398 
Q 1818 3398 1917 3388 
Q 2016 3379 2112 3363 
Q 2208 3347 2288 3331 
Q 2368 3315 2406 3302 
L 2304 2784 
Q 2234 2810 2070 2845 
Q 1907 2880 1651 2880 
Q 1485 2880 1321 2845 
Q 1158 2810 1107 2797 
L 1107 0 
L 512 0 
L 512 3187 
Q 723 3264 1036 3331 
Q 1350 3398 1741 3398 
z
" transform="scale(0.015625)"/>
       <path id="Ubuntu-61" d="M 1638 429 
Q 1850 429 2013 438 
Q 2176 448 2285 474 
L 2285 1466 
Q 2221 1498 2077 1520 
Q 1933 1542 1728 1542 
Q 1594 1542 1443 1523 
Q 1293 1504 1168 1443 
Q 1043 1382 960 1276 
Q 877 1171 877 998 
Q 877 678 1081 553 
Q 1286 429 1638 429 
z
M 1587 3411 
Q 1946 3411 2192 3318 
Q 2438 3226 2588 3056 
Q 2739 2886 2803 2652 
Q 2867 2419 2867 2138 
L 2867 58 
Q 2790 45 2652 22 
Q 2515 0 2342 -19 
Q 2170 -38 1968 -54 
Q 1766 -70 1568 -70 
Q 1286 -70 1049 -12 
Q 813 45 640 169 
Q 467 294 371 499 
Q 275 704 275 992 
Q 275 1267 387 1465 
Q 499 1664 691 1785 
Q 883 1907 1139 1964 
Q 1395 2022 1677 2022 
Q 1766 2022 1862 2012 
Q 1958 2003 2044 1987 
Q 2131 1971 2195 1958 
Q 2259 1946 2285 1939 
L 2285 2106 
Q 2285 2253 2253 2397 
Q 2221 2541 2137 2653 
Q 2054 2765 1910 2832 
Q 1766 2899 1536 2899 
Q 1242 2899 1021 2857 
Q 800 2816 691 2771 
L 621 3264 
Q 736 3315 1005 3363 
Q 1274 3411 1587 3411 
z
" transform="scale(0.015625)"/>
       <path id="Ubuntu-69" d="M 1107 0 
L 512 0 
L 512 3328 
L 1107 3328 
L 1107 0 
z
M 806 3930 
Q 646 3930 534 4035 
Q 422 4141 422 4320 
Q 422 4499 534 4604 
Q 646 4710 806 4710 
Q 966 4710 1078 4604 
Q 1190 4499 1190 4320 
Q 1190 4141 1078 4035 
Q 966 3930 806 3930 
z
" transform="scale(0.015625)"/>
       <path id="Ubuntu-6e" d="M 512 3232 
Q 717 3283 1056 3340 
Q 1395 3398 1837 3398 
Q 2234 3398 2496 3286 
Q 2758 3174 2915 2972 
Q 3072 2771 3136 2489 
Q 3200 2208 3200 1869 
L 3200 0 
L 2605 0 
L 2605 1741 
Q 2605 2048 2563 2265 
Q 2522 2483 2426 2617 
Q 2330 2752 2170 2813 
Q 2010 2874 1773 2874 
Q 1677 2874 1574 2867 
Q 1472 2861 1379 2851 
Q 1286 2842 1212 2829 
Q 1139 2816 1107 2810 
L 1107 0 
L 512 0 
L 512 3232 
z
" transform="scale(0.015625)"/>
      </defs>
      <use xlink:href="#Ubuntu-54"/>
      <use xlink:href="#Ubuntu-72" x="52.499985"/>
      <use xlink:href="#Ubuntu-61" x="91.099976"/>
      <use xlink:href="#Ubuntu-69" x="143.299973"/>
      <use xlink:href="#Ubuntu-6e" x="168.59996"/>
     </g>
    </g>
    <g id="line2d_49">
     <defs>
      <path id="m26e1d476da" d="M -2.5 2.5 
L 2.5 2.5 
L 2.5 -2.5 
L -2.5 -2.5 
z
" style="stroke: #bbbbbb; stroke-linejoin: miter"/>
     </defs>
     <g>
      <use xlink:href="#m26e1d476da" x="93.919606" y="13.8075" style="fill: #bbbbbb; stroke: #bbbbbb; stroke-linejoin: miter"/>
     </g>
    </g>
    <g id="text_8">
     <!-- Removed -->
     <g style="fill: #4b4b4b" transform="translate(101.919606 16.6075) scale(0.08 -0.08)">
      <defs>
       <path id="Ubuntu-52" d="M 2720 1856 
Q 2822 1728 2979 1520 
Q 3136 1312 3302 1059 
Q 3469 806 3632 531 
Q 3795 256 3910 0 
L 3232 0 
Q 3104 243 2953 492 
Q 2803 742 2649 969 
Q 2496 1197 2345 1395 
Q 2195 1594 2074 1741 
Q 1990 1734 1904 1734 
Q 1818 1734 1728 1734 
L 1171 1734 
L 1171 0 
L 550 0 
L 550 4371 
Q 813 4435 1136 4457 
Q 1459 4480 1728 4480 
Q 2662 4480 3152 4128 
Q 3642 3776 3642 3078 
Q 3642 2637 3408 2323 
Q 3174 2010 2720 1856 
z
M 1779 3936 
Q 1382 3936 1171 3917 
L 1171 2246 
L 1613 2246 
Q 1933 2246 2189 2278 
Q 2445 2310 2621 2400 
Q 2797 2490 2893 2653 
Q 2989 2816 2989 3085 
Q 2989 3334 2893 3500 
Q 2797 3667 2633 3763 
Q 2470 3859 2249 3897 
Q 2029 3936 1779 3936 
z
" transform="scale(0.015625)"/>
       <path id="Ubuntu-65" d="M 326 1658 
Q 326 2099 454 2428 
Q 582 2758 793 2976 
Q 1005 3194 1280 3302 
Q 1555 3411 1843 3411 
Q 2515 3411 2873 2992 
Q 3232 2573 3232 1715 
Q 3232 1677 3232 1616 
Q 3232 1555 3226 1504 
L 947 1504 
Q 986 986 1248 717 
Q 1510 448 2067 448 
Q 2381 448 2595 502 
Q 2810 557 2918 608 
L 3002 109 
Q 2893 51 2621 -13 
Q 2349 -77 2003 -77 
Q 1568 -77 1251 54 
Q 934 186 729 416 
Q 525 646 425 963 
Q 326 1280 326 1658 
z
M 2611 1984 
Q 2618 2387 2410 2646 
Q 2202 2906 1837 2906 
Q 1632 2906 1475 2826 
Q 1318 2746 1209 2618 
Q 1101 2490 1040 2323 
Q 979 2157 960 1984 
L 2611 1984 
z
" transform="scale(0.015625)"/>
       <path id="Ubuntu-6d" d="M 512 3232 
Q 717 3283 1053 3340 
Q 1389 3398 1830 3398 
Q 2150 3398 2368 3312 
Q 2586 3226 2733 3059 
Q 2778 3091 2874 3148 
Q 2970 3206 3110 3260 
Q 3251 3315 3424 3356 
Q 3597 3398 3795 3398 
Q 4179 3398 4422 3286 
Q 4666 3174 4803 2969 
Q 4941 2765 4989 2483 
Q 5037 2202 5037 1869 
L 5037 0 
L 4442 0 
L 4442 1741 
Q 4442 2035 4413 2246 
Q 4384 2458 4304 2598 
Q 4224 2739 4086 2806 
Q 3949 2874 3731 2874 
Q 3430 2874 3235 2794 
Q 3040 2714 2970 2650 
Q 3021 2483 3046 2284 
Q 3072 2086 3072 1869 
L 3072 0 
L 2477 0 
L 2477 1741 
Q 2477 2035 2445 2246 
Q 2413 2458 2333 2598 
Q 2253 2739 2115 2806 
Q 1978 2874 1766 2874 
Q 1677 2874 1574 2867 
Q 1472 2861 1379 2851 
Q 1286 2842 1209 2829 
Q 1133 2816 1107 2810 
L 1107 0 
L 512 0 
L 512 3232 
z
" transform="scale(0.015625)"/>
       <path id="Ubuntu-6f" d="M 3450 1664 
Q 3450 1267 3334 947 
Q 3219 627 3011 396 
Q 2803 166 2515 41 
Q 2227 -83 1888 -83 
Q 1549 -83 1261 41 
Q 973 166 765 396 
Q 557 627 441 947 
Q 326 1267 326 1664 
Q 326 2054 441 2377 
Q 557 2701 765 2931 
Q 973 3162 1261 3286 
Q 1549 3411 1888 3411 
Q 2227 3411 2515 3286 
Q 2803 3162 3011 2931 
Q 3219 2701 3334 2377 
Q 3450 2054 3450 1664 
z
M 2829 1664 
Q 2829 2227 2576 2556 
Q 2323 2886 1888 2886 
Q 1453 2886 1200 2556 
Q 947 2227 947 1664 
Q 947 1101 1200 771 
Q 1453 442 1888 442 
Q 2323 442 2576 771 
Q 2829 1101 2829 1664 
z
" transform="scale(0.015625)"/>
       <path id="Ubuntu-76" d="M 3110 3328 
Q 2861 2394 2525 1536 
Q 2189 678 1875 0 
L 1338 0 
Q 1024 678 688 1536 
Q 352 2394 102 3328 
L 742 3328 
Q 819 3014 924 2659 
Q 1030 2304 1148 1955 
Q 1267 1606 1388 1280 
Q 1510 954 1619 698 
Q 1728 954 1849 1280 
Q 1971 1606 2089 1955 
Q 2208 2304 2313 2659 
Q 2419 3014 2496 3328 
L 3110 3328 
z
" transform="scale(0.015625)"/>
       <path id="Ubuntu-64" d="M 2662 2624 
Q 2554 2714 2349 2797 
Q 2144 2880 1901 2880 
Q 1645 2880 1462 2787 
Q 1280 2694 1165 2531 
Q 1050 2368 998 2144 
Q 947 1920 947 1664 
Q 947 1082 1235 765 
Q 1523 448 2003 448 
Q 2246 448 2409 470 
Q 2573 493 2662 518 
L 2662 2624 
z
M 2662 4864 
L 3258 4966 
L 3258 96 
Q 3053 38 2733 -19 
Q 2413 -77 1997 -77 
Q 1613 -77 1305 44 
Q 998 166 780 390 
Q 563 614 444 937 
Q 326 1261 326 1664 
Q 326 2048 425 2368 
Q 525 2688 717 2918 
Q 909 3149 1187 3277 
Q 1466 3405 1824 3405 
Q 2112 3405 2333 3328 
Q 2554 3251 2662 3181 
L 2662 4864 
z
" transform="scale(0.015625)"/>
      </defs>
      <use xlink:href="#Ubuntu-52"/>
      <use xlink:href="#Ubuntu-65" x="62.899994"/>
      <use xlink:href="#Ubuntu-6d" x="118.799988"/>
      <use xlink:href="#Ubuntu-6f" x="204.899979"/>
      <use xlink:href="#Ubuntu-76" x="262.524963"/>
      <use xlink:href="#Ubuntu-65" x="311.34996"/>
      <use xlink:href="#Ubuntu-64" x="367.249954"/>
     </g>
    </g>
    <g id="line2d_50">
     <defs>
      <path id="m20b171fe60" d="M -2.5 2.5 
L 2.5 2.5 
L 2.5 -2.5 
L -2.5 -2.5 
z
" style="stroke: #00937f; stroke-linejoin: miter"/>
     </defs>
     <g>
      <use xlink:href="#m20b171fe60" x="160.013356" y="13.8075" style="fill: #00937f; stroke: #00937f; stroke-linejoin: miter"/>
     </g>
    </g>
    <g id="text_9">
     <!-- Validation -->
     <g style="fill: #4b4b4b" transform="translate(168.013356 16.6075) scale(0.08 -0.08)">
      <defs>
       <path id="Ubuntu-56" d="M 4134 4435 
Q 3891 3731 3670 3132 
Q 3450 2534 3238 1996 
Q 3027 1459 2819 969 
Q 2611 480 2394 0 
L 1811 0 
Q 1594 480 1386 969 
Q 1178 1459 963 1996 
Q 749 2534 525 3132 
Q 301 3731 64 4435 
L 749 4435 
Q 1094 3424 1427 2489 
Q 1760 1555 2112 736 
Q 2464 1549 2797 2486 
Q 3130 3424 3469 4435 
L 4134 4435 
z
" transform="scale(0.015625)"/>
       <path id="Ubuntu-6c" d="M 1510 -64 
Q 960 -51 729 173 
Q 499 397 499 870 
L 499 4864 
L 1094 4966 
L 1094 966 
Q 1094 819 1120 723 
Q 1146 627 1203 569 
Q 1261 512 1357 483 
Q 1453 454 1594 435 
L 1510 -64 
z
" transform="scale(0.015625)"/>
       <path id="Ubuntu-74" d="M 1069 3328 
L 2330 3328 
L 2330 2829 
L 1069 2829 
L 1069 1293 
Q 1069 1043 1107 880 
Q 1146 717 1222 624 
Q 1299 531 1414 492 
Q 1530 454 1683 454 
Q 1952 454 2115 515 
Q 2278 576 2342 602 
L 2458 109 
Q 2368 64 2144 -3 
Q 1920 -70 1632 -70 
Q 1293 -70 1072 16 
Q 851 102 716 275 
Q 582 448 528 701 
Q 474 954 474 1286 
L 474 4256 
L 1069 4358 
L 1069 3328 
z
" transform="scale(0.015625)"/>
      </defs>
      <use xlink:href="#Ubuntu-56"/>
      <use xlink:href="#Ubuntu-61" x="63.099991"/>
      <use xlink:href="#Ubuntu-6c" x="115.299988"/>
      <use xlink:href="#Ubuntu-69" x="142.599976"/>
      <use xlink:href="#Ubuntu-64" x="167.899963"/>
      <use xlink:href="#Ubuntu-61" x="226.799957"/>
      <use xlink:href="#Ubuntu-74" x="278.999954"/>
      <use xlink:href="#Ubuntu-69" x="319.199951"/>
      <use xlink:href="#Ubuntu-6f" x="344.499939"/>
      <use xlink:href="#Ubuntu-6e" x="403.499924"/>
     </g>
    </g>
    <g id="line2d_51">
     <defs>
      <path id="mcc6e7c89bc" d="M -2.5 2.5 
L 2.5 2.5 
L 2.5 -2.5 
L -2.5 -2.5 
z
" style="stroke: #af4035; stroke-linejoin: miter"/>
     </defs>
     <g>
      <use xlink:href="#mcc6e7c89bc" x="228.885856" y="13.8075" style="fill: #af4035; stroke: #af4035; stroke-linejoin: miter"/>
     </g>
    </g>
    <g id="text_10">
     <!-- Test -->
     <g style="fill: #4b4b4b" transform="translate(236.885856 16.6075) scale(0.08 -0.08)">
      <defs>
       <path id="Ubuntu-73" d="M 1286 429 
Q 1651 429 1827 525 
Q 2003 621 2003 832 
Q 2003 1050 1830 1178 
Q 1658 1306 1261 1466 
Q 1069 1542 893 1622 
Q 717 1702 589 1811 
Q 461 1920 384 2073 
Q 307 2227 307 2451 
Q 307 2893 633 3152 
Q 960 3411 1523 3411 
Q 1664 3411 1805 3395 
Q 1946 3379 2067 3356 
Q 2189 3334 2281 3308 
Q 2374 3283 2426 3264 
L 2317 2752 
Q 2221 2803 2016 2857 
Q 1811 2912 1523 2912 
Q 1274 2912 1088 2813 
Q 902 2714 902 2502 
Q 902 2394 944 2310 
Q 986 2227 1072 2160 
Q 1158 2093 1286 2035 
Q 1414 1978 1594 1914 
Q 1830 1824 2016 1737 
Q 2202 1651 2333 1536 
Q 2464 1421 2534 1257 
Q 2605 1094 2605 858 
Q 2605 397 2262 160 
Q 1920 -77 1286 -77 
Q 845 -77 595 -3 
Q 346 70 256 109 
L 365 621 
Q 467 582 691 505 
Q 915 429 1286 429 
z
" transform="scale(0.015625)"/>
      </defs>
      <use xlink:href="#Ubuntu-54"/>
      <use xlink:href="#Ubuntu-65" x="50.999985"/>
      <use xlink:href="#Ubuntu-73" x="106.899979"/>
      <use xlink:href="#Ubuntu-74" x="151.499969"/>
     </g>
    </g>
   </g>
  </g>
 </g>
 <defs>
  <clipPath id="pf122c3f3d7">
   <rect x="22.836406" y="15.5855" width="446.4" height="194.04"/>
  </clipPath>
 </defs>
</svg>
