<?xml version="1.0" encoding="utf-8" standalone="no"?>
<!DOCTYPE svg PUBLIC "-//W3C//DTD SVG 1.1//EN"
  "http://www.w3.org/Graphics/SVG/1.1/DTD/svg11.dtd">
<svg xmlns:xlink="http://www.w3.org/1999/xlink" width="609.650107pt" height="231.109688pt" viewBox="0 0 609.650107 231.109688" xmlns="http://www.w3.org/2000/svg" version="1.1">
 <metadata>
  <rdf:RDF xmlns:dc="http://purl.org/dc/elements/1.1/" xmlns:cc="http://creativecommons.org/ns#" xmlns:rdf="http://www.w3.org/1999/02/22-rdf-syntax-ns#">
   <cc:Work>
    <dc:type rdf:resource="http://purl.org/dc/dcmitype/StillImage"/>
    <dc:date>2024-03-18T13:22:43.175772</dc:date>
    <dc:format>image/svg+xml</dc:format>
    <dc:creator>
     <cc:Agent>
      <dc:title>Matplotlib v3.7.3, https://matplotlib.org/</dc:title>
     </cc:Agent>
    </dc:creator>
   </cc:Work>
  </rdf:RDF>
 </metadata>
 <defs>
  <style type="text/css">*{stroke-linejoin: round; stroke-linecap: butt}</style>
 </defs>
 <g id="figure_1">
  <g id="patch_1">
   <path d="M 0 231.109688 
L 609.650107 231.109688 
L 609.650107 -0 
L 0 -0 
L 0 231.109688 
z
" style="fill: none"/>
  </g>
  <g id="axes_1">
   <g id="patch_2">
    <path d="M 32.705 187.49375 
L 196.822647 187.49375 
L 196.822647 48.89375 
L 32.705 48.89375 
L 32.705 187.49375 
z
" style="fill: none"/>
   </g>
   <g id="matplotlib.axis_1">
    <g id="xtick_1">
     <g id="text_1">
      <!-- l1/0.1/saga -->
      <g style="fill: #757575" transform="translate(19.976143 203.7575) scale(0.08 -0.08)">
       <defs>
        <path id="Ubuntu-6c" d="M 1510 -64 
Q 960 -51 729 173 
Q 499 397 499 870 
L 499 4864 
L 1094 4966 
L 1094 966 
Q 1094 819 1120 723 
Q 1146 627 1203 569 
Q 1261 512 1357 483 
Q 1453 454 1594 435 
L 1510 -64 
z
" transform="scale(0.015625)"/>
        <path id="Ubuntu-31" d="M 595 3520 
Q 960 3661 1305 3881 
Q 1651 4102 1939 4435 
L 2362 4435 
L 2362 0 
L 1766 0 
L 1766 3610 
Q 1690 3539 1578 3462 
Q 1466 3386 1334 3315 
Q 1203 3245 1059 3181 
Q 915 3117 781 3072 
L 595 3520 
z
" transform="scale(0.015625)"/>
        <path id="Ubuntu-2f" d="M 454 -1184 
L -154 -1184 
L 2016 5011 
L 2611 5011 
L 454 -1184 
z
" transform="scale(0.015625)"/>
        <path id="Ubuntu-30" d="M 320 2221 
Q 320 3334 713 3936 
Q 1107 4538 1805 4538 
Q 2502 4538 2896 3936 
Q 3290 3334 3290 2221 
Q 3290 1107 2896 505 
Q 2502 -96 1805 -96 
Q 1107 -96 713 505 
Q 320 1107 320 2221 
z
M 2662 2221 
Q 2662 2586 2620 2912 
Q 2579 3238 2480 3481 
Q 2381 3725 2214 3869 
Q 2048 4013 1805 4013 
Q 1562 4013 1395 3869 
Q 1229 3725 1129 3481 
Q 1030 3238 988 2912 
Q 947 2586 947 2221 
Q 947 1856 988 1529 
Q 1030 1203 1129 960 
Q 1229 717 1395 573 
Q 1562 429 1805 429 
Q 2048 429 2214 573 
Q 2381 717 2480 960 
Q 2579 1203 2620 1529 
Q 2662 1856 2662 2221 
z
" transform="scale(0.015625)"/>
        <path id="Ubuntu-2e" d="M 1216 346 
Q 1216 173 1101 45 
Q 986 -83 787 -83 
Q 589 -83 473 45 
Q 358 173 358 346 
Q 358 518 473 646 
Q 589 774 787 774 
Q 986 774 1101 646 
Q 1216 518 1216 346 
z
" transform="scale(0.015625)"/>
        <path id="Ubuntu-73" d="M 1286 429 
Q 1651 429 1827 525 
Q 2003 621 2003 832 
Q 2003 1050 1830 1178 
Q 1658 1306 1261 1466 
Q 1069 1542 893 1622 
Q 717 1702 589 1811 
Q 461 1920 384 2073 
Q 307 2227 307 2451 
Q 307 2893 633 3152 
Q 960 3411 1523 3411 
Q 1664 3411 1805 3395 
Q 1946 3379 2067 3356 
Q 2189 3334 2281 3308 
Q 2374 3283 2426 3264 
L 2317 2752 
Q 2221 2803 2016 2857 
Q 1811 2912 1523 2912 
Q 1274 2912 1088 2813 
Q 902 2714 902 2502 
Q 902 2394 944 2310 
Q 986 2227 1072 2160 
Q 1158 2093 1286 2035 
Q 1414 1978 1594 1914 
Q 1830 1824 2016 1737 
Q 2202 1651 2333 1536 
Q 2464 1421 2534 1257 
Q 2605 1094 2605 858 
Q 2605 397 2262 160 
Q 1920 -77 1286 -77 
Q 845 -77 595 -3 
Q 346 70 256 109 
L 365 621 
Q 467 582 691 505 
Q 915 429 1286 429 
z
" transform="scale(0.015625)"/>
        <path id="Ubuntu-61" d="M 1638 429 
Q 1850 429 2013 438 
Q 2176 448 2285 474 
L 2285 1466 
Q 2221 1498 2077 1520 
Q 1933 1542 1728 1542 
Q 1594 1542 1443 1523 
Q 1293 1504 1168 1443 
Q 1043 1382 960 1276 
Q 877 1171 877 998 
Q 877 678 1081 553 
Q 1286 429 1638 429 
z
M 1587 3411 
Q 1946 3411 2192 3318 
Q 2438 3226 2588 3056 
Q 2739 2886 2803 2652 
Q 2867 2419 2867 2138 
L 2867 58 
Q 2790 45 2652 22 
Q 2515 0 2342 -19 
Q 2170 -38 1968 -54 
Q 1766 -70 1568 -70 
Q 1286 -70 1049 -12 
Q 813 45 640 169 
Q 467 294 371 499 
Q 275 704 275 992 
Q 275 1267 387 1465 
Q 499 1664 691 1785 
Q 883 1907 1139 1964 
Q 1395 2022 1677 2022 
Q 1766 2022 1862 2012 
Q 1958 2003 2044 1987 
Q 2131 1971 2195 1958 
Q 2259 1946 2285 1939 
L 2285 2106 
Q 2285 2253 2253 2397 
Q 2221 2541 2137 2653 
Q 2054 2765 1910 2832 
Q 1766 2899 1536 2899 
Q 1242 2899 1021 2857 
Q 800 2816 691 2771 
L 621 3264 
Q 736 3315 1005 3363 
Q 1274 3411 1587 3411 
z
" transform="scale(0.015625)"/>
        <path id="Ubuntu-67" d="M 2598 333 
Q 2522 282 2301 202 
Q 2080 122 1786 122 
Q 1485 122 1219 218 
Q 954 314 755 515 
Q 557 717 441 1017 
Q 326 1318 326 1734 
Q 326 2099 435 2403 
Q 544 2707 752 2928 
Q 960 3149 1261 3273 
Q 1562 3398 1939 3398 
Q 2355 3398 2665 3337 
Q 2976 3277 3187 3226 
L 3187 256 
Q 3187 -512 2790 -857 
Q 2394 -1203 1587 -1203 
Q 1274 -1203 995 -1152 
Q 717 -1101 512 -1030 
L 621 -512 
Q 800 -582 1059 -636 
Q 1318 -691 1600 -691 
Q 2131 -691 2364 -480 
Q 2598 -269 2598 192 
L 2598 333 
z
M 2592 2803 
Q 2502 2829 2352 2851 
Q 2202 2874 1946 2874 
Q 1466 2874 1206 2560 
Q 947 2246 947 1728 
Q 947 1440 1020 1235 
Q 1094 1030 1219 896 
Q 1344 762 1507 698 
Q 1670 634 1843 634 
Q 2080 634 2278 701 
Q 2477 768 2592 858 
L 2592 2803 
z
" transform="scale(0.015625)"/>
       </defs>
       <use xlink:href="#Ubuntu-6c"/>
       <use xlink:href="#Ubuntu-31" x="27.299988"/>
       <use xlink:href="#Ubuntu-2f" x="83.699982"/>
       <use xlink:href="#Ubuntu-30" x="122.099976"/>
       <use xlink:href="#Ubuntu-2e" x="178.499969"/>
       <use xlink:href="#Ubuntu-31" x="203.09996"/>
       <use xlink:href="#Ubuntu-2f" x="259.499954"/>
       <use xlink:href="#Ubuntu-73" x="297.899948"/>
       <use xlink:href="#Ubuntu-61" x="342.499939"/>
       <use xlink:href="#Ubuntu-67" x="394.699936"/>
       <use xlink:href="#Ubuntu-61" x="452.499924"/>
      </g>
     </g>
    </g>
    <g id="xtick_2">
     <g id="text_2">
      <!-- l1/1/saga -->
      <g style="fill: #757575" transform="translate(97.815074 203.7575) scale(0.08 -0.08)">
       <use xlink:href="#Ubuntu-6c"/>
       <use xlink:href="#Ubuntu-31" x="27.299988"/>
       <use xlink:href="#Ubuntu-2f" x="83.699982"/>
       <use xlink:href="#Ubuntu-31" x="122.099976"/>
       <use xlink:href="#Ubuntu-2f" x="178.499969"/>
       <use xlink:href="#Ubuntu-73" x="216.899963"/>
       <use xlink:href="#Ubuntu-61" x="261.499954"/>
       <use xlink:href="#Ubuntu-67" x="313.699951"/>
       <use xlink:href="#Ubuntu-61" x="371.499939"/>
      </g>
     </g>
    </g>
    <g id="xtick_3">
     <g id="text_3">
      <!-- l1/10/saga -->
      <g style="fill: #757575" transform="translate(170.157754 203.7575) scale(0.08 -0.08)">
       <use xlink:href="#Ubuntu-6c"/>
       <use xlink:href="#Ubuntu-31" x="27.299988"/>
       <use xlink:href="#Ubuntu-2f" x="83.699982"/>
       <use xlink:href="#Ubuntu-31" x="122.099976"/>
       <use xlink:href="#Ubuntu-30" x="178.499969"/>
       <use xlink:href="#Ubuntu-2f" x="234.899963"/>
       <use xlink:href="#Ubuntu-73" x="273.299957"/>
       <use xlink:href="#Ubuntu-61" x="317.899948"/>
       <use xlink:href="#Ubuntu-67" x="370.099945"/>
       <use xlink:href="#Ubuntu-61" x="427.899933"/>
      </g>
     </g>
    </g>
    <g id="text_4">
     <!-- C -->
     <g style="fill: #505050" transform="translate(32.705 222.244687) scale(0.09 -0.09)">
      <defs>
       <path id="Ubuntu-Italic-43" d="M 2477 -96 
Q 2061 -96 1744 25 
Q 1427 147 1216 371 
Q 1005 595 899 912 
Q 794 1229 794 1626 
Q 794 2202 976 2726 
Q 1158 3251 1494 3654 
Q 1830 4058 2304 4298 
Q 2778 4538 3360 4538 
Q 3859 4538 4156 4435 
Q 4454 4333 4582 4243 
L 4326 3731 
Q 4179 3827 3926 3913 
Q 3674 4000 3328 4000 
Q 2886 4000 2534 3792 
Q 2182 3584 1939 3254 
Q 1696 2925 1568 2512 
Q 1440 2099 1440 1696 
Q 1440 448 2522 448 
Q 2752 448 2934 480 
Q 3117 512 3257 553 
Q 3398 595 3507 646 
Q 3616 698 3699 736 
L 3776 198 
Q 3699 154 3574 102 
Q 3450 51 3283 6 
Q 3117 -38 2912 -67 
Q 2707 -96 2477 -96 
z
" transform="scale(0.015625)"/>
      </defs>
      <use xlink:href="#Ubuntu-Italic-43"/>
     </g>
    </g>
   </g>
   <g id="matplotlib.axis_2">
    <g id="ytick_1">
     <g id="text_5">
      <!-- 0.84 -->
      <g style="fill: #757575" transform="translate(7.2 188.291818) scale(0.08 -0.08)">
       <defs>
        <path id="Ubuntu-38" d="M 3258 1152 
Q 3258 883 3165 656 
Q 3072 429 2889 259 
Q 2707 90 2432 -3 
Q 2157 -96 1798 -96 
Q 1382 -96 1104 22 
Q 826 141 659 320 
Q 493 499 422 713 
Q 352 928 352 1120 
Q 352 1306 413 1475 
Q 474 1645 573 1792 
Q 672 1939 803 2057 
Q 934 2176 1082 2266 
Q 454 2624 454 3322 
Q 454 3565 550 3785 
Q 646 4006 822 4172 
Q 998 4339 1248 4438 
Q 1498 4538 1805 4538 
Q 2163 4538 2419 4429 
Q 2675 4320 2838 4150 
Q 3002 3981 3075 3776 
Q 3149 3571 3149 3379 
Q 3149 3194 3094 3030 
Q 3040 2867 2947 2726 
Q 2854 2586 2736 2477 
Q 2618 2368 2490 2285 
Q 3245 1926 3258 1152 
z
M 954 1114 
Q 954 998 995 873 
Q 1037 749 1139 643 
Q 1242 538 1402 467 
Q 1562 397 1805 397 
Q 2022 397 2185 461 
Q 2349 525 2451 624 
Q 2554 723 2605 851 
Q 2656 979 2656 1114 
Q 2656 1318 2579 1472 
Q 2502 1626 2358 1741 
Q 2214 1856 2012 1936 
Q 1811 2016 1555 2074 
Q 1267 1914 1110 1677 
Q 954 1440 954 1114 
z
M 2554 3386 
Q 2554 3482 2512 3597 
Q 2470 3712 2380 3811 
Q 2291 3910 2150 3977 
Q 2010 4045 1805 4045 
Q 1600 4045 1456 3981 
Q 1312 3917 1222 3817 
Q 1133 3718 1091 3600 
Q 1050 3482 1050 3366 
Q 1050 3226 1101 3085 
Q 1152 2944 1261 2822 
Q 1370 2701 1546 2605 
Q 1722 2509 1965 2451 
Q 2234 2611 2394 2825 
Q 2554 3040 2554 3386 
z
" transform="scale(0.015625)"/>
        <path id="Ubuntu-34" d="M 256 1536 
Q 378 1818 589 2192 
Q 800 2566 1065 2963 
Q 1331 3360 1635 3744 
Q 1939 4128 2246 4435 
L 2816 4435 
L 2816 1619 
L 3341 1619 
L 3341 1133 
L 2816 1133 
L 2816 0 
L 2240 0 
L 2240 1133 
L 256 1133 
L 256 1536 
z
M 2240 3731 
Q 2048 3526 1853 3273 
Q 1658 3021 1472 2745 
Q 1286 2470 1123 2182 
Q 960 1894 832 1619 
L 2240 1619 
L 2240 3731 
z
" transform="scale(0.015625)"/>
       </defs>
       <use xlink:href="#Ubuntu-30"/>
       <use xlink:href="#Ubuntu-2e" x="56.399994"/>
       <use xlink:href="#Ubuntu-38" x="80.999985"/>
       <use xlink:href="#Ubuntu-34" x="137.399979"/>
      </g>
     </g>
    </g>
    <g id="ytick_2">
     <g id="text_6">
      <!-- 0.85 -->
      <g style="fill: #757575" transform="translate(7.2 167.969046) scale(0.08 -0.08)">
       <defs>
        <path id="Ubuntu-35" d="M 1274 2726 
Q 2240 2688 2691 2304 
Q 3142 1920 3142 1261 
Q 3142 966 3043 716 
Q 2944 467 2742 288 
Q 2541 109 2233 6 
Q 1926 -96 1504 -96 
Q 1338 -96 1165 -70 
Q 992 -45 845 -6 
Q 698 32 582 70 
Q 467 109 416 134 
L 531 653 
Q 640 602 886 518 
Q 1133 435 1491 435 
Q 1779 435 1974 499 
Q 2170 563 2291 672 
Q 2413 781 2467 925 
Q 2522 1069 2522 1229 
Q 2522 1472 2438 1661 
Q 2355 1850 2144 1978 
Q 1933 2106 1581 2173 
Q 1229 2240 691 2240 
Q 730 2554 752 2829 
Q 774 3104 793 3366 
Q 813 3629 825 3888 
Q 838 4147 851 4435 
L 2989 4435 
L 2989 3930 
L 1370 3930 
Q 1363 3834 1350 3670 
Q 1338 3507 1325 3331 
Q 1312 3155 1299 2988 
Q 1286 2822 1274 2726 
z
" transform="scale(0.015625)"/>
       </defs>
       <use xlink:href="#Ubuntu-30"/>
       <use xlink:href="#Ubuntu-2e" x="56.399994"/>
       <use xlink:href="#Ubuntu-38" x="80.999985"/>
       <use xlink:href="#Ubuntu-35" x="137.399979"/>
      </g>
     </g>
    </g>
    <g id="ytick_3">
     <g id="text_7">
      <!-- 0.86 -->
      <g style="fill: #757575" transform="translate(7.2 147.646273) scale(0.08 -0.08)">
       <defs>
        <path id="Ubuntu-36" d="M 403 1779 
Q 403 2426 582 2922 
Q 762 3418 1091 3757 
Q 1421 4096 1891 4272 
Q 2362 4448 2950 4454 
L 2995 3955 
Q 2618 3949 2307 3872 
Q 1997 3795 1753 3628 
Q 1510 3462 1344 3196 
Q 1178 2931 1094 2541 
Q 1261 2618 1469 2669 
Q 1677 2720 1901 2720 
Q 2278 2720 2540 2605 
Q 2803 2490 2969 2301 
Q 3136 2112 3209 1865 
Q 3283 1619 3283 1350 
Q 3283 1107 3200 851 
Q 3117 595 2947 384 
Q 2778 173 2515 38 
Q 2253 -96 1894 -96 
Q 1165 -96 784 403 
Q 403 902 403 1779 
z
M 1837 2234 
Q 1613 2234 1421 2192 
Q 1229 2150 1037 2067 
Q 1030 1997 1027 1923 
Q 1024 1850 1024 1779 
Q 1024 1498 1062 1248 
Q 1101 998 1200 809 
Q 1299 621 1465 509 
Q 1632 397 1888 397 
Q 2099 397 2246 486 
Q 2394 576 2490 717 
Q 2586 858 2627 1021 
Q 2669 1184 2669 1338 
Q 2669 1773 2461 2003 
Q 2253 2234 1837 2234 
z
" transform="scale(0.015625)"/>
       </defs>
       <use xlink:href="#Ubuntu-30"/>
       <use xlink:href="#Ubuntu-2e" x="56.399994"/>
       <use xlink:href="#Ubuntu-38" x="80.999985"/>
       <use xlink:href="#Ubuntu-36" x="137.399979"/>
      </g>
     </g>
    </g>
    <g id="ytick_4">
     <g id="text_8">
      <!-- 0.87 -->
      <g style="fill: #757575" transform="translate(7.2 127.3235) scale(0.08 -0.08)">
       <defs>
        <path id="Ubuntu-37" d="M 1043 0 
Q 1082 512 1226 1078 
Q 1370 1645 1581 2179 
Q 1792 2714 2045 3171 
Q 2298 3629 2541 3917 
L 384 3917 
L 384 4435 
L 3206 4435 
L 3206 3942 
Q 2995 3699 2739 3273 
Q 2483 2848 2256 2320 
Q 2029 1792 1865 1193 
Q 1702 595 1664 0 
L 1043 0 
z
" transform="scale(0.015625)"/>
       </defs>
       <use xlink:href="#Ubuntu-30"/>
       <use xlink:href="#Ubuntu-2e" x="56.399994"/>
       <use xlink:href="#Ubuntu-38" x="80.999985"/>
       <use xlink:href="#Ubuntu-37" x="137.399979"/>
      </g>
     </g>
    </g>
    <g id="ytick_5">
     <g id="text_9">
      <!-- 0.88 -->
      <g style="fill: #757575" transform="translate(7.2 107.000727) scale(0.08 -0.08)">
       <use xlink:href="#Ubuntu-30"/>
       <use xlink:href="#Ubuntu-2e" x="56.399994"/>
       <use xlink:href="#Ubuntu-38" x="80.999985"/>
       <use xlink:href="#Ubuntu-38" x="137.399979"/>
      </g>
     </g>
    </g>
    <g id="ytick_6">
     <g id="text_10">
      <!-- 0.89 -->
      <g style="fill: #757575" transform="translate(7.2 86.677954) scale(0.08 -0.08)">
       <defs>
        <path id="Ubuntu-39" d="M 3206 2662 
Q 3206 1344 2550 669 
Q 1894 -6 602 -13 
L 582 486 
Q 986 486 1309 563 
Q 1632 640 1875 809 
Q 2118 979 2281 1248 
Q 2445 1517 2522 1907 
Q 2355 1830 2144 1782 
Q 1933 1734 1709 1734 
Q 1331 1734 1068 1846 
Q 806 1958 640 2147 
Q 474 2336 400 2582 
Q 326 2829 326 3098 
Q 326 3334 409 3590 
Q 493 3846 662 4057 
Q 832 4269 1094 4403 
Q 1357 4538 1715 4538 
Q 2080 4538 2358 4410 
Q 2637 4282 2825 4038 
Q 3014 3795 3110 3446 
Q 3206 3098 3206 2662 
z
M 1773 2221 
Q 1997 2221 2195 2262 
Q 2394 2304 2579 2387 
Q 2586 2458 2586 2525 
Q 2586 2592 2586 2662 
Q 2586 2938 2547 3190 
Q 2509 3443 2409 3632 
Q 2310 3821 2144 3933 
Q 1978 4045 1722 4045 
Q 1510 4045 1363 3955 
Q 1216 3866 1120 3728 
Q 1024 3590 982 3427 
Q 941 3264 941 3110 
Q 941 2675 1149 2448 
Q 1357 2221 1773 2221 
z
" transform="scale(0.015625)"/>
       </defs>
       <use xlink:href="#Ubuntu-30"/>
       <use xlink:href="#Ubuntu-2e" x="56.399994"/>
       <use xlink:href="#Ubuntu-38" x="80.999985"/>
       <use xlink:href="#Ubuntu-39" x="137.399979"/>
      </g>
     </g>
    </g>
    <g id="ytick_7">
     <g id="text_11">
      <!-- 0.90 -->
      <g style="fill: #757575" transform="translate(7.2 66.355181) scale(0.08 -0.08)">
       <use xlink:href="#Ubuntu-30"/>
       <use xlink:href="#Ubuntu-2e" x="56.399994"/>
       <use xlink:href="#Ubuntu-39" x="80.999985"/>
       <use xlink:href="#Ubuntu-30" x="137.399979"/>
      </g>
     </g>
    </g>
   </g>
   <g id="PolyCollection_1"/>
   <g id="PolyCollection_2">
    <defs>
     <path id="m3c2eeec0c6" d="M 40.164893 -173.167412 
L 40.164893 -55.915938 
L 114.763824 -60.460832 
L 189.362754 -60.994202 
L 189.362754 -175.915938 
L 189.362754 -175.915938 
L 114.763824 -175.692065 
L 40.164893 -173.167412 
z
" style="stroke: #af4035; stroke-opacity: 0.07"/>
    </defs>
    <g clip-path="url(#pd82ac3f14d)">
     <use xlink:href="#m3c2eeec0c6" x="0" y="231.109688" style="fill: #af4035; fill-opacity: 0.07; stroke: #af4035; stroke-opacity: 0.07"/>
    </g>
   </g>
   <g id="PolyCollection_3"/>
   <g id="PolyCollection_4">
    <defs>
     <path id="m8a45a99b24" d="M 40.164893 -150.560332 
L 40.164893 -80.196239 
L 114.763824 -78.095586 
L 189.362754 -77.940875 
L 189.362754 -157.147217 
L 189.362754 -157.147217 
L 114.763824 -156.621517 
L 40.164893 -150.560332 
z
" style="stroke: #505050; stroke-opacity: 0.07"/>
    </defs>
    <g clip-path="url(#pd82ac3f14d)">
     <use xlink:href="#m8a45a99b24" x="0" y="231.109688" style="fill: #505050; fill-opacity: 0.07; stroke: #505050; stroke-opacity: 0.07"/>
    </g>
   </g>
   <g id="line2d_1">
    <path d="M 40.164893 116.568013 
L 114.763824 113.033239 
L 189.362754 112.654618 
" clip-path="url(#pd82ac3f14d)" style="fill: none; stroke: #af4035; stroke-width: 1.2; stroke-linecap: square"/>
   </g>
   <g id="line2d_2">
    <path d="M 40.164893 115.731402 
L 114.763824 113.751136 
L 189.362754 113.565641 
" clip-path="url(#pd82ac3f14d)" style="fill: none; stroke: #505050; stroke-width: 1.2; stroke-linecap: square"/>
   </g>
   <g id="LineCollection_1">
    <path d="M 189.362754 181.19375 
L 189.362754 113.565641 
" clip-path="url(#pd82ac3f14d)" style="fill: none; stroke-dasharray: 4.44,1.92; stroke-dashoffset: 0; stroke: #505050; stroke-width: 1.2"/>
   </g>
   <g id="patch_3">
    <path d="M 32.705 187.49375 
L 32.705 48.89375 
" style="fill: none; stroke: #bbbbbb; stroke-linejoin: miter; stroke-linecap: square"/>
   </g>
   <g id="patch_4">
    <path d="M 32.705 187.49375 
L 196.822647 187.49375 
" style="fill: none; stroke: #bbbbbb; stroke-linejoin: miter; stroke-linecap: square"/>
   </g>
   <g id="text_12">
    <!-- AUC ROC -->
    <g style="fill: #454545" transform="translate(95.038355 38.89375) scale(0.09 -0.09)">
     <defs>
      <path id="Ubuntu-Bold-41" d="M 3482 0 
Q 3411 230 3324 473 
Q 3238 717 3155 960 
L 1427 960 
Q 1344 717 1257 473 
Q 1171 230 1101 0 
L 64 0 
Q 314 717 538 1325 
Q 762 1933 976 2470 
Q 1190 3008 1398 3491 
Q 1606 3974 1830 4435 
L 2784 4435 
Q 3002 3974 3213 3491 
Q 3424 3008 3638 2470 
Q 3853 1933 4077 1325 
Q 4301 717 4550 0 
L 3482 0 
z
M 2285 3430 
Q 2253 3334 2189 3168 
Q 2125 3002 2041 2784 
Q 1958 2566 1859 2304 
Q 1760 2042 1658 1754 
L 2918 1754 
Q 2816 2042 2720 2304 
Q 2624 2566 2537 2784 
Q 2451 3002 2387 3168 
Q 2323 3334 2285 3430 
z
" transform="scale(0.015625)"/>
      <path id="Ubuntu-Bold-55" d="M 2246 -90 
Q 1779 -90 1440 41 
Q 1101 173 880 406 
Q 659 640 553 963 
Q 448 1286 448 1677 
L 448 4435 
L 1446 4435 
L 1446 1760 
Q 1446 1491 1507 1302 
Q 1568 1114 1673 995 
Q 1779 877 1929 825 
Q 2080 774 2259 774 
Q 2624 774 2851 998 
Q 3078 1222 3078 1760 
L 3078 4435 
L 4077 4435 
L 4077 1677 
Q 4077 1286 3968 960 
Q 3859 634 3635 400 
Q 3411 166 3065 38 
Q 2720 -90 2246 -90 
z
" transform="scale(0.015625)"/>
      <path id="Ubuntu-Bold-43" d="M 2534 -90 
Q 1453 -90 886 512 
Q 320 1114 320 2221 
Q 320 2771 493 3203 
Q 666 3635 966 3932 
Q 1267 4230 1683 4384 
Q 2099 4538 2586 4538 
Q 2867 4538 3097 4496 
Q 3328 4454 3501 4400 
Q 3674 4346 3789 4288 
Q 3904 4230 3955 4198 
L 3667 3392 
Q 3462 3501 3190 3577 
Q 2918 3654 2573 3654 
Q 2342 3654 2121 3577 
Q 1901 3501 1731 3331 
Q 1562 3162 1459 2893 
Q 1357 2624 1357 2240 
Q 1357 1933 1424 1667 
Q 1491 1402 1641 1210 
Q 1792 1018 2035 906 
Q 2278 794 2624 794 
Q 2842 794 3014 819 
Q 3187 845 3321 880 
Q 3456 915 3558 960 
Q 3661 1005 3744 1043 
L 4019 243 
Q 3808 115 3424 12 
Q 3040 -90 2534 -90 
z
" transform="scale(0.015625)"/>
      <path id="Ubuntu-Bold-20" transform="scale(0.015625)"/>
      <path id="Ubuntu-Bold-52" d="M 1811 4486 
Q 2810 4486 3341 4131 
Q 3872 3776 3872 3027 
Q 3872 2560 3657 2269 
Q 3443 1978 3040 1811 
Q 3174 1645 3321 1430 
Q 3469 1216 3613 982 
Q 3757 749 3891 496 
Q 4026 243 4141 0 
L 3021 0 
Q 2899 218 2774 442 
Q 2650 666 2518 877 
Q 2387 1088 2259 1277 
Q 2131 1466 2003 1619 
L 1510 1619 
L 1510 0 
L 512 0 
L 512 4371 
Q 838 4435 1187 4460 
Q 1536 4486 1811 4486 
z
M 1869 3635 
Q 1760 3635 1673 3628 
Q 1587 3622 1510 3616 
L 1510 2413 
L 1792 2413 
Q 2355 2413 2598 2553 
Q 2842 2694 2842 3034 
Q 2842 3360 2595 3497 
Q 2349 3635 1869 3635 
z
" transform="scale(0.015625)"/>
      <path id="Ubuntu-Bold-4f" d="M 1350 2221 
Q 1350 1894 1430 1632 
Q 1510 1370 1660 1181 
Q 1811 992 2028 889 
Q 2246 787 2528 787 
Q 2803 787 3024 889 
Q 3245 992 3395 1181 
Q 3546 1370 3626 1632 
Q 3706 1894 3706 2221 
Q 3706 2547 3626 2812 
Q 3546 3078 3395 3267 
Q 3245 3456 3024 3558 
Q 2803 3661 2528 3661 
Q 2246 3661 2028 3555 
Q 1811 3450 1660 3261 
Q 1510 3072 1430 2806 
Q 1350 2541 1350 2221 
z
M 4736 2221 
Q 4736 1651 4566 1219 
Q 4397 787 4102 496 
Q 3808 205 3401 57 
Q 2995 -90 2528 -90 
Q 2074 -90 1670 57 
Q 1267 205 966 496 
Q 666 787 493 1219 
Q 320 1651 320 2221 
Q 320 2790 499 3222 
Q 678 3654 982 3948 
Q 1286 4243 1686 4390 
Q 2086 4538 2528 4538 
Q 2982 4538 3385 4390 
Q 3789 4243 4089 3948 
Q 4390 3654 4563 3222 
Q 4736 2790 4736 2221 
z
" transform="scale(0.015625)"/>
     </defs>
     <use xlink:href="#Ubuntu-Bold-41"/>
     <use xlink:href="#Ubuntu-Bold-55" x="70.099991"/>
     <use xlink:href="#Ubuntu-Bold-43" x="140.799973"/>
     <use xlink:href="#Ubuntu-Bold-20" x="205.59996"/>
     <use xlink:href="#Ubuntu-Bold-52" x="229.599945"/>
     <use xlink:href="#Ubuntu-Bold-4f" x="294.549942"/>
     <use xlink:href="#Ubuntu-Bold-43" x="373.549927"/>
    </g>
   </g>
  </g>
  <g id="axes_2">
   <g id="patch_5">
    <path d="M 229.646176 187.49375 
L 393.763824 187.49375 
L 393.763824 48.89375 
L 229.646176 48.89375 
L 229.646176 187.49375 
z
" style="fill: none"/>
   </g>
   <g id="matplotlib.axis_3">
    <g id="xtick_4">
     <g id="text_13">
      <!-- l1/0.1/saga -->
      <g style="fill: #757575" transform="translate(216.91732 203.7575) scale(0.08 -0.08)">
       <use xlink:href="#Ubuntu-6c"/>
       <use xlink:href="#Ubuntu-31" x="27.299988"/>
       <use xlink:href="#Ubuntu-2f" x="83.699982"/>
       <use xlink:href="#Ubuntu-30" x="122.099976"/>
       <use xlink:href="#Ubuntu-2e" x="178.499969"/>
       <use xlink:href="#Ubuntu-31" x="203.09996"/>
       <use xlink:href="#Ubuntu-2f" x="259.499954"/>
       <use xlink:href="#Ubuntu-73" x="297.899948"/>
       <use xlink:href="#Ubuntu-61" x="342.499939"/>
       <use xlink:href="#Ubuntu-67" x="394.699936"/>
       <use xlink:href="#Ubuntu-61" x="452.499924"/>
      </g>
     </g>
    </g>
    <g id="xtick_5">
     <g id="text_14">
      <!-- l1/1/saga -->
      <g style="fill: #757575" transform="translate(294.75625 203.7575) scale(0.08 -0.08)">
       <use xlink:href="#Ubuntu-6c"/>
       <use xlink:href="#Ubuntu-31" x="27.299988"/>
       <use xlink:href="#Ubuntu-2f" x="83.699982"/>
       <use xlink:href="#Ubuntu-31" x="122.099976"/>
       <use xlink:href="#Ubuntu-2f" x="178.499969"/>
       <use xlink:href="#Ubuntu-73" x="216.899963"/>
       <use xlink:href="#Ubuntu-61" x="261.499954"/>
       <use xlink:href="#Ubuntu-67" x="313.699951"/>
       <use xlink:href="#Ubuntu-61" x="371.499939"/>
      </g>
     </g>
    </g>
    <g id="xtick_6">
     <g id="text_15">
      <!-- l1/10/saga -->
      <g style="fill: #757575" transform="translate(367.09893 203.7575) scale(0.08 -0.08)">
       <use xlink:href="#Ubuntu-6c"/>
       <use xlink:href="#Ubuntu-31" x="27.299988"/>
       <use xlink:href="#Ubuntu-2f" x="83.699982"/>
       <use xlink:href="#Ubuntu-31" x="122.099976"/>
       <use xlink:href="#Ubuntu-30" x="178.499969"/>
       <use xlink:href="#Ubuntu-2f" x="234.899963"/>
       <use xlink:href="#Ubuntu-73" x="273.299957"/>
       <use xlink:href="#Ubuntu-61" x="317.899948"/>
       <use xlink:href="#Ubuntu-67" x="370.099945"/>
       <use xlink:href="#Ubuntu-61" x="427.899933"/>
      </g>
     </g>
    </g>
    <g id="text_16">
     <!-- C -->
     <g style="fill: #505050" transform="translate(229.646176 222.244687) scale(0.09 -0.09)">
      <use xlink:href="#Ubuntu-Italic-43"/>
     </g>
    </g>
   </g>
   <g id="matplotlib.axis_4">
    <g id="ytick_8">
     <g id="text_17">
      <!-- 0.56 -->
      <g style="fill: #757575" transform="translate(204.141176 189.101959) scale(0.08 -0.08)">
       <use xlink:href="#Ubuntu-30"/>
       <use xlink:href="#Ubuntu-2e" x="56.399994"/>
       <use xlink:href="#Ubuntu-35" x="80.999985"/>
       <use xlink:href="#Ubuntu-36" x="137.399979"/>
      </g>
     </g>
    </g>
    <g id="ytick_9">
     <g id="text_18">
      <!-- 0.58 -->
      <g style="fill: #757575" transform="translate(204.141176 165.555759) scale(0.08 -0.08)">
       <use xlink:href="#Ubuntu-30"/>
       <use xlink:href="#Ubuntu-2e" x="56.399994"/>
       <use xlink:href="#Ubuntu-35" x="80.999985"/>
       <use xlink:href="#Ubuntu-38" x="137.399979"/>
      </g>
     </g>
    </g>
    <g id="ytick_10">
     <g id="text_19">
      <!-- 0.60 -->
      <g style="fill: #757575" transform="translate(204.141176 142.009558) scale(0.08 -0.08)">
       <use xlink:href="#Ubuntu-30"/>
       <use xlink:href="#Ubuntu-2e" x="56.399994"/>
       <use xlink:href="#Ubuntu-36" x="80.999985"/>
       <use xlink:href="#Ubuntu-30" x="137.399979"/>
      </g>
     </g>
    </g>
    <g id="ytick_11">
     <g id="text_20">
      <!-- 0.62 -->
      <g style="fill: #757575" transform="translate(204.141176 118.463358) scale(0.08 -0.08)">
       <defs>
        <path id="Ubuntu-32" d="M 2989 3302 
Q 2989 3072 2896 2857 
Q 2803 2643 2649 2435 
Q 2496 2227 2304 2025 
Q 2112 1824 1920 1632 
Q 1811 1523 1667 1376 
Q 1523 1229 1395 1069 
Q 1267 909 1180 761 
Q 1094 614 1094 506 
L 3136 506 
L 3136 0 
L 448 0 
Q 442 38 442 76 
Q 442 115 442 147 
Q 442 448 541 707 
Q 640 966 800 1196 
Q 960 1427 1158 1632 
Q 1357 1837 1549 2029 
Q 1709 2182 1853 2332 
Q 1997 2483 2109 2633 
Q 2221 2784 2288 2944 
Q 2355 3104 2355 3283 
Q 2355 3475 2294 3609 
Q 2234 3744 2131 3833 
Q 2029 3923 1891 3964 
Q 1754 4006 1600 4006 
Q 1414 4006 1260 3955 
Q 1107 3904 985 3837 
Q 864 3770 781 3696 
Q 698 3622 653 3584 
L 358 4006 
Q 416 4070 531 4163 
Q 646 4256 806 4339 
Q 966 4422 1164 4480 
Q 1363 4538 1594 4538 
Q 2291 4538 2640 4214 
Q 2989 3891 2989 3302 
z
" transform="scale(0.015625)"/>
       </defs>
       <use xlink:href="#Ubuntu-30"/>
       <use xlink:href="#Ubuntu-2e" x="56.399994"/>
       <use xlink:href="#Ubuntu-36" x="80.999985"/>
       <use xlink:href="#Ubuntu-32" x="137.399979"/>
      </g>
     </g>
    </g>
    <g id="ytick_12">
     <g id="text_21">
      <!-- 0.64 -->
      <g style="fill: #757575" transform="translate(204.141176 94.917158) scale(0.08 -0.08)">
       <use xlink:href="#Ubuntu-30"/>
       <use xlink:href="#Ubuntu-2e" x="56.399994"/>
       <use xlink:href="#Ubuntu-36" x="80.999985"/>
       <use xlink:href="#Ubuntu-34" x="137.399979"/>
      </g>
     </g>
    </g>
    <g id="ytick_13">
     <g id="text_22">
      <!-- 0.66 -->
      <g style="fill: #757575" transform="translate(204.141176 71.370958) scale(0.08 -0.08)">
       <use xlink:href="#Ubuntu-30"/>
       <use xlink:href="#Ubuntu-2e" x="56.399994"/>
       <use xlink:href="#Ubuntu-36" x="80.999985"/>
       <use xlink:href="#Ubuntu-36" x="137.399979"/>
      </g>
     </g>
    </g>
   </g>
   <g id="PolyCollection_5"/>
   <g id="PolyCollection_6">
    <defs>
     <path id="m3db013241e" d="M 237.10607 -156.213895 
L 237.10607 -55.924196 
L 311.705 -56.212932 
L 386.30393 -55.915938 
L 386.30393 -160.76312 
L 386.30393 -160.76312 
L 311.705 -160.589463 
L 237.10607 -156.213895 
z
" style="stroke: #af4035; stroke-opacity: 0.07"/>
    </defs>
    <g clip-path="url(#p690b7b8582)">
     <use xlink:href="#m3db013241e" x="0" y="231.109688" style="fill: #af4035; fill-opacity: 0.07; stroke: #af4035; stroke-opacity: 0.07"/>
    </g>
   </g>
   <g id="PolyCollection_7"/>
   <g id="PolyCollection_8">
    <defs>
     <path id="m7f20ab8d3b" d="M 237.10607 -170.951391 
L 237.10607 -93.021513 
L 311.705 -90.762935 
L 386.30393 -90.333193 
L 386.30393 -175.915938 
L 386.30393 -175.915938 
L 311.705 -175.448511 
L 237.10607 -170.951391 
z
" style="stroke: #505050; stroke-opacity: 0.07"/>
    </defs>
    <g clip-path="url(#p690b7b8582)">
     <use xlink:href="#m7f20ab8d3b" x="0" y="231.109688" style="fill: #505050; fill-opacity: 0.07; stroke: #505050; stroke-opacity: 0.07"/>
    </g>
   </g>
   <g id="line2d_3">
    <path d="M 237.10607 125.040642 
L 311.705 122.70849 
L 386.30393 122.770159 
" clip-path="url(#p690b7b8582)" style="fill: none; stroke: #af4035; stroke-width: 1.2; stroke-linecap: square"/>
   </g>
   <g id="line2d_4">
    <path d="M 237.10607 99.123236 
L 311.705 98.003965 
L 386.30393 97.985122 
" clip-path="url(#p690b7b8582)" style="fill: none; stroke: #505050; stroke-width: 1.2; stroke-linecap: square"/>
   </g>
   <g id="LineCollection_2">
    <path d="M 386.30393 181.19375 
L 386.30393 97.985122 
" clip-path="url(#p690b7b8582)" style="fill: none; stroke-dasharray: 4.44,1.92; stroke-dashoffset: 0; stroke: #505050; stroke-width: 1.2"/>
   </g>
   <g id="patch_6">
    <path d="M 229.646176 187.49375 
L 229.646176 48.89375 
" style="fill: none; stroke: #bbbbbb; stroke-linejoin: miter; stroke-linecap: square"/>
   </g>
   <g id="patch_7">
    <path d="M 229.646176 187.49375 
L 393.763824 187.49375 
" style="fill: none; stroke: #bbbbbb; stroke-linejoin: miter; stroke-linecap: square"/>
   </g>
   <g id="text_23">
    <!-- Average Precision -->
    <g style="fill: #454545" transform="translate(273.055625 38.89375) scale(0.09 -0.09)">
     <defs>
      <path id="Ubuntu-Bold-76" d="M 1363 0 
Q 1037 640 701 1497 
Q 365 2355 64 3366 
L 1075 3366 
Q 1139 3117 1225 2825 
Q 1312 2534 1405 2236 
Q 1498 1939 1590 1657 
Q 1683 1376 1773 1146 
Q 1856 1376 1952 1657 
Q 2048 1939 2141 2236 
Q 2234 2534 2320 2825 
Q 2406 3117 2470 3366 
L 3456 3366 
Q 3155 2355 2819 1497 
Q 2483 640 2157 0 
L 1363 0 
z
" transform="scale(0.015625)"/>
      <path id="Ubuntu-Bold-65" d="M 288 1658 
Q 288 2106 425 2442 
Q 563 2778 787 3002 
Q 1011 3226 1302 3341 
Q 1594 3456 1901 3456 
Q 2618 3456 3034 3017 
Q 3450 2579 3450 1728 
Q 3450 1645 3443 1545 
Q 3437 1446 3430 1370 
L 1267 1370 
Q 1299 1075 1542 902 
Q 1786 730 2195 730 
Q 2458 730 2710 778 
Q 2963 826 3123 896 
L 3251 122 
Q 3174 83 3046 44 
Q 2918 6 2761 -22 
Q 2605 -51 2425 -70 
Q 2246 -90 2067 -90 
Q 1613 -90 1277 44 
Q 941 179 720 412 
Q 499 646 393 966 
Q 288 1286 288 1658 
z
M 2528 2022 
Q 2522 2144 2486 2259 
Q 2451 2374 2377 2464 
Q 2304 2554 2192 2611 
Q 2080 2669 1914 2669 
Q 1754 2669 1638 2614 
Q 1523 2560 1446 2470 
Q 1370 2381 1328 2262 
Q 1286 2144 1267 2022 
L 2528 2022 
z
" transform="scale(0.015625)"/>
      <path id="Ubuntu-Bold-72" d="M 2477 2522 
Q 2349 2554 2176 2589 
Q 2003 2624 1805 2624 
Q 1715 2624 1590 2608 
Q 1466 2592 1402 2573 
L 1402 0 
L 448 0 
L 448 3187 
Q 704 3277 1053 3357 
Q 1402 3437 1830 3437 
Q 1907 3437 2016 3427 
Q 2125 3418 2233 3402 
Q 2342 3386 2451 3363 
Q 2560 3341 2637 3309 
L 2477 2522 
z
" transform="scale(0.015625)"/>
      <path id="Ubuntu-Bold-61" d="M 1734 666 
Q 1875 666 2003 672 
Q 2131 678 2208 691 
L 2208 1414 
Q 2150 1427 2035 1440 
Q 1920 1453 1824 1453 
Q 1690 1453 1571 1437 
Q 1453 1421 1363 1376 
Q 1274 1331 1222 1254 
Q 1171 1178 1171 1062 
Q 1171 838 1321 752 
Q 1472 666 1734 666 
z
M 1658 3456 
Q 2080 3456 2361 3360 
Q 2643 3264 2812 3085 
Q 2982 2906 3052 2650 
Q 3123 2394 3123 2080 
L 3123 96 
Q 2918 51 2553 -9 
Q 2189 -70 1670 -70 
Q 1344 -70 1078 -12 
Q 813 45 621 176 
Q 429 307 326 518 
Q 224 730 224 1037 
Q 224 1331 342 1536 
Q 461 1741 659 1862 
Q 858 1984 1114 2038 
Q 1370 2093 1645 2093 
Q 1830 2093 1974 2077 
Q 2118 2061 2208 2035 
L 2208 2125 
Q 2208 2368 2061 2515 
Q 1914 2662 1549 2662 
Q 1306 2662 1069 2627 
Q 832 2592 659 2528 
L 538 3296 
Q 621 3322 745 3350 
Q 870 3379 1017 3401 
Q 1165 3424 1328 3440 
Q 1491 3456 1658 3456 
z
" transform="scale(0.015625)"/>
      <path id="Ubuntu-Bold-67" d="M 1261 1792 
Q 1261 992 1907 992 
Q 2054 992 2182 1030 
Q 2310 1069 2400 1120 
L 2400 2643 
Q 2330 2656 2234 2665 
Q 2138 2675 2010 2675 
Q 1632 2675 1446 2425 
Q 1261 2176 1261 1792 
z
M 3354 422 
Q 3354 -403 2934 -803 
Q 2515 -1203 1638 -1203 
Q 1331 -1203 1024 -1148 
Q 717 -1094 454 -1005 
L 621 -205 
Q 845 -294 1091 -345 
Q 1338 -397 1651 -397 
Q 2061 -397 2230 -217 
Q 2400 -38 2400 243 
L 2400 365 
Q 2246 294 2083 259 
Q 1920 224 1728 224 
Q 1030 224 659 637 
Q 288 1050 288 1792 
Q 288 2163 403 2467 
Q 518 2771 739 2988 
Q 960 3206 1280 3324 
Q 1600 3443 2003 3443 
Q 2176 3443 2358 3427 
Q 2541 3411 2720 3385 
Q 2899 3360 3062 3325 
Q 3226 3290 3354 3251 
L 3354 422 
z
" transform="scale(0.015625)"/>
      <path id="Ubuntu-Bold-50" d="M 1843 4486 
Q 2835 4486 3366 4137 
Q 3898 3789 3898 2995 
Q 3898 2195 3360 1840 
Q 2822 1485 1824 1485 
L 1510 1485 
L 1510 0 
L 512 0 
L 512 4371 
Q 838 4435 1203 4460 
Q 1568 4486 1843 4486 
z
M 1907 3635 
Q 1798 3635 1692 3628 
Q 1587 3622 1510 3616 
L 1510 2336 
L 1824 2336 
Q 2342 2336 2604 2477 
Q 2867 2618 2867 3002 
Q 2867 3187 2800 3308 
Q 2733 3430 2608 3504 
Q 2483 3578 2304 3606 
Q 2125 3635 1907 3635 
z
" transform="scale(0.015625)"/>
      <path id="Ubuntu-Bold-63" d="M 288 1683 
Q 288 2048 406 2371 
Q 525 2694 749 2934 
Q 973 3174 1293 3315 
Q 1613 3456 2022 3456 
Q 2291 3456 2515 3408 
Q 2739 3360 2950 3270 
L 2752 2509 
Q 2618 2560 2458 2598 
Q 2298 2637 2099 2637 
Q 1677 2637 1469 2374 
Q 1261 2112 1261 1683 
Q 1261 1229 1456 979 
Q 1651 730 2138 730 
Q 2310 730 2508 762 
Q 2707 794 2874 864 
L 3008 83 
Q 2842 13 2592 -38 
Q 2342 -90 2042 -90 
Q 1581 -90 1248 48 
Q 915 186 700 422 
Q 486 659 387 982 
Q 288 1306 288 1683 
z
" transform="scale(0.015625)"/>
      <path id="Ubuntu-Bold-69" d="M 1402 0 
L 448 0 
L 448 3366 
L 1402 3366 
L 1402 0 
z
M 1491 4339 
Q 1491 4077 1321 3926 
Q 1152 3776 922 3776 
Q 691 3776 521 3926 
Q 352 4077 352 4339 
Q 352 4602 521 4752 
Q 691 4902 922 4902 
Q 1152 4902 1321 4752 
Q 1491 4602 1491 4339 
z
" transform="scale(0.015625)"/>
      <path id="Ubuntu-Bold-73" d="M 1414 685 
Q 1677 685 1785 736 
Q 1894 787 1894 934 
Q 1894 1050 1753 1136 
Q 1613 1222 1325 1331 
Q 1101 1414 918 1504 
Q 736 1594 608 1718 
Q 480 1843 409 2016 
Q 339 2189 339 2432 
Q 339 2906 691 3181 
Q 1043 3456 1658 3456 
Q 1965 3456 2246 3401 
Q 2528 3347 2694 3283 
L 2528 2541 
Q 2362 2598 2166 2643 
Q 1971 2688 1728 2688 
Q 1280 2688 1280 2438 
Q 1280 2381 1299 2336 
Q 1318 2291 1376 2249 
Q 1434 2208 1533 2160 
Q 1632 2112 1786 2054 
Q 2099 1939 2304 1827 
Q 2509 1715 2627 1584 
Q 2746 1453 2794 1293 
Q 2842 1133 2842 922 
Q 2842 422 2467 166 
Q 2093 -90 1408 -90 
Q 960 -90 662 -13 
Q 365 64 250 115 
L 410 890 
Q 653 794 909 739 
Q 1165 685 1414 685 
z
" transform="scale(0.015625)"/>
      <path id="Ubuntu-Bold-6f" d="M 3597 1690 
Q 3597 1293 3481 963 
Q 3366 634 3148 400 
Q 2931 166 2627 38 
Q 2323 -90 1946 -90 
Q 1574 -90 1270 38 
Q 966 166 748 400 
Q 531 634 409 963 
Q 288 1293 288 1690 
Q 288 2086 413 2412 
Q 538 2739 758 2969 
Q 979 3200 1283 3328 
Q 1587 3456 1946 3456 
Q 2310 3456 2614 3328 
Q 2918 3200 3136 2969 
Q 3354 2739 3475 2412 
Q 3597 2086 3597 1690 
z
M 2624 1690 
Q 2624 2131 2448 2384 
Q 2272 2637 1946 2637 
Q 1619 2637 1440 2384 
Q 1261 2131 1261 1690 
Q 1261 1248 1440 989 
Q 1619 730 1946 730 
Q 2272 730 2448 989 
Q 2624 1248 2624 1690 
z
" transform="scale(0.015625)"/>
      <path id="Ubuntu-Bold-6e" d="M 448 3251 
Q 691 3322 1075 3382 
Q 1459 3443 1882 3443 
Q 2310 3443 2595 3331 
Q 2880 3219 3046 3014 
Q 3213 2810 3283 2528 
Q 3354 2246 3354 1901 
L 3354 0 
L 2400 0 
L 2400 1786 
Q 2400 2246 2278 2438 
Q 2157 2630 1824 2630 
Q 1722 2630 1606 2620 
Q 1491 2611 1402 2598 
L 1402 0 
L 448 0 
L 448 3251 
z
" transform="scale(0.015625)"/>
     </defs>
     <use xlink:href="#Ubuntu-Bold-41"/>
     <use xlink:href="#Ubuntu-Bold-76" x="68.599991"/>
     <use xlink:href="#Ubuntu-Bold-65" x="122.224976"/>
     <use xlink:href="#Ubuntu-Bold-72" x="180.624969"/>
     <use xlink:href="#Ubuntu-Bold-61" x="221.824966"/>
     <use xlink:href="#Ubuntu-Bold-67" x="277.124954"/>
     <use xlink:href="#Ubuntu-Bold-65" x="336.524948"/>
     <use xlink:href="#Ubuntu-Bold-20" x="394.924942"/>
     <use xlink:href="#Ubuntu-Bold-50" x="418.924927"/>
     <use xlink:href="#Ubuntu-Bold-72" x="483.324921"/>
     <use xlink:href="#Ubuntu-Bold-65" x="524.524918"/>
     <use xlink:href="#Ubuntu-Bold-63" x="582.924911"/>
     <use xlink:href="#Ubuntu-Bold-69" x="632.924896"/>
     <use xlink:href="#Ubuntu-Bold-73" x="661.82489"/>
     <use xlink:href="#Ubuntu-Bold-69" x="710.324875"/>
     <use xlink:href="#Ubuntu-Bold-6f" x="739.224869"/>
     <use xlink:href="#Ubuntu-Bold-6e" x="799.924866"/>
    </g>
   </g>
  </g>
  <g id="axes_3">
   <g id="patch_8">
    <path d="M 426.587353 187.49375 
L 590.705 187.49375 
L 590.705 48.89375 
L 426.587353 48.89375 
L 426.587353 187.49375 
z
" style="fill: none"/>
   </g>
   <g id="matplotlib.axis_5">
    <g id="xtick_7">
     <g id="text_24">
      <!-- l1/0.1/saga -->
      <g style="fill: #757575" transform="translate(413.858496 203.7575) scale(0.08 -0.08)">
       <use xlink:href="#Ubuntu-6c"/>
       <use xlink:href="#Ubuntu-31" x="27.299988"/>
       <use xlink:href="#Ubuntu-2f" x="83.699982"/>
       <use xlink:href="#Ubuntu-30" x="122.099976"/>
       <use xlink:href="#Ubuntu-2e" x="178.499969"/>
       <use xlink:href="#Ubuntu-31" x="203.09996"/>
       <use xlink:href="#Ubuntu-2f" x="259.499954"/>
       <use xlink:href="#Ubuntu-73" x="297.899948"/>
       <use xlink:href="#Ubuntu-61" x="342.499939"/>
       <use xlink:href="#Ubuntu-67" x="394.699936"/>
       <use xlink:href="#Ubuntu-61" x="452.499924"/>
      </g>
     </g>
    </g>
    <g id="xtick_8">
     <g id="text_25">
      <!-- l1/1/saga -->
      <g style="fill: #757575" transform="translate(491.697426 203.7575) scale(0.08 -0.08)">
       <use xlink:href="#Ubuntu-6c"/>
       <use xlink:href="#Ubuntu-31" x="27.299988"/>
       <use xlink:href="#Ubuntu-2f" x="83.699982"/>
       <use xlink:href="#Ubuntu-31" x="122.099976"/>
       <use xlink:href="#Ubuntu-2f" x="178.499969"/>
       <use xlink:href="#Ubuntu-73" x="216.899963"/>
       <use xlink:href="#Ubuntu-61" x="261.499954"/>
       <use xlink:href="#Ubuntu-67" x="313.699951"/>
       <use xlink:href="#Ubuntu-61" x="371.499939"/>
      </g>
     </g>
    </g>
    <g id="xtick_9">
     <g id="text_26">
      <!-- l1/10/saga -->
      <g style="fill: #757575" transform="translate(564.040107 203.7575) scale(0.08 -0.08)">
       <use xlink:href="#Ubuntu-6c"/>
       <use xlink:href="#Ubuntu-31" x="27.299988"/>
       <use xlink:href="#Ubuntu-2f" x="83.699982"/>
       <use xlink:href="#Ubuntu-31" x="122.099976"/>
       <use xlink:href="#Ubuntu-30" x="178.499969"/>
       <use xlink:href="#Ubuntu-2f" x="234.899963"/>
       <use xlink:href="#Ubuntu-73" x="273.299957"/>
       <use xlink:href="#Ubuntu-61" x="317.899948"/>
       <use xlink:href="#Ubuntu-67" x="370.099945"/>
       <use xlink:href="#Ubuntu-61" x="427.899933"/>
      </g>
     </g>
    </g>
    <g id="text_27">
     <!-- C -->
     <g style="fill: #505050" transform="translate(426.587353 222.244687) scale(0.09 -0.09)">
      <use xlink:href="#Ubuntu-Italic-43"/>
     </g>
    </g>
   </g>
   <g id="matplotlib.axis_6">
    <g id="ytick_14">
     <g id="text_28">
      <!-- 0.27 -->
      <g style="fill: #757575" transform="translate(401.082353 180.264397) scale(0.08 -0.08)">
       <use xlink:href="#Ubuntu-30"/>
       <use xlink:href="#Ubuntu-2e" x="56.399994"/>
       <use xlink:href="#Ubuntu-32" x="80.999985"/>
       <use xlink:href="#Ubuntu-37" x="137.399979"/>
      </g>
     </g>
    </g>
    <g id="ytick_15">
     <g id="text_29">
      <!-- 0.28 -->
      <g style="fill: #757575" transform="translate(401.082353 160.531309) scale(0.08 -0.08)">
       <use xlink:href="#Ubuntu-30"/>
       <use xlink:href="#Ubuntu-2e" x="56.399994"/>
       <use xlink:href="#Ubuntu-32" x="80.999985"/>
       <use xlink:href="#Ubuntu-38" x="137.399979"/>
      </g>
     </g>
    </g>
    <g id="ytick_16">
     <g id="text_30">
      <!-- 0.29 -->
      <g style="fill: #757575" transform="translate(401.082353 140.798221) scale(0.08 -0.08)">
       <use xlink:href="#Ubuntu-30"/>
       <use xlink:href="#Ubuntu-2e" x="56.399994"/>
       <use xlink:href="#Ubuntu-32" x="80.999985"/>
       <use xlink:href="#Ubuntu-39" x="137.399979"/>
      </g>
     </g>
    </g>
    <g id="ytick_17">
     <g id="text_31">
      <!-- 0.30 -->
      <g style="fill: #757575" transform="translate(401.082353 121.065133) scale(0.08 -0.08)">
       <defs>
        <path id="Ubuntu-33" d="M 1446 435 
Q 2016 435 2262 659 
Q 2509 883 2509 1261 
Q 2509 1504 2406 1670 
Q 2304 1837 2137 1936 
Q 1971 2035 1750 2076 
Q 1530 2118 1299 2118 
L 1146 2118 
L 1146 2605 
L 1357 2605 
Q 1517 2605 1686 2637 
Q 1856 2669 1997 2752 
Q 2138 2835 2227 2979 
Q 2317 3123 2317 3341 
Q 2317 3520 2253 3648 
Q 2189 3776 2083 3859 
Q 1978 3942 1840 3977 
Q 1702 4013 1549 4013 
Q 1242 4013 1027 3923 
Q 813 3834 666 3738 
L 435 4192 
Q 512 4243 630 4304 
Q 749 4365 896 4416 
Q 1043 4467 1212 4502 
Q 1382 4538 1568 4538 
Q 1920 4538 2176 4451 
Q 2432 4365 2598 4208 
Q 2765 4051 2848 3836 
Q 2931 3622 2931 3373 
Q 2931 3027 2732 2780 
Q 2534 2534 2253 2406 
Q 2426 2355 2586 2259 
Q 2746 2163 2864 2016 
Q 2982 1869 3056 1677 
Q 3130 1485 3130 1248 
Q 3130 960 3030 713 
Q 2931 467 2723 288 
Q 2515 109 2201 6 
Q 1888 -96 1459 -96 
Q 1293 -96 1117 -70 
Q 941 -45 787 -6 
Q 634 32 518 70 
Q 403 109 352 134 
L 467 653 
Q 576 602 829 518 
Q 1082 435 1446 435 
z
" transform="scale(0.015625)"/>
       </defs>
       <use xlink:href="#Ubuntu-30"/>
       <use xlink:href="#Ubuntu-2e" x="56.399994"/>
       <use xlink:href="#Ubuntu-33" x="80.999985"/>
       <use xlink:href="#Ubuntu-30" x="137.399979"/>
      </g>
     </g>
    </g>
    <g id="ytick_18">
     <g id="text_32">
      <!-- 0.31 -->
      <g style="fill: #757575" transform="translate(401.082353 101.332045) scale(0.08 -0.08)">
       <use xlink:href="#Ubuntu-30"/>
       <use xlink:href="#Ubuntu-2e" x="56.399994"/>
       <use xlink:href="#Ubuntu-33" x="80.999985"/>
       <use xlink:href="#Ubuntu-31" x="137.399979"/>
      </g>
     </g>
    </g>
    <g id="ytick_19">
     <g id="text_33">
      <!-- 0.32 -->
      <g style="fill: #757575" transform="translate(401.082353 81.598957) scale(0.08 -0.08)">
       <use xlink:href="#Ubuntu-30"/>
       <use xlink:href="#Ubuntu-2e" x="56.399994"/>
       <use xlink:href="#Ubuntu-33" x="80.999985"/>
       <use xlink:href="#Ubuntu-32" x="137.399979"/>
      </g>
     </g>
    </g>
    <g id="ytick_20">
     <g id="text_34">
      <!-- 0.33 -->
      <g style="fill: #757575" transform="translate(401.082353 61.865869) scale(0.08 -0.08)">
       <use xlink:href="#Ubuntu-30"/>
       <use xlink:href="#Ubuntu-2e" x="56.399994"/>
       <use xlink:href="#Ubuntu-33" x="80.999985"/>
       <use xlink:href="#Ubuntu-33" x="137.399979"/>
      </g>
     </g>
    </g>
   </g>
   <g id="PolyCollection_9"/>
   <g id="PolyCollection_10">
    <defs>
     <path id="m8060dd3407" d="M 434.047246 -159.104621 
L 434.047246 -55.915938 
L 508.646176 -59.899004 
L 583.245107 -57.895412 
L 583.245107 -151.487122 
L 583.245107 -151.487122 
L 508.646176 -152.302542 
L 434.047246 -159.104621 
z
" style="stroke: #af4035; stroke-opacity: 0.07"/>
    </defs>
    <g clip-path="url(#p0162cdb1bf)">
     <use xlink:href="#m8060dd3407" x="0" y="231.109688" style="fill: #af4035; fill-opacity: 0.07; stroke: #af4035; stroke-opacity: 0.07"/>
    </g>
   </g>
   <g id="PolyCollection_11"/>
   <g id="PolyCollection_12">
    <defs>
     <path id="mc74989dff8" d="M 434.047246 -175.915938 
L 434.047246 -91.256354 
L 508.646176 -87.957304 
L 583.245107 -87.957304 
L 583.245107 -174.986468 
L 583.245107 -174.986468 
L 508.646176 -174.986468 
L 434.047246 -175.915938 
z
" style="stroke: #505050; stroke-opacity: 0.07"/>
    </defs>
    <g clip-path="url(#p0162cdb1bf)">
     <use xlink:href="#mc74989dff8" x="0" y="231.109688" style="fill: #505050; fill-opacity: 0.07; stroke: #505050; stroke-opacity: 0.07"/>
    </g>
   </g>
   <g id="line2d_5">
    <path d="M 434.047246 123.599408 
L 508.646176 125.008914 
L 583.245107 126.418421 
" clip-path="url(#p0162cdb1bf)" style="fill: none; stroke: #af4035; stroke-width: 1.2; stroke-linecap: square"/>
   </g>
   <g id="line2d_6">
    <path d="M 434.047246 97.523542 
L 508.646176 99.637801 
L 583.245107 99.637801 
" clip-path="url(#p0162cdb1bf)" style="fill: none; stroke: #505050; stroke-width: 1.2; stroke-linecap: square"/>
   </g>
   <g id="LineCollection_3">
    <path d="M 434.047246 181.19375 
L 434.047246 97.523542 
" clip-path="url(#p0162cdb1bf)" style="fill: none; stroke-dasharray: 4.44,1.92; stroke-dashoffset: 0; stroke: #505050; stroke-width: 1.2"/>
   </g>
   <g id="patch_9">
    <path d="M 426.587353 187.49375 
L 426.587353 48.89375 
" style="fill: none; stroke: #bbbbbb; stroke-linejoin: miter; stroke-linecap: square"/>
   </g>
   <g id="patch_10">
    <path d="M 426.587353 187.49375 
L 590.705 187.49375 
" style="fill: none; stroke: #bbbbbb; stroke-linejoin: miter; stroke-linecap: square"/>
   </g>
   <g id="text_35">
    <!-- Card Precision@100 -->
    <g style="fill: #454545" transform="translate(465.696489 38.89375) scale(0.09 -0.09)">
     <defs>
      <path id="Ubuntu-Bold-64" d="M 1261 1709 
Q 1261 1267 1459 998 
Q 1658 730 2048 730 
Q 2176 730 2285 739 
Q 2394 749 2464 762 
L 2464 2496 
Q 2374 2554 2230 2592 
Q 2086 2630 1939 2630 
Q 1261 2630 1261 1709 
z
M 3418 109 
Q 3290 70 3123 35 
Q 2957 0 2774 -25 
Q 2592 -51 2403 -67 
Q 2214 -83 2042 -83 
Q 1626 -83 1299 38 
Q 973 160 749 387 
Q 525 614 406 937 
Q 288 1261 288 1664 
Q 288 2074 390 2403 
Q 493 2733 685 2963 
Q 877 3194 1155 3315 
Q 1434 3437 1792 3437 
Q 1990 3437 2147 3398 
Q 2304 3360 2464 3290 
L 2464 4813 
L 3418 4966 
L 3418 109 
z
" transform="scale(0.015625)"/>
      <path id="Ubuntu-Bold-40" d="M 4486 179 
Q 4301 179 4115 224 
Q 3930 269 3808 384 
Q 3526 186 3098 186 
Q 2778 186 2512 285 
Q 2246 384 2057 582 
Q 1869 781 1763 1072 
Q 1658 1363 1658 1747 
Q 1658 2074 1763 2355 
Q 1869 2637 2073 2845 
Q 2278 3053 2576 3174 
Q 2874 3296 3251 3296 
Q 3629 3296 3920 3229 
Q 4211 3162 4403 3091 
L 4403 1082 
Q 4403 934 4464 883 
Q 4525 832 4640 832 
Q 4742 832 4841 889 
Q 4941 947 5011 1097 
Q 5082 1248 5126 1507 
Q 5171 1766 5171 2163 
Q 5171 2560 5033 2889 
Q 4896 3219 4637 3452 
Q 4378 3686 4003 3817 
Q 3629 3949 3155 3949 
Q 2701 3949 2320 3795 
Q 1939 3642 1660 3357 
Q 1382 3072 1225 2662 
Q 1069 2253 1069 1741 
Q 1069 1210 1222 810 
Q 1376 410 1661 141 
Q 1946 -128 2352 -265 
Q 2758 -403 3270 -403 
Q 3590 -403 3875 -361 
Q 4160 -320 4352 -282 
L 4448 -883 
Q 4288 -934 3961 -992 
Q 3635 -1050 3270 -1050 
Q 2656 -1050 2118 -890 
Q 1581 -730 1181 -390 
Q 781 -51 550 477 
Q 320 1005 320 1741 
Q 320 2451 563 2985 
Q 806 3520 1203 3878 
Q 1600 4237 2109 4416 
Q 2618 4595 3155 4595 
Q 3744 4595 4249 4432 
Q 4755 4269 5123 3955 
Q 5491 3642 5702 3178 
Q 5914 2714 5914 2112 
Q 5914 1645 5814 1283 
Q 5715 922 5526 678 
Q 5338 435 5075 307 
Q 4813 179 4486 179 
z
M 3584 941 
Q 3571 992 3564 1091 
Q 3558 1190 3558 1280 
L 3558 2586 
Q 3430 2611 3290 2611 
Q 3078 2611 2931 2544 
Q 2784 2477 2694 2361 
Q 2605 2246 2563 2089 
Q 2522 1933 2522 1747 
Q 2522 1562 2554 1405 
Q 2586 1248 2666 1133 
Q 2746 1018 2880 950 
Q 3014 883 3213 883 
Q 3328 883 3430 899 
Q 3533 915 3584 941 
z
" transform="scale(0.015625)"/>
      <path id="Ubuntu-Bold-31" d="M 448 3514 
Q 634 3590 835 3689 
Q 1037 3789 1229 3907 
Q 1421 4026 1597 4157 
Q 1773 4288 1914 4435 
L 2579 4435 
L 2579 0 
L 1626 0 
L 1626 3194 
Q 1434 3066 1197 2960 
Q 960 2854 736 2778 
L 448 3514 
z
" transform="scale(0.015625)"/>
      <path id="Ubuntu-Bold-30" d="M 3418 2227 
Q 3418 1107 2992 508 
Q 2566 -90 1818 -90 
Q 1069 -90 643 508 
Q 218 1107 218 2227 
Q 218 2784 330 3213 
Q 442 3642 653 3936 
Q 864 4230 1158 4384 
Q 1453 4538 1818 4538 
Q 2566 4538 2992 3939 
Q 3418 3341 3418 2227 
z
M 2445 2227 
Q 2445 2560 2413 2832 
Q 2381 3104 2310 3302 
Q 2240 3501 2118 3609 
Q 1997 3718 1818 3718 
Q 1638 3718 1520 3609 
Q 1402 3501 1328 3302 
Q 1254 3104 1222 2832 
Q 1190 2560 1190 2227 
Q 1190 1894 1222 1619 
Q 1254 1344 1328 1145 
Q 1402 947 1520 838 
Q 1638 730 1818 730 
Q 1997 730 2118 838 
Q 2240 947 2310 1145 
Q 2381 1344 2413 1619 
Q 2445 1894 2445 2227 
z
" transform="scale(0.015625)"/>
     </defs>
     <use xlink:href="#Ubuntu-Bold-43"/>
     <use xlink:href="#Ubuntu-Bold-61" x="65.799988"/>
     <use xlink:href="#Ubuntu-Bold-72" x="121.099976"/>
     <use xlink:href="#Ubuntu-Bold-64" x="162.299973"/>
     <use xlink:href="#Ubuntu-Bold-20" x="222.699966"/>
     <use xlink:href="#Ubuntu-Bold-50" x="246.699951"/>
     <use xlink:href="#Ubuntu-Bold-72" x="311.099945"/>
     <use xlink:href="#Ubuntu-Bold-65" x="352.299942"/>
     <use xlink:href="#Ubuntu-Bold-63" x="410.699936"/>
     <use xlink:href="#Ubuntu-Bold-69" x="460.699921"/>
     <use xlink:href="#Ubuntu-Bold-73" x="489.599915"/>
     <use xlink:href="#Ubuntu-Bold-69" x="538.099899"/>
     <use xlink:href="#Ubuntu-Bold-6f" x="566.999893"/>
     <use xlink:href="#Ubuntu-Bold-6e" x="627.69989"/>
     <use xlink:href="#Ubuntu-Bold-40" x="686.599884"/>
     <use xlink:href="#Ubuntu-Bold-31" x="783.999878"/>
     <use xlink:href="#Ubuntu-Bold-30" x="840.799866"/>
     <use xlink:href="#Ubuntu-Bold-30" x="897.599854"/>
    </g>
   </g>
   <g id="legend_1">
    <g id="line2d_7">
     <path d="M 246.994743 13.8075 
L 254.994743 13.8075 
L 262.994743 13.8075 
" style="fill: none; stroke: #af4035; stroke-width: 1.2; stroke-linecap: square"/>
    </g>
    <g id="text_36">
     <!-- Test -->
     <g style="fill: #4b4b4b" transform="translate(269.394743 16.6075) scale(0.08 -0.08)">
      <defs>
       <path id="Ubuntu-54" d="M 3514 4435 
L 3514 3898 
L 2118 3898 
L 2118 0 
L 1498 0 
L 1498 3898 
L 102 3898 
L 102 4435 
L 3514 4435 
z
" transform="scale(0.015625)"/>
       <path id="Ubuntu-65" d="M 326 1658 
Q 326 2099 454 2428 
Q 582 2758 793 2976 
Q 1005 3194 1280 3302 
Q 1555 3411 1843 3411 
Q 2515 3411 2873 2992 
Q 3232 2573 3232 1715 
Q 3232 1677 3232 1616 
Q 3232 1555 3226 1504 
L 947 1504 
Q 986 986 1248 717 
Q 1510 448 2067 448 
Q 2381 448 2595 502 
Q 2810 557 2918 608 
L 3002 109 
Q 2893 51 2621 -13 
Q 2349 -77 2003 -77 
Q 1568 -77 1251 54 
Q 934 186 729 416 
Q 525 646 425 963 
Q 326 1280 326 1658 
z
M 2611 1984 
Q 2618 2387 2410 2646 
Q 2202 2906 1837 2906 
Q 1632 2906 1475 2826 
Q 1318 2746 1209 2618 
Q 1101 2490 1040 2323 
Q 979 2157 960 1984 
L 2611 1984 
z
" transform="scale(0.015625)"/>
       <path id="Ubuntu-74" d="M 1069 3328 
L 2330 3328 
L 2330 2829 
L 1069 2829 
L 1069 1293 
Q 1069 1043 1107 880 
Q 1146 717 1222 624 
Q 1299 531 1414 492 
Q 1530 454 1683 454 
Q 1952 454 2115 515 
Q 2278 576 2342 602 
L 2458 109 
Q 2368 64 2144 -3 
Q 1920 -70 1632 -70 
Q 1293 -70 1072 16 
Q 851 102 716 275 
Q 582 448 528 701 
Q 474 954 474 1286 
L 474 4256 
L 1069 4358 
L 1069 3328 
z
" transform="scale(0.015625)"/>
      </defs>
      <use xlink:href="#Ubuntu-54"/>
      <use xlink:href="#Ubuntu-65" x="50.999985"/>
      <use xlink:href="#Ubuntu-73" x="106.899979"/>
      <use xlink:href="#Ubuntu-74" x="151.499969"/>
     </g>
    </g>
    <g id="line2d_8">
     <path d="M 300.730993 13.8075 
L 308.730993 13.8075 
L 316.730993 13.8075 
" style="fill: none; stroke: #505050; stroke-width: 1.2; stroke-linecap: square"/>
    </g>
    <g id="text_37">
     <!-- Validation -->
     <g style="fill: #4b4b4b" transform="translate(323.130993 16.6075) scale(0.08 -0.08)">
      <defs>
       <path id="Ubuntu-56" d="M 4134 4435 
Q 3891 3731 3670 3132 
Q 3450 2534 3238 1996 
Q 3027 1459 2819 969 
Q 2611 480 2394 0 
L 1811 0 
Q 1594 480 1386 969 
Q 1178 1459 963 1996 
Q 749 2534 525 3132 
Q 301 3731 64 4435 
L 749 4435 
Q 1094 3424 1427 2489 
Q 1760 1555 2112 736 
Q 2464 1549 2797 2486 
Q 3130 3424 3469 4435 
L 4134 4435 
z
" transform="scale(0.015625)"/>
       <path id="Ubuntu-69" d="M 1107 0 
L 512 0 
L 512 3328 
L 1107 3328 
L 1107 0 
z
M 806 3930 
Q 646 3930 534 4035 
Q 422 4141 422 4320 
Q 422 4499 534 4604 
Q 646 4710 806 4710 
Q 966 4710 1078 4604 
Q 1190 4499 1190 4320 
Q 1190 4141 1078 4035 
Q 966 3930 806 3930 
z
" transform="scale(0.015625)"/>
       <path id="Ubuntu-64" d="M 2662 2624 
Q 2554 2714 2349 2797 
Q 2144 2880 1901 2880 
Q 1645 2880 1462 2787 
Q 1280 2694 1165 2531 
Q 1050 2368 998 2144 
Q 947 1920 947 1664 
Q 947 1082 1235 765 
Q 1523 448 2003 448 
Q 2246 448 2409 470 
Q 2573 493 2662 518 
L 2662 2624 
z
M 2662 4864 
L 3258 4966 
L 3258 96 
Q 3053 38 2733 -19 
Q 2413 -77 1997 -77 
Q 1613 -77 1305 44 
Q 998 166 780 390 
Q 563 614 444 937 
Q 326 1261 326 1664 
Q 326 2048 425 2368 
Q 525 2688 717 2918 
Q 909 3149 1187 3277 
Q 1466 3405 1824 3405 
Q 2112 3405 2333 3328 
Q 2554 3251 2662 3181 
L 2662 4864 
z
" transform="scale(0.015625)"/>
       <path id="Ubuntu-6f" d="M 3450 1664 
Q 3450 1267 3334 947 
Q 3219 627 3011 396 
Q 2803 166 2515 41 
Q 2227 -83 1888 -83 
Q 1549 -83 1261 41 
Q 973 166 765 396 
Q 557 627 441 947 
Q 326 1267 326 1664 
Q 326 2054 441 2377 
Q 557 2701 765 2931 
Q 973 3162 1261 3286 
Q 1549 3411 1888 3411 
Q 2227 3411 2515 3286 
Q 2803 3162 3011 2931 
Q 3219 2701 3334 2377 
Q 3450 2054 3450 1664 
z
M 2829 1664 
Q 2829 2227 2576 2556 
Q 2323 2886 1888 2886 
Q 1453 2886 1200 2556 
Q 947 2227 947 1664 
Q 947 1101 1200 771 
Q 1453 442 1888 442 
Q 2323 442 2576 771 
Q 2829 1101 2829 1664 
z
" transform="scale(0.015625)"/>
       <path id="Ubuntu-6e" d="M 512 3232 
Q 717 3283 1056 3340 
Q 1395 3398 1837 3398 
Q 2234 3398 2496 3286 
Q 2758 3174 2915 2972 
Q 3072 2771 3136 2489 
Q 3200 2208 3200 1869 
L 3200 0 
L 2605 0 
L 2605 1741 
Q 2605 2048 2563 2265 
Q 2522 2483 2426 2617 
Q 2330 2752 2170 2813 
Q 2010 2874 1773 2874 
Q 1677 2874 1574 2867 
Q 1472 2861 1379 2851 
Q 1286 2842 1212 2829 
Q 1139 2816 1107 2810 
L 1107 0 
L 512 0 
L 512 3232 
z
" transform="scale(0.015625)"/>
      </defs>
      <use xlink:href="#Ubuntu-56"/>
      <use xlink:href="#Ubuntu-61" x="63.099991"/>
      <use xlink:href="#Ubuntu-6c" x="115.299988"/>
      <use xlink:href="#Ubuntu-69" x="142.599976"/>
      <use xlink:href="#Ubuntu-64" x="167.899963"/>
      <use xlink:href="#Ubuntu-61" x="226.799957"/>
      <use xlink:href="#Ubuntu-74" x="278.999954"/>
      <use xlink:href="#Ubuntu-69" x="319.199951"/>
      <use xlink:href="#Ubuntu-6f" x="344.499939"/>
      <use xlink:href="#Ubuntu-6e" x="403.499924"/>
     </g>
    </g>
   </g>
  </g>
 </g>
 <defs>
  <clipPath id="pd82ac3f14d">
   <rect x="32.705" y="48.89375" width="164.117647" height="138.6"/>
  </clipPath>
  <clipPath id="p690b7b8582">
   <rect x="229.646176" y="48.89375" width="164.117647" height="138.6"/>
  </clipPath>
  <clipPath id="p0162cdb1bf">
   <rect x="426.587353" y="48.89375" width="164.117647" height="138.6"/>
  </clipPath>
 </defs>
</svg>
