<?xml version="1.0" encoding="utf-8" standalone="no"?>
<!DOCTYPE svg PUBLIC "-//W3C//DTD SVG 1.1//EN"
  "http://www.w3.org/Graphics/SVG/1.1/DTD/svg11.dtd">
<svg xmlns:xlink="http://www.w3.org/1999/xlink" width="480.78875pt" height="198.923438pt" viewBox="0 0 480.78875 198.923438" xmlns="http://www.w3.org/2000/svg" version="1.1">
 <metadata>
  <rdf:RDF xmlns:dc="http://purl.org/dc/elements/1.1/" xmlns:cc="http://creativecommons.org/ns#" xmlns:rdf="http://www.w3.org/1999/02/22-rdf-syntax-ns#">
   <cc:Work>
    <dc:type rdf:resource="http://purl.org/dc/dcmitype/StillImage"/>
    <dc:date>2024-03-18T12:57:15.832816</dc:date>
    <dc:format>image/svg+xml</dc:format>
    <dc:creator>
     <cc:Agent>
      <dc:title>Matplotlib v3.7.3, https://matplotlib.org/</dc:title>
     </cc:Agent>
    </dc:creator>
   </cc:Work>
  </rdf:RDF>
 </metadata>
 <defs>
  <style type="text/css">*{stroke-linejoin: round; stroke-linecap: butt}</style>
 </defs>
 <g id="figure_1">
  <g id="patch_1">
   <path d="M 0 198.923438 
L 480.78875 198.923438 
L 480.78875 0 
L 0 0 
L 0 198.923438 
z
" style="fill: none"/>
  </g>
  <g id="axes_1">
   <g id="patch_2">
    <path d="M 21.6925 163.8875 
L 468.0925 163.8875 
L 468.0925 25.2875 
L 21.6925 25.2875 
L 21.6925 163.8875 
z
" style="fill: none"/>
   </g>
   <g id="matplotlib.axis_1">
    <g id="xtick_1">
     <g id="line2d_1">
      <path d="M 21.6925 163.8875 
L 21.6925 25.2875 
" clip-path="url(#p9e2ec49a31)" style="fill: none; stroke-dasharray: 0.5,0.825; stroke-dashoffset: 0; stroke: #d9d9d9; stroke-width: 0.5"/>
     </g>
     <g id="text_1">
      <!-- 0.0 -->
      <g style="fill: #757575" transform="translate(16.19625 173.595) scale(0.08 -0.08)">
       <defs>
        <path id="Ubuntu-30" d="M 320 2221 
Q 320 3334 713 3936 
Q 1107 4538 1805 4538 
Q 2502 4538 2896 3936 
Q 3290 3334 3290 2221 
Q 3290 1107 2896 505 
Q 2502 -96 1805 -96 
Q 1107 -96 713 505 
Q 320 1107 320 2221 
z
M 2662 2221 
Q 2662 2586 2620 2912 
Q 2579 3238 2480 3481 
Q 2381 3725 2214 3869 
Q 2048 4013 1805 4013 
Q 1562 4013 1395 3869 
Q 1229 3725 1129 3481 
Q 1030 3238 988 2912 
Q 947 2586 947 2221 
Q 947 1856 988 1529 
Q 1030 1203 1129 960 
Q 1229 717 1395 573 
Q 1562 429 1805 429 
Q 2048 429 2214 573 
Q 2381 717 2480 960 
Q 2579 1203 2620 1529 
Q 2662 1856 2662 2221 
z
" transform="scale(0.015625)"/>
        <path id="Ubuntu-2e" d="M 1216 346 
Q 1216 173 1101 45 
Q 986 -83 787 -83 
Q 589 -83 473 45 
Q 358 173 358 346 
Q 358 518 473 646 
Q 589 774 787 774 
Q 986 774 1101 646 
Q 1216 518 1216 346 
z
" transform="scale(0.015625)"/>
       </defs>
       <use xlink:href="#Ubuntu-30"/>
       <use xlink:href="#Ubuntu-2e" x="56.399994"/>
       <use xlink:href="#Ubuntu-30" x="80.999985"/>
      </g>
     </g>
    </g>
    <g id="xtick_2">
     <g id="line2d_2">
      <path d="M 110.9725 163.8875 
L 110.9725 25.2875 
" clip-path="url(#p9e2ec49a31)" style="fill: none; stroke-dasharray: 0.5,0.825; stroke-dashoffset: 0; stroke: #d9d9d9; stroke-width: 0.5"/>
     </g>
     <g id="text_2">
      <!-- 0.2 -->
      <g style="fill: #757575" transform="translate(105.47625 173.595) scale(0.08 -0.08)">
       <defs>
        <path id="Ubuntu-32" d="M 2989 3302 
Q 2989 3072 2896 2857 
Q 2803 2643 2649 2435 
Q 2496 2227 2304 2025 
Q 2112 1824 1920 1632 
Q 1811 1523 1667 1376 
Q 1523 1229 1395 1069 
Q 1267 909 1180 761 
Q 1094 614 1094 506 
L 3136 506 
L 3136 0 
L 448 0 
Q 442 38 442 76 
Q 442 115 442 147 
Q 442 448 541 707 
Q 640 966 800 1196 
Q 960 1427 1158 1632 
Q 1357 1837 1549 2029 
Q 1709 2182 1853 2332 
Q 1997 2483 2109 2633 
Q 2221 2784 2288 2944 
Q 2355 3104 2355 3283 
Q 2355 3475 2294 3609 
Q 2234 3744 2131 3833 
Q 2029 3923 1891 3964 
Q 1754 4006 1600 4006 
Q 1414 4006 1260 3955 
Q 1107 3904 985 3837 
Q 864 3770 781 3696 
Q 698 3622 653 3584 
L 358 4006 
Q 416 4070 531 4163 
Q 646 4256 806 4339 
Q 966 4422 1164 4480 
Q 1363 4538 1594 4538 
Q 2291 4538 2640 4214 
Q 2989 3891 2989 3302 
z
" transform="scale(0.015625)"/>
       </defs>
       <use xlink:href="#Ubuntu-30"/>
       <use xlink:href="#Ubuntu-2e" x="56.399994"/>
       <use xlink:href="#Ubuntu-32" x="80.999985"/>
      </g>
     </g>
    </g>
    <g id="xtick_3">
     <g id="line2d_3">
      <path d="M 200.2525 163.8875 
L 200.2525 25.2875 
" clip-path="url(#p9e2ec49a31)" style="fill: none; stroke-dasharray: 0.5,0.825; stroke-dashoffset: 0; stroke: #d9d9d9; stroke-width: 0.5"/>
     </g>
     <g id="text_3">
      <!-- 0.4 -->
      <g style="fill: #757575" transform="translate(194.75625 173.595) scale(0.08 -0.08)">
       <defs>
        <path id="Ubuntu-34" d="M 256 1536 
Q 378 1818 589 2192 
Q 800 2566 1065 2963 
Q 1331 3360 1635 3744 
Q 1939 4128 2246 4435 
L 2816 4435 
L 2816 1619 
L 3341 1619 
L 3341 1133 
L 2816 1133 
L 2816 0 
L 2240 0 
L 2240 1133 
L 256 1133 
L 256 1536 
z
M 2240 3731 
Q 2048 3526 1853 3273 
Q 1658 3021 1472 2745 
Q 1286 2470 1123 2182 
Q 960 1894 832 1619 
L 2240 1619 
L 2240 3731 
z
" transform="scale(0.015625)"/>
       </defs>
       <use xlink:href="#Ubuntu-30"/>
       <use xlink:href="#Ubuntu-2e" x="56.399994"/>
       <use xlink:href="#Ubuntu-34" x="80.999985"/>
      </g>
     </g>
    </g>
    <g id="xtick_4">
     <g id="line2d_4">
      <path d="M 289.5325 163.8875 
L 289.5325 25.2875 
" clip-path="url(#p9e2ec49a31)" style="fill: none; stroke-dasharray: 0.5,0.825; stroke-dashoffset: 0; stroke: #d9d9d9; stroke-width: 0.5"/>
     </g>
     <g id="text_4">
      <!-- 0.6 -->
      <g style="fill: #757575" transform="translate(284.03625 173.595) scale(0.08 -0.08)">
       <defs>
        <path id="Ubuntu-36" d="M 403 1779 
Q 403 2426 582 2922 
Q 762 3418 1091 3757 
Q 1421 4096 1891 4272 
Q 2362 4448 2950 4454 
L 2995 3955 
Q 2618 3949 2307 3872 
Q 1997 3795 1753 3628 
Q 1510 3462 1344 3196 
Q 1178 2931 1094 2541 
Q 1261 2618 1469 2669 
Q 1677 2720 1901 2720 
Q 2278 2720 2540 2605 
Q 2803 2490 2969 2301 
Q 3136 2112 3209 1865 
Q 3283 1619 3283 1350 
Q 3283 1107 3200 851 
Q 3117 595 2947 384 
Q 2778 173 2515 38 
Q 2253 -96 1894 -96 
Q 1165 -96 784 403 
Q 403 902 403 1779 
z
M 1837 2234 
Q 1613 2234 1421 2192 
Q 1229 2150 1037 2067 
Q 1030 1997 1027 1923 
Q 1024 1850 1024 1779 
Q 1024 1498 1062 1248 
Q 1101 998 1200 809 
Q 1299 621 1465 509 
Q 1632 397 1888 397 
Q 2099 397 2246 486 
Q 2394 576 2490 717 
Q 2586 858 2627 1021 
Q 2669 1184 2669 1338 
Q 2669 1773 2461 2003 
Q 2253 2234 1837 2234 
z
" transform="scale(0.015625)"/>
       </defs>
       <use xlink:href="#Ubuntu-30"/>
       <use xlink:href="#Ubuntu-2e" x="56.399994"/>
       <use xlink:href="#Ubuntu-36" x="80.999985"/>
      </g>
     </g>
    </g>
    <g id="xtick_5">
     <g id="line2d_5">
      <path d="M 378.8125 163.8875 
L 378.8125 25.2875 
" clip-path="url(#p9e2ec49a31)" style="fill: none; stroke-dasharray: 0.5,0.825; stroke-dashoffset: 0; stroke: #d9d9d9; stroke-width: 0.5"/>
     </g>
     <g id="text_5">
      <!-- 0.8 -->
      <g style="fill: #757575" transform="translate(373.31625 173.595) scale(0.08 -0.08)">
       <defs>
        <path id="Ubuntu-38" d="M 3258 1152 
Q 3258 883 3165 656 
Q 3072 429 2889 259 
Q 2707 90 2432 -3 
Q 2157 -96 1798 -96 
Q 1382 -96 1104 22 
Q 826 141 659 320 
Q 493 499 422 713 
Q 352 928 352 1120 
Q 352 1306 413 1475 
Q 474 1645 573 1792 
Q 672 1939 803 2057 
Q 934 2176 1082 2266 
Q 454 2624 454 3322 
Q 454 3565 550 3785 
Q 646 4006 822 4172 
Q 998 4339 1248 4438 
Q 1498 4538 1805 4538 
Q 2163 4538 2419 4429 
Q 2675 4320 2838 4150 
Q 3002 3981 3075 3776 
Q 3149 3571 3149 3379 
Q 3149 3194 3094 3030 
Q 3040 2867 2947 2726 
Q 2854 2586 2736 2477 
Q 2618 2368 2490 2285 
Q 3245 1926 3258 1152 
z
M 954 1114 
Q 954 998 995 873 
Q 1037 749 1139 643 
Q 1242 538 1402 467 
Q 1562 397 1805 397 
Q 2022 397 2185 461 
Q 2349 525 2451 624 
Q 2554 723 2605 851 
Q 2656 979 2656 1114 
Q 2656 1318 2579 1472 
Q 2502 1626 2358 1741 
Q 2214 1856 2012 1936 
Q 1811 2016 1555 2074 
Q 1267 1914 1110 1677 
Q 954 1440 954 1114 
z
M 2554 3386 
Q 2554 3482 2512 3597 
Q 2470 3712 2380 3811 
Q 2291 3910 2150 3977 
Q 2010 4045 1805 4045 
Q 1600 4045 1456 3981 
Q 1312 3917 1222 3817 
Q 1133 3718 1091 3600 
Q 1050 3482 1050 3366 
Q 1050 3226 1101 3085 
Q 1152 2944 1261 2822 
Q 1370 2701 1546 2605 
Q 1722 2509 1965 2451 
Q 2234 2611 2394 2825 
Q 2554 3040 2554 3386 
z
" transform="scale(0.015625)"/>
       </defs>
       <use xlink:href="#Ubuntu-30"/>
       <use xlink:href="#Ubuntu-2e" x="56.399994"/>
       <use xlink:href="#Ubuntu-38" x="80.999985"/>
      </g>
     </g>
    </g>
    <g id="xtick_6">
     <g id="line2d_6">
      <path d="M 468.0925 163.8875 
L 468.0925 25.2875 
" clip-path="url(#p9e2ec49a31)" style="fill: none; stroke-dasharray: 0.5,0.825; stroke-dashoffset: 0; stroke: #d9d9d9; stroke-width: 0.5"/>
     </g>
     <g id="text_6">
      <!-- 1.0 -->
      <g style="fill: #757575" transform="translate(462.59625 173.595) scale(0.08 -0.08)">
       <defs>
        <path id="Ubuntu-31" d="M 595 3520 
Q 960 3661 1305 3881 
Q 1651 4102 1939 4435 
L 2362 4435 
L 2362 0 
L 1766 0 
L 1766 3610 
Q 1690 3539 1578 3462 
Q 1466 3386 1334 3315 
Q 1203 3245 1059 3181 
Q 915 3117 781 3072 
L 595 3520 
z
" transform="scale(0.015625)"/>
       </defs>
       <use xlink:href="#Ubuntu-31"/>
       <use xlink:href="#Ubuntu-2e" x="56.399994"/>
       <use xlink:href="#Ubuntu-30" x="80.999985"/>
      </g>
     </g>
    </g>
    <g id="text_7">
     <!-- Threshold -->
     <g style="fill: #505050" transform="translate(21.6925 190.058438) scale(0.09 -0.09)">
      <defs>
       <path id="Ubuntu-Bold-54" d="M 3802 4435 
L 3802 3584 
L 2464 3584 
L 2464 0 
L 1466 0 
L 1466 3584 
L 128 3584 
L 128 4435 
L 3802 4435 
z
" transform="scale(0.015625)"/>
       <path id="Ubuntu-Bold-68" d="M 448 0 
L 448 4813 
L 1402 4966 
L 1402 3354 
Q 1498 3386 1648 3414 
Q 1798 3443 1939 3443 
Q 2349 3443 2621 3331 
Q 2893 3219 3056 3014 
Q 3219 2810 3286 2528 
Q 3354 2246 3354 1901 
L 3354 0 
L 2400 0 
L 2400 1786 
Q 2400 2246 2281 2438 
Q 2163 2630 1843 2630 
Q 1715 2630 1603 2608 
Q 1491 2586 1402 2560 
L 1402 0 
L 448 0 
z
" transform="scale(0.015625)"/>
       <path id="Ubuntu-Bold-72" d="M 2477 2522 
Q 2349 2554 2176 2589 
Q 2003 2624 1805 2624 
Q 1715 2624 1590 2608 
Q 1466 2592 1402 2573 
L 1402 0 
L 448 0 
L 448 3187 
Q 704 3277 1053 3357 
Q 1402 3437 1830 3437 
Q 1907 3437 2016 3427 
Q 2125 3418 2233 3402 
Q 2342 3386 2451 3363 
Q 2560 3341 2637 3309 
L 2477 2522 
z
" transform="scale(0.015625)"/>
       <path id="Ubuntu-Bold-65" d="M 288 1658 
Q 288 2106 425 2442 
Q 563 2778 787 3002 
Q 1011 3226 1302 3341 
Q 1594 3456 1901 3456 
Q 2618 3456 3034 3017 
Q 3450 2579 3450 1728 
Q 3450 1645 3443 1545 
Q 3437 1446 3430 1370 
L 1267 1370 
Q 1299 1075 1542 902 
Q 1786 730 2195 730 
Q 2458 730 2710 778 
Q 2963 826 3123 896 
L 3251 122 
Q 3174 83 3046 44 
Q 2918 6 2761 -22 
Q 2605 -51 2425 -70 
Q 2246 -90 2067 -90 
Q 1613 -90 1277 44 
Q 941 179 720 412 
Q 499 646 393 966 
Q 288 1286 288 1658 
z
M 2528 2022 
Q 2522 2144 2486 2259 
Q 2451 2374 2377 2464 
Q 2304 2554 2192 2611 
Q 2080 2669 1914 2669 
Q 1754 2669 1638 2614 
Q 1523 2560 1446 2470 
Q 1370 2381 1328 2262 
Q 1286 2144 1267 2022 
L 2528 2022 
z
" transform="scale(0.015625)"/>
       <path id="Ubuntu-Bold-73" d="M 1414 685 
Q 1677 685 1785 736 
Q 1894 787 1894 934 
Q 1894 1050 1753 1136 
Q 1613 1222 1325 1331 
Q 1101 1414 918 1504 
Q 736 1594 608 1718 
Q 480 1843 409 2016 
Q 339 2189 339 2432 
Q 339 2906 691 3181 
Q 1043 3456 1658 3456 
Q 1965 3456 2246 3401 
Q 2528 3347 2694 3283 
L 2528 2541 
Q 2362 2598 2166 2643 
Q 1971 2688 1728 2688 
Q 1280 2688 1280 2438 
Q 1280 2381 1299 2336 
Q 1318 2291 1376 2249 
Q 1434 2208 1533 2160 
Q 1632 2112 1786 2054 
Q 2099 1939 2304 1827 
Q 2509 1715 2627 1584 
Q 2746 1453 2794 1293 
Q 2842 1133 2842 922 
Q 2842 422 2467 166 
Q 2093 -90 1408 -90 
Q 960 -90 662 -13 
Q 365 64 250 115 
L 410 890 
Q 653 794 909 739 
Q 1165 685 1414 685 
z
" transform="scale(0.015625)"/>
       <path id="Ubuntu-Bold-6f" d="M 3597 1690 
Q 3597 1293 3481 963 
Q 3366 634 3148 400 
Q 2931 166 2627 38 
Q 2323 -90 1946 -90 
Q 1574 -90 1270 38 
Q 966 166 748 400 
Q 531 634 409 963 
Q 288 1293 288 1690 
Q 288 2086 413 2412 
Q 538 2739 758 2969 
Q 979 3200 1283 3328 
Q 1587 3456 1946 3456 
Q 2310 3456 2614 3328 
Q 2918 3200 3136 2969 
Q 3354 2739 3475 2412 
Q 3597 2086 3597 1690 
z
M 2624 1690 
Q 2624 2131 2448 2384 
Q 2272 2637 1946 2637 
Q 1619 2637 1440 2384 
Q 1261 2131 1261 1690 
Q 1261 1248 1440 989 
Q 1619 730 1946 730 
Q 2272 730 2448 989 
Q 2624 1248 2624 1690 
z
" transform="scale(0.015625)"/>
       <path id="Ubuntu-Bold-6c" d="M 1792 -64 
Q 1376 -58 1117 25 
Q 858 109 707 259 
Q 557 410 502 624 
Q 448 838 448 1107 
L 448 4813 
L 1402 4966 
L 1402 1299 
Q 1402 1171 1421 1068 
Q 1440 966 1494 896 
Q 1549 826 1651 781 
Q 1754 736 1926 723 
L 1792 -64 
z
" transform="scale(0.015625)"/>
       <path id="Ubuntu-Bold-64" d="M 1261 1709 
Q 1261 1267 1459 998 
Q 1658 730 2048 730 
Q 2176 730 2285 739 
Q 2394 749 2464 762 
L 2464 2496 
Q 2374 2554 2230 2592 
Q 2086 2630 1939 2630 
Q 1261 2630 1261 1709 
z
M 3418 109 
Q 3290 70 3123 35 
Q 2957 0 2774 -25 
Q 2592 -51 2403 -67 
Q 2214 -83 2042 -83 
Q 1626 -83 1299 38 
Q 973 160 749 387 
Q 525 614 406 937 
Q 288 1261 288 1664 
Q 288 2074 390 2403 
Q 493 2733 685 2963 
Q 877 3194 1155 3315 
Q 1434 3437 1792 3437 
Q 1990 3437 2147 3398 
Q 2304 3360 2464 3290 
L 2464 4813 
L 3418 4966 
L 3418 109 
z
" transform="scale(0.015625)"/>
      </defs>
      <use xlink:href="#Ubuntu-Bold-54"/>
      <use xlink:href="#Ubuntu-Bold-68" x="61.399994"/>
      <use xlink:href="#Ubuntu-Bold-72" x="120.299988"/>
      <use xlink:href="#Ubuntu-Bold-65" x="161.499985"/>
      <use xlink:href="#Ubuntu-Bold-73" x="219.899979"/>
      <use xlink:href="#Ubuntu-Bold-68" x="268.399963"/>
      <use xlink:href="#Ubuntu-Bold-6f" x="327.299957"/>
      <use xlink:href="#Ubuntu-Bold-6c" x="387.999954"/>
      <use xlink:href="#Ubuntu-Bold-64" x="419.599945"/>
     </g>
    </g>
   </g>
   <g id="matplotlib.axis_2">
    <g id="ytick_1">
     <g id="line2d_7">
      <path d="M 21.6925 163.8875 
L 468.0925 163.8875 
" clip-path="url(#p9e2ec49a31)" style="fill: none; stroke-dasharray: 0.5,0.825; stroke-dashoffset: 0; stroke: #d9d9d9; stroke-width: 0.5"/>
     </g>
     <g id="text_8">
      <!-- 0.0 -->
      <g style="fill: #757575" transform="translate(7.2 166.99125) scale(0.08 -0.08)">
       <use xlink:href="#Ubuntu-30"/>
       <use xlink:href="#Ubuntu-2e" x="56.399994"/>
       <use xlink:href="#Ubuntu-30" x="80.999985"/>
      </g>
     </g>
    </g>
    <g id="ytick_2">
     <g id="line2d_8">
      <path d="M 21.6925 138.6875 
L 468.0925 138.6875 
" clip-path="url(#p9e2ec49a31)" style="fill: none; stroke-dasharray: 0.5,0.825; stroke-dashoffset: 0; stroke: #d9d9d9; stroke-width: 0.5"/>
     </g>
     <g id="text_9">
      <!-- 0.2 -->
      <g style="fill: #757575" transform="translate(7.2 141.79125) scale(0.08 -0.08)">
       <use xlink:href="#Ubuntu-30"/>
       <use xlink:href="#Ubuntu-2e" x="56.399994"/>
       <use xlink:href="#Ubuntu-32" x="80.999985"/>
      </g>
     </g>
    </g>
    <g id="ytick_3">
     <g id="line2d_9">
      <path d="M 21.6925 113.4875 
L 468.0925 113.4875 
" clip-path="url(#p9e2ec49a31)" style="fill: none; stroke-dasharray: 0.5,0.825; stroke-dashoffset: 0; stroke: #d9d9d9; stroke-width: 0.5"/>
     </g>
     <g id="text_10">
      <!-- 0.4 -->
      <g style="fill: #757575" transform="translate(7.2 116.59125) scale(0.08 -0.08)">
       <use xlink:href="#Ubuntu-30"/>
       <use xlink:href="#Ubuntu-2e" x="56.399994"/>
       <use xlink:href="#Ubuntu-34" x="80.999985"/>
      </g>
     </g>
    </g>
    <g id="ytick_4">
     <g id="line2d_10">
      <path d="M 21.6925 88.2875 
L 468.0925 88.2875 
" clip-path="url(#p9e2ec49a31)" style="fill: none; stroke-dasharray: 0.5,0.825; stroke-dashoffset: 0; stroke: #d9d9d9; stroke-width: 0.5"/>
     </g>
     <g id="text_11">
      <!-- 0.6 -->
      <g style="fill: #757575" transform="translate(7.2 91.39125) scale(0.08 -0.08)">
       <use xlink:href="#Ubuntu-30"/>
       <use xlink:href="#Ubuntu-2e" x="56.399994"/>
       <use xlink:href="#Ubuntu-36" x="80.999985"/>
      </g>
     </g>
    </g>
    <g id="ytick_5">
     <g id="line2d_11">
      <path d="M 21.6925 63.0875 
L 468.0925 63.0875 
" clip-path="url(#p9e2ec49a31)" style="fill: none; stroke-dasharray: 0.5,0.825; stroke-dashoffset: 0; stroke: #d9d9d9; stroke-width: 0.5"/>
     </g>
     <g id="text_12">
      <!-- 0.8 -->
      <g style="fill: #757575" transform="translate(7.2 66.19125) scale(0.08 -0.08)">
       <use xlink:href="#Ubuntu-30"/>
       <use xlink:href="#Ubuntu-2e" x="56.399994"/>
       <use xlink:href="#Ubuntu-38" x="80.999985"/>
      </g>
     </g>
    </g>
    <g id="ytick_6">
     <g id="line2d_12">
      <path d="M 21.6925 37.8875 
L 468.0925 37.8875 
" clip-path="url(#p9e2ec49a31)" style="fill: none; stroke-dasharray: 0.5,0.825; stroke-dashoffset: 0; stroke: #d9d9d9; stroke-width: 0.5"/>
     </g>
     <g id="text_13">
      <!-- 1.0 -->
      <g style="fill: #757575" transform="translate(7.2 40.99125) scale(0.08 -0.08)">
       <use xlink:href="#Ubuntu-31"/>
       <use xlink:href="#Ubuntu-2e" x="56.399994"/>
       <use xlink:href="#Ubuntu-30" x="80.999985"/>
      </g>
     </g>
    </g>
   </g>
   <g id="PolyCollection_1"/>
   <g id="PolyCollection_2"/>
   <g id="PolyCollection_3"/>
   <g id="PolyCollection_4">
    <defs>
     <path id="m3bf8ff01fd" d="M 240.428504 -111.895938 
L 240.428504 -109.375938 
L 240.428504 -111.895938 
L 240.428504 -111.895938 
z
" style="stroke: #505050; stroke-opacity: 0.2"/>
    </defs>
    <g clip-path="url(#p9e2ec49a31)">
     <use xlink:href="#m3bf8ff01fd" x="0" y="198.923438" style="fill: #505050; fill-opacity: 0.2; stroke: #505050; stroke-opacity: 0.2"/>
    </g>
   </g>
   <g id="line2d_13">
    <path d="M 21.6925 162.6275 
L 25.976136 137.132027 
L 30.259773 116.361734 
L 34.543409 99.811636 
L 38.827045 86.976751 
L 43.110682 77.352097 
L 47.394318 70.432689 
L 51.677955 65.713546 
L 55.961591 62.689683 
L 60.245227 60.856119 
L 64.528864 59.707869 
L 68.8125 58.756709 
L 73.096136 57.787331 
L 77.379773 56.806461 
L 81.663409 55.827274 
L 85.947045 54.862943 
L 90.230682 53.926738 
L 94.514318 53.036492 
L 98.797955 52.216475 
L 103.081591 51.491442 
L 107.365227 50.886152 
L 111.648864 50.425306 
L 115.9325 50.112216 
L 120.216136 49.896435 
L 124.499773 49.719204 
L 128.783409 49.521762 
L 133.067045 49.245349 
L 137.350682 48.846613 
L 141.634318 48.354386 
L 145.917955 47.818623 
L 150.201591 47.289284 
L 154.485227 46.816327 
L 158.768864 46.4441 
L 163.0525 46.165911 
L 167.336136 45.947823 
L 171.619773 45.755645 
L 175.903409 45.555186 
L 180.187045 45.313894 
L 184.470682 45.032691 
L 188.754318 44.743747 
L 193.037955 44.48043 
L 197.321591 44.276107 
L 201.605227 44.16373 
L 205.888864 44.147842 
L 210.1725 44.186835 
L 214.456136 44.234871 
L 218.739773 44.246116 
L 223.023409 44.174749 
L 227.307045 43.994894 
L 231.590682 43.739032 
L 235.874318 43.450258 
L 240.157955 43.171668 
L 244.441591 42.946358 
L 248.725227 42.809932 
L 253.008864 42.756812 
L 257.2925 42.767344 
L 261.576136 42.821863 
L 265.859773 42.900704 
L 270.143409 42.984297 
L 274.427045 43.054114 
L 278.710682 43.09227 
L 282.994318 43.080889 
L 287.277955 43.002095 
L 291.561591 42.838995 
L 295.845227 42.60042 
L 300.128864 42.322747 
L 304.4125 42.043706 
L 308.696136 41.801025 
L 312.979773 41.632241 
L 317.263409 41.554204 
L 321.547045 41.545016 
L 325.830682 41.578518 
L 330.114318 41.628554 
L 334.397955 41.668965 
L 338.681591 41.681292 
L 342.965227 41.673383 
L 347.248864 41.658699 
L 351.5325 41.650703 
L 355.816136 41.662854 
L 360.099773 41.704521 
L 364.383409 41.758579 
L 368.667045 41.797368 
L 372.950682 41.793199 
L 377.234318 41.718383 
L 381.517955 41.548235 
L 385.801591 41.297842 
L 390.085227 41.010461 
L 394.368864 40.729941 
L 398.6525 40.500136 
L 402.936136 40.363842 
L 407.219773 40.327569 
L 411.503409 40.353221 
L 415.787045 40.399962 
L 420.070682 40.426957 
L 424.354318 40.393371 
L 428.637955 40.258369 
L 432.921591 39.981116 
L 437.205227 39.520777 
L 441.488864 38.836517 
L 445.7725 37.8875 
" clip-path="url(#p9e2ec49a31)" style="fill: none; stroke: #4682b4; stroke-width: 1.2; stroke-linecap: square"/>
   </g>
   <g id="line2d_14">
    <path d="M 21.6925 37.8875 
L 25.976136 50.848729 
L 30.259773 61.112021 
L 34.543409 68.987469 
L 38.827045 74.785165 
L 43.110682 78.815199 
L 47.394318 81.387664 
L 51.677955 82.812653 
L 55.961591 83.400255 
L 60.245227 83.460565 
L 64.528864 83.303673 
L 68.8125 83.227892 
L 73.096136 83.339713 
L 77.379773 83.589564 
L 81.663409 83.923342 
L 85.947045 84.286943 
L 90.230682 84.626827 
L 94.514318 84.915951 
L 98.797955 85.164692 
L 103.081591 85.386253 
L 107.365227 85.593835 
L 111.648864 85.800633 
L 115.9325 86.016791 
L 120.216136 86.244789 
L 124.499773 86.485921 
L 128.783409 86.741481 
L 133.067045 87.012762 
L 137.350682 87.298271 
L 141.634318 87.583453 
L 145.917955 87.849929 
L 150.201591 88.079322 
L 154.485227 88.253251 
L 158.768864 88.355818 
L 163.0525 88.393657 
L 167.336136 88.385434 
L 171.619773 88.349926 
L 175.903409 88.305913 
L 180.187045 88.271636 
L 184.470682 88.254401 
L 188.754318 88.251308 
L 193.037955 88.259062 
L 197.321591 88.274371 
L 201.605227 88.293928 
L 205.888864 88.3136 
L 210.1725 88.327905 
L 214.456136 88.331236 
L 218.739773 88.317989 
L 223.023409 88.282565 
L 227.307045 88.226388 
L 231.590682 88.171434 
L 235.874318 88.143416 
L 240.157955 88.16805 
L 244.441591 88.27105 
L 248.725227 88.46983 
L 253.008864 88.736184 
L 257.2925 89.026314 
L 261.576136 89.29641 
L 265.859773 89.502659 
L 270.143409 89.605867 
L 274.427045 89.617216 
L 278.710682 89.578901 
L 282.994318 89.533569 
L 287.277955 89.523869 
L 291.561591 89.591339 
L 295.845227 89.74859 
L 300.128864 89.977243 
L 304.4125 90.257402 
L 308.696136 90.569168 
L 312.979773 90.892654 
L 317.263409 91.209074 
L 321.547045 91.501701 
L 325.830682 91.754037 
L 330.114318 91.949583 
L 334.397955 92.071842 
L 338.681591 92.113825 
L 342.965227 92.10105 
L 347.248864 92.065966 
L 351.5325 92.041027 
L 355.816136 92.058684 
L 360.099773 92.14752 
L 364.383409 92.311091 
L 368.667045 92.542997 
L 372.950682 92.83681 
L 377.234318 93.186105 
L 381.517955 93.584443 
L 385.801591 94.025205 
L 390.085227 94.501646 
L 394.368864 95.007021 
L 398.6525 95.534581 
L 402.936136 96.07808 
L 407.219773 96.648479 
L 411.503409 97.277895 
L 415.787045 97.999741 
L 420.070682 98.847431 
L 424.354318 99.85438 
L 428.637955 101.054002 
L 432.921591 102.479711 
L 437.205227 104.16492 
L 441.488864 106.143045 
L 445.7725 108.4475 
" clip-path="url(#p9e2ec49a31)" style="fill: none; stroke: #af4035; stroke-width: 1.2; stroke-linecap: square"/>
   </g>
   <g id="line2d_15">
    <path d="M 21.6925 162.6275 
L 25.976136 135.184627 
L 30.259773 113.718845 
L 34.543409 97.52704 
L 38.827045 85.906103 
L 43.110682 78.152921 
L 47.394318 73.564383 
L 51.677955 71.437378 
L 55.961591 71.068794 
L 60.245227 71.755521 
L 64.528864 72.794446 
L 68.8125 73.51001 
L 73.096136 73.675333 
L 77.379773 73.428573 
L 81.663409 72.918485 
L 85.947045 72.293824 
L 90.230682 71.702114 
L 94.514318 71.232787 
L 98.797955 70.893246 
L 103.081591 70.6847 
L 107.365227 70.608359 
L 111.648864 70.665399 
L 115.9325 70.844725 
L 120.216136 71.1044 
L 124.499773 71.397716 
L 128.783409 71.677964 
L 133.067045 71.898437 
L 137.350682 72.022632 
L 141.634318 72.061854 
L 145.917955 72.0414 
L 150.201591 71.986568 
L 154.485227 71.922656 
L 158.768864 71.873207 
L 163.0525 71.845784 
L 167.336136 71.839425 
L 171.619773 71.853084 
L 175.903409 71.885719 
L 180.187045 71.935797 
L 184.470682 71.991839 
L 188.754318 72.033078 
L 193.037955 72.038392 
L 197.321591 71.986657 
L 201.605227 71.85703 
L 205.888864 71.647756 
L 210.1725 71.388086 
L 214.456136 71.110114 
L 218.739773 70.845933 
L 223.023409 70.62763 
L 227.307045 70.480013 
L 231.590682 70.406589 
L 235.874318 70.40699 
L 240.157955 70.480848 
L 244.441591 70.627795 
L 248.725227 70.843852 
L 253.008864 71.105187 
L 257.2925 71.381185 
L 261.576136 71.641223 
L 265.859773 71.854681 
L 270.143409 71.993423 
L 274.427045 72.056466 
L 278.710682 72.059537 
L 282.994318 72.018607 
L 287.277955 71.949649 
L 291.561591 71.868709 
L 295.845227 71.793778 
L 300.128864 71.744929 
L 304.4125 71.742336 
L 308.696136 71.806175 
L 312.979773 71.956428 
L 317.263409 72.192549 
L 321.547045 72.475535 
L 325.830682 72.762156 
L 330.114318 73.00918 
L 334.397955 73.17338 
L 338.681591 73.228836 
L 342.965227 73.208789 
L 347.248864 73.159105 
L 351.5325 73.125648 
L 355.816136 73.154286 
L 360.099773 73.283 
L 364.383409 73.498779 
L 368.667045 73.768326 
L 372.950682 74.058293 
L 377.234318 74.33533 
L 381.517955 74.568919 
L 385.801591 74.766035 
L 390.085227 74.960205 
L 394.368864 75.185522 
L 398.6525 75.476074 
L 402.936136 75.865577 
L 407.219773 76.374795 
L 411.503409 77.008575 
L 415.787045 77.770789 
L 420.070682 78.665306 
L 424.354318 79.695996 
L 428.637955 80.866729 
L 432.921591 82.181376 
L 437.205227 83.643807 
L 441.488864 85.257891 
L 445.7725 87.0275 
" clip-path="url(#p9e2ec49a31)" style="fill: none; stroke: #00937f; stroke-width: 1.2; stroke-linecap: square"/>
   </g>
   <g id="line2d_16"/>
   <g id="line2d_17"/>
   <g id="line2d_18"/>
   <g id="line2d_19">
    <path d="M 240.428504 100.8875 
L 240.428504 30.3275 
" clip-path="url(#p9e2ec49a31)" style="fill: none; stroke-dasharray: 1.2,1.98; stroke-dashoffset: 0; stroke: #505050; stroke-width: 1.2"/>
   </g>
   <g id="line2d_20">
    <path d="M 240.428504 88.2875 
" clip-path="url(#p9e2ec49a31)" style="fill: none; stroke-dasharray: 0.1,0.165; stroke-dashoffset: 0; stroke: #505050; stroke-width: 0.1"/>
   </g>
   <g id="patch_3">
    <path d="M 21.6925 163.8875 
L 21.6925 25.2875 
" style="fill: none; stroke: #bbbbbb; stroke-linejoin: miter; stroke-linecap: square"/>
   </g>
   <g id="patch_4">
    <path d="M 21.6925 163.8875 
L 468.0925 163.8875 
" style="fill: none; stroke: #bbbbbb; stroke-linejoin: miter; stroke-linecap: square"/>
   </g>
   <g id="legend_1">
    <g id="line2d_21">
     <path d="M 28.8925 13.8075 
L 36.8925 13.8075 
L 44.8925 13.8075 
" style="fill: none; stroke: #4682b4; stroke-width: 1.2; stroke-linecap: square"/>
    </g>
    <g id="text_14">
     <!-- Precision -->
     <g style="fill: #4b4b4b" transform="translate(51.2925 16.6075) scale(0.08 -0.08)">
      <defs>
       <path id="Ubuntu-50" d="M 1728 4480 
Q 2662 4480 3164 4125 
Q 3667 3770 3667 3066 
Q 3667 2682 3529 2410 
Q 3392 2138 3133 1968 
Q 2874 1798 2502 1721 
Q 2131 1645 1664 1645 
L 1171 1645 
L 1171 0 
L 550 0 
L 550 4371 
Q 813 4435 1136 4457 
Q 1459 4480 1728 4480 
z
M 1779 3936 
Q 1382 3936 1171 3917 
L 1171 2176 
L 1638 2176 
Q 1958 2176 2214 2217 
Q 2470 2259 2646 2358 
Q 2822 2458 2918 2630 
Q 3014 2803 3014 3072 
Q 3014 3328 2915 3494 
Q 2816 3661 2646 3760 
Q 2477 3859 2253 3897 
Q 2029 3936 1779 3936 
z
" transform="scale(0.015625)"/>
       <path id="Ubuntu-72" d="M 1741 3398 
Q 1818 3398 1917 3388 
Q 2016 3379 2112 3363 
Q 2208 3347 2288 3331 
Q 2368 3315 2406 3302 
L 2304 2784 
Q 2234 2810 2070 2845 
Q 1907 2880 1651 2880 
Q 1485 2880 1321 2845 
Q 1158 2810 1107 2797 
L 1107 0 
L 512 0 
L 512 3187 
Q 723 3264 1036 3331 
Q 1350 3398 1741 3398 
z
" transform="scale(0.015625)"/>
       <path id="Ubuntu-65" d="M 326 1658 
Q 326 2099 454 2428 
Q 582 2758 793 2976 
Q 1005 3194 1280 3302 
Q 1555 3411 1843 3411 
Q 2515 3411 2873 2992 
Q 3232 2573 3232 1715 
Q 3232 1677 3232 1616 
Q 3232 1555 3226 1504 
L 947 1504 
Q 986 986 1248 717 
Q 1510 448 2067 448 
Q 2381 448 2595 502 
Q 2810 557 2918 608 
L 3002 109 
Q 2893 51 2621 -13 
Q 2349 -77 2003 -77 
Q 1568 -77 1251 54 
Q 934 186 729 416 
Q 525 646 425 963 
Q 326 1280 326 1658 
z
M 2611 1984 
Q 2618 2387 2410 2646 
Q 2202 2906 1837 2906 
Q 1632 2906 1475 2826 
Q 1318 2746 1209 2618 
Q 1101 2490 1040 2323 
Q 979 2157 960 1984 
L 2611 1984 
z
" transform="scale(0.015625)"/>
       <path id="Ubuntu-63" d="M 1958 -77 
Q 1555 -77 1251 51 
Q 947 179 739 409 
Q 531 640 428 957 
Q 326 1274 326 1658 
Q 326 2042 438 2362 
Q 550 2682 755 2915 
Q 960 3149 1257 3280 
Q 1555 3411 1920 3411 
Q 2144 3411 2368 3372 
Q 2592 3334 2797 3251 
L 2662 2746 
Q 2528 2810 2352 2848 
Q 2176 2886 1978 2886 
Q 1478 2886 1212 2572 
Q 947 2259 947 1658 
Q 947 1389 1008 1165 
Q 1069 941 1200 781 
Q 1331 621 1536 534 
Q 1741 448 2035 448 
Q 2272 448 2464 493 
Q 2656 538 2765 589 
L 2848 90 
Q 2797 58 2701 29 
Q 2605 0 2483 -22 
Q 2362 -45 2224 -61 
Q 2086 -77 1958 -77 
z
" transform="scale(0.015625)"/>
       <path id="Ubuntu-69" d="M 1107 0 
L 512 0 
L 512 3328 
L 1107 3328 
L 1107 0 
z
M 806 3930 
Q 646 3930 534 4035 
Q 422 4141 422 4320 
Q 422 4499 534 4604 
Q 646 4710 806 4710 
Q 966 4710 1078 4604 
Q 1190 4499 1190 4320 
Q 1190 4141 1078 4035 
Q 966 3930 806 3930 
z
" transform="scale(0.015625)"/>
       <path id="Ubuntu-73" d="M 1286 429 
Q 1651 429 1827 525 
Q 2003 621 2003 832 
Q 2003 1050 1830 1178 
Q 1658 1306 1261 1466 
Q 1069 1542 893 1622 
Q 717 1702 589 1811 
Q 461 1920 384 2073 
Q 307 2227 307 2451 
Q 307 2893 633 3152 
Q 960 3411 1523 3411 
Q 1664 3411 1805 3395 
Q 1946 3379 2067 3356 
Q 2189 3334 2281 3308 
Q 2374 3283 2426 3264 
L 2317 2752 
Q 2221 2803 2016 2857 
Q 1811 2912 1523 2912 
Q 1274 2912 1088 2813 
Q 902 2714 902 2502 
Q 902 2394 944 2310 
Q 986 2227 1072 2160 
Q 1158 2093 1286 2035 
Q 1414 1978 1594 1914 
Q 1830 1824 2016 1737 
Q 2202 1651 2333 1536 
Q 2464 1421 2534 1257 
Q 2605 1094 2605 858 
Q 2605 397 2262 160 
Q 1920 -77 1286 -77 
Q 845 -77 595 -3 
Q 346 70 256 109 
L 365 621 
Q 467 582 691 505 
Q 915 429 1286 429 
z
" transform="scale(0.015625)"/>
       <path id="Ubuntu-6f" d="M 3450 1664 
Q 3450 1267 3334 947 
Q 3219 627 3011 396 
Q 2803 166 2515 41 
Q 2227 -83 1888 -83 
Q 1549 -83 1261 41 
Q 973 166 765 396 
Q 557 627 441 947 
Q 326 1267 326 1664 
Q 326 2054 441 2377 
Q 557 2701 765 2931 
Q 973 3162 1261 3286 
Q 1549 3411 1888 3411 
Q 2227 3411 2515 3286 
Q 2803 3162 3011 2931 
Q 3219 2701 3334 2377 
Q 3450 2054 3450 1664 
z
M 2829 1664 
Q 2829 2227 2576 2556 
Q 2323 2886 1888 2886 
Q 1453 2886 1200 2556 
Q 947 2227 947 1664 
Q 947 1101 1200 771 
Q 1453 442 1888 442 
Q 2323 442 2576 771 
Q 2829 1101 2829 1664 
z
" transform="scale(0.015625)"/>
       <path id="Ubuntu-6e" d="M 512 3232 
Q 717 3283 1056 3340 
Q 1395 3398 1837 3398 
Q 2234 3398 2496 3286 
Q 2758 3174 2915 2972 
Q 3072 2771 3136 2489 
Q 3200 2208 3200 1869 
L 3200 0 
L 2605 0 
L 2605 1741 
Q 2605 2048 2563 2265 
Q 2522 2483 2426 2617 
Q 2330 2752 2170 2813 
Q 2010 2874 1773 2874 
Q 1677 2874 1574 2867 
Q 1472 2861 1379 2851 
Q 1286 2842 1212 2829 
Q 1139 2816 1107 2810 
L 1107 0 
L 512 0 
L 512 3232 
z
" transform="scale(0.015625)"/>
      </defs>
      <use xlink:href="#Ubuntu-50"/>
      <use xlink:href="#Ubuntu-72" x="60.799988"/>
      <use xlink:href="#Ubuntu-65" x="99.399979"/>
      <use xlink:href="#Ubuntu-63" x="155.299973"/>
      <use xlink:href="#Ubuntu-69" x="201.799957"/>
      <use xlink:href="#Ubuntu-73" x="227.099945"/>
      <use xlink:href="#Ubuntu-69" x="271.699936"/>
      <use xlink:href="#Ubuntu-6f" x="296.999924"/>
      <use xlink:href="#Ubuntu-6e" x="355.999908"/>
     </g>
    </g>
    <g id="line2d_22">
     <path d="M 100.36375 13.8075 
L 108.36375 13.8075 
L 116.36375 13.8075 
" style="fill: none; stroke: #af4035; stroke-width: 1.2; stroke-linecap: square"/>
    </g>
    <g id="text_15">
     <!-- Recall -->
     <g style="fill: #4b4b4b" transform="translate(122.76375 16.6075) scale(0.08 -0.08)">
      <defs>
       <path id="Ubuntu-52" d="M 2720 1856 
Q 2822 1728 2979 1520 
Q 3136 1312 3302 1059 
Q 3469 806 3632 531 
Q 3795 256 3910 0 
L 3232 0 
Q 3104 243 2953 492 
Q 2803 742 2649 969 
Q 2496 1197 2345 1395 
Q 2195 1594 2074 1741 
Q 1990 1734 1904 1734 
Q 1818 1734 1728 1734 
L 1171 1734 
L 1171 0 
L 550 0 
L 550 4371 
Q 813 4435 1136 4457 
Q 1459 4480 1728 4480 
Q 2662 4480 3152 4128 
Q 3642 3776 3642 3078 
Q 3642 2637 3408 2323 
Q 3174 2010 2720 1856 
z
M 1779 3936 
Q 1382 3936 1171 3917 
L 1171 2246 
L 1613 2246 
Q 1933 2246 2189 2278 
Q 2445 2310 2621 2400 
Q 2797 2490 2893 2653 
Q 2989 2816 2989 3085 
Q 2989 3334 2893 3500 
Q 2797 3667 2633 3763 
Q 2470 3859 2249 3897 
Q 2029 3936 1779 3936 
z
" transform="scale(0.015625)"/>
       <path id="Ubuntu-61" d="M 1638 429 
Q 1850 429 2013 438 
Q 2176 448 2285 474 
L 2285 1466 
Q 2221 1498 2077 1520 
Q 1933 1542 1728 1542 
Q 1594 1542 1443 1523 
Q 1293 1504 1168 1443 
Q 1043 1382 960 1276 
Q 877 1171 877 998 
Q 877 678 1081 553 
Q 1286 429 1638 429 
z
M 1587 3411 
Q 1946 3411 2192 3318 
Q 2438 3226 2588 3056 
Q 2739 2886 2803 2652 
Q 2867 2419 2867 2138 
L 2867 58 
Q 2790 45 2652 22 
Q 2515 0 2342 -19 
Q 2170 -38 1968 -54 
Q 1766 -70 1568 -70 
Q 1286 -70 1049 -12 
Q 813 45 640 169 
Q 467 294 371 499 
Q 275 704 275 992 
Q 275 1267 387 1465 
Q 499 1664 691 1785 
Q 883 1907 1139 1964 
Q 1395 2022 1677 2022 
Q 1766 2022 1862 2012 
Q 1958 2003 2044 1987 
Q 2131 1971 2195 1958 
Q 2259 1946 2285 1939 
L 2285 2106 
Q 2285 2253 2253 2397 
Q 2221 2541 2137 2653 
Q 2054 2765 1910 2832 
Q 1766 2899 1536 2899 
Q 1242 2899 1021 2857 
Q 800 2816 691 2771 
L 621 3264 
Q 736 3315 1005 3363 
Q 1274 3411 1587 3411 
z
" transform="scale(0.015625)"/>
       <path id="Ubuntu-6c" d="M 1510 -64 
Q 960 -51 729 173 
Q 499 397 499 870 
L 499 4864 
L 1094 4966 
L 1094 966 
Q 1094 819 1120 723 
Q 1146 627 1203 569 
Q 1261 512 1357 483 
Q 1453 454 1594 435 
L 1510 -64 
z
" transform="scale(0.015625)"/>
      </defs>
      <use xlink:href="#Ubuntu-52"/>
      <use xlink:href="#Ubuntu-65" x="62.899994"/>
      <use xlink:href="#Ubuntu-63" x="118.799988"/>
      <use xlink:href="#Ubuntu-61" x="165.299973"/>
      <use xlink:href="#Ubuntu-6c" x="217.499969"/>
      <use xlink:href="#Ubuntu-6c" x="244.799957"/>
     </g>
    </g>
    <g id="line2d_23">
     <path d="M 160.5325 13.8075 
L 168.5325 13.8075 
L 176.5325 13.8075 
" style="fill: none; stroke: #00937f; stroke-width: 1.2; stroke-linecap: square"/>
    </g>
    <g id="text_16">
     <!-- F1-score -->
     <g style="fill: #4b4b4b" transform="translate(182.9325 16.6075) scale(0.08 -0.08)">
      <defs>
       <path id="Ubuntu-46" d="M 550 0 
L 550 4435 
L 3226 4435 
L 3226 3904 
L 1171 3904 
L 1171 2566 
L 2995 2566 
L 2995 2042 
L 1171 2042 
L 1171 0 
L 550 0 
z
" transform="scale(0.015625)"/>
       <path id="Ubuntu-2d" d="M 166 2195 
L 1747 2195 
L 1747 1638 
L 166 1638 
L 166 2195 
z
" transform="scale(0.015625)"/>
      </defs>
      <use xlink:href="#Ubuntu-46"/>
      <use xlink:href="#Ubuntu-31" x="53.699997"/>
      <use xlink:href="#Ubuntu-2d" x="110.099991"/>
      <use xlink:href="#Ubuntu-73" x="139.999985"/>
      <use xlink:href="#Ubuntu-63" x="184.599976"/>
      <use xlink:href="#Ubuntu-6f" x="229.84996"/>
      <use xlink:href="#Ubuntu-72" x="288.849945"/>
      <use xlink:href="#Ubuntu-65" x="327.449936"/>
     </g>
    </g>
    <g id="line2d_24">
     <path d="M 229.60125 13.8075 
L 237.60125 13.8075 
L 245.60125 13.8075 
" style="fill: none; stroke-dasharray: 1.2,1.98; stroke-dashoffset: 0; stroke: #505050; stroke-width: 1.2"/>
    </g>
    <g id="text_17">
     <!-- Optimal Threshold -->
     <g style="fill: #4b4b4b" transform="translate(252.00125 16.6075) scale(0.08 -0.08)">
      <defs>
       <path id="Ubuntu-4f" d="M 371 2221 
Q 371 2790 540 3225 
Q 710 3661 1001 3952 
Q 1293 4243 1680 4390 
Q 2067 4538 2502 4538 
Q 2931 4538 3312 4390 
Q 3693 4243 3981 3952 
Q 4269 3661 4438 3225 
Q 4608 2790 4608 2221 
Q 4608 1651 4438 1216 
Q 4269 781 3981 489 
Q 3693 198 3312 51 
Q 2931 -96 2502 -96 
Q 2067 -96 1680 51 
Q 1293 198 1001 489 
Q 710 781 540 1216 
Q 371 1651 371 2221 
z
M 1024 2221 
Q 1024 1818 1126 1488 
Q 1229 1158 1417 928 
Q 1606 698 1878 573 
Q 2150 448 2490 448 
Q 2829 448 3097 573 
Q 3366 698 3555 928 
Q 3744 1158 3846 1488 
Q 3949 1818 3949 2221 
Q 3949 2624 3846 2953 
Q 3744 3283 3555 3513 
Q 3366 3744 3097 3869 
Q 2829 3994 2490 3994 
Q 2150 3994 1878 3869 
Q 1606 3744 1417 3513 
Q 1229 3283 1126 2953 
Q 1024 2624 1024 2221 
z
" transform="scale(0.015625)"/>
       <path id="Ubuntu-70" d="M 2822 1658 
Q 2822 2240 2534 2553 
Q 2246 2867 1766 2867 
Q 1498 2867 1347 2848 
Q 1197 2829 1107 2803 
L 1107 704 
Q 1216 614 1421 531 
Q 1626 448 1869 448 
Q 2125 448 2307 541 
Q 2490 634 2605 797 
Q 2720 960 2771 1181 
Q 2822 1402 2822 1658 
z
M 3443 1658 
Q 3443 1280 3344 960 
Q 3245 640 3053 409 
Q 2861 179 2582 51 
Q 2304 -77 1946 -77 
Q 1658 -77 1437 0 
Q 1216 77 1107 147 
L 1107 -1184 
L 512 -1184 
L 512 3226 
Q 723 3277 1040 3337 
Q 1357 3398 1773 3398 
Q 2157 3398 2464 3276 
Q 2771 3155 2988 2931 
Q 3206 2707 3324 2384 
Q 3443 2061 3443 1658 
z
" transform="scale(0.015625)"/>
       <path id="Ubuntu-74" d="M 1069 3328 
L 2330 3328 
L 2330 2829 
L 1069 2829 
L 1069 1293 
Q 1069 1043 1107 880 
Q 1146 717 1222 624 
Q 1299 531 1414 492 
Q 1530 454 1683 454 
Q 1952 454 2115 515 
Q 2278 576 2342 602 
L 2458 109 
Q 2368 64 2144 -3 
Q 1920 -70 1632 -70 
Q 1293 -70 1072 16 
Q 851 102 716 275 
Q 582 448 528 701 
Q 474 954 474 1286 
L 474 4256 
L 1069 4358 
L 1069 3328 
z
" transform="scale(0.015625)"/>
       <path id="Ubuntu-6d" d="M 512 3232 
Q 717 3283 1053 3340 
Q 1389 3398 1830 3398 
Q 2150 3398 2368 3312 
Q 2586 3226 2733 3059 
Q 2778 3091 2874 3148 
Q 2970 3206 3110 3260 
Q 3251 3315 3424 3356 
Q 3597 3398 3795 3398 
Q 4179 3398 4422 3286 
Q 4666 3174 4803 2969 
Q 4941 2765 4989 2483 
Q 5037 2202 5037 1869 
L 5037 0 
L 4442 0 
L 4442 1741 
Q 4442 2035 4413 2246 
Q 4384 2458 4304 2598 
Q 4224 2739 4086 2806 
Q 3949 2874 3731 2874 
Q 3430 2874 3235 2794 
Q 3040 2714 2970 2650 
Q 3021 2483 3046 2284 
Q 3072 2086 3072 1869 
L 3072 0 
L 2477 0 
L 2477 1741 
Q 2477 2035 2445 2246 
Q 2413 2458 2333 2598 
Q 2253 2739 2115 2806 
Q 1978 2874 1766 2874 
Q 1677 2874 1574 2867 
Q 1472 2861 1379 2851 
Q 1286 2842 1209 2829 
Q 1133 2816 1107 2810 
L 1107 0 
L 512 0 
L 512 3232 
z
" transform="scale(0.015625)"/>
       <path id="Ubuntu-20" transform="scale(0.015625)"/>
       <path id="Ubuntu-54" d="M 3514 4435 
L 3514 3898 
L 2118 3898 
L 2118 0 
L 1498 0 
L 1498 3898 
L 102 3898 
L 102 4435 
L 3514 4435 
z
" transform="scale(0.015625)"/>
       <path id="Ubuntu-68" d="M 512 0 
L 512 4864 
L 1107 4966 
L 1107 3264 
Q 1274 3328 1462 3363 
Q 1651 3398 1837 3398 
Q 2234 3398 2496 3286 
Q 2758 3174 2915 2972 
Q 3072 2771 3136 2489 
Q 3200 2208 3200 1869 
L 3200 0 
L 2605 0 
L 2605 1741 
Q 2605 2048 2563 2265 
Q 2522 2483 2426 2617 
Q 2330 2752 2170 2813 
Q 2010 2874 1773 2874 
Q 1677 2874 1574 2861 
Q 1472 2848 1379 2832 
Q 1286 2816 1212 2797 
Q 1139 2778 1107 2765 
L 1107 0 
L 512 0 
z
" transform="scale(0.015625)"/>
       <path id="Ubuntu-64" d="M 2662 2624 
Q 2554 2714 2349 2797 
Q 2144 2880 1901 2880 
Q 1645 2880 1462 2787 
Q 1280 2694 1165 2531 
Q 1050 2368 998 2144 
Q 947 1920 947 1664 
Q 947 1082 1235 765 
Q 1523 448 2003 448 
Q 2246 448 2409 470 
Q 2573 493 2662 518 
L 2662 2624 
z
M 2662 4864 
L 3258 4966 
L 3258 96 
Q 3053 38 2733 -19 
Q 2413 -77 1997 -77 
Q 1613 -77 1305 44 
Q 998 166 780 390 
Q 563 614 444 937 
Q 326 1261 326 1664 
Q 326 2048 425 2368 
Q 525 2688 717 2918 
Q 909 3149 1187 3277 
Q 1466 3405 1824 3405 
Q 2112 3405 2333 3328 
Q 2554 3251 2662 3181 
L 2662 4864 
z
" transform="scale(0.015625)"/>
      </defs>
      <use xlink:href="#Ubuntu-4f"/>
      <use xlink:href="#Ubuntu-70" x="77.799988"/>
      <use xlink:href="#Ubuntu-74" x="136.699982"/>
      <use xlink:href="#Ubuntu-69" x="176.899979"/>
      <use xlink:href="#Ubuntu-6d" x="202.199966"/>
      <use xlink:href="#Ubuntu-61" x="288.299957"/>
      <use xlink:href="#Ubuntu-6c" x="340.499954"/>
      <use xlink:href="#Ubuntu-20" x="367.799942"/>
      <use xlink:href="#Ubuntu-54" x="390.899933"/>
      <use xlink:href="#Ubuntu-68" x="447.399918"/>
      <use xlink:href="#Ubuntu-72" x="504.499908"/>
      <use xlink:href="#Ubuntu-65" x="543.099899"/>
      <use xlink:href="#Ubuntu-73" x="598.999893"/>
      <use xlink:href="#Ubuntu-68" x="643.599884"/>
      <use xlink:href="#Ubuntu-6f" x="700.699875"/>
      <use xlink:href="#Ubuntu-6c" x="759.69986"/>
      <use xlink:href="#Ubuntu-64" x="786.999847"/>
     </g>
    </g>
   </g>
   <g id="PathCollection_1">
    <defs>
     <path id="m1a34bccda0" d="M 0 1.767767 
C 0.468817 1.767767 0.918496 1.581504 1.25 1.25 
C 1.581504 0.918496 1.767767 0.468817 1.767767 0 
C 1.767767 -0.468817 1.581504 -0.918496 1.25 -1.25 
C 0.918496 -1.581504 0.468817 -1.767767 0 -1.767767 
C -0.468817 -1.767767 -0.918496 -1.581504 -1.25 -1.25 
C -1.581504 -0.918496 -1.767767 -0.468817 -1.767767 0 
C -1.767767 0.468817 -1.581504 0.918496 -1.25 1.25 
C -0.918496 1.581504 -0.468817 1.767767 0 1.767767 
z
" style="stroke: #505050; stroke-width: 1.5"/>
    </defs>
    <g clip-path="url(#p9e2ec49a31)">
     <use xlink:href="#m1a34bccda0" x="240.428504" y="42.9275" style="fill: #505050; stroke: #505050; stroke-width: 1.5"/>
    </g>
   </g>
   <g id="PathCollection_2">
    <g clip-path="url(#p9e2ec49a31)">
     <use xlink:href="#m1a34bccda0" x="240.428504" y="88.2875" style="fill: #505050; stroke: #505050; stroke-width: 1.5"/>
    </g>
   </g>
  </g>
 </g>
 <defs>
  <clipPath id="p9e2ec49a31">
   <rect x="21.6925" y="25.2875" width="446.4" height="138.6"/>
  </clipPath>
 </defs>
</svg>
