<?xml version="1.0" encoding="utf-8" standalone="no"?>
<!DOCTYPE svg PUBLIC "-//W3C//DTD SVG 1.1//EN"
  "http://www.w3.org/Graphics/SVG/1.1/DTD/svg11.dtd">
<svg xmlns:xlink="http://www.w3.org/1999/xlink" width="542.859592pt" height="225.563125pt" viewBox="0 0 542.859592 225.563125" xmlns="http://www.w3.org/2000/svg" version="1.1">
 <metadata>
  <rdf:RDF xmlns:dc="http://purl.org/dc/elements/1.1/" xmlns:cc="http://creativecommons.org/ns#" xmlns:rdf="http://www.w3.org/1999/02/22-rdf-syntax-ns#">
   <cc:Work>
    <dc:type rdf:resource="http://purl.org/dc/dcmitype/StillImage"/>
    <dc:date>2024-03-18T14:16:47.936713</dc:date>
    <dc:format>image/svg+xml</dc:format>
    <dc:creator>
     <cc:Agent>
      <dc:title>Matplotlib v3.8.3, https://matplotlib.org/</dc:title>
     </cc:Agent>
    </dc:creator>
   </cc:Work>
  </rdf:RDF>
 </metadata>
 <defs>
  <style type="text/css">*{stroke-linejoin: round; stroke-linecap: butt}</style>
 </defs>
 <g id="figure_1">
  <g id="patch_1">
   <path d="M 0 225.563125 
L 542.859592 225.563125 
L 542.859592 0 
L 0 0 
L 0 225.563125 
z
" style="fill: none"/>
  </g>
  <g id="axes_1">
   <g id="patch_2">
    <path d="M 26.205 90.711438 
L 254.477727 90.711438 
L 254.477727 24.183438 
L 26.205 24.183438 
L 26.205 90.711438 
z
" style="fill: none"/>
   </g>
   <g id="matplotlib.axis_1">
    <g id="xtick_1">
     <g id="line2d_1">
      <path d="M 36.581033 90.711438 
L 36.581033 24.183438 
" clip-path="url(#pd25a5c97e3)" style="fill: none; stroke-dasharray: 0.5,0.825; stroke-dashoffset: 0; stroke: #d9d9d9; stroke-width: 0.5"/>
     </g>
     <g id="text_1">
      <!-- Base -->
      <g style="fill: #757575" transform="translate(27.901033 100.418938) scale(0.08 -0.08)">
       <defs>
        <path id="Ubuntu-42" d="M 1747 -38 
Q 1613 -38 1456 -32 
Q 1299 -26 1142 -13 
Q 986 0 832 19 
Q 678 38 550 70 
L 550 4371 
Q 678 4403 832 4422 
Q 986 4442 1142 4454 
Q 1299 4467 1452 4473 
Q 1606 4480 1741 4480 
Q 2125 4480 2461 4422 
Q 2797 4365 3043 4227 
Q 3290 4090 3430 3866 
Q 3571 3642 3571 3315 
Q 3571 2950 3398 2716 
Q 3226 2483 2938 2368 
Q 3328 2253 3558 2003 
Q 3789 1754 3789 1299 
Q 3789 634 3299 298 
Q 2810 -38 1747 -38 
z
M 1165 2067 
L 1165 506 
Q 1235 499 1331 493 
Q 1414 486 1526 483 
Q 1638 480 1786 480 
Q 2061 480 2307 515 
Q 2554 550 2739 640 
Q 2925 730 3037 890 
Q 3149 1050 3149 1293 
Q 3149 1510 3065 1660 
Q 2982 1811 2825 1900 
Q 2669 1990 2451 2028 
Q 2234 2067 1965 2067 
L 1165 2067 
z
M 1165 2566 
L 1818 2566 
Q 2048 2566 2253 2598 
Q 2458 2630 2608 2713 
Q 2758 2797 2844 2931 
Q 2931 3066 2931 3270 
Q 2931 3462 2841 3593 
Q 2752 3725 2595 3805 
Q 2438 3885 2227 3923 
Q 2016 3962 1779 3962 
Q 1542 3962 1408 3955 
Q 1274 3949 1165 3936 
L 1165 2566 
z
" transform="scale(0.015625)"/>
        <path id="Ubuntu-61" d="M 1638 429 
Q 1850 429 2013 438 
Q 2176 448 2285 474 
L 2285 1466 
Q 2221 1498 2077 1520 
Q 1933 1542 1728 1542 
Q 1594 1542 1443 1523 
Q 1293 1504 1168 1443 
Q 1043 1382 960 1276 
Q 877 1171 877 998 
Q 877 678 1081 553 
Q 1286 429 1638 429 
z
M 1587 3411 
Q 1946 3411 2192 3318 
Q 2438 3226 2588 3056 
Q 2739 2886 2803 2652 
Q 2867 2419 2867 2138 
L 2867 58 
Q 2790 45 2652 22 
Q 2515 0 2342 -19 
Q 2170 -38 1968 -54 
Q 1766 -70 1568 -70 
Q 1286 -70 1049 -12 
Q 813 45 640 169 
Q 467 294 371 499 
Q 275 704 275 992 
Q 275 1267 387 1465 
Q 499 1664 691 1785 
Q 883 1907 1139 1964 
Q 1395 2022 1677 2022 
Q 1766 2022 1862 2012 
Q 1958 2003 2044 1987 
Q 2131 1971 2195 1958 
Q 2259 1946 2285 1939 
L 2285 2106 
Q 2285 2253 2253 2397 
Q 2221 2541 2137 2653 
Q 2054 2765 1910 2832 
Q 1766 2899 1536 2899 
Q 1242 2899 1021 2857 
Q 800 2816 691 2771 
L 621 3264 
Q 736 3315 1005 3363 
Q 1274 3411 1587 3411 
z
" transform="scale(0.015625)"/>
        <path id="Ubuntu-73" d="M 1286 429 
Q 1651 429 1827 525 
Q 2003 621 2003 832 
Q 2003 1050 1830 1178 
Q 1658 1306 1261 1466 
Q 1069 1542 893 1622 
Q 717 1702 589 1811 
Q 461 1920 384 2073 
Q 307 2227 307 2451 
Q 307 2893 633 3152 
Q 960 3411 1523 3411 
Q 1664 3411 1805 3395 
Q 1946 3379 2067 3356 
Q 2189 3334 2281 3308 
Q 2374 3283 2426 3264 
L 2317 2752 
Q 2221 2803 2016 2857 
Q 1811 2912 1523 2912 
Q 1274 2912 1088 2813 
Q 902 2714 902 2502 
Q 902 2394 944 2310 
Q 986 2227 1072 2160 
Q 1158 2093 1286 2035 
Q 1414 1978 1594 1914 
Q 1830 1824 2016 1737 
Q 2202 1651 2333 1536 
Q 2464 1421 2534 1257 
Q 2605 1094 2605 858 
Q 2605 397 2262 160 
Q 1920 -77 1286 -77 
Q 845 -77 595 -3 
Q 346 70 256 109 
L 365 621 
Q 467 582 691 505 
Q 915 429 1286 429 
z
" transform="scale(0.015625)"/>
        <path id="Ubuntu-65" d="M 326 1658 
Q 326 2099 454 2428 
Q 582 2758 793 2976 
Q 1005 3194 1280 3302 
Q 1555 3411 1843 3411 
Q 2515 3411 2873 2992 
Q 3232 2573 3232 1715 
Q 3232 1677 3232 1616 
Q 3232 1555 3226 1504 
L 947 1504 
Q 986 986 1248 717 
Q 1510 448 2067 448 
Q 2381 448 2595 502 
Q 2810 557 2918 608 
L 3002 109 
Q 2893 51 2621 -13 
Q 2349 -77 2003 -77 
Q 1568 -77 1251 54 
Q 934 186 729 416 
Q 525 646 425 963 
Q 326 1280 326 1658 
z
M 2611 1984 
Q 2618 2387 2410 2646 
Q 2202 2906 1837 2906 
Q 1632 2906 1475 2826 
Q 1318 2746 1209 2618 
Q 1101 2490 1040 2323 
Q 979 2157 960 1984 
L 2611 1984 
z
" transform="scale(0.015625)"/>
       </defs>
       <use xlink:href="#Ubuntu-42"/>
       <use xlink:href="#Ubuntu-61" x="64.299988"/>
       <use xlink:href="#Ubuntu-73" x="116.499985"/>
       <use xlink:href="#Ubuntu-65" x="161.099976"/>
      </g>
     </g>
    </g>
    <g id="xtick_2">
     <g id="line2d_2">
      <path d="M 105.754587 90.711438 
L 105.754587 24.183438 
" clip-path="url(#pd25a5c97e3)" style="fill: none; stroke-dasharray: 0.5,0.825; stroke-dashoffset: 0; stroke: #d9d9d9; stroke-width: 0.5"/>
     </g>
     <g id="text_2">
      <!-- RUS -->
      <g style="fill: #757575" transform="translate(98.358337 100.418938) scale(0.08 -0.08)">
       <defs>
        <path id="Ubuntu-52" d="M 2720 1856 
Q 2822 1728 2979 1520 
Q 3136 1312 3302 1059 
Q 3469 806 3632 531 
Q 3795 256 3910 0 
L 3232 0 
Q 3104 243 2953 492 
Q 2803 742 2649 969 
Q 2496 1197 2345 1395 
Q 2195 1594 2074 1741 
Q 1990 1734 1904 1734 
Q 1818 1734 1728 1734 
L 1171 1734 
L 1171 0 
L 550 0 
L 550 4371 
Q 813 4435 1136 4457 
Q 1459 4480 1728 4480 
Q 2662 4480 3152 4128 
Q 3642 3776 3642 3078 
Q 3642 2637 3408 2323 
Q 3174 2010 2720 1856 
z
M 1779 3936 
Q 1382 3936 1171 3917 
L 1171 2246 
L 1613 2246 
Q 1933 2246 2189 2278 
Q 2445 2310 2621 2400 
Q 2797 2490 2893 2653 
Q 2989 2816 2989 3085 
Q 2989 3334 2893 3500 
Q 2797 3667 2633 3763 
Q 2470 3859 2249 3897 
Q 2029 3936 1779 3936 
z
" transform="scale(0.015625)"/>
        <path id="Ubuntu-55" d="M 2202 -96 
Q 1766 -96 1446 38 
Q 1126 173 921 406 
Q 717 640 617 960 
Q 518 1280 518 1651 
L 518 4435 
L 1139 4435 
L 1139 1722 
Q 1139 1056 1433 755 
Q 1728 454 2202 454 
Q 2438 454 2633 528 
Q 2829 602 2969 755 
Q 3110 909 3187 1149 
Q 3264 1389 3264 1722 
L 3264 4435 
L 3885 4435 
L 3885 1651 
Q 3885 1280 3785 960 
Q 3686 640 3478 406 
Q 3270 173 2953 38 
Q 2637 -96 2202 -96 
z
" transform="scale(0.015625)"/>
        <path id="Ubuntu-53" d="M 1581 442 
Q 2554 442 2554 1107 
Q 2554 1312 2467 1456 
Q 2381 1600 2233 1705 
Q 2086 1811 1897 1888 
Q 1709 1965 1498 2042 
Q 1254 2125 1036 2230 
Q 819 2336 659 2480 
Q 499 2624 406 2822 
Q 314 3021 314 3302 
Q 314 3885 710 4211 
Q 1107 4538 1805 4538 
Q 2208 4538 2537 4451 
Q 2867 4365 3021 4262 
L 2822 3757 
Q 2688 3840 2422 3920 
Q 2157 4000 1805 4000 
Q 1626 4000 1472 3961 
Q 1318 3923 1203 3846 
Q 1088 3770 1021 3651 
Q 954 3533 954 3373 
Q 954 3194 1024 3072 
Q 1094 2950 1222 2857 
Q 1350 2765 1520 2688 
Q 1690 2611 1894 2534 
Q 2182 2419 2422 2304 
Q 2662 2189 2838 2029 
Q 3014 1869 3110 1648 
Q 3206 1427 3206 1114 
Q 3206 531 2780 217 
Q 2355 -96 1581 -96 
Q 1318 -96 1097 -61 
Q 877 -26 704 22 
Q 531 70 406 124 
Q 282 179 211 218 
L 397 730 
Q 544 646 845 544 
Q 1146 442 1581 442 
z
" transform="scale(0.015625)"/>
       </defs>
       <use xlink:href="#Ubuntu-52"/>
       <use xlink:href="#Ubuntu-55" x="62.899994"/>
       <use xlink:href="#Ubuntu-53" x="131.699982"/>
      </g>
     </g>
    </g>
    <g id="xtick_3">
     <g id="line2d_3">
      <path d="M 174.92814 90.711438 
L 174.92814 24.183438 
" clip-path="url(#pd25a5c97e3)" style="fill: none; stroke-dasharray: 0.5,0.825; stroke-dashoffset: 0; stroke: #d9d9d9; stroke-width: 0.5"/>
     </g>
     <g id="text_3">
      <!-- SMOTE+RUS -->
      <g style="fill: #757575" transform="translate(152.11814 100.418938) scale(0.08 -0.08)">
       <defs>
        <path id="Ubuntu-4d" d="M 2541 614 
Q 2477 768 2371 1005 
Q 2266 1242 2144 1517 
Q 2022 1792 1884 2083 
Q 1747 2374 1625 2633 
Q 1504 2893 1398 3097 
Q 1293 3302 1229 3411 
Q 1158 2656 1113 1776 
Q 1069 896 1037 0 
L 429 0 
Q 454 576 486 1161 
Q 518 1747 560 2313 
Q 602 2880 650 3417 
Q 698 3955 755 4435 
L 1299 4435 
Q 1472 4154 1670 3770 
Q 1869 3386 2067 2966 
Q 2266 2547 2451 2128 
Q 2637 1709 2790 1363 
Q 2944 1709 3129 2128 
Q 3315 2547 3513 2966 
Q 3712 3386 3910 3770 
Q 4109 4154 4282 4435 
L 4826 4435 
Q 5043 2291 5152 0 
L 4544 0 
Q 4512 896 4467 1776 
Q 4422 2656 4352 3411 
Q 4288 3302 4182 3097 
Q 4077 2893 3955 2633 
Q 3834 2374 3696 2083 
Q 3558 1792 3436 1517 
Q 3315 1242 3209 1005 
Q 3104 768 3040 614 
L 2541 614 
z
" transform="scale(0.015625)"/>
        <path id="Ubuntu-4f" d="M 371 2221 
Q 371 2790 540 3225 
Q 710 3661 1001 3952 
Q 1293 4243 1680 4390 
Q 2067 4538 2502 4538 
Q 2931 4538 3312 4390 
Q 3693 4243 3981 3952 
Q 4269 3661 4438 3225 
Q 4608 2790 4608 2221 
Q 4608 1651 4438 1216 
Q 4269 781 3981 489 
Q 3693 198 3312 51 
Q 2931 -96 2502 -96 
Q 2067 -96 1680 51 
Q 1293 198 1001 489 
Q 710 781 540 1216 
Q 371 1651 371 2221 
z
M 1024 2221 
Q 1024 1818 1126 1488 
Q 1229 1158 1417 928 
Q 1606 698 1878 573 
Q 2150 448 2490 448 
Q 2829 448 3097 573 
Q 3366 698 3555 928 
Q 3744 1158 3846 1488 
Q 3949 1818 3949 2221 
Q 3949 2624 3846 2953 
Q 3744 3283 3555 3513 
Q 3366 3744 3097 3869 
Q 2829 3994 2490 3994 
Q 2150 3994 1878 3869 
Q 1606 3744 1417 3513 
Q 1229 3283 1126 2953 
Q 1024 2624 1024 2221 
z
" transform="scale(0.015625)"/>
        <path id="Ubuntu-54" d="M 3514 4435 
L 3514 3898 
L 2118 3898 
L 2118 0 
L 1498 0 
L 1498 3898 
L 102 3898 
L 102 4435 
L 3514 4435 
z
" transform="scale(0.015625)"/>
        <path id="Ubuntu-45" d="M 550 0 
L 550 4435 
L 3258 4435 
L 3258 3904 
L 1171 3904 
L 1171 2586 
L 3027 2586 
L 3027 2067 
L 1171 2067 
L 1171 531 
L 3418 531 
L 3418 0 
L 550 0 
z
" transform="scale(0.015625)"/>
        <path id="Ubuntu-2b" d="M 339 2170 
L 1549 2170 
L 1549 3488 
L 2061 3488 
L 2061 2170 
L 3270 2170 
L 3270 1664 
L 2061 1664 
L 2061 339 
L 1549 339 
L 1549 1664 
L 339 1664 
L 339 2170 
z
" transform="scale(0.015625)"/>
       </defs>
       <use xlink:href="#Ubuntu-53"/>
       <use xlink:href="#Ubuntu-4d" x="53.199997"/>
       <use xlink:href="#Ubuntu-4f" x="140.299988"/>
       <use xlink:href="#Ubuntu-54" x="215.349976"/>
       <use xlink:href="#Ubuntu-45" x="271.84996"/>
       <use xlink:href="#Ubuntu-2b" x="328.949951"/>
       <use xlink:href="#Ubuntu-52" x="385.349945"/>
       <use xlink:href="#Ubuntu-55" x="448.249939"/>
       <use xlink:href="#Ubuntu-53" x="517.049927"/>
      </g>
     </g>
    </g>
    <g id="xtick_4">
     <g id="line2d_4">
      <path d="M 244.101694 90.711438 
L 244.101694 24.183438 
" clip-path="url(#pd25a5c97e3)" style="fill: none; stroke-dasharray: 0.5,0.825; stroke-dashoffset: 0; stroke: #d9d9d9; stroke-width: 0.5"/>
     </g>
     <g id="text_4">
      <!-- Weighted -->
      <g style="fill: #757575" transform="translate(226.471069 100.418938) scale(0.08 -0.08)">
       <defs>
        <path id="Ubuntu-57" d="M 2976 3008 
Q 2707 2150 2432 1420 
Q 2157 691 1882 0 
L 1261 0 
Q 922 979 662 2067 
Q 403 3155 179 4435 
L 832 4435 
Q 922 3936 1018 3437 
Q 1114 2938 1216 2467 
Q 1318 1997 1420 1568 
Q 1523 1139 1632 774 
Q 1888 1446 2176 2249 
Q 2464 3053 2714 3910 
L 3251 3910 
Q 3501 3053 3795 2249 
Q 4090 1446 4346 774 
Q 4448 1133 4550 1561 
Q 4653 1990 4752 2460 
Q 4851 2931 4947 3433 
Q 5043 3936 5133 4435 
L 5766 4435 
Q 5536 3155 5277 2067 
Q 5018 979 4685 0 
L 4064 0 
Q 3782 691 3513 1420 
Q 3245 2150 2976 3008 
z
" transform="scale(0.015625)"/>
        <path id="Ubuntu-69" d="M 1107 0 
L 512 0 
L 512 3328 
L 1107 3328 
L 1107 0 
z
M 806 3930 
Q 646 3930 534 4035 
Q 422 4141 422 4320 
Q 422 4499 534 4604 
Q 646 4710 806 4710 
Q 966 4710 1078 4604 
Q 1190 4499 1190 4320 
Q 1190 4141 1078 4035 
Q 966 3930 806 3930 
z
" transform="scale(0.015625)"/>
        <path id="Ubuntu-67" d="M 2598 333 
Q 2522 282 2301 202 
Q 2080 122 1786 122 
Q 1485 122 1219 218 
Q 954 314 755 515 
Q 557 717 441 1017 
Q 326 1318 326 1734 
Q 326 2099 435 2403 
Q 544 2707 752 2928 
Q 960 3149 1261 3273 
Q 1562 3398 1939 3398 
Q 2355 3398 2665 3337 
Q 2976 3277 3187 3226 
L 3187 256 
Q 3187 -512 2790 -857 
Q 2394 -1203 1587 -1203 
Q 1274 -1203 995 -1152 
Q 717 -1101 512 -1030 
L 621 -512 
Q 800 -582 1059 -636 
Q 1318 -691 1600 -691 
Q 2131 -691 2364 -480 
Q 2598 -269 2598 192 
L 2598 333 
z
M 2592 2803 
Q 2502 2829 2352 2851 
Q 2202 2874 1946 2874 
Q 1466 2874 1206 2560 
Q 947 2246 947 1728 
Q 947 1440 1020 1235 
Q 1094 1030 1219 896 
Q 1344 762 1507 698 
Q 1670 634 1843 634 
Q 2080 634 2278 701 
Q 2477 768 2592 858 
L 2592 2803 
z
" transform="scale(0.015625)"/>
        <path id="Ubuntu-68" d="M 512 0 
L 512 4864 
L 1107 4966 
L 1107 3264 
Q 1274 3328 1462 3363 
Q 1651 3398 1837 3398 
Q 2234 3398 2496 3286 
Q 2758 3174 2915 2972 
Q 3072 2771 3136 2489 
Q 3200 2208 3200 1869 
L 3200 0 
L 2605 0 
L 2605 1741 
Q 2605 2048 2563 2265 
Q 2522 2483 2426 2617 
Q 2330 2752 2170 2813 
Q 2010 2874 1773 2874 
Q 1677 2874 1574 2861 
Q 1472 2848 1379 2832 
Q 1286 2816 1212 2797 
Q 1139 2778 1107 2765 
L 1107 0 
L 512 0 
z
" transform="scale(0.015625)"/>
        <path id="Ubuntu-74" d="M 1069 3328 
L 2330 3328 
L 2330 2829 
L 1069 2829 
L 1069 1293 
Q 1069 1043 1107 880 
Q 1146 717 1222 624 
Q 1299 531 1414 492 
Q 1530 454 1683 454 
Q 1952 454 2115 515 
Q 2278 576 2342 602 
L 2458 109 
Q 2368 64 2144 -3 
Q 1920 -70 1632 -70 
Q 1293 -70 1072 16 
Q 851 102 716 275 
Q 582 448 528 701 
Q 474 954 474 1286 
L 474 4256 
L 1069 4358 
L 1069 3328 
z
" transform="scale(0.015625)"/>
        <path id="Ubuntu-64" d="M 2662 2624 
Q 2554 2714 2349 2797 
Q 2144 2880 1901 2880 
Q 1645 2880 1462 2787 
Q 1280 2694 1165 2531 
Q 1050 2368 998 2144 
Q 947 1920 947 1664 
Q 947 1082 1235 765 
Q 1523 448 2003 448 
Q 2246 448 2409 470 
Q 2573 493 2662 518 
L 2662 2624 
z
M 2662 4864 
L 3258 4966 
L 3258 96 
Q 3053 38 2733 -19 
Q 2413 -77 1997 -77 
Q 1613 -77 1305 44 
Q 998 166 780 390 
Q 563 614 444 937 
Q 326 1261 326 1664 
Q 326 2048 425 2368 
Q 525 2688 717 2918 
Q 909 3149 1187 3277 
Q 1466 3405 1824 3405 
Q 2112 3405 2333 3328 
Q 2554 3251 2662 3181 
L 2662 4864 
z
" transform="scale(0.015625)"/>
       </defs>
       <use xlink:href="#Ubuntu-57"/>
       <use xlink:href="#Ubuntu-65" x="90.649994"/>
       <use xlink:href="#Ubuntu-69" x="146.549988"/>
       <use xlink:href="#Ubuntu-67" x="171.849976"/>
       <use xlink:href="#Ubuntu-68" x="229.649963"/>
       <use xlink:href="#Ubuntu-74" x="286.749954"/>
       <use xlink:href="#Ubuntu-65" x="325.949951"/>
       <use xlink:href="#Ubuntu-64" x="381.849945"/>
      </g>
     </g>
    </g>
    <g id="text_5">
     <!-- None -->
     <g style="fill: #505050" transform="translate(26.205 116.906125) scale(0.09 -0.09)">
      <defs>
       <path id="Ubuntu-Bold-4e" d="M 3488 0 
Q 3059 762 2560 1504 
Q 2061 2246 1498 2906 
L 1498 0 
L 512 0 
L 512 4435 
L 1325 4435 
Q 1536 4224 1792 3917 
Q 2048 3610 2313 3261 
Q 2579 2912 2841 2537 
Q 3104 2163 3334 1818 
L 3334 4435 
L 4326 4435 
L 4326 0 
L 3488 0 
z
" transform="scale(0.015625)"/>
       <path id="Ubuntu-Bold-6f" d="M 3597 1690 
Q 3597 1293 3481 963 
Q 3366 634 3148 400 
Q 2931 166 2627 38 
Q 2323 -90 1946 -90 
Q 1574 -90 1270 38 
Q 966 166 748 400 
Q 531 634 409 963 
Q 288 1293 288 1690 
Q 288 2086 413 2412 
Q 538 2739 758 2969 
Q 979 3200 1283 3328 
Q 1587 3456 1946 3456 
Q 2310 3456 2614 3328 
Q 2918 3200 3136 2969 
Q 3354 2739 3475 2412 
Q 3597 2086 3597 1690 
z
M 2624 1690 
Q 2624 2131 2448 2384 
Q 2272 2637 1946 2637 
Q 1619 2637 1440 2384 
Q 1261 2131 1261 1690 
Q 1261 1248 1440 989 
Q 1619 730 1946 730 
Q 2272 730 2448 989 
Q 2624 1248 2624 1690 
z
" transform="scale(0.015625)"/>
       <path id="Ubuntu-Bold-6e" d="M 448 3251 
Q 691 3322 1075 3382 
Q 1459 3443 1882 3443 
Q 2310 3443 2595 3331 
Q 2880 3219 3046 3014 
Q 3213 2810 3283 2528 
Q 3354 2246 3354 1901 
L 3354 0 
L 2400 0 
L 2400 1786 
Q 2400 2246 2278 2438 
Q 2157 2630 1824 2630 
Q 1722 2630 1606 2620 
Q 1491 2611 1402 2598 
L 1402 0 
L 448 0 
L 448 3251 
z
" transform="scale(0.015625)"/>
       <path id="Ubuntu-Bold-65" d="M 288 1658 
Q 288 2106 425 2442 
Q 563 2778 787 3002 
Q 1011 3226 1302 3341 
Q 1594 3456 1901 3456 
Q 2618 3456 3034 3017 
Q 3450 2579 3450 1728 
Q 3450 1645 3443 1545 
Q 3437 1446 3430 1370 
L 1267 1370 
Q 1299 1075 1542 902 
Q 1786 730 2195 730 
Q 2458 730 2710 778 
Q 2963 826 3123 896 
L 3251 122 
Q 3174 83 3046 44 
Q 2918 6 2761 -22 
Q 2605 -51 2425 -70 
Q 2246 -90 2067 -90 
Q 1613 -90 1277 44 
Q 941 179 720 412 
Q 499 646 393 966 
Q 288 1286 288 1658 
z
M 2528 2022 
Q 2522 2144 2486 2259 
Q 2451 2374 2377 2464 
Q 2304 2554 2192 2611 
Q 2080 2669 1914 2669 
Q 1754 2669 1638 2614 
Q 1523 2560 1446 2470 
Q 1370 2381 1328 2262 
Q 1286 2144 1267 2022 
L 2528 2022 
z
" transform="scale(0.015625)"/>
      </defs>
      <use xlink:href="#Ubuntu-Bold-4e"/>
      <use xlink:href="#Ubuntu-Bold-6f" x="75.599991"/>
      <use xlink:href="#Ubuntu-Bold-6e" x="136.299988"/>
      <use xlink:href="#Ubuntu-Bold-65" x="195.199982"/>
     </g>
    </g>
   </g>
   <g id="matplotlib.axis_2">
    <g id="ytick_1">
     <g id="line2d_5">
      <path d="M 26.205 90.711438 
L 254.477727 90.711438 
" clip-path="url(#pd25a5c97e3)" style="fill: none; stroke-dasharray: 0.5,0.825; stroke-dashoffset: 0; stroke: #d9d9d9; stroke-width: 0.5"/>
     </g>
     <g id="text_6">
      <!-- 0.80 -->
      <g style="fill: #757575" transform="translate(7.2 93.815188) scale(0.08 -0.08)">
       <defs>
        <path id="Ubuntu-30" d="M 320 2221 
Q 320 3334 713 3936 
Q 1107 4538 1805 4538 
Q 2502 4538 2896 3936 
Q 3290 3334 3290 2221 
Q 3290 1107 2896 505 
Q 2502 -96 1805 -96 
Q 1107 -96 713 505 
Q 320 1107 320 2221 
z
M 2662 2221 
Q 2662 2586 2620 2912 
Q 2579 3238 2480 3481 
Q 2381 3725 2214 3869 
Q 2048 4013 1805 4013 
Q 1562 4013 1395 3869 
Q 1229 3725 1129 3481 
Q 1030 3238 988 2912 
Q 947 2586 947 2221 
Q 947 1856 988 1529 
Q 1030 1203 1129 960 
Q 1229 717 1395 573 
Q 1562 429 1805 429 
Q 2048 429 2214 573 
Q 2381 717 2480 960 
Q 2579 1203 2620 1529 
Q 2662 1856 2662 2221 
z
" transform="scale(0.015625)"/>
        <path id="Ubuntu-2e" d="M 1216 346 
Q 1216 173 1101 45 
Q 986 -83 787 -83 
Q 589 -83 473 45 
Q 358 173 358 346 
Q 358 518 473 646 
Q 589 774 787 774 
Q 986 774 1101 646 
Q 1216 518 1216 346 
z
" transform="scale(0.015625)"/>
        <path id="Ubuntu-38" d="M 3258 1152 
Q 3258 883 3165 656 
Q 3072 429 2889 259 
Q 2707 90 2432 -3 
Q 2157 -96 1798 -96 
Q 1382 -96 1104 22 
Q 826 141 659 320 
Q 493 499 422 713 
Q 352 928 352 1120 
Q 352 1306 413 1475 
Q 474 1645 573 1792 
Q 672 1939 803 2057 
Q 934 2176 1082 2266 
Q 454 2624 454 3322 
Q 454 3565 550 3785 
Q 646 4006 822 4172 
Q 998 4339 1248 4438 
Q 1498 4538 1805 4538 
Q 2163 4538 2419 4429 
Q 2675 4320 2838 4150 
Q 3002 3981 3075 3776 
Q 3149 3571 3149 3379 
Q 3149 3194 3094 3030 
Q 3040 2867 2947 2726 
Q 2854 2586 2736 2477 
Q 2618 2368 2490 2285 
Q 3245 1926 3258 1152 
z
M 954 1114 
Q 954 998 995 873 
Q 1037 749 1139 643 
Q 1242 538 1402 467 
Q 1562 397 1805 397 
Q 2022 397 2185 461 
Q 2349 525 2451 624 
Q 2554 723 2605 851 
Q 2656 979 2656 1114 
Q 2656 1318 2579 1472 
Q 2502 1626 2358 1741 
Q 2214 1856 2012 1936 
Q 1811 2016 1555 2074 
Q 1267 1914 1110 1677 
Q 954 1440 954 1114 
z
M 2554 3386 
Q 2554 3482 2512 3597 
Q 2470 3712 2380 3811 
Q 2291 3910 2150 3977 
Q 2010 4045 1805 4045 
Q 1600 4045 1456 3981 
Q 1312 3917 1222 3817 
Q 1133 3718 1091 3600 
Q 1050 3482 1050 3366 
Q 1050 3226 1101 3085 
Q 1152 2944 1261 2822 
Q 1370 2701 1546 2605 
Q 1722 2509 1965 2451 
Q 2234 2611 2394 2825 
Q 2554 3040 2554 3386 
z
" transform="scale(0.015625)"/>
       </defs>
       <use xlink:href="#Ubuntu-30"/>
       <use xlink:href="#Ubuntu-2e" x="56.399994"/>
       <use xlink:href="#Ubuntu-38" x="80.999985"/>
       <use xlink:href="#Ubuntu-30" x="137.399979"/>
      </g>
     </g>
    </g>
    <g id="ytick_2">
     <g id="line2d_6">
      <path d="M 26.205 68.535438 
L 254.477727 68.535438 
" clip-path="url(#pd25a5c97e3)" style="fill: none; stroke-dasharray: 0.5,0.825; stroke-dashoffset: 0; stroke: #d9d9d9; stroke-width: 0.5"/>
     </g>
     <g id="text_7">
      <!-- 0.85 -->
      <g style="fill: #757575" transform="translate(7.2 71.639188) scale(0.08 -0.08)">
       <defs>
        <path id="Ubuntu-35" d="M 1274 2726 
Q 2240 2688 2691 2304 
Q 3142 1920 3142 1261 
Q 3142 966 3043 716 
Q 2944 467 2742 288 
Q 2541 109 2233 6 
Q 1926 -96 1504 -96 
Q 1338 -96 1165 -70 
Q 992 -45 845 -6 
Q 698 32 582 70 
Q 467 109 416 134 
L 531 653 
Q 640 602 886 518 
Q 1133 435 1491 435 
Q 1779 435 1974 499 
Q 2170 563 2291 672 
Q 2413 781 2467 925 
Q 2522 1069 2522 1229 
Q 2522 1472 2438 1661 
Q 2355 1850 2144 1978 
Q 1933 2106 1581 2173 
Q 1229 2240 691 2240 
Q 730 2554 752 2829 
Q 774 3104 793 3366 
Q 813 3629 825 3888 
Q 838 4147 851 4435 
L 2989 4435 
L 2989 3930 
L 1370 3930 
Q 1363 3834 1350 3670 
Q 1338 3507 1325 3331 
Q 1312 3155 1299 2988 
Q 1286 2822 1274 2726 
z
" transform="scale(0.015625)"/>
       </defs>
       <use xlink:href="#Ubuntu-30"/>
       <use xlink:href="#Ubuntu-2e" x="56.399994"/>
       <use xlink:href="#Ubuntu-38" x="80.999985"/>
       <use xlink:href="#Ubuntu-35" x="137.399979"/>
      </g>
     </g>
    </g>
    <g id="ytick_3">
     <g id="line2d_7">
      <path d="M 26.205 46.359438 
L 254.477727 46.359438 
" clip-path="url(#pd25a5c97e3)" style="fill: none; stroke-dasharray: 0.5,0.825; stroke-dashoffset: 0; stroke: #d9d9d9; stroke-width: 0.5"/>
     </g>
     <g id="text_8">
      <!-- 0.90 -->
      <g style="fill: #757575" transform="translate(7.2 49.463188) scale(0.08 -0.08)">
       <defs>
        <path id="Ubuntu-39" d="M 3206 2662 
Q 3206 1344 2550 669 
Q 1894 -6 602 -13 
L 582 486 
Q 986 486 1309 563 
Q 1632 640 1875 809 
Q 2118 979 2281 1248 
Q 2445 1517 2522 1907 
Q 2355 1830 2144 1782 
Q 1933 1734 1709 1734 
Q 1331 1734 1068 1846 
Q 806 1958 640 2147 
Q 474 2336 400 2582 
Q 326 2829 326 3098 
Q 326 3334 409 3590 
Q 493 3846 662 4057 
Q 832 4269 1094 4403 
Q 1357 4538 1715 4538 
Q 2080 4538 2358 4410 
Q 2637 4282 2825 4038 
Q 3014 3795 3110 3446 
Q 3206 3098 3206 2662 
z
M 1773 2221 
Q 1997 2221 2195 2262 
Q 2394 2304 2579 2387 
Q 2586 2458 2586 2525 
Q 2586 2592 2586 2662 
Q 2586 2938 2547 3190 
Q 2509 3443 2409 3632 
Q 2310 3821 2144 3933 
Q 1978 4045 1722 4045 
Q 1510 4045 1363 3955 
Q 1216 3866 1120 3728 
Q 1024 3590 982 3427 
Q 941 3264 941 3110 
Q 941 2675 1149 2448 
Q 1357 2221 1773 2221 
z
" transform="scale(0.015625)"/>
       </defs>
       <use xlink:href="#Ubuntu-30"/>
       <use xlink:href="#Ubuntu-2e" x="56.399994"/>
       <use xlink:href="#Ubuntu-39" x="80.999985"/>
       <use xlink:href="#Ubuntu-30" x="137.399979"/>
      </g>
     </g>
    </g>
    <g id="ytick_4">
     <g id="line2d_8">
      <path d="M 26.205 24.183438 
L 254.477727 24.183438 
" clip-path="url(#pd25a5c97e3)" style="fill: none; stroke-dasharray: 0.5,0.825; stroke-dashoffset: 0; stroke: #d9d9d9; stroke-width: 0.5"/>
     </g>
     <g id="text_9">
      <!-- 0.95 -->
      <g style="fill: #757575" transform="translate(7.2 27.287187) scale(0.08 -0.08)">
       <use xlink:href="#Ubuntu-30"/>
       <use xlink:href="#Ubuntu-2e" x="56.399994"/>
       <use xlink:href="#Ubuntu-39" x="80.999985"/>
       <use xlink:href="#Ubuntu-35" x="137.399979"/>
      </g>
     </g>
    </g>
   </g>
   <g id="PolyCollection_1"/>
   <g id="PathCollection_1">
    <defs>
     <path id="m737174f4cb" d="M 0 2.5 
C 0.663008 2.5 1.29895 2.236584 1.767767 1.767767 
C 2.236584 1.29895 2.5 0.663008 2.5 0 
C 2.5 -0.663008 2.236584 -1.29895 1.767767 -1.767767 
C 1.29895 -2.236584 0.663008 -2.5 0 -2.5 
C -0.663008 -2.5 -1.29895 -2.236584 -1.767767 -1.767767 
C -2.236584 -1.29895 -2.5 -0.663008 -2.5 0 
C -2.5 0.663008 -2.236584 1.29895 -1.767767 1.767767 
C -1.29895 2.236584 -0.663008 2.5 0 2.5 
z
" style="stroke: #ffffff; stroke-width: 0.4"/>
    </defs>
    <g clip-path="url(#pd25a5c97e3)">
     <use xlink:href="#m737174f4cb" x="36.581033" y="57.447438" style="fill: #3d6384; stroke: #ffffff; stroke-width: 0.4"/>
     <use xlink:href="#m737174f4cb" x="105.754587" y="57.447438" style="fill: #3d6384; stroke: #ffffff; stroke-width: 0.4"/>
     <use xlink:href="#m737174f4cb" x="174.92814" y="64.100238" style="fill: #3d6384; stroke: #ffffff; stroke-width: 0.4"/>
     <use xlink:href="#m737174f4cb" x="244.101694" y="56.560398" style="fill: #3d6384; stroke: #ffffff; stroke-width: 0.4"/>
    </g>
   </g>
   <g id="line2d_9">
    <path d="M 36.581033 57.447438 
L 105.754587 57.447438 
L 174.92814 64.100238 
L 244.101694 56.560398 
" clip-path="url(#pd25a5c97e3)" style="fill: none; stroke: #3d6384; stroke-opacity: 0.25; stroke-width: 1.5; stroke-linecap: square"/>
   </g>
   <g id="line2d_10">
    <path d="M 36.581033 66.332917 
L 36.581033 48.561958 
" clip-path="url(#pd25a5c97e3)" style="fill: none; stroke: #3d6384; stroke-opacity: 0.75; stroke-width: 1.4; stroke-linecap: square"/>
   </g>
   <g id="line2d_11">
    <path d="M 105.754587 67.390712 
L 105.754587 47.504163 
" clip-path="url(#pd25a5c97e3)" style="fill: none; stroke: #3d6384; stroke-opacity: 0.75; stroke-width: 1.4; stroke-linecap: square"/>
   </g>
   <g id="line2d_12">
    <path d="M 174.92814 76.441182 
L 174.92814 51.759294 
" clip-path="url(#pd25a5c97e3)" style="fill: none; stroke: #3d6384; stroke-opacity: 0.75; stroke-width: 1.4; stroke-linecap: square"/>
   </g>
   <g id="line2d_13">
    <path d="M 244.101694 66.221594 
L 244.101694 46.899201 
" clip-path="url(#pd25a5c97e3)" style="fill: none; stroke: #3d6384; stroke-opacity: 0.75; stroke-width: 1.4; stroke-linecap: square"/>
   </g>
   <g id="patch_3">
    <path d="M 26.205 90.711438 
L 26.205 24.183438 
" style="fill: none; stroke: #bbbbbb; stroke-linejoin: miter; stroke-linecap: square"/>
   </g>
   <g id="patch_4">
    <path d="M 26.205 90.711438 
L 254.477727 90.711438 
" style="fill: none; stroke: #bbbbbb; stroke-linejoin: miter; stroke-linecap: square"/>
   </g>
   <g id="text_10">
    <!-- AUC ROC -->
    <g style="fill: #454545" transform="translate(26.205 14.183438) scale(0.09 -0.09)">
     <defs>
      <path id="Ubuntu-Medium-41" d="M 3475 0 
Q 3386 262 3290 518 
Q 3194 774 3104 1043 
L 1235 1043 
Q 1146 774 1053 515 
Q 960 256 870 0 
L 32 0 
Q 282 710 506 1312 
Q 730 1914 944 2451 
Q 1158 2989 1369 3475 
Q 1581 3962 1805 4435 
L 2566 4435 
Q 2790 3962 3001 3475 
Q 3213 2989 3427 2451 
Q 3642 1914 3869 1312 
Q 4096 710 4346 0 
L 3475 0 
z
M 2170 3578 
Q 2022 3238 1833 2752 
Q 1645 2266 1440 1696 
L 2899 1696 
Q 2694 2266 2502 2758 
Q 2310 3251 2170 3578 
z
" transform="scale(0.015625)"/>
      <path id="Ubuntu-Medium-55" d="M 2240 -96 
Q 1786 -96 1459 35 
Q 1133 166 918 403 
Q 704 640 601 960 
Q 499 1280 499 1664 
L 499 4435 
L 1312 4435 
L 1312 1741 
Q 1312 1440 1379 1225 
Q 1446 1011 1571 876 
Q 1696 742 1865 678 
Q 2035 614 2246 614 
Q 2458 614 2630 678 
Q 2803 742 2928 876 
Q 3053 1011 3120 1225 
Q 3187 1440 3187 1741 
L 3187 4435 
L 4000 4435 
L 4000 1664 
Q 4000 1280 3894 960 
Q 3789 640 3574 403 
Q 3360 166 3027 35 
Q 2694 -96 2240 -96 
z
" transform="scale(0.015625)"/>
      <path id="Ubuntu-Medium-43" d="M 2502 -96 
Q 2003 -96 1606 57 
Q 1210 211 934 508 
Q 659 806 512 1235 
Q 365 1664 365 2221 
Q 365 2778 534 3206 
Q 704 3635 998 3932 
Q 1293 4230 1689 4384 
Q 2086 4538 2541 4538 
Q 2816 4538 3040 4496 
Q 3264 4454 3430 4403 
Q 3597 4352 3705 4294 
Q 3814 4237 3859 4211 
L 3622 3552 
Q 3469 3648 3184 3734 
Q 2899 3821 2566 3821 
Q 2278 3821 2028 3721 
Q 1779 3622 1596 3424 
Q 1414 3226 1312 2925 
Q 1210 2624 1210 2227 
Q 1210 1875 1290 1580 
Q 1370 1286 1536 1072 
Q 1702 858 1958 739 
Q 2214 621 2573 621 
Q 3002 621 3270 707 
Q 3539 794 3686 870 
L 3904 211 
Q 3827 160 3696 109 
Q 3565 58 3385 10 
Q 3206 -38 2982 -67 
Q 2758 -96 2502 -96 
z
" transform="scale(0.015625)"/>
      <path id="Ubuntu-Medium-20" transform="scale(0.015625)"/>
      <path id="Ubuntu-Medium-52" d="M 1754 4480 
Q 2714 4480 3222 4128 
Q 3731 3776 3731 3053 
Q 3731 2150 2842 1830 
Q 2963 1683 3116 1472 
Q 3270 1261 3430 1014 
Q 3590 768 3737 509 
Q 3885 250 4000 0 
L 3098 0 
Q 2976 230 2835 464 
Q 2694 698 2550 918 
Q 2406 1139 2265 1334 
Q 2125 1530 2003 1683 
Q 1914 1677 1850 1677 
Q 1786 1677 1728 1677 
L 1338 1677 
L 1338 0 
L 531 0 
L 531 4371 
Q 826 4435 1158 4457 
Q 1491 4480 1754 4480 
z
M 1811 3782 
Q 1555 3782 1338 3763 
L 1338 2330 
L 1690 2330 
Q 1984 2330 2208 2362 
Q 2432 2394 2582 2477 
Q 2733 2560 2809 2701 
Q 2886 2842 2886 3059 
Q 2886 3264 2809 3405 
Q 2733 3546 2589 3629 
Q 2445 3712 2246 3747 
Q 2048 3782 1811 3782 
z
" transform="scale(0.015625)"/>
      <path id="Ubuntu-Medium-4f" d="M 1190 2221 
Q 1190 1856 1280 1558 
Q 1370 1261 1539 1053 
Q 1709 845 1952 729 
Q 2195 614 2502 614 
Q 2803 614 3046 729 
Q 3290 845 3459 1053 
Q 3629 1261 3718 1558 
Q 3808 1856 3808 2221 
Q 3808 2586 3718 2883 
Q 3629 3181 3459 3389 
Q 3290 3597 3046 3712 
Q 2803 3827 2502 3827 
Q 2195 3827 1952 3712 
Q 1709 3597 1539 3385 
Q 1370 3174 1280 2880 
Q 1190 2586 1190 2221 
z
M 4653 2221 
Q 4653 1651 4483 1216 
Q 4314 781 4022 489 
Q 3731 198 3340 51 
Q 2950 -96 2509 -96 
Q 2067 -96 1673 51 
Q 1280 198 989 489 
Q 698 781 525 1216 
Q 352 1651 352 2221 
Q 352 2790 525 3222 
Q 698 3654 995 3948 
Q 1293 4243 1683 4390 
Q 2074 4538 2509 4538 
Q 2944 4538 3334 4390 
Q 3725 4243 4016 3948 
Q 4307 3654 4480 3222 
Q 4653 2790 4653 2221 
z
" transform="scale(0.015625)"/>
     </defs>
     <use xlink:href="#Ubuntu-Medium-41"/>
     <use xlink:href="#Ubuntu-Medium-55" x="67.524994"/>
     <use xlink:href="#Ubuntu-Medium-43" x="137.824982"/>
     <use xlink:href="#Ubuntu-Medium-20" x="201.624969"/>
     <use xlink:href="#Ubuntu-Medium-52" x="224.924957"/>
     <use xlink:href="#Ubuntu-Medium-4f" x="288.049942"/>
     <use xlink:href="#Ubuntu-Medium-43" x="366.249924"/>
    </g>
   </g>
  </g>
  <g id="axes_2">
   <g id="patch_5">
    <path d="M 300.132273 90.711438 
L 528.405 90.711438 
L 528.405 24.183438 
L 300.132273 24.183438 
L 300.132273 90.711438 
z
" style="fill: none"/>
   </g>
   <g id="matplotlib.axis_3">
    <g id="xtick_5">
     <g id="line2d_14">
      <path d="M 310.508306 90.711438 
L 310.508306 24.183438 
" clip-path="url(#p80f57b44c2)" style="fill: none; stroke-dasharray: 0.5,0.825; stroke-dashoffset: 0; stroke: #d9d9d9; stroke-width: 0.5"/>
     </g>
     <g id="text_11">
      <!-- Base -->
      <g style="fill: #757575" transform="translate(301.828306 100.418938) scale(0.08 -0.08)">
       <use xlink:href="#Ubuntu-42"/>
       <use xlink:href="#Ubuntu-61" x="64.299988"/>
       <use xlink:href="#Ubuntu-73" x="116.499985"/>
       <use xlink:href="#Ubuntu-65" x="161.099976"/>
      </g>
     </g>
    </g>
    <g id="xtick_6">
     <g id="line2d_15">
      <path d="M 379.68186 90.711438 
L 379.68186 24.183438 
" clip-path="url(#p80f57b44c2)" style="fill: none; stroke-dasharray: 0.5,0.825; stroke-dashoffset: 0; stroke: #d9d9d9; stroke-width: 0.5"/>
     </g>
     <g id="text_12">
      <!-- RUS -->
      <g style="fill: #757575" transform="translate(372.28561 100.418938) scale(0.08 -0.08)">
       <use xlink:href="#Ubuntu-52"/>
       <use xlink:href="#Ubuntu-55" x="62.899994"/>
       <use xlink:href="#Ubuntu-53" x="131.699982"/>
      </g>
     </g>
    </g>
    <g id="xtick_7">
     <g id="line2d_16">
      <path d="M 448.855413 90.711438 
L 448.855413 24.183438 
" clip-path="url(#p80f57b44c2)" style="fill: none; stroke-dasharray: 0.5,0.825; stroke-dashoffset: 0; stroke: #d9d9d9; stroke-width: 0.5"/>
     </g>
     <g id="text_13">
      <!-- SMOTE+RUS -->
      <g style="fill: #757575" transform="translate(426.045413 100.418938) scale(0.08 -0.08)">
       <use xlink:href="#Ubuntu-53"/>
       <use xlink:href="#Ubuntu-4d" x="53.199997"/>
       <use xlink:href="#Ubuntu-4f" x="140.299988"/>
       <use xlink:href="#Ubuntu-54" x="215.349976"/>
       <use xlink:href="#Ubuntu-45" x="271.84996"/>
       <use xlink:href="#Ubuntu-2b" x="328.949951"/>
       <use xlink:href="#Ubuntu-52" x="385.349945"/>
       <use xlink:href="#Ubuntu-55" x="448.249939"/>
       <use xlink:href="#Ubuntu-53" x="517.049927"/>
      </g>
     </g>
    </g>
    <g id="xtick_8">
     <g id="line2d_17">
      <path d="M 518.028967 90.711438 
L 518.028967 24.183438 
" clip-path="url(#p80f57b44c2)" style="fill: none; stroke-dasharray: 0.5,0.825; stroke-dashoffset: 0; stroke: #d9d9d9; stroke-width: 0.5"/>
     </g>
     <g id="text_14">
      <!-- Weighted -->
      <g style="fill: #757575" transform="translate(500.398342 100.418938) scale(0.08 -0.08)">
       <use xlink:href="#Ubuntu-57"/>
       <use xlink:href="#Ubuntu-65" x="90.649994"/>
       <use xlink:href="#Ubuntu-69" x="146.549988"/>
       <use xlink:href="#Ubuntu-67" x="171.849976"/>
       <use xlink:href="#Ubuntu-68" x="229.649963"/>
       <use xlink:href="#Ubuntu-74" x="286.749954"/>
       <use xlink:href="#Ubuntu-65" x="325.949951"/>
       <use xlink:href="#Ubuntu-64" x="381.849945"/>
      </g>
     </g>
    </g>
    <g id="text_15">
     <!-- None -->
     <g style="fill: #505050" transform="translate(300.132273 116.906125) scale(0.09 -0.09)">
      <use xlink:href="#Ubuntu-Bold-4e"/>
      <use xlink:href="#Ubuntu-Bold-6f" x="75.599991"/>
      <use xlink:href="#Ubuntu-Bold-6e" x="136.299988"/>
      <use xlink:href="#Ubuntu-Bold-65" x="195.199982"/>
     </g>
    </g>
   </g>
   <g id="matplotlib.axis_4">
    <g id="ytick_5">
     <g id="line2d_18">
      <path d="M 300.132273 90.711438 
L 528.405 90.711438 
" clip-path="url(#p80f57b44c2)" style="fill: none; stroke-dasharray: 0.5,0.825; stroke-dashoffset: 0; stroke: #d9d9d9; stroke-width: 0.5"/>
     </g>
     <g id="text_16">
      <!-- 0.5 -->
      <g style="fill: #757575" transform="translate(285.639773 93.815188) scale(0.08 -0.08)">
       <use xlink:href="#Ubuntu-30"/>
       <use xlink:href="#Ubuntu-2e" x="56.399994"/>
       <use xlink:href="#Ubuntu-35" x="80.999985"/>
      </g>
     </g>
    </g>
    <g id="ytick_6">
     <g id="line2d_19">
      <path d="M 300.132273 68.535438 
L 528.405 68.535438 
" clip-path="url(#p80f57b44c2)" style="fill: none; stroke-dasharray: 0.5,0.825; stroke-dashoffset: 0; stroke: #d9d9d9; stroke-width: 0.5"/>
     </g>
     <g id="text_17">
      <!-- 0.6 -->
      <g style="fill: #757575" transform="translate(285.639773 71.639188) scale(0.08 -0.08)">
       <defs>
        <path id="Ubuntu-36" d="M 403 1779 
Q 403 2426 582 2922 
Q 762 3418 1091 3757 
Q 1421 4096 1891 4272 
Q 2362 4448 2950 4454 
L 2995 3955 
Q 2618 3949 2307 3872 
Q 1997 3795 1753 3628 
Q 1510 3462 1344 3196 
Q 1178 2931 1094 2541 
Q 1261 2618 1469 2669 
Q 1677 2720 1901 2720 
Q 2278 2720 2540 2605 
Q 2803 2490 2969 2301 
Q 3136 2112 3209 1865 
Q 3283 1619 3283 1350 
Q 3283 1107 3200 851 
Q 3117 595 2947 384 
Q 2778 173 2515 38 
Q 2253 -96 1894 -96 
Q 1165 -96 784 403 
Q 403 902 403 1779 
z
M 1837 2234 
Q 1613 2234 1421 2192 
Q 1229 2150 1037 2067 
Q 1030 1997 1027 1923 
Q 1024 1850 1024 1779 
Q 1024 1498 1062 1248 
Q 1101 998 1200 809 
Q 1299 621 1465 509 
Q 1632 397 1888 397 
Q 2099 397 2246 486 
Q 2394 576 2490 717 
Q 2586 858 2627 1021 
Q 2669 1184 2669 1338 
Q 2669 1773 2461 2003 
Q 2253 2234 1837 2234 
z
" transform="scale(0.015625)"/>
       </defs>
       <use xlink:href="#Ubuntu-30"/>
       <use xlink:href="#Ubuntu-2e" x="56.399994"/>
       <use xlink:href="#Ubuntu-36" x="80.999985"/>
      </g>
     </g>
    </g>
    <g id="ytick_7">
     <g id="line2d_20">
      <path d="M 300.132273 46.359438 
L 528.405 46.359438 
" clip-path="url(#p80f57b44c2)" style="fill: none; stroke-dasharray: 0.5,0.825; stroke-dashoffset: 0; stroke: #d9d9d9; stroke-width: 0.5"/>
     </g>
     <g id="text_18">
      <!-- 0.7 -->
      <g style="fill: #757575" transform="translate(285.639773 49.463188) scale(0.08 -0.08)">
       <defs>
        <path id="Ubuntu-37" d="M 1043 0 
Q 1082 512 1226 1078 
Q 1370 1645 1581 2179 
Q 1792 2714 2045 3171 
Q 2298 3629 2541 3917 
L 384 3917 
L 384 4435 
L 3206 4435 
L 3206 3942 
Q 2995 3699 2739 3273 
Q 2483 2848 2256 2320 
Q 2029 1792 1865 1193 
Q 1702 595 1664 0 
L 1043 0 
z
" transform="scale(0.015625)"/>
       </defs>
       <use xlink:href="#Ubuntu-30"/>
       <use xlink:href="#Ubuntu-2e" x="56.399994"/>
       <use xlink:href="#Ubuntu-37" x="80.999985"/>
      </g>
     </g>
    </g>
    <g id="ytick_8">
     <g id="line2d_21">
      <path d="M 300.132273 24.183438 
L 528.405 24.183438 
" clip-path="url(#p80f57b44c2)" style="fill: none; stroke-dasharray: 0.5,0.825; stroke-dashoffset: 0; stroke: #d9d9d9; stroke-width: 0.5"/>
     </g>
     <g id="text_19">
      <!-- 0.8 -->
      <g style="fill: #757575" transform="translate(285.639773 27.287188) scale(0.08 -0.08)">
       <use xlink:href="#Ubuntu-30"/>
       <use xlink:href="#Ubuntu-2e" x="56.399994"/>
       <use xlink:href="#Ubuntu-38" x="80.999985"/>
      </g>
     </g>
    </g>
   </g>
   <g id="PolyCollection_2"/>
   <g id="PathCollection_2">
    <g clip-path="url(#p80f57b44c2)">
     <use xlink:href="#m737174f4cb" x="310.508306" y="48.133518" style="fill: #3d6384; stroke: #ffffff; stroke-width: 0.4"/>
     <use xlink:href="#m737174f4cb" x="379.68186" y="48.133518" style="fill: #3d6384; stroke: #ffffff; stroke-width: 0.4"/>
     <use xlink:href="#m737174f4cb" x="448.855413" y="59.665038" style="fill: #3d6384; stroke: #ffffff; stroke-width: 0.4"/>
     <use xlink:href="#m737174f4cb" x="518.028967" y="49.242318" style="fill: #3d6384; stroke: #ffffff; stroke-width: 0.4"/>
    </g>
   </g>
   <g id="line2d_22">
    <path d="M 310.508306 48.133518 
L 379.68186 48.133518 
L 448.855413 59.665038 
L 518.028967 49.242318 
" clip-path="url(#p80f57b44c2)" style="fill: none; stroke: #3d6384; stroke-opacity: 0.25; stroke-width: 1.5; stroke-linecap: square"/>
   </g>
   <g id="line2d_23">
    <path d="M 310.508306 59.028808 
L 310.508306 37.238227 
" clip-path="url(#p80f57b44c2)" style="fill: none; stroke: #3d6384; stroke-opacity: 0.75; stroke-width: 1.4; stroke-linecap: square"/>
   </g>
   <g id="line2d_24">
    <path d="M 379.68186 58.781989 
L 379.68186 37.485046 
" clip-path="url(#p80f57b44c2)" style="fill: none; stroke: #3d6384; stroke-opacity: 0.75; stroke-width: 1.4; stroke-linecap: square"/>
   </g>
   <g id="line2d_25">
    <path d="M 448.855413 67.492722 
L 448.855413 51.837353 
" clip-path="url(#p80f57b44c2)" style="fill: none; stroke: #3d6384; stroke-opacity: 0.75; stroke-width: 1.4; stroke-linecap: square"/>
   </g>
   <g id="line2d_26">
    <path d="M 518.028967 59.996569 
L 518.028967 38.488066 
" clip-path="url(#p80f57b44c2)" style="fill: none; stroke: #3d6384; stroke-opacity: 0.75; stroke-width: 1.4; stroke-linecap: square"/>
   </g>
   <g id="patch_6">
    <path d="M 300.132273 90.711438 
L 300.132273 24.183438 
" style="fill: none; stroke: #bbbbbb; stroke-linejoin: miter; stroke-linecap: square"/>
   </g>
   <g id="patch_7">
    <path d="M 300.132273 90.711438 
L 528.405 90.711438 
" style="fill: none; stroke: #bbbbbb; stroke-linejoin: miter; stroke-linecap: square"/>
   </g>
   <g id="text_20">
    <!-- Average Precision -->
    <g style="fill: #454545" transform="translate(300.132273 14.183438) scale(0.09 -0.09)">
     <defs>
      <path id="Ubuntu-Medium-76" d="M 1350 0 
Q 1030 659 694 1513 
Q 358 2368 83 3347 
L 909 3347 
Q 979 3066 1072 2742 
Q 1165 2419 1270 2096 
Q 1376 1773 1488 1469 
Q 1600 1165 1696 922 
Q 1792 1165 1901 1469 
Q 2010 1773 2115 2096 
Q 2221 2419 2317 2742 
Q 2413 3066 2483 3347 
L 3283 3347 
Q 3008 2368 2672 1513 
Q 2336 659 2016 0 
L 1350 0 
z
" transform="scale(0.015625)"/>
      <path id="Ubuntu-Medium-65" d="M 307 1658 
Q 307 2099 438 2432 
Q 570 2765 787 2985 
Q 1005 3206 1286 3318 
Q 1568 3430 1862 3430 
Q 2554 3430 2941 3001 
Q 3328 2573 3328 1722 
Q 3328 1658 3325 1578 
Q 3322 1498 3315 1434 
L 1107 1434 
Q 1139 1030 1392 809 
Q 1645 589 2125 589 
Q 2406 589 2640 640 
Q 2874 691 3008 749 
L 3110 115 
Q 3046 83 2934 48 
Q 2822 13 2678 -16 
Q 2534 -45 2368 -64 
Q 2202 -83 2029 -83 
Q 1587 -83 1260 48 
Q 934 179 723 412 
Q 512 646 409 963 
Q 307 1280 307 1658 
z
M 2554 2003 
Q 2554 2163 2509 2307 
Q 2464 2451 2377 2556 
Q 2291 2662 2166 2723 
Q 2042 2784 1869 2784 
Q 1690 2784 1555 2717 
Q 1421 2650 1328 2541 
Q 1235 2432 1184 2291 
Q 1133 2150 1114 2003 
L 2554 2003 
z
" transform="scale(0.015625)"/>
      <path id="Ubuntu-Medium-72" d="M 2400 2650 
Q 2304 2682 2134 2717 
Q 1965 2752 1741 2752 
Q 1613 2752 1469 2726 
Q 1325 2701 1267 2682 
L 1267 0 
L 493 0 
L 493 3187 
Q 717 3270 1053 3344 
Q 1389 3418 1798 3418 
Q 1875 3418 1977 3408 
Q 2080 3398 2182 3382 
Q 2285 3366 2381 3344 
Q 2477 3322 2534 3302 
L 2400 2650 
z
" transform="scale(0.015625)"/>
      <path id="Ubuntu-Medium-61" d="M 1670 544 
Q 2029 544 2214 582 
L 2214 1440 
Q 2150 1459 2028 1478 
Q 1907 1498 1760 1498 
Q 1632 1498 1501 1478 
Q 1370 1459 1264 1408 
Q 1158 1357 1094 1264 
Q 1030 1171 1030 1030 
Q 1030 755 1203 649 
Q 1376 544 1670 544 
z
M 1606 3430 
Q 1990 3430 2252 3334 
Q 2515 3238 2672 3065 
Q 2829 2893 2896 2646 
Q 2963 2400 2963 2106 
L 2963 77 
Q 2784 38 2422 -16 
Q 2061 -70 1606 -70 
Q 1306 -70 1056 -12 
Q 806 45 630 173 
Q 454 301 355 505 
Q 256 710 256 1011 
Q 256 1299 368 1497 
Q 480 1696 672 1821 
Q 864 1946 1117 2000 
Q 1370 2054 1645 2054 
Q 1773 2054 1913 2038 
Q 2054 2022 2214 1984 
L 2214 2112 
Q 2214 2246 2182 2368 
Q 2150 2490 2070 2582 
Q 1990 2675 1859 2726 
Q 1728 2778 1530 2778 
Q 1261 2778 1037 2739 
Q 813 2701 672 2650 
L 576 3277 
Q 723 3328 1004 3379 
Q 1286 3430 1606 3430 
z
" transform="scale(0.015625)"/>
      <path id="Ubuntu-Medium-67" d="M 1101 1760 
Q 1101 1267 1315 1040 
Q 1530 813 1869 813 
Q 2054 813 2217 864 
Q 2381 915 2483 986 
L 2483 2720 
Q 2400 2739 2278 2755 
Q 2157 2771 1971 2771 
Q 1549 2771 1325 2492 
Q 1101 2214 1101 1760 
z
M 3258 339 
Q 3258 -461 2851 -832 
Q 2445 -1203 1606 -1203 
Q 1299 -1203 1008 -1152 
Q 717 -1101 480 -1018 
L 621 -358 
Q 819 -442 1072 -493 
Q 1325 -544 1619 -544 
Q 2086 -544 2284 -352 
Q 2483 -160 2483 218 
L 2483 346 
Q 2368 288 2179 230 
Q 1990 173 1747 173 
Q 1427 173 1161 275 
Q 896 378 707 576 
Q 518 774 412 1072 
Q 307 1370 307 1760 
Q 307 2125 419 2432 
Q 531 2739 745 2956 
Q 960 3174 1267 3296 
Q 1574 3418 1965 3418 
Q 2342 3418 2681 3360 
Q 3021 3302 3258 3238 
L 3258 339 
z
" transform="scale(0.015625)"/>
      <path id="Ubuntu-Medium-50" d="M 1786 4480 
Q 2752 4480 3267 4128 
Q 3782 3776 3782 3027 
Q 3782 2637 3644 2358 
Q 3507 2080 3244 1904 
Q 2982 1728 2604 1645 
Q 2227 1562 1741 1562 
L 1338 1562 
L 1338 0 
L 531 0 
L 531 4371 
Q 813 4435 1155 4457 
Q 1498 4480 1786 4480 
z
M 1843 3782 
Q 1536 3782 1338 3763 
L 1338 2253 
L 1728 2253 
Q 2310 2253 2624 2416 
Q 2938 2579 2938 3034 
Q 2938 3251 2854 3398 
Q 2771 3546 2624 3629 
Q 2477 3712 2275 3747 
Q 2074 3782 1843 3782 
z
" transform="scale(0.015625)"/>
      <path id="Ubuntu-Medium-63" d="M 307 1670 
Q 307 2042 422 2365 
Q 538 2688 752 2925 
Q 966 3162 1273 3296 
Q 1581 3430 1965 3430 
Q 2438 3430 2861 3258 
L 2694 2624 
Q 2560 2682 2390 2720 
Q 2221 2758 2029 2758 
Q 1574 2758 1337 2473 
Q 1101 2189 1101 1670 
Q 1101 1171 1325 880 
Q 1549 589 2080 589 
Q 2278 589 2470 627 
Q 2662 666 2803 723 
L 2912 83 
Q 2784 19 2525 -32 
Q 2266 -83 1990 -83 
Q 1562 -83 1245 48 
Q 928 179 720 412 
Q 512 646 409 969 
Q 307 1293 307 1670 
z
" transform="scale(0.015625)"/>
      <path id="Ubuntu-Medium-69" d="M 1274 0 
L 499 0 
L 499 3347 
L 1274 3347 
L 1274 0 
z
M 1357 4326 
Q 1357 4109 1216 3981 
Q 1075 3853 883 3853 
Q 685 3853 544 3981 
Q 403 4109 403 4326 
Q 403 4550 544 4678 
Q 685 4806 883 4806 
Q 1075 4806 1216 4678 
Q 1357 4550 1357 4326 
z
" transform="scale(0.015625)"/>
      <path id="Ubuntu-Medium-73" d="M 1331 557 
Q 1638 557 1779 630 
Q 1920 704 1920 883 
Q 1920 1050 1769 1158 
Q 1619 1267 1274 1395 
Q 1062 1472 886 1558 
Q 710 1645 582 1760 
Q 454 1875 380 2038 
Q 307 2202 307 2438 
Q 307 2899 646 3164 
Q 986 3430 1568 3430 
Q 1862 3430 2131 3376 
Q 2400 3322 2534 3270 
L 2394 2643 
Q 2266 2701 2067 2749 
Q 1869 2797 1606 2797 
Q 1370 2797 1222 2717 
Q 1075 2637 1075 2470 
Q 1075 2387 1104 2323 
Q 1133 2259 1203 2204 
Q 1274 2150 1389 2096 
Q 1504 2042 1670 1984 
Q 1946 1882 2138 1782 
Q 2330 1683 2454 1558 
Q 2579 1434 2636 1274 
Q 2694 1114 2694 890 
Q 2694 410 2339 163 
Q 1984 -83 1325 -83 
Q 883 -83 614 -9 
Q 346 64 237 109 
L 371 755 
Q 544 685 784 621 
Q 1024 557 1331 557 
z
" transform="scale(0.015625)"/>
      <path id="Ubuntu-Medium-6f" d="M 3520 1677 
Q 3520 1280 3405 953 
Q 3290 627 3078 396 
Q 2867 166 2569 38 
Q 2272 -90 1914 -90 
Q 1555 -90 1260 38 
Q 966 166 755 396 
Q 544 627 425 953 
Q 307 1280 307 1677 
Q 307 2074 425 2397 
Q 544 2720 758 2950 
Q 973 3181 1267 3305 
Q 1562 3430 1914 3430 
Q 2266 3430 2563 3305 
Q 2861 3181 3072 2950 
Q 3283 2720 3401 2397 
Q 3520 2074 3520 1677 
z
M 2726 1677 
Q 2726 2176 2512 2467 
Q 2298 2758 1914 2758 
Q 1530 2758 1315 2467 
Q 1101 2176 1101 1677 
Q 1101 1171 1315 876 
Q 1530 582 1914 582 
Q 2298 582 2512 876 
Q 2726 1171 2726 1677 
z
" transform="scale(0.015625)"/>
      <path id="Ubuntu-Medium-6e" d="M 493 3238 
Q 717 3302 1075 3360 
Q 1434 3418 1869 3418 
Q 2278 3418 2553 3306 
Q 2829 3194 2992 2992 
Q 3155 2790 3222 2505 
Q 3290 2221 3290 1882 
L 3290 0 
L 2515 0 
L 2515 1760 
Q 2515 2029 2480 2217 
Q 2445 2406 2365 2524 
Q 2285 2643 2147 2697 
Q 2010 2752 1811 2752 
Q 1664 2752 1504 2733 
Q 1344 2714 1267 2701 
L 1267 0 
L 493 0 
L 493 3238 
z
" transform="scale(0.015625)"/>
     </defs>
     <use xlink:href="#Ubuntu-Medium-41"/>
     <use xlink:href="#Ubuntu-Medium-76" x="66.649994"/>
     <use xlink:href="#Ubuntu-Medium-65" x="117.999985"/>
     <use xlink:href="#Ubuntu-Medium-72" x="175.099976"/>
     <use xlink:href="#Ubuntu-Medium-61" x="215.399963"/>
     <use xlink:href="#Ubuntu-Medium-67" x="268.799957"/>
     <use xlink:href="#Ubuntu-Medium-65" x="327.399948"/>
     <use xlink:href="#Ubuntu-Medium-20" x="384.499939"/>
     <use xlink:href="#Ubuntu-Medium-50" x="407.799927"/>
     <use xlink:href="#Ubuntu-Medium-72" x="470.099915"/>
     <use xlink:href="#Ubuntu-Medium-65" x="510.399902"/>
     <use xlink:href="#Ubuntu-Medium-63" x="567.499893"/>
     <use xlink:href="#Ubuntu-Medium-69" x="614.69989"/>
     <use xlink:href="#Ubuntu-Medium-73" x="642.299881"/>
     <use xlink:href="#Ubuntu-Medium-69" x="687.999878"/>
     <use xlink:href="#Ubuntu-Medium-6f" x="715.599869"/>
     <use xlink:href="#Ubuntu-Medium-6e" x="775.399857"/>
    </g>
   </g>
  </g>
  <g id="axes_3">
   <g id="patch_8">
    <path d="M 26.205 190.503438 
L 254.477727 190.503438 
L 254.477727 123.975438 
L 26.205 123.975438 
L 26.205 190.503438 
z
" style="fill: none"/>
   </g>
   <g id="matplotlib.axis_5">
    <g id="xtick_9">
     <g id="line2d_27">
      <path d="M 36.581033 190.503438 
L 36.581033 123.975438 
" clip-path="url(#p43e772944a)" style="fill: none; stroke-dasharray: 0.5,0.825; stroke-dashoffset: 0; stroke: #d9d9d9; stroke-width: 0.5"/>
     </g>
     <g id="text_21">
      <!-- Base -->
      <g style="fill: #757575" transform="translate(27.901033 200.210938) scale(0.08 -0.08)">
       <use xlink:href="#Ubuntu-42"/>
       <use xlink:href="#Ubuntu-61" x="64.299988"/>
       <use xlink:href="#Ubuntu-73" x="116.499985"/>
       <use xlink:href="#Ubuntu-65" x="161.099976"/>
      </g>
     </g>
    </g>
    <g id="xtick_10">
     <g id="line2d_28">
      <path d="M 105.754587 190.503438 
L 105.754587 123.975438 
" clip-path="url(#p43e772944a)" style="fill: none; stroke-dasharray: 0.5,0.825; stroke-dashoffset: 0; stroke: #d9d9d9; stroke-width: 0.5"/>
     </g>
     <g id="text_22">
      <!-- RUS -->
      <g style="fill: #757575" transform="translate(98.358337 200.210938) scale(0.08 -0.08)">
       <use xlink:href="#Ubuntu-52"/>
       <use xlink:href="#Ubuntu-55" x="62.899994"/>
       <use xlink:href="#Ubuntu-53" x="131.699982"/>
      </g>
     </g>
    </g>
    <g id="xtick_11">
     <g id="line2d_29">
      <path d="M 174.92814 190.503438 
L 174.92814 123.975438 
" clip-path="url(#p43e772944a)" style="fill: none; stroke-dasharray: 0.5,0.825; stroke-dashoffset: 0; stroke: #d9d9d9; stroke-width: 0.5"/>
     </g>
     <g id="text_23">
      <!-- SMOTE+RUS -->
      <g style="fill: #757575" transform="translate(152.11814 200.210938) scale(0.08 -0.08)">
       <use xlink:href="#Ubuntu-53"/>
       <use xlink:href="#Ubuntu-4d" x="53.199997"/>
       <use xlink:href="#Ubuntu-4f" x="140.299988"/>
       <use xlink:href="#Ubuntu-54" x="215.349976"/>
       <use xlink:href="#Ubuntu-45" x="271.84996"/>
       <use xlink:href="#Ubuntu-2b" x="328.949951"/>
       <use xlink:href="#Ubuntu-52" x="385.349945"/>
       <use xlink:href="#Ubuntu-55" x="448.249939"/>
       <use xlink:href="#Ubuntu-53" x="517.049927"/>
      </g>
     </g>
    </g>
    <g id="xtick_12">
     <g id="line2d_30">
      <path d="M 244.101694 190.503438 
L 244.101694 123.975438 
" clip-path="url(#p43e772944a)" style="fill: none; stroke-dasharray: 0.5,0.825; stroke-dashoffset: 0; stroke: #d9d9d9; stroke-width: 0.5"/>
     </g>
     <g id="text_24">
      <!-- Weighted -->
      <g style="fill: #757575" transform="translate(226.471069 200.210938) scale(0.08 -0.08)">
       <use xlink:href="#Ubuntu-57"/>
       <use xlink:href="#Ubuntu-65" x="90.649994"/>
       <use xlink:href="#Ubuntu-69" x="146.549988"/>
       <use xlink:href="#Ubuntu-67" x="171.849976"/>
       <use xlink:href="#Ubuntu-68" x="229.649963"/>
       <use xlink:href="#Ubuntu-74" x="286.749954"/>
       <use xlink:href="#Ubuntu-65" x="325.949951"/>
       <use xlink:href="#Ubuntu-64" x="381.849945"/>
      </g>
     </g>
    </g>
    <g id="text_25">
     <!-- None -->
     <g style="fill: #505050" transform="translate(26.205 216.698125) scale(0.09 -0.09)">
      <use xlink:href="#Ubuntu-Bold-4e"/>
      <use xlink:href="#Ubuntu-Bold-6f" x="75.599991"/>
      <use xlink:href="#Ubuntu-Bold-6e" x="136.299988"/>
      <use xlink:href="#Ubuntu-Bold-65" x="195.199982"/>
     </g>
    </g>
   </g>
   <g id="matplotlib.axis_6">
    <g id="ytick_9">
     <g id="line2d_31">
      <path d="M 26.205 190.503438 
L 254.477727 190.503438 
" clip-path="url(#p43e772944a)" style="fill: none; stroke-dasharray: 0.5,0.825; stroke-dashoffset: 0; stroke: #d9d9d9; stroke-width: 0.5"/>
     </g>
     <g id="text_26">
      <!-- 0.25 -->
      <g style="fill: #757575" transform="translate(7.2 193.607188) scale(0.08 -0.08)">
       <defs>
        <path id="Ubuntu-32" d="M 2989 3302 
Q 2989 3072 2896 2857 
Q 2803 2643 2649 2435 
Q 2496 2227 2304 2025 
Q 2112 1824 1920 1632 
Q 1811 1523 1667 1376 
Q 1523 1229 1395 1069 
Q 1267 909 1180 761 
Q 1094 614 1094 506 
L 3136 506 
L 3136 0 
L 448 0 
Q 442 38 442 76 
Q 442 115 442 147 
Q 442 448 541 707 
Q 640 966 800 1196 
Q 960 1427 1158 1632 
Q 1357 1837 1549 2029 
Q 1709 2182 1853 2332 
Q 1997 2483 2109 2633 
Q 2221 2784 2288 2944 
Q 2355 3104 2355 3283 
Q 2355 3475 2294 3609 
Q 2234 3744 2131 3833 
Q 2029 3923 1891 3964 
Q 1754 4006 1600 4006 
Q 1414 4006 1260 3955 
Q 1107 3904 985 3837 
Q 864 3770 781 3696 
Q 698 3622 653 3584 
L 358 4006 
Q 416 4070 531 4163 
Q 646 4256 806 4339 
Q 966 4422 1164 4480 
Q 1363 4538 1594 4538 
Q 2291 4538 2640 4214 
Q 2989 3891 2989 3302 
z
" transform="scale(0.015625)"/>
       </defs>
       <use xlink:href="#Ubuntu-30"/>
       <use xlink:href="#Ubuntu-2e" x="56.399994"/>
       <use xlink:href="#Ubuntu-32" x="80.999985"/>
       <use xlink:href="#Ubuntu-35" x="137.399979"/>
      </g>
     </g>
    </g>
    <g id="ytick_10">
     <g id="line2d_32">
      <path d="M 26.205 157.239438 
L 254.477727 157.239438 
" clip-path="url(#p43e772944a)" style="fill: none; stroke-dasharray: 0.5,0.825; stroke-dashoffset: 0; stroke: #d9d9d9; stroke-width: 0.5"/>
     </g>
     <g id="text_27">
      <!-- 0.30 -->
      <g style="fill: #757575" transform="translate(7.2 160.343188) scale(0.08 -0.08)">
       <defs>
        <path id="Ubuntu-33" d="M 1446 435 
Q 2016 435 2262 659 
Q 2509 883 2509 1261 
Q 2509 1504 2406 1670 
Q 2304 1837 2137 1936 
Q 1971 2035 1750 2076 
Q 1530 2118 1299 2118 
L 1146 2118 
L 1146 2605 
L 1357 2605 
Q 1517 2605 1686 2637 
Q 1856 2669 1997 2752 
Q 2138 2835 2227 2979 
Q 2317 3123 2317 3341 
Q 2317 3520 2253 3648 
Q 2189 3776 2083 3859 
Q 1978 3942 1840 3977 
Q 1702 4013 1549 4013 
Q 1242 4013 1027 3923 
Q 813 3834 666 3738 
L 435 4192 
Q 512 4243 630 4304 
Q 749 4365 896 4416 
Q 1043 4467 1212 4502 
Q 1382 4538 1568 4538 
Q 1920 4538 2176 4451 
Q 2432 4365 2598 4208 
Q 2765 4051 2848 3836 
Q 2931 3622 2931 3373 
Q 2931 3027 2732 2780 
Q 2534 2534 2253 2406 
Q 2426 2355 2586 2259 
Q 2746 2163 2864 2016 
Q 2982 1869 3056 1677 
Q 3130 1485 3130 1248 
Q 3130 960 3030 713 
Q 2931 467 2723 288 
Q 2515 109 2201 6 
Q 1888 -96 1459 -96 
Q 1293 -96 1117 -70 
Q 941 -45 787 -6 
Q 634 32 518 70 
Q 403 109 352 134 
L 467 653 
Q 576 602 829 518 
Q 1082 435 1446 435 
z
" transform="scale(0.015625)"/>
       </defs>
       <use xlink:href="#Ubuntu-30"/>
       <use xlink:href="#Ubuntu-2e" x="56.399994"/>
       <use xlink:href="#Ubuntu-33" x="80.999985"/>
       <use xlink:href="#Ubuntu-30" x="137.399979"/>
      </g>
     </g>
    </g>
    <g id="ytick_11">
     <g id="line2d_33">
      <path d="M 26.205 123.975438 
L 254.477727 123.975438 
" clip-path="url(#p43e772944a)" style="fill: none; stroke-dasharray: 0.5,0.825; stroke-dashoffset: 0; stroke: #d9d9d9; stroke-width: 0.5"/>
     </g>
     <g id="text_28">
      <!-- 0.35 -->
      <g style="fill: #757575" transform="translate(7.2 127.079188) scale(0.08 -0.08)">
       <use xlink:href="#Ubuntu-30"/>
       <use xlink:href="#Ubuntu-2e" x="56.399994"/>
       <use xlink:href="#Ubuntu-33" x="80.999985"/>
       <use xlink:href="#Ubuntu-35" x="137.399979"/>
      </g>
     </g>
    </g>
   </g>
   <g id="PolyCollection_3"/>
   <g id="PathCollection_3">
    <g clip-path="url(#p43e772944a)">
     <use xlink:href="#m737174f4cb" x="36.581033" y="153.247758" style="fill: #3d6384; stroke: #ffffff; stroke-width: 0.4"/>
     <use xlink:href="#m737174f4cb" x="105.754587" y="153.913038" style="fill: #3d6384; stroke: #ffffff; stroke-width: 0.4"/>
     <use xlink:href="#m737174f4cb" x="174.92814" y="157.239438" style="fill: #3d6384; stroke: #ffffff; stroke-width: 0.4"/>
     <use xlink:href="#m737174f4cb" x="244.101694" y="153.913038" style="fill: #3d6384; stroke: #ffffff; stroke-width: 0.4"/>
    </g>
   </g>
   <g id="line2d_34">
    <path d="M 36.581033 153.247758 
L 105.754587 153.913038 
L 174.92814 157.239438 
L 244.101694 153.913038 
" clip-path="url(#p43e772944a)" style="fill: none; stroke: #3d6384; stroke-opacity: 0.25; stroke-width: 1.5; stroke-linecap: square"/>
   </g>
   <g id="line2d_35">
    <path d="M 36.581033 173.028528 
L 36.581033 133.466987 
" clip-path="url(#p43e772944a)" style="fill: none; stroke: #3d6384; stroke-opacity: 0.75; stroke-width: 1.4; stroke-linecap: square"/>
   </g>
   <g id="line2d_36">
    <path d="M 105.754587 172.847572 
L 105.754587 134.978503 
" clip-path="url(#p43e772944a)" style="fill: none; stroke: #3d6384; stroke-opacity: 0.75; stroke-width: 1.4; stroke-linecap: square"/>
   </g>
   <g id="line2d_37">
    <path d="M 174.92814 173.846822 
L 174.92814 140.632053 
" clip-path="url(#p43e772944a)" style="fill: none; stroke: #3d6384; stroke-opacity: 0.75; stroke-width: 1.4; stroke-linecap: square"/>
   </g>
   <g id="line2d_38">
    <path d="M 244.101694 170.414643 
L 244.101694 137.411432 
" clip-path="url(#p43e772944a)" style="fill: none; stroke: #3d6384; stroke-opacity: 0.75; stroke-width: 1.4; stroke-linecap: square"/>
   </g>
   <g id="patch_9">
    <path d="M 26.205 190.503438 
L 26.205 123.975438 
" style="fill: none; stroke: #bbbbbb; stroke-linejoin: miter; stroke-linecap: square"/>
   </g>
   <g id="patch_10">
    <path d="M 26.205 190.503438 
L 254.477727 190.503438 
" style="fill: none; stroke: #bbbbbb; stroke-linejoin: miter; stroke-linecap: square"/>
   </g>
   <g id="text_29">
    <!-- Card Precision@100 -->
    <g style="fill: #454545" transform="translate(26.205 113.975438) scale(0.09 -0.09)">
     <defs>
      <path id="Ubuntu-Medium-64" d="M 1101 1683 
Q 1101 1171 1344 880 
Q 1587 589 2016 589 
Q 2202 589 2333 605 
Q 2464 621 2547 640 
L 2547 2560 
Q 2445 2630 2275 2691 
Q 2106 2752 1914 2752 
Q 1491 2752 1296 2464 
Q 1101 2176 1101 1683 
z
M 3322 102 
Q 3091 32 2742 -25 
Q 2394 -83 2010 -83 
Q 1613 -83 1299 38 
Q 986 160 765 387 
Q 544 614 425 937 
Q 307 1261 307 1664 
Q 307 2061 406 2384 
Q 506 2707 698 2937 
Q 890 3168 1165 3293 
Q 1440 3418 1798 3418 
Q 2042 3418 2227 3360 
Q 2413 3302 2547 3232 
L 2547 4838 
L 3322 4966 
L 3322 102 
z
" transform="scale(0.015625)"/>
      <path id="Ubuntu-Medium-40" d="M 4480 224 
Q 4288 224 4128 278 
Q 3968 333 3859 448 
Q 3718 346 3529 294 
Q 3341 243 3136 243 
Q 2822 243 2563 339 
Q 2304 435 2115 627 
Q 1926 819 1824 1104 
Q 1722 1389 1722 1766 
Q 1722 2080 1824 2358 
Q 1926 2637 2121 2841 
Q 2317 3046 2601 3164 
Q 2886 3283 3251 3283 
Q 3603 3283 3884 3225 
Q 4166 3168 4333 3104 
L 4333 1120 
Q 4333 941 4400 873 
Q 4467 806 4582 806 
Q 4858 806 5014 1148 
Q 5171 1491 5171 2131 
Q 5171 2528 5033 2870 
Q 4896 3213 4633 3462 
Q 4371 3712 3996 3856 
Q 3622 4000 3155 4000 
Q 2694 4000 2307 3846 
Q 1920 3693 1641 3405 
Q 1363 3117 1206 2701 
Q 1050 2285 1050 1760 
Q 1050 1210 1210 797 
Q 1370 384 1661 109 
Q 1952 -166 2358 -307 
Q 2765 -448 3264 -448 
Q 3610 -448 3875 -406 
Q 4141 -365 4275 -333 
L 4352 -870 
Q 4282 -890 4170 -915 
Q 4058 -941 3914 -963 
Q 3770 -986 3603 -1002 
Q 3437 -1018 3264 -1018 
Q 2669 -1018 2147 -858 
Q 1626 -698 1238 -358 
Q 851 -19 624 505 
Q 397 1030 397 1760 
Q 397 2458 627 2986 
Q 858 3514 1242 3862 
Q 1626 4211 2122 4387 
Q 2618 4563 3155 4563 
Q 3712 4563 4198 4396 
Q 4685 4230 5043 3913 
Q 5402 3597 5610 3136 
Q 5818 2675 5818 2086 
Q 5818 1632 5718 1286 
Q 5619 941 5440 704 
Q 5261 467 5017 345 
Q 4774 224 4480 224 
z
M 3654 922 
Q 3642 992 3632 1081 
Q 3622 1171 3622 1254 
L 3622 2662 
Q 3494 2694 3290 2694 
Q 3072 2694 2915 2624 
Q 2758 2554 2656 2429 
Q 2554 2304 2506 2134 
Q 2458 1965 2458 1766 
Q 2458 1363 2630 1100 
Q 2803 838 3168 838 
Q 3283 838 3408 854 
Q 3533 870 3654 922 
z
" transform="scale(0.015625)"/>
      <path id="Ubuntu-Medium-31" d="M 576 3514 
Q 947 3661 1321 3891 
Q 1696 4122 1984 4435 
L 2528 4435 
L 2528 0 
L 1754 0 
L 1754 3398 
Q 1581 3264 1318 3136 
Q 1056 3008 813 2925 
L 576 3514 
z
" transform="scale(0.015625)"/>
      <path id="Ubuntu-Medium-30" d="M 3360 2221 
Q 3360 1101 2950 502 
Q 2541 -96 1818 -96 
Q 1094 -96 684 502 
Q 275 1101 275 2221 
Q 275 2778 380 3210 
Q 486 3642 688 3936 
Q 890 4230 1174 4384 
Q 1459 4538 1818 4538 
Q 2541 4538 2950 3939 
Q 3360 3341 3360 2221 
z
M 2560 2221 
Q 2560 2566 2521 2867 
Q 2483 3168 2396 3389 
Q 2310 3610 2169 3738 
Q 2029 3866 1818 3866 
Q 1606 3866 1462 3738 
Q 1318 3610 1232 3389 
Q 1146 3168 1110 2867 
Q 1075 2566 1075 2221 
Q 1075 1875 1110 1574 
Q 1146 1274 1232 1053 
Q 1318 832 1462 704 
Q 1606 576 1818 576 
Q 2029 576 2169 704 
Q 2310 832 2396 1053 
Q 2483 1274 2521 1574 
Q 2560 1875 2560 2221 
z
" transform="scale(0.015625)"/>
     </defs>
     <use xlink:href="#Ubuntu-Medium-43"/>
     <use xlink:href="#Ubuntu-Medium-61" x="63.799988"/>
     <use xlink:href="#Ubuntu-Medium-72" x="117.199982"/>
     <use xlink:href="#Ubuntu-Medium-64" x="157.499969"/>
     <use xlink:href="#Ubuntu-Medium-20" x="217.09996"/>
     <use xlink:href="#Ubuntu-Medium-50" x="240.399948"/>
     <use xlink:href="#Ubuntu-Medium-72" x="302.699936"/>
     <use xlink:href="#Ubuntu-Medium-65" x="342.999924"/>
     <use xlink:href="#Ubuntu-Medium-63" x="400.099915"/>
     <use xlink:href="#Ubuntu-Medium-69" x="447.299911"/>
     <use xlink:href="#Ubuntu-Medium-73" x="474.899902"/>
     <use xlink:href="#Ubuntu-Medium-69" x="520.599899"/>
     <use xlink:href="#Ubuntu-Medium-6f" x="548.19989"/>
     <use xlink:href="#Ubuntu-Medium-6e" x="607.999878"/>
     <use xlink:href="#Ubuntu-Medium-40" x="666.499863"/>
     <use xlink:href="#Ubuntu-Medium-31" x="763.599854"/>
     <use xlink:href="#Ubuntu-Medium-30" x="820.399841"/>
     <use xlink:href="#Ubuntu-Medium-30" x="877.199829"/>
    </g>
   </g>
  </g>
 </g>
 <defs>
  <clipPath id="pd25a5c97e3">
   <rect x="26.205" y="24.183438" width="228.272727" height="66.528"/>
  </clipPath>
  <clipPath id="p80f57b44c2">
   <rect x="300.132273" y="24.183438" width="228.272727" height="66.528"/>
  </clipPath>
  <clipPath id="p43e772944a">
   <rect x="26.205" y="123.975438" width="228.272727" height="66.528"/>
  </clipPath>
 </defs>
</svg>
