<?xml version="1.0" encoding="utf-8" standalone="no"?>
<!DOCTYPE svg PUBLIC "-//W3C//DTD SVG 1.1//EN"
  "http://www.w3.org/Graphics/SVG/1.1/DTD/svg11.dtd">
<svg xmlns:xlink="http://www.w3.org/1999/xlink" width="275.288875pt" height="157.403275pt" viewBox="0 0 275.288875 157.403275" xmlns="http://www.w3.org/2000/svg" version="1.1">
 <metadata>
  <rdf:RDF xmlns:dc="http://purl.org/dc/elements/1.1/" xmlns:cc="http://creativecommons.org/ns#" xmlns:rdf="http://www.w3.org/1999/02/22-rdf-syntax-ns#">
   <cc:Work>
    <dc:type rdf:resource="http://purl.org/dc/dcmitype/StillImage"/>
    <dc:date>2024-03-18T12:57:12.698010</dc:date>
    <dc:format>image/svg+xml</dc:format>
    <dc:creator>
     <cc:Agent>
      <dc:title>Matplotlib v3.7.3, https://matplotlib.org/</dc:title>
     </cc:Agent>
    </dc:creator>
   </cc:Work>
  </rdf:RDF>
 </metadata>
 <defs>
  <style type="text/css">*{stroke-linejoin: round; stroke-linecap: butt}</style>
 </defs>
 <g id="figure_1">
  <g id="patch_1">
   <path d="M 0 157.403275 
L 275.288875 157.403275 
L 275.288875 0 
L 0 0 
L 0 157.403275 
z
" style="fill: none"/>
  </g>
  <g id="axes_1">
   <g id="patch_2">
    <path d="M 44.888875 118.08 
L 268.088875 118.08 
L 268.088875 7.2 
L 44.888875 7.2 
L 44.888875 118.08 
z
" style="fill: none"/>
   </g>
   <g id="matplotlib.axis_1">
    <g id="xtick_1">
     <g id="line2d_1">
      <path d="M 100.688875 118.08 
L 100.688875 7.2 
" clip-path="url(#p7560b57935)" style="fill: none; stroke-dasharray: 0.5,0.825; stroke-dashoffset: 0; stroke: #d9d9d9; stroke-width: 0.5"/>
     </g>
     <g id="line2d_2">
      <defs>
       <path id="m59dc434c0f" d="M 0 0 
L 0 -3 
" style="stroke: #bbbbbb"/>
      </defs>
      <g>
       <use xlink:href="#m59dc434c0f" x="100.688875" y="118.08" style="fill: #bbbbbb; stroke: #bbbbbb"/>
      </g>
     </g>
     <g id="text_1">
      <!-- NO -->
      <g style="fill: #757575" transform="translate(93.912156 131.889837) scale(0.09 -0.09)">
       <defs>
        <path id="Ubuntu-4e" d="M 3590 0 
Q 3450 237 3267 531 
Q 3085 826 2873 1142 
Q 2662 1459 2435 1785 
Q 2208 2112 1984 2416 
Q 1760 2720 1549 2989 
Q 1338 3258 1158 3462 
L 1158 0 
L 550 0 
L 550 4435 
L 1043 4435 
Q 1344 4115 1686 3689 
Q 2029 3264 2365 2813 
Q 2701 2362 2998 1926 
Q 3296 1491 3501 1152 
L 3501 4435 
L 4109 4435 
L 4109 0 
L 3590 0 
z
" transform="scale(0.015625)"/>
        <path id="Ubuntu-4f" d="M 371 2221 
Q 371 2790 540 3225 
Q 710 3661 1001 3952 
Q 1293 4243 1680 4390 
Q 2067 4538 2502 4538 
Q 2931 4538 3312 4390 
Q 3693 4243 3981 3952 
Q 4269 3661 4438 3225 
Q 4608 2790 4608 2221 
Q 4608 1651 4438 1216 
Q 4269 781 3981 489 
Q 3693 198 3312 51 
Q 2931 -96 2502 -96 
Q 2067 -96 1680 51 
Q 1293 198 1001 489 
Q 710 781 540 1216 
Q 371 1651 371 2221 
z
M 1024 2221 
Q 1024 1818 1126 1488 
Q 1229 1158 1417 928 
Q 1606 698 1878 573 
Q 2150 448 2490 448 
Q 2829 448 3097 573 
Q 3366 698 3555 928 
Q 3744 1158 3846 1488 
Q 3949 1818 3949 2221 
Q 3949 2624 3846 2953 
Q 3744 3283 3555 3513 
Q 3366 3744 3097 3869 
Q 2829 3994 2490 3994 
Q 2150 3994 1878 3869 
Q 1606 3744 1417 3513 
Q 1229 3283 1126 2953 
Q 1024 2624 1024 2221 
z
" transform="scale(0.015625)"/>
       </defs>
       <use xlink:href="#Ubuntu-4e"/>
       <use xlink:href="#Ubuntu-4f" x="72.799988"/>
      </g>
     </g>
    </g>
    <g id="xtick_2">
     <g id="line2d_3">
      <path d="M 212.288875 118.08 
L 212.288875 7.2 
" clip-path="url(#p7560b57935)" style="fill: none; stroke-dasharray: 0.5,0.825; stroke-dashoffset: 0; stroke: #d9d9d9; stroke-width: 0.5"/>
     </g>
     <g id="line2d_4">
      <g>
       <use xlink:href="#m59dc434c0f" x="212.288875" y="118.08" style="fill: #bbbbbb; stroke: #bbbbbb"/>
      </g>
     </g>
     <g id="text_2">
      <!-- YES -->
      <g style="fill: #757575" transform="translate(204.634656 131.889837) scale(0.09 -0.09)">
       <defs>
        <path id="Ubuntu-59" d="M 1606 0 
L 1606 1779 
Q 1165 2464 774 3129 
Q 384 3795 38 4435 
L 768 4435 
Q 1011 3910 1312 3369 
Q 1613 2829 1933 2330 
Q 2246 2829 2547 3369 
Q 2848 3910 3098 4435 
L 3789 4435 
Q 3443 3795 3052 3132 
Q 2662 2470 2227 1792 
L 2227 0 
L 1606 0 
z
" transform="scale(0.015625)"/>
        <path id="Ubuntu-45" d="M 550 0 
L 550 4435 
L 3258 4435 
L 3258 3904 
L 1171 3904 
L 1171 2586 
L 3027 2586 
L 3027 2067 
L 1171 2067 
L 1171 531 
L 3418 531 
L 3418 0 
L 550 0 
z
" transform="scale(0.015625)"/>
        <path id="Ubuntu-53" d="M 1581 442 
Q 2554 442 2554 1107 
Q 2554 1312 2467 1456 
Q 2381 1600 2233 1705 
Q 2086 1811 1897 1888 
Q 1709 1965 1498 2042 
Q 1254 2125 1036 2230 
Q 819 2336 659 2480 
Q 499 2624 406 2822 
Q 314 3021 314 3302 
Q 314 3885 710 4211 
Q 1107 4538 1805 4538 
Q 2208 4538 2537 4451 
Q 2867 4365 3021 4262 
L 2822 3757 
Q 2688 3840 2422 3920 
Q 2157 4000 1805 4000 
Q 1626 4000 1472 3961 
Q 1318 3923 1203 3846 
Q 1088 3770 1021 3651 
Q 954 3533 954 3373 
Q 954 3194 1024 3072 
Q 1094 2950 1222 2857 
Q 1350 2765 1520 2688 
Q 1690 2611 1894 2534 
Q 2182 2419 2422 2304 
Q 2662 2189 2838 2029 
Q 3014 1869 3110 1648 
Q 3206 1427 3206 1114 
Q 3206 531 2780 217 
Q 2355 -96 1581 -96 
Q 1318 -96 1097 -61 
Q 877 -26 704 22 
Q 531 70 406 124 
Q 282 179 211 218 
L 397 730 
Q 544 646 845 544 
Q 1146 442 1581 442 
z
" transform="scale(0.015625)"/>
       </defs>
       <use xlink:href="#Ubuntu-59"/>
       <use xlink:href="#Ubuntu-45" x="59.799988"/>
       <use xlink:href="#Ubuntu-53" x="116.899979"/>
      </g>
     </g>
    </g>
    <g id="text_3">
     <!-- Predicted -->
     <g style="fill: #505050" transform="translate(135.584266 148.538275) scale(0.09 -0.09)">
      <defs>
       <path id="Ubuntu-Bold-50" d="M 1843 4486 
Q 2835 4486 3366 4137 
Q 3898 3789 3898 2995 
Q 3898 2195 3360 1840 
Q 2822 1485 1824 1485 
L 1510 1485 
L 1510 0 
L 512 0 
L 512 4371 
Q 838 4435 1203 4460 
Q 1568 4486 1843 4486 
z
M 1907 3635 
Q 1798 3635 1692 3628 
Q 1587 3622 1510 3616 
L 1510 2336 
L 1824 2336 
Q 2342 2336 2604 2477 
Q 2867 2618 2867 3002 
Q 2867 3187 2800 3308 
Q 2733 3430 2608 3504 
Q 2483 3578 2304 3606 
Q 2125 3635 1907 3635 
z
" transform="scale(0.015625)"/>
       <path id="Ubuntu-Bold-72" d="M 2477 2522 
Q 2349 2554 2176 2589 
Q 2003 2624 1805 2624 
Q 1715 2624 1590 2608 
Q 1466 2592 1402 2573 
L 1402 0 
L 448 0 
L 448 3187 
Q 704 3277 1053 3357 
Q 1402 3437 1830 3437 
Q 1907 3437 2016 3427 
Q 2125 3418 2233 3402 
Q 2342 3386 2451 3363 
Q 2560 3341 2637 3309 
L 2477 2522 
z
" transform="scale(0.015625)"/>
       <path id="Ubuntu-Bold-65" d="M 288 1658 
Q 288 2106 425 2442 
Q 563 2778 787 3002 
Q 1011 3226 1302 3341 
Q 1594 3456 1901 3456 
Q 2618 3456 3034 3017 
Q 3450 2579 3450 1728 
Q 3450 1645 3443 1545 
Q 3437 1446 3430 1370 
L 1267 1370 
Q 1299 1075 1542 902 
Q 1786 730 2195 730 
Q 2458 730 2710 778 
Q 2963 826 3123 896 
L 3251 122 
Q 3174 83 3046 44 
Q 2918 6 2761 -22 
Q 2605 -51 2425 -70 
Q 2246 -90 2067 -90 
Q 1613 -90 1277 44 
Q 941 179 720 412 
Q 499 646 393 966 
Q 288 1286 288 1658 
z
M 2528 2022 
Q 2522 2144 2486 2259 
Q 2451 2374 2377 2464 
Q 2304 2554 2192 2611 
Q 2080 2669 1914 2669 
Q 1754 2669 1638 2614 
Q 1523 2560 1446 2470 
Q 1370 2381 1328 2262 
Q 1286 2144 1267 2022 
L 2528 2022 
z
" transform="scale(0.015625)"/>
       <path id="Ubuntu-Bold-64" d="M 1261 1709 
Q 1261 1267 1459 998 
Q 1658 730 2048 730 
Q 2176 730 2285 739 
Q 2394 749 2464 762 
L 2464 2496 
Q 2374 2554 2230 2592 
Q 2086 2630 1939 2630 
Q 1261 2630 1261 1709 
z
M 3418 109 
Q 3290 70 3123 35 
Q 2957 0 2774 -25 
Q 2592 -51 2403 -67 
Q 2214 -83 2042 -83 
Q 1626 -83 1299 38 
Q 973 160 749 387 
Q 525 614 406 937 
Q 288 1261 288 1664 
Q 288 2074 390 2403 
Q 493 2733 685 2963 
Q 877 3194 1155 3315 
Q 1434 3437 1792 3437 
Q 1990 3437 2147 3398 
Q 2304 3360 2464 3290 
L 2464 4813 
L 3418 4966 
L 3418 109 
z
" transform="scale(0.015625)"/>
       <path id="Ubuntu-Bold-69" d="M 1402 0 
L 448 0 
L 448 3366 
L 1402 3366 
L 1402 0 
z
M 1491 4339 
Q 1491 4077 1321 3926 
Q 1152 3776 922 3776 
Q 691 3776 521 3926 
Q 352 4077 352 4339 
Q 352 4602 521 4752 
Q 691 4902 922 4902 
Q 1152 4902 1321 4752 
Q 1491 4602 1491 4339 
z
" transform="scale(0.015625)"/>
       <path id="Ubuntu-Bold-63" d="M 288 1683 
Q 288 2048 406 2371 
Q 525 2694 749 2934 
Q 973 3174 1293 3315 
Q 1613 3456 2022 3456 
Q 2291 3456 2515 3408 
Q 2739 3360 2950 3270 
L 2752 2509 
Q 2618 2560 2458 2598 
Q 2298 2637 2099 2637 
Q 1677 2637 1469 2374 
Q 1261 2112 1261 1683 
Q 1261 1229 1456 979 
Q 1651 730 2138 730 
Q 2310 730 2508 762 
Q 2707 794 2874 864 
L 3008 83 
Q 2842 13 2592 -38 
Q 2342 -90 2042 -90 
Q 1581 -90 1248 48 
Q 915 186 700 422 
Q 486 659 387 982 
Q 288 1306 288 1683 
z
" transform="scale(0.015625)"/>
       <path id="Ubuntu-Bold-74" d="M 416 4205 
L 1370 4358 
L 1370 3366 
L 2515 3366 
L 2515 2573 
L 1370 2573 
L 1370 1389 
Q 1370 1088 1475 909 
Q 1581 730 1901 730 
Q 2054 730 2217 758 
Q 2381 787 2515 838 
L 2650 96 
Q 2477 26 2265 -25 
Q 2054 -77 1747 -77 
Q 1357 -77 1101 28 
Q 845 134 691 323 
Q 538 512 477 781 
Q 416 1050 416 1376 
L 416 4205 
z
" transform="scale(0.015625)"/>
      </defs>
      <use xlink:href="#Ubuntu-Bold-50"/>
      <use xlink:href="#Ubuntu-Bold-72" x="64.399994"/>
      <use xlink:href="#Ubuntu-Bold-65" x="105.599991"/>
      <use xlink:href="#Ubuntu-Bold-64" x="163.999985"/>
      <use xlink:href="#Ubuntu-Bold-69" x="224.399979"/>
      <use xlink:href="#Ubuntu-Bold-63" x="253.299973"/>
      <use xlink:href="#Ubuntu-Bold-74" x="303.299957"/>
      <use xlink:href="#Ubuntu-Bold-65" x="345.699951"/>
      <use xlink:href="#Ubuntu-Bold-64" x="404.099945"/>
     </g>
    </g>
   </g>
   <g id="matplotlib.axis_2">
    <g id="ytick_1">
     <g id="line2d_5">
      <path d="M 44.888875 34.92 
L 268.088875 34.92 
" clip-path="url(#p7560b57935)" style="fill: none; stroke-dasharray: 0.5,0.825; stroke-dashoffset: 0; stroke: #d9d9d9; stroke-width: 0.5"/>
     </g>
     <g id="line2d_6">
      <defs>
       <path id="mf639bc1327" d="M 0 0 
L 3 0 
" style="stroke: #bbbbbb"/>
      </defs>
      <g>
       <use xlink:href="#mf639bc1327" x="44.888875" y="34.92" style="fill: #bbbbbb; stroke: #bbbbbb"/>
      </g>
     </g>
     <g id="text_4">
      <!-- NO -->
      <g style="fill: #757575" transform="translate(25.603437 37.579219) scale(0.09 -0.09)">
       <use xlink:href="#Ubuntu-4e"/>
       <use xlink:href="#Ubuntu-4f" x="72.799988"/>
      </g>
     </g>
    </g>
    <g id="ytick_2">
     <g id="line2d_7">
      <path d="M 44.888875 90.36 
L 268.088875 90.36 
" clip-path="url(#p7560b57935)" style="fill: none; stroke-dasharray: 0.5,0.825; stroke-dashoffset: 0; stroke: #d9d9d9; stroke-width: 0.5"/>
     </g>
     <g id="line2d_8">
      <g>
       <use xlink:href="#mf639bc1327" x="44.888875" y="90.36" style="fill: #bbbbbb; stroke: #bbbbbb"/>
      </g>
     </g>
     <g id="text_5">
      <!-- YES -->
      <g style="fill: #757575" transform="translate(23.848437 93.019219) scale(0.09 -0.09)">
       <use xlink:href="#Ubuntu-59"/>
       <use xlink:href="#Ubuntu-45" x="59.799988"/>
       <use xlink:href="#Ubuntu-53" x="116.899979"/>
      </g>
     </g>
    </g>
    <g id="text_6">
     <!-- Actual -->
     <g style="fill: #505050" transform="translate(14.183438 76.642734) rotate(-90) scale(0.09 -0.09)">
      <defs>
       <path id="Ubuntu-Bold-41" d="M 3482 0 
Q 3411 230 3324 473 
Q 3238 717 3155 960 
L 1427 960 
Q 1344 717 1257 473 
Q 1171 230 1101 0 
L 64 0 
Q 314 717 538 1325 
Q 762 1933 976 2470 
Q 1190 3008 1398 3491 
Q 1606 3974 1830 4435 
L 2784 4435 
Q 3002 3974 3213 3491 
Q 3424 3008 3638 2470 
Q 3853 1933 4077 1325 
Q 4301 717 4550 0 
L 3482 0 
z
M 2285 3430 
Q 2253 3334 2189 3168 
Q 2125 3002 2041 2784 
Q 1958 2566 1859 2304 
Q 1760 2042 1658 1754 
L 2918 1754 
Q 2816 2042 2720 2304 
Q 2624 2566 2537 2784 
Q 2451 3002 2387 3168 
Q 2323 3334 2285 3430 
z
" transform="scale(0.015625)"/>
       <path id="Ubuntu-Bold-75" d="M 3322 115 
Q 3078 45 2694 -16 
Q 2310 -77 1888 -77 
Q 1459 -77 1174 38 
Q 890 154 723 362 
Q 557 570 486 858 
Q 416 1146 416 1491 
L 416 3366 
L 1370 3366 
L 1370 1606 
Q 1370 1146 1491 941 
Q 1613 736 1946 736 
Q 2048 736 2163 745 
Q 2278 755 2368 768 
L 2368 3366 
L 3322 3366 
L 3322 115 
z
" transform="scale(0.015625)"/>
       <path id="Ubuntu-Bold-61" d="M 1734 666 
Q 1875 666 2003 672 
Q 2131 678 2208 691 
L 2208 1414 
Q 2150 1427 2035 1440 
Q 1920 1453 1824 1453 
Q 1690 1453 1571 1437 
Q 1453 1421 1363 1376 
Q 1274 1331 1222 1254 
Q 1171 1178 1171 1062 
Q 1171 838 1321 752 
Q 1472 666 1734 666 
z
M 1658 3456 
Q 2080 3456 2361 3360 
Q 2643 3264 2812 3085 
Q 2982 2906 3052 2650 
Q 3123 2394 3123 2080 
L 3123 96 
Q 2918 51 2553 -9 
Q 2189 -70 1670 -70 
Q 1344 -70 1078 -12 
Q 813 45 621 176 
Q 429 307 326 518 
Q 224 730 224 1037 
Q 224 1331 342 1536 
Q 461 1741 659 1862 
Q 858 1984 1114 2038 
Q 1370 2093 1645 2093 
Q 1830 2093 1974 2077 
Q 2118 2061 2208 2035 
L 2208 2125 
Q 2208 2368 2061 2515 
Q 1914 2662 1549 2662 
Q 1306 2662 1069 2627 
Q 832 2592 659 2528 
L 538 3296 
Q 621 3322 745 3350 
Q 870 3379 1017 3401 
Q 1165 3424 1328 3440 
Q 1491 3456 1658 3456 
z
" transform="scale(0.015625)"/>
       <path id="Ubuntu-Bold-6c" d="M 1792 -64 
Q 1376 -58 1117 25 
Q 858 109 707 259 
Q 557 410 502 624 
Q 448 838 448 1107 
L 448 4813 
L 1402 4966 
L 1402 1299 
Q 1402 1171 1421 1068 
Q 1440 966 1494 896 
Q 1549 826 1651 781 
Q 1754 736 1926 723 
L 1792 -64 
z
" transform="scale(0.015625)"/>
      </defs>
      <use xlink:href="#Ubuntu-Bold-41"/>
      <use xlink:href="#Ubuntu-Bold-63" x="70.974991"/>
      <use xlink:href="#Ubuntu-Bold-74" x="120.974976"/>
      <use xlink:href="#Ubuntu-Bold-75" x="165.374969"/>
      <use xlink:href="#Ubuntu-Bold-61" x="224.274963"/>
      <use xlink:href="#Ubuntu-Bold-6c" x="279.574951"/>
     </g>
    </g>
   </g>
   <g id="QuadMesh_1">
    <path d="M 44.888875 7.2 
L 156.488875 7.2 
L 156.488875 62.64 
L 44.888875 62.64 
L 44.888875 7.2 
" clip-path="url(#p7560b57935)" style="fill: #ffffff; stroke: #bfbfbf; stroke-width: 0.5"/>
    <path d="M 156.488875 7.2 
L 268.088875 7.2 
L 268.088875 62.64 
L 156.488875 62.64 
L 156.488875 7.2 
" clip-path="url(#p7560b57935)" style="fill: #ffffff; stroke: #bfbfbf; stroke-width: 0.5"/>
    <path d="M 44.888875 62.64 
L 156.488875 62.64 
L 156.488875 118.08 
L 44.888875 118.08 
L 44.888875 62.64 
" clip-path="url(#p7560b57935)" style="fill: #ffffff; stroke: #bfbfbf; stroke-width: 0.5"/>
    <path d="M 156.488875 62.64 
L 268.088875 62.64 
L 268.088875 118.08 
L 156.488875 118.08 
L 156.488875 62.64 
" clip-path="url(#p7560b57935)" style="fill: #ffffff; stroke: #bfbfbf; stroke-width: 0.5"/>
   </g>
   <g id="patch_3">
    <path d="M 44.888875 118.08 
L 44.888875 7.2 
" style="fill: none; stroke: #595959; stroke-linejoin: miter; stroke-linecap: square"/>
   </g>
   <g id="patch_4">
    <path d="M 268.088875 118.08 
L 268.088875 7.2 
" style="fill: none; stroke: #595959; stroke-linejoin: miter; stroke-linecap: square"/>
   </g>
   <g id="patch_5">
    <path d="M 44.888875 118.08 
L 268.088875 118.08 
" style="fill: none; stroke: #595959; stroke-linejoin: miter; stroke-linecap: square"/>
   </g>
   <g id="patch_6">
    <path d="M 44.888875 7.2 
L 268.088875 7.2 
" style="fill: none; stroke: #595959; stroke-linejoin: miter; stroke-linecap: square"/>
   </g>
   <g id="text_7">
    <!-- 57053 -->
    <g style="fill: #262626" transform="translate(83.767 38.465625) scale(0.12 -0.12)">
     <defs>
      <path id="Ubuntu-35" d="M 1274 2726 
Q 2240 2688 2691 2304 
Q 3142 1920 3142 1261 
Q 3142 966 3043 716 
Q 2944 467 2742 288 
Q 2541 109 2233 6 
Q 1926 -96 1504 -96 
Q 1338 -96 1165 -70 
Q 992 -45 845 -6 
Q 698 32 582 70 
Q 467 109 416 134 
L 531 653 
Q 640 602 886 518 
Q 1133 435 1491 435 
Q 1779 435 1974 499 
Q 2170 563 2291 672 
Q 2413 781 2467 925 
Q 2522 1069 2522 1229 
Q 2522 1472 2438 1661 
Q 2355 1850 2144 1978 
Q 1933 2106 1581 2173 
Q 1229 2240 691 2240 
Q 730 2554 752 2829 
Q 774 3104 793 3366 
Q 813 3629 825 3888 
Q 838 4147 851 4435 
L 2989 4435 
L 2989 3930 
L 1370 3930 
Q 1363 3834 1350 3670 
Q 1338 3507 1325 3331 
Q 1312 3155 1299 2988 
Q 1286 2822 1274 2726 
z
" transform="scale(0.015625)"/>
      <path id="Ubuntu-37" d="M 1043 0 
Q 1082 512 1226 1078 
Q 1370 1645 1581 2179 
Q 1792 2714 2045 3171 
Q 2298 3629 2541 3917 
L 384 3917 
L 384 4435 
L 3206 4435 
L 3206 3942 
Q 2995 3699 2739 3273 
Q 2483 2848 2256 2320 
Q 2029 1792 1865 1193 
Q 1702 595 1664 0 
L 1043 0 
z
" transform="scale(0.015625)"/>
      <path id="Ubuntu-30" d="M 320 2221 
Q 320 3334 713 3936 
Q 1107 4538 1805 4538 
Q 2502 4538 2896 3936 
Q 3290 3334 3290 2221 
Q 3290 1107 2896 505 
Q 2502 -96 1805 -96 
Q 1107 -96 713 505 
Q 320 1107 320 2221 
z
M 2662 2221 
Q 2662 2586 2620 2912 
Q 2579 3238 2480 3481 
Q 2381 3725 2214 3869 
Q 2048 4013 1805 4013 
Q 1562 4013 1395 3869 
Q 1229 3725 1129 3481 
Q 1030 3238 988 2912 
Q 947 2586 947 2221 
Q 947 1856 988 1529 
Q 1030 1203 1129 960 
Q 1229 717 1395 573 
Q 1562 429 1805 429 
Q 2048 429 2214 573 
Q 2381 717 2480 960 
Q 2579 1203 2620 1529 
Q 2662 1856 2662 2221 
z
" transform="scale(0.015625)"/>
      <path id="Ubuntu-33" d="M 1446 435 
Q 2016 435 2262 659 
Q 2509 883 2509 1261 
Q 2509 1504 2406 1670 
Q 2304 1837 2137 1936 
Q 1971 2035 1750 2076 
Q 1530 2118 1299 2118 
L 1146 2118 
L 1146 2605 
L 1357 2605 
Q 1517 2605 1686 2637 
Q 1856 2669 1997 2752 
Q 2138 2835 2227 2979 
Q 2317 3123 2317 3341 
Q 2317 3520 2253 3648 
Q 2189 3776 2083 3859 
Q 1978 3942 1840 3977 
Q 1702 4013 1549 4013 
Q 1242 4013 1027 3923 
Q 813 3834 666 3738 
L 435 4192 
Q 512 4243 630 4304 
Q 749 4365 896 4416 
Q 1043 4467 1212 4502 
Q 1382 4538 1568 4538 
Q 1920 4538 2176 4451 
Q 2432 4365 2598 4208 
Q 2765 4051 2848 3836 
Q 2931 3622 2931 3373 
Q 2931 3027 2732 2780 
Q 2534 2534 2253 2406 
Q 2426 2355 2586 2259 
Q 2746 2163 2864 2016 
Q 2982 1869 3056 1677 
Q 3130 1485 3130 1248 
Q 3130 960 3030 713 
Q 2931 467 2723 288 
Q 2515 109 2201 6 
Q 1888 -96 1459 -96 
Q 1293 -96 1117 -70 
Q 941 -45 787 -6 
Q 634 32 518 70 
Q 403 109 352 134 
L 467 653 
Q 576 602 829 518 
Q 1082 435 1446 435 
z
" transform="scale(0.015625)"/>
     </defs>
     <use xlink:href="#Ubuntu-35"/>
     <use xlink:href="#Ubuntu-37" x="56.399994"/>
     <use xlink:href="#Ubuntu-30" x="112.799988"/>
     <use xlink:href="#Ubuntu-35" x="169.199982"/>
     <use xlink:href="#Ubuntu-33" x="225.599976"/>
    </g>
   </g>
   <g id="text_8">
    <!-- 9 -->
    <g style="fill: #262626" transform="translate(208.9045 38.465625) scale(0.12 -0.12)">
     <defs>
      <path id="Ubuntu-39" d="M 3206 2662 
Q 3206 1344 2550 669 
Q 1894 -6 602 -13 
L 582 486 
Q 986 486 1309 563 
Q 1632 640 1875 809 
Q 2118 979 2281 1248 
Q 2445 1517 2522 1907 
Q 2355 1830 2144 1782 
Q 1933 1734 1709 1734 
Q 1331 1734 1068 1846 
Q 806 1958 640 2147 
Q 474 2336 400 2582 
Q 326 2829 326 3098 
Q 326 3334 409 3590 
Q 493 3846 662 4057 
Q 832 4269 1094 4403 
Q 1357 4538 1715 4538 
Q 2080 4538 2358 4410 
Q 2637 4282 2825 4038 
Q 3014 3795 3110 3446 
Q 3206 3098 3206 2662 
z
M 1773 2221 
Q 1997 2221 2195 2262 
Q 2394 2304 2579 2387 
Q 2586 2458 2586 2525 
Q 2586 2592 2586 2662 
Q 2586 2938 2547 3190 
Q 2509 3443 2409 3632 
Q 2310 3821 2144 3933 
Q 1978 4045 1722 4045 
Q 1510 4045 1363 3955 
Q 1216 3866 1120 3728 
Q 1024 3590 982 3427 
Q 941 3264 941 3110 
Q 941 2675 1149 2448 
Q 1357 2221 1773 2221 
z
" transform="scale(0.015625)"/>
     </defs>
     <use xlink:href="#Ubuntu-39"/>
    </g>
   </g>
   <g id="text_9">
    <!-- 154 -->
    <g style="fill: #262626" transform="translate(90.53575 93.905625) scale(0.12 -0.12)">
     <defs>
      <path id="Ubuntu-31" d="M 595 3520 
Q 960 3661 1305 3881 
Q 1651 4102 1939 4435 
L 2362 4435 
L 2362 0 
L 1766 0 
L 1766 3610 
Q 1690 3539 1578 3462 
Q 1466 3386 1334 3315 
Q 1203 3245 1059 3181 
Q 915 3117 781 3072 
L 595 3520 
z
" transform="scale(0.015625)"/>
      <path id="Ubuntu-34" d="M 256 1536 
Q 378 1818 589 2192 
Q 800 2566 1065 2963 
Q 1331 3360 1635 3744 
Q 1939 4128 2246 4435 
L 2816 4435 
L 2816 1619 
L 3341 1619 
L 3341 1133 
L 2816 1133 
L 2816 0 
L 2240 0 
L 2240 1133 
L 256 1133 
L 256 1536 
z
M 2240 3731 
Q 2048 3526 1853 3273 
Q 1658 3021 1472 2745 
Q 1286 2470 1123 2182 
Q 960 1894 832 1619 
L 2240 1619 
L 2240 3731 
z
" transform="scale(0.015625)"/>
     </defs>
     <use xlink:href="#Ubuntu-31"/>
     <use xlink:href="#Ubuntu-35" x="56.399994"/>
     <use xlink:href="#Ubuntu-34" x="112.799988"/>
    </g>
   </g>
   <g id="text_10">
    <!-- 227 -->
    <g style="fill: #262626" transform="translate(202.13575 93.905625) scale(0.12 -0.12)">
     <defs>
      <path id="Ubuntu-32" d="M 2989 3302 
Q 2989 3072 2896 2857 
Q 2803 2643 2649 2435 
Q 2496 2227 2304 2025 
Q 2112 1824 1920 1632 
Q 1811 1523 1667 1376 
Q 1523 1229 1395 1069 
Q 1267 909 1180 761 
Q 1094 614 1094 506 
L 3136 506 
L 3136 0 
L 448 0 
Q 442 38 442 76 
Q 442 115 442 147 
Q 442 448 541 707 
Q 640 966 800 1196 
Q 960 1427 1158 1632 
Q 1357 1837 1549 2029 
Q 1709 2182 1853 2332 
Q 1997 2483 2109 2633 
Q 2221 2784 2288 2944 
Q 2355 3104 2355 3283 
Q 2355 3475 2294 3609 
Q 2234 3744 2131 3833 
Q 2029 3923 1891 3964 
Q 1754 4006 1600 4006 
Q 1414 4006 1260 3955 
Q 1107 3904 985 3837 
Q 864 3770 781 3696 
Q 698 3622 653 3584 
L 358 4006 
Q 416 4070 531 4163 
Q 646 4256 806 4339 
Q 966 4422 1164 4480 
Q 1363 4538 1594 4538 
Q 2291 4538 2640 4214 
Q 2989 3891 2989 3302 
z
" transform="scale(0.015625)"/>
     </defs>
     <use xlink:href="#Ubuntu-32"/>
     <use xlink:href="#Ubuntu-32" x="56.399994"/>
     <use xlink:href="#Ubuntu-37" x="112.799988"/>
    </g>
   </g>
  </g>
 </g>
 <defs>
  <clipPath id="p7560b57935">
   <rect x="44.888875" y="7.2" width="223.2" height="110.88"/>
  </clipPath>
 </defs>
</svg>
