<?xml version="1.0" encoding="utf-8" standalone="no"?>
<!DOCTYPE svg PUBLIC "-//W3C//DTD SVG 1.1//EN"
  "http://www.w3.org/Graphics/SVG/1.1/DTD/svg11.dtd">
<svg xmlns:xlink="http://www.w3.org/1999/xlink" width="584.320937pt" height="208.555938pt" viewBox="0 0 584.320937 208.555938" xmlns="http://www.w3.org/2000/svg" version="1.1">
 <metadata>
  <rdf:RDF xmlns:dc="http://purl.org/dc/elements/1.1/" xmlns:cc="http://creativecommons.org/ns#" xmlns:rdf="http://www.w3.org/1999/02/22-rdf-syntax-ns#">
   <cc:Work>
    <dc:type rdf:resource="http://purl.org/dc/dcmitype/StillImage"/>
    <dc:date>2024-03-18T12:57:11.937274</dc:date>
    <dc:format>image/svg+xml</dc:format>
    <dc:creator>
     <cc:Agent>
      <dc:title>Matplotlib v3.7.3, https://matplotlib.org/</dc:title>
     </cc:Agent>
    </dc:creator>
   </cc:Work>
  </rdf:RDF>
 </metadata>
 <defs>
  <style type="text/css">*{stroke-linejoin: round; stroke-linecap: butt}</style>
 </defs>
 <g id="figure_1">
  <g id="patch_1">
   <path d="M 0 208.555938 
L 584.320937 208.555938 
L 584.320937 0 
L 0 0 
L 0 208.555938 
z
" style="fill: none"/>
  </g>
  <g id="axes_1">
   <g id="patch_2">
    <path d="M 38.340938 173.52 
L 428.940938 173.52 
L 428.940938 7.2 
L 38.340938 7.2 
L 38.340938 173.52 
z
" style="fill: none"/>
   </g>
   <g id="matplotlib.axis_1">
    <g id="xtick_1">
     <g id="line2d_1">
      <path d="M 45.999761 173.52 
L 45.999761 7.2 
" clip-path="url(#p6f04c70dd9)" style="fill: none; stroke-dasharray: 0.5,0.825; stroke-dashoffset: 0; stroke: #d9d9d9; stroke-width: 0.5"/>
     </g>
     <g id="text_1">
      <!-- 0.0 -->
      <g style="fill: #757575" transform="translate(40.503511 183.2275) scale(0.08 -0.08)">
       <defs>
        <path id="Ubuntu-30" d="M 320 2221 
Q 320 3334 713 3936 
Q 1107 4538 1805 4538 
Q 2502 4538 2896 3936 
Q 3290 3334 3290 2221 
Q 3290 1107 2896 505 
Q 2502 -96 1805 -96 
Q 1107 -96 713 505 
Q 320 1107 320 2221 
z
M 2662 2221 
Q 2662 2586 2620 2912 
Q 2579 3238 2480 3481 
Q 2381 3725 2214 3869 
Q 2048 4013 1805 4013 
Q 1562 4013 1395 3869 
Q 1229 3725 1129 3481 
Q 1030 3238 988 2912 
Q 947 2586 947 2221 
Q 947 1856 988 1529 
Q 1030 1203 1129 960 
Q 1229 717 1395 573 
Q 1562 429 1805 429 
Q 2048 429 2214 573 
Q 2381 717 2480 960 
Q 2579 1203 2620 1529 
Q 2662 1856 2662 2221 
z
" transform="scale(0.015625)"/>
        <path id="Ubuntu-2e" d="M 1216 346 
Q 1216 173 1101 45 
Q 986 -83 787 -83 
Q 589 -83 473 45 
Q 358 173 358 346 
Q 358 518 473 646 
Q 589 774 787 774 
Q 986 774 1101 646 
Q 1216 518 1216 346 
z
" transform="scale(0.015625)"/>
       </defs>
       <use xlink:href="#Ubuntu-30"/>
       <use xlink:href="#Ubuntu-2e" x="56.399994"/>
       <use xlink:href="#Ubuntu-30" x="80.999985"/>
      </g>
     </g>
    </g>
    <g id="xtick_2">
     <g id="line2d_2">
      <path d="M 122.587996 173.52 
L 122.587996 7.2 
" clip-path="url(#p6f04c70dd9)" style="fill: none; stroke-dasharray: 0.5,0.825; stroke-dashoffset: 0; stroke: #d9d9d9; stroke-width: 0.5"/>
     </g>
     <g id="text_2">
      <!-- 0.2 -->
      <g style="fill: #757575" transform="translate(117.091746 183.2275) scale(0.08 -0.08)">
       <defs>
        <path id="Ubuntu-32" d="M 2989 3302 
Q 2989 3072 2896 2857 
Q 2803 2643 2649 2435 
Q 2496 2227 2304 2025 
Q 2112 1824 1920 1632 
Q 1811 1523 1667 1376 
Q 1523 1229 1395 1069 
Q 1267 909 1180 761 
Q 1094 614 1094 506 
L 3136 506 
L 3136 0 
L 448 0 
Q 442 38 442 76 
Q 442 115 442 147 
Q 442 448 541 707 
Q 640 966 800 1196 
Q 960 1427 1158 1632 
Q 1357 1837 1549 2029 
Q 1709 2182 1853 2332 
Q 1997 2483 2109 2633 
Q 2221 2784 2288 2944 
Q 2355 3104 2355 3283 
Q 2355 3475 2294 3609 
Q 2234 3744 2131 3833 
Q 2029 3923 1891 3964 
Q 1754 4006 1600 4006 
Q 1414 4006 1260 3955 
Q 1107 3904 985 3837 
Q 864 3770 781 3696 
Q 698 3622 653 3584 
L 358 4006 
Q 416 4070 531 4163 
Q 646 4256 806 4339 
Q 966 4422 1164 4480 
Q 1363 4538 1594 4538 
Q 2291 4538 2640 4214 
Q 2989 3891 2989 3302 
z
" transform="scale(0.015625)"/>
       </defs>
       <use xlink:href="#Ubuntu-30"/>
       <use xlink:href="#Ubuntu-2e" x="56.399994"/>
       <use xlink:href="#Ubuntu-32" x="80.999985"/>
      </g>
     </g>
    </g>
    <g id="xtick_3">
     <g id="line2d_3">
      <path d="M 199.176232 173.52 
L 199.176232 7.2 
" clip-path="url(#p6f04c70dd9)" style="fill: none; stroke-dasharray: 0.5,0.825; stroke-dashoffset: 0; stroke: #d9d9d9; stroke-width: 0.5"/>
     </g>
     <g id="text_3">
      <!-- 0.4 -->
      <g style="fill: #757575" transform="translate(193.679982 183.2275) scale(0.08 -0.08)">
       <defs>
        <path id="Ubuntu-34" d="M 256 1536 
Q 378 1818 589 2192 
Q 800 2566 1065 2963 
Q 1331 3360 1635 3744 
Q 1939 4128 2246 4435 
L 2816 4435 
L 2816 1619 
L 3341 1619 
L 3341 1133 
L 2816 1133 
L 2816 0 
L 2240 0 
L 2240 1133 
L 256 1133 
L 256 1536 
z
M 2240 3731 
Q 2048 3526 1853 3273 
Q 1658 3021 1472 2745 
Q 1286 2470 1123 2182 
Q 960 1894 832 1619 
L 2240 1619 
L 2240 3731 
z
" transform="scale(0.015625)"/>
       </defs>
       <use xlink:href="#Ubuntu-30"/>
       <use xlink:href="#Ubuntu-2e" x="56.399994"/>
       <use xlink:href="#Ubuntu-34" x="80.999985"/>
      </g>
     </g>
    </g>
    <g id="xtick_4">
     <g id="line2d_4">
      <path d="M 275.764467 173.52 
L 275.764467 7.2 
" clip-path="url(#p6f04c70dd9)" style="fill: none; stroke-dasharray: 0.5,0.825; stroke-dashoffset: 0; stroke: #d9d9d9; stroke-width: 0.5"/>
     </g>
     <g id="text_4">
      <!-- 0.6 -->
      <g style="fill: #757575" transform="translate(270.268217 183.2275) scale(0.08 -0.08)">
       <defs>
        <path id="Ubuntu-36" d="M 403 1779 
Q 403 2426 582 2922 
Q 762 3418 1091 3757 
Q 1421 4096 1891 4272 
Q 2362 4448 2950 4454 
L 2995 3955 
Q 2618 3949 2307 3872 
Q 1997 3795 1753 3628 
Q 1510 3462 1344 3196 
Q 1178 2931 1094 2541 
Q 1261 2618 1469 2669 
Q 1677 2720 1901 2720 
Q 2278 2720 2540 2605 
Q 2803 2490 2969 2301 
Q 3136 2112 3209 1865 
Q 3283 1619 3283 1350 
Q 3283 1107 3200 851 
Q 3117 595 2947 384 
Q 2778 173 2515 38 
Q 2253 -96 1894 -96 
Q 1165 -96 784 403 
Q 403 902 403 1779 
z
M 1837 2234 
Q 1613 2234 1421 2192 
Q 1229 2150 1037 2067 
Q 1030 1997 1027 1923 
Q 1024 1850 1024 1779 
Q 1024 1498 1062 1248 
Q 1101 998 1200 809 
Q 1299 621 1465 509 
Q 1632 397 1888 397 
Q 2099 397 2246 486 
Q 2394 576 2490 717 
Q 2586 858 2627 1021 
Q 2669 1184 2669 1338 
Q 2669 1773 2461 2003 
Q 2253 2234 1837 2234 
z
" transform="scale(0.015625)"/>
       </defs>
       <use xlink:href="#Ubuntu-30"/>
       <use xlink:href="#Ubuntu-2e" x="56.399994"/>
       <use xlink:href="#Ubuntu-36" x="80.999985"/>
      </g>
     </g>
    </g>
    <g id="xtick_5">
     <g id="line2d_5">
      <path d="M 352.352702 173.52 
L 352.352702 7.2 
" clip-path="url(#p6f04c70dd9)" style="fill: none; stroke-dasharray: 0.5,0.825; stroke-dashoffset: 0; stroke: #d9d9d9; stroke-width: 0.5"/>
     </g>
     <g id="text_5">
      <!-- 0.8 -->
      <g style="fill: #757575" transform="translate(346.856452 183.2275) scale(0.08 -0.08)">
       <defs>
        <path id="Ubuntu-38" d="M 3258 1152 
Q 3258 883 3165 656 
Q 3072 429 2889 259 
Q 2707 90 2432 -3 
Q 2157 -96 1798 -96 
Q 1382 -96 1104 22 
Q 826 141 659 320 
Q 493 499 422 713 
Q 352 928 352 1120 
Q 352 1306 413 1475 
Q 474 1645 573 1792 
Q 672 1939 803 2057 
Q 934 2176 1082 2266 
Q 454 2624 454 3322 
Q 454 3565 550 3785 
Q 646 4006 822 4172 
Q 998 4339 1248 4438 
Q 1498 4538 1805 4538 
Q 2163 4538 2419 4429 
Q 2675 4320 2838 4150 
Q 3002 3981 3075 3776 
Q 3149 3571 3149 3379 
Q 3149 3194 3094 3030 
Q 3040 2867 2947 2726 
Q 2854 2586 2736 2477 
Q 2618 2368 2490 2285 
Q 3245 1926 3258 1152 
z
M 954 1114 
Q 954 998 995 873 
Q 1037 749 1139 643 
Q 1242 538 1402 467 
Q 1562 397 1805 397 
Q 2022 397 2185 461 
Q 2349 525 2451 624 
Q 2554 723 2605 851 
Q 2656 979 2656 1114 
Q 2656 1318 2579 1472 
Q 2502 1626 2358 1741 
Q 2214 1856 2012 1936 
Q 1811 2016 1555 2074 
Q 1267 1914 1110 1677 
Q 954 1440 954 1114 
z
M 2554 3386 
Q 2554 3482 2512 3597 
Q 2470 3712 2380 3811 
Q 2291 3910 2150 3977 
Q 2010 4045 1805 4045 
Q 1600 4045 1456 3981 
Q 1312 3917 1222 3817 
Q 1133 3718 1091 3600 
Q 1050 3482 1050 3366 
Q 1050 3226 1101 3085 
Q 1152 2944 1261 2822 
Q 1370 2701 1546 2605 
Q 1722 2509 1965 2451 
Q 2234 2611 2394 2825 
Q 2554 3040 2554 3386 
z
" transform="scale(0.015625)"/>
       </defs>
       <use xlink:href="#Ubuntu-30"/>
       <use xlink:href="#Ubuntu-2e" x="56.399994"/>
       <use xlink:href="#Ubuntu-38" x="80.999985"/>
      </g>
     </g>
    </g>
    <g id="xtick_6">
     <g id="line2d_6">
      <path d="M 428.940938 173.52 
L 428.940938 7.2 
" clip-path="url(#p6f04c70dd9)" style="fill: none; stroke-dasharray: 0.5,0.825; stroke-dashoffset: 0; stroke: #d9d9d9; stroke-width: 0.5"/>
     </g>
     <g id="text_6">
      <!-- 1.0 -->
      <g style="fill: #757575" transform="translate(423.444688 183.2275) scale(0.08 -0.08)">
       <defs>
        <path id="Ubuntu-31" d="M 595 3520 
Q 960 3661 1305 3881 
Q 1651 4102 1939 4435 
L 2362 4435 
L 2362 0 
L 1766 0 
L 1766 3610 
Q 1690 3539 1578 3462 
Q 1466 3386 1334 3315 
Q 1203 3245 1059 3181 
Q 915 3117 781 3072 
L 595 3520 
z
" transform="scale(0.015625)"/>
       </defs>
       <use xlink:href="#Ubuntu-31"/>
       <use xlink:href="#Ubuntu-2e" x="56.399994"/>
       <use xlink:href="#Ubuntu-30" x="80.999985"/>
      </g>
     </g>
    </g>
    <g id="text_7">
     <!-- Recall -->
     <g style="fill: #4c4c4c" transform="translate(38.340938 199.690938) scale(0.09 -0.09)">
      <defs>
       <path id="Ubuntu-Bold-52" d="M 1811 4486 
Q 2810 4486 3341 4131 
Q 3872 3776 3872 3027 
Q 3872 2560 3657 2269 
Q 3443 1978 3040 1811 
Q 3174 1645 3321 1430 
Q 3469 1216 3613 982 
Q 3757 749 3891 496 
Q 4026 243 4141 0 
L 3021 0 
Q 2899 218 2774 442 
Q 2650 666 2518 877 
Q 2387 1088 2259 1277 
Q 2131 1466 2003 1619 
L 1510 1619 
L 1510 0 
L 512 0 
L 512 4371 
Q 838 4435 1187 4460 
Q 1536 4486 1811 4486 
z
M 1869 3635 
Q 1760 3635 1673 3628 
Q 1587 3622 1510 3616 
L 1510 2413 
L 1792 2413 
Q 2355 2413 2598 2553 
Q 2842 2694 2842 3034 
Q 2842 3360 2595 3497 
Q 2349 3635 1869 3635 
z
" transform="scale(0.015625)"/>
       <path id="Ubuntu-Bold-65" d="M 288 1658 
Q 288 2106 425 2442 
Q 563 2778 787 3002 
Q 1011 3226 1302 3341 
Q 1594 3456 1901 3456 
Q 2618 3456 3034 3017 
Q 3450 2579 3450 1728 
Q 3450 1645 3443 1545 
Q 3437 1446 3430 1370 
L 1267 1370 
Q 1299 1075 1542 902 
Q 1786 730 2195 730 
Q 2458 730 2710 778 
Q 2963 826 3123 896 
L 3251 122 
Q 3174 83 3046 44 
Q 2918 6 2761 -22 
Q 2605 -51 2425 -70 
Q 2246 -90 2067 -90 
Q 1613 -90 1277 44 
Q 941 179 720 412 
Q 499 646 393 966 
Q 288 1286 288 1658 
z
M 2528 2022 
Q 2522 2144 2486 2259 
Q 2451 2374 2377 2464 
Q 2304 2554 2192 2611 
Q 2080 2669 1914 2669 
Q 1754 2669 1638 2614 
Q 1523 2560 1446 2470 
Q 1370 2381 1328 2262 
Q 1286 2144 1267 2022 
L 2528 2022 
z
" transform="scale(0.015625)"/>
       <path id="Ubuntu-Bold-63" d="M 288 1683 
Q 288 2048 406 2371 
Q 525 2694 749 2934 
Q 973 3174 1293 3315 
Q 1613 3456 2022 3456 
Q 2291 3456 2515 3408 
Q 2739 3360 2950 3270 
L 2752 2509 
Q 2618 2560 2458 2598 
Q 2298 2637 2099 2637 
Q 1677 2637 1469 2374 
Q 1261 2112 1261 1683 
Q 1261 1229 1456 979 
Q 1651 730 2138 730 
Q 2310 730 2508 762 
Q 2707 794 2874 864 
L 3008 83 
Q 2842 13 2592 -38 
Q 2342 -90 2042 -90 
Q 1581 -90 1248 48 
Q 915 186 700 422 
Q 486 659 387 982 
Q 288 1306 288 1683 
z
" transform="scale(0.015625)"/>
       <path id="Ubuntu-Bold-61" d="M 1734 666 
Q 1875 666 2003 672 
Q 2131 678 2208 691 
L 2208 1414 
Q 2150 1427 2035 1440 
Q 1920 1453 1824 1453 
Q 1690 1453 1571 1437 
Q 1453 1421 1363 1376 
Q 1274 1331 1222 1254 
Q 1171 1178 1171 1062 
Q 1171 838 1321 752 
Q 1472 666 1734 666 
z
M 1658 3456 
Q 2080 3456 2361 3360 
Q 2643 3264 2812 3085 
Q 2982 2906 3052 2650 
Q 3123 2394 3123 2080 
L 3123 96 
Q 2918 51 2553 -9 
Q 2189 -70 1670 -70 
Q 1344 -70 1078 -12 
Q 813 45 621 176 
Q 429 307 326 518 
Q 224 730 224 1037 
Q 224 1331 342 1536 
Q 461 1741 659 1862 
Q 858 1984 1114 2038 
Q 1370 2093 1645 2093 
Q 1830 2093 1974 2077 
Q 2118 2061 2208 2035 
L 2208 2125 
Q 2208 2368 2061 2515 
Q 1914 2662 1549 2662 
Q 1306 2662 1069 2627 
Q 832 2592 659 2528 
L 538 3296 
Q 621 3322 745 3350 
Q 870 3379 1017 3401 
Q 1165 3424 1328 3440 
Q 1491 3456 1658 3456 
z
" transform="scale(0.015625)"/>
       <path id="Ubuntu-Bold-6c" d="M 1792 -64 
Q 1376 -58 1117 25 
Q 858 109 707 259 
Q 557 410 502 624 
Q 448 838 448 1107 
L 448 4813 
L 1402 4966 
L 1402 1299 
Q 1402 1171 1421 1068 
Q 1440 966 1494 896 
Q 1549 826 1651 781 
Q 1754 736 1926 723 
L 1792 -64 
z
" transform="scale(0.015625)"/>
      </defs>
      <use xlink:href="#Ubuntu-Bold-52"/>
      <use xlink:href="#Ubuntu-Bold-65" x="64.199997"/>
      <use xlink:href="#Ubuntu-Bold-63" x="122.599991"/>
      <use xlink:href="#Ubuntu-Bold-61" x="170.099976"/>
      <use xlink:href="#Ubuntu-Bold-6c" x="225.399963"/>
      <use xlink:href="#Ubuntu-Bold-6c" x="256.999954"/>
     </g>
    </g>
   </g>
   <g id="matplotlib.axis_2">
    <g id="ytick_1">
     <g id="line2d_7">
      <path d="M 38.340938 173.52 
L 428.940938 173.52 
" clip-path="url(#p6f04c70dd9)" style="fill: none; stroke-dasharray: 0.5,0.825; stroke-dashoffset: 0; stroke: #d9d9d9; stroke-width: 0.5"/>
     </g>
     <g id="text_8">
      <!-- 0.0 -->
      <g style="fill: #757575" transform="translate(23.848438 176.62375) scale(0.08 -0.08)">
       <use xlink:href="#Ubuntu-30"/>
       <use xlink:href="#Ubuntu-2e" x="56.399994"/>
       <use xlink:href="#Ubuntu-30" x="80.999985"/>
      </g>
     </g>
    </g>
    <g id="ytick_2">
     <g id="line2d_8">
      <path d="M 38.340938 142.72 
L 428.940938 142.72 
" clip-path="url(#p6f04c70dd9)" style="fill: none; stroke-dasharray: 0.5,0.825; stroke-dashoffset: 0; stroke: #d9d9d9; stroke-width: 0.5"/>
     </g>
     <g id="text_9">
      <!-- 0.2 -->
      <g style="fill: #757575" transform="translate(23.848438 145.82375) scale(0.08 -0.08)">
       <use xlink:href="#Ubuntu-30"/>
       <use xlink:href="#Ubuntu-2e" x="56.399994"/>
       <use xlink:href="#Ubuntu-32" x="80.999985"/>
      </g>
     </g>
    </g>
    <g id="ytick_3">
     <g id="line2d_9">
      <path d="M 38.340938 111.92 
L 428.940938 111.92 
" clip-path="url(#p6f04c70dd9)" style="fill: none; stroke-dasharray: 0.5,0.825; stroke-dashoffset: 0; stroke: #d9d9d9; stroke-width: 0.5"/>
     </g>
     <g id="text_10">
      <!-- 0.4 -->
      <g style="fill: #757575" transform="translate(23.848438 115.02375) scale(0.08 -0.08)">
       <use xlink:href="#Ubuntu-30"/>
       <use xlink:href="#Ubuntu-2e" x="56.399994"/>
       <use xlink:href="#Ubuntu-34" x="80.999985"/>
      </g>
     </g>
    </g>
    <g id="ytick_4">
     <g id="line2d_10">
      <path d="M 38.340938 81.12 
L 428.940938 81.12 
" clip-path="url(#p6f04c70dd9)" style="fill: none; stroke-dasharray: 0.5,0.825; stroke-dashoffset: 0; stroke: #d9d9d9; stroke-width: 0.5"/>
     </g>
     <g id="text_11">
      <!-- 0.6 -->
      <g style="fill: #757575" transform="translate(23.848438 84.22375) scale(0.08 -0.08)">
       <use xlink:href="#Ubuntu-30"/>
       <use xlink:href="#Ubuntu-2e" x="56.399994"/>
       <use xlink:href="#Ubuntu-36" x="80.999985"/>
      </g>
     </g>
    </g>
    <g id="ytick_5">
     <g id="line2d_11">
      <path d="M 38.340938 50.32 
L 428.940938 50.32 
" clip-path="url(#p6f04c70dd9)" style="fill: none; stroke-dasharray: 0.5,0.825; stroke-dashoffset: 0; stroke: #d9d9d9; stroke-width: 0.5"/>
     </g>
     <g id="text_12">
      <!-- 0.8 -->
      <g style="fill: #757575" transform="translate(23.848438 53.42375) scale(0.08 -0.08)">
       <use xlink:href="#Ubuntu-30"/>
       <use xlink:href="#Ubuntu-2e" x="56.399994"/>
       <use xlink:href="#Ubuntu-38" x="80.999985"/>
      </g>
     </g>
    </g>
    <g id="ytick_6">
     <g id="line2d_12">
      <path d="M 38.340938 19.52 
L 428.940938 19.52 
" clip-path="url(#p6f04c70dd9)" style="fill: none; stroke-dasharray: 0.5,0.825; stroke-dashoffset: 0; stroke: #d9d9d9; stroke-width: 0.5"/>
     </g>
     <g id="text_13">
      <!-- 1.0 -->
      <g style="fill: #757575" transform="translate(23.848438 22.62375) scale(0.08 -0.08)">
       <use xlink:href="#Ubuntu-31"/>
       <use xlink:href="#Ubuntu-2e" x="56.399994"/>
       <use xlink:href="#Ubuntu-30" x="80.999985"/>
      </g>
     </g>
    </g>
    <g id="text_14">
     <!-- Precision -->
     <g style="fill: #4c4c4c" transform="translate(14.183438 46.794375) rotate(-90) scale(0.09 -0.09)">
      <defs>
       <path id="Ubuntu-Bold-50" d="M 1843 4486 
Q 2835 4486 3366 4137 
Q 3898 3789 3898 2995 
Q 3898 2195 3360 1840 
Q 2822 1485 1824 1485 
L 1510 1485 
L 1510 0 
L 512 0 
L 512 4371 
Q 838 4435 1203 4460 
Q 1568 4486 1843 4486 
z
M 1907 3635 
Q 1798 3635 1692 3628 
Q 1587 3622 1510 3616 
L 1510 2336 
L 1824 2336 
Q 2342 2336 2604 2477 
Q 2867 2618 2867 3002 
Q 2867 3187 2800 3308 
Q 2733 3430 2608 3504 
Q 2483 3578 2304 3606 
Q 2125 3635 1907 3635 
z
" transform="scale(0.015625)"/>
       <path id="Ubuntu-Bold-72" d="M 2477 2522 
Q 2349 2554 2176 2589 
Q 2003 2624 1805 2624 
Q 1715 2624 1590 2608 
Q 1466 2592 1402 2573 
L 1402 0 
L 448 0 
L 448 3187 
Q 704 3277 1053 3357 
Q 1402 3437 1830 3437 
Q 1907 3437 2016 3427 
Q 2125 3418 2233 3402 
Q 2342 3386 2451 3363 
Q 2560 3341 2637 3309 
L 2477 2522 
z
" transform="scale(0.015625)"/>
       <path id="Ubuntu-Bold-69" d="M 1402 0 
L 448 0 
L 448 3366 
L 1402 3366 
L 1402 0 
z
M 1491 4339 
Q 1491 4077 1321 3926 
Q 1152 3776 922 3776 
Q 691 3776 521 3926 
Q 352 4077 352 4339 
Q 352 4602 521 4752 
Q 691 4902 922 4902 
Q 1152 4902 1321 4752 
Q 1491 4602 1491 4339 
z
" transform="scale(0.015625)"/>
       <path id="Ubuntu-Bold-73" d="M 1414 685 
Q 1677 685 1785 736 
Q 1894 787 1894 934 
Q 1894 1050 1753 1136 
Q 1613 1222 1325 1331 
Q 1101 1414 918 1504 
Q 736 1594 608 1718 
Q 480 1843 409 2016 
Q 339 2189 339 2432 
Q 339 2906 691 3181 
Q 1043 3456 1658 3456 
Q 1965 3456 2246 3401 
Q 2528 3347 2694 3283 
L 2528 2541 
Q 2362 2598 2166 2643 
Q 1971 2688 1728 2688 
Q 1280 2688 1280 2438 
Q 1280 2381 1299 2336 
Q 1318 2291 1376 2249 
Q 1434 2208 1533 2160 
Q 1632 2112 1786 2054 
Q 2099 1939 2304 1827 
Q 2509 1715 2627 1584 
Q 2746 1453 2794 1293 
Q 2842 1133 2842 922 
Q 2842 422 2467 166 
Q 2093 -90 1408 -90 
Q 960 -90 662 -13 
Q 365 64 250 115 
L 410 890 
Q 653 794 909 739 
Q 1165 685 1414 685 
z
" transform="scale(0.015625)"/>
       <path id="Ubuntu-Bold-6f" d="M 3597 1690 
Q 3597 1293 3481 963 
Q 3366 634 3148 400 
Q 2931 166 2627 38 
Q 2323 -90 1946 -90 
Q 1574 -90 1270 38 
Q 966 166 748 400 
Q 531 634 409 963 
Q 288 1293 288 1690 
Q 288 2086 413 2412 
Q 538 2739 758 2969 
Q 979 3200 1283 3328 
Q 1587 3456 1946 3456 
Q 2310 3456 2614 3328 
Q 2918 3200 3136 2969 
Q 3354 2739 3475 2412 
Q 3597 2086 3597 1690 
z
M 2624 1690 
Q 2624 2131 2448 2384 
Q 2272 2637 1946 2637 
Q 1619 2637 1440 2384 
Q 1261 2131 1261 1690 
Q 1261 1248 1440 989 
Q 1619 730 1946 730 
Q 2272 730 2448 989 
Q 2624 1248 2624 1690 
z
" transform="scale(0.015625)"/>
       <path id="Ubuntu-Bold-6e" d="M 448 3251 
Q 691 3322 1075 3382 
Q 1459 3443 1882 3443 
Q 2310 3443 2595 3331 
Q 2880 3219 3046 3014 
Q 3213 2810 3283 2528 
Q 3354 2246 3354 1901 
L 3354 0 
L 2400 0 
L 2400 1786 
Q 2400 2246 2278 2438 
Q 2157 2630 1824 2630 
Q 1722 2630 1606 2620 
Q 1491 2611 1402 2598 
L 1402 0 
L 448 0 
L 448 3251 
z
" transform="scale(0.015625)"/>
      </defs>
      <use xlink:href="#Ubuntu-Bold-50"/>
      <use xlink:href="#Ubuntu-Bold-72" x="64.399994"/>
      <use xlink:href="#Ubuntu-Bold-65" x="105.599991"/>
      <use xlink:href="#Ubuntu-Bold-63" x="163.999985"/>
      <use xlink:href="#Ubuntu-Bold-69" x="213.999969"/>
      <use xlink:href="#Ubuntu-Bold-73" x="242.899963"/>
      <use xlink:href="#Ubuntu-Bold-69" x="291.399948"/>
      <use xlink:href="#Ubuntu-Bold-6f" x="320.299942"/>
      <use xlink:href="#Ubuntu-Bold-6e" x="380.999939"/>
     </g>
    </g>
   </g>
   <g id="PathCollection_1">
    <path d="M 275.764467 52.315534 
C 276.702101 52.315534 277.601459 51.943008 278.264467 51.28 
C 278.927475 50.616992 279.300001 49.717635 279.300001 48.78 
C 279.300001 47.842365 278.927475 46.943008 278.264467 46.28 
C 277.601459 45.616992 276.702101 45.244466 275.764467 45.244466 
C 274.826832 45.244466 273.927475 45.616992 273.264467 46.28 
C 272.601459 46.943008 272.228933 47.842365 272.228933 48.78 
C 272.228933 49.717635 272.601459 50.616992 273.264467 51.28 
C 273.927475 51.943008 274.826832 52.315534 275.764467 52.315534 
L 275.764467 52.315534 
z
" clip-path="url(#p6f04c70dd9)" style="fill: none; stroke: #505050; stroke-width: 1.5"/>
   </g>
   <g id="PathCollection_2">
    <path d="M 275.764467 32.295534 
L 279.300001 25.224466 
L 272.228933 25.224466 
L 275.764467 32.295534 
z
" clip-path="url(#p6f04c70dd9)" style="fill: none; stroke: #505050; stroke-width: 1.5"/>
   </g>
   <g id="PathCollection_3">
    <path d="M 272.228933 29.215534 
L 279.300001 29.215534 
L 279.300001 22.144466 
L 272.228933 22.144466 
L 272.228933 29.215534 
z
" clip-path="url(#p6f04c70dd9)" style="fill: none; stroke: #505050; stroke-width: 1.5"/>
   </g>
   <g id="PathCollection_4">
    <path d="M 264.276232 67.64 
L 269.276232 62.64 
L 264.276232 57.64 
L 259.276232 62.64 
L 264.276232 67.64 
z
" clip-path="url(#p6f04c70dd9)" style="fill: none; stroke: #505050; stroke-width: 1.5"/>
   </g>
   <g id="line2d_13">
    <path d="M 428.940938 172.49857 
L 428.940938 172.471051 
L 416.879798 172.399812 
L 416.879798 172.392768 
L 416.879798 172.382638 
L 405.823754 172.321947 
L 405.823754 172.305184 
L 405.823754 172.299753 
L 399.793184 172.241419 
L 399.793184 172.20895 
L 399.793184 172.206121 
L 393.762614 172.121947 
L 393.762614 172.117236 
L 393.762614 172.081564 
L 391.752424 172.03832 
L 391.752424 171.978701 
L 391.752424 171.940842 
L 386.72695 171.866603 
L 386.72695 171.85245 
L 386.72695 171.793839 
L 380.69638 171.718989 
L 380.69638 171.71296 
L 380.69638 171.700134 
L 377.681095 171.632254 
L 377.681095 171.605227 
L 377.681095 171.578898 
L 372.65562 171.51864 
L 372.65562 171.496879 
L 372.65562 171.468939 
L 369.640335 171.39659 
L 369.640335 171.376581 
L 369.640335 171.33743 
L 367.630145 171.284674 
L 367.630145 171.239785 
L 367.630145 171.227374 
L 361.599576 171.182832 
L 361.599576 171.158637 
L 361.599576 171.13146 
L 358.584291 171.062007 
L 358.584291 171.042938 
L 358.584291 170.991011 
L 355.569006 170.920701 
L 355.569006 170.903928 
L 355.569006 170.848377 
L 352.553721 170.788233 
L 352.553721 170.762897 
L 352.553721 170.554909 
L 349.538436 170.47887 
L 349.538436 170.472493 
L 349.538436 170.35188 
L 347.528246 170.274706 
L 347.528246 170.26143 
L 347.528246 170.150688 
L 342.502772 170.102669 
L 342.502772 170.094681 
L 342.502772 169.978804 
L 338.482392 169.98019 
L 338.482392 169.91469 
L 338.482392 169.805927 
L 335.467107 169.796383 
L 335.467107 169.732468 
L 335.467107 169.641043 
L 334.462012 169.654173 
L 334.462012 169.543214 
L 334.462012 169.41505 
L 333.456917 169.428973 
L 333.456917 169.31813 
L 333.456917 169.257127 
L 331.446727 169.224999 
L 331.446727 169.175076 
L 331.446727 168.51817 
L 330.441632 168.535212 
L 330.441632 168.424478 
L 330.441632 168.307466 
L 329.436537 168.325263 
L 329.436537 168.214197 
L 329.436537 167.24337 
L 328.431442 167.264724 
L 328.431442 167.154304 
L 328.431442 166.801478 
L 327.426347 166.824348 
L 327.426347 166.71337 
L 327.426347 166.481149 
L 326.421252 166.505143 
L 326.421252 166.394627 
L 326.421252 165.781167 
L 325.416158 165.807516 
L 325.416158 165.697599 
L 325.416158 165.092441 
L 324.411063 165.121103 
L 324.411063 165.010525 
L 324.411063 164.923063 
L 323.405968 164.952373 
L 323.405968 164.842172 
L 323.405968 164.505366 
L 322.400873 164.536122 
L 322.400873 164.426163 
L 322.400873 163.165477 
L 320.390683 163.205476 
L 320.390683 163.126428 
L 320.390683 159.685844 
L 319.385588 159.731982 
L 319.385588 159.62219 
L 319.385588 150.580241 
L 318.380493 150.652055 
L 318.380493 150.55137 
L 318.380493 147.055828 
L 317.375398 147.136751 
L 317.375398 147.035924 
L 317.375398 144.422729 
L 316.370303 144.510196 
L 316.370303 144.408264 
L 316.370303 139.226954 
L 315.365208 139.326131 
L 315.365208 139.24093 
L 315.365208 139.097982 
L 314.360113 139.197796 
L 314.360113 139.111632 
L 314.360113 125.763902 
L 313.355018 125.887442 
L 313.355018 125.77641 
L 313.355018 124.869169 
L 312.349923 124.994435 
L 312.349923 124.936667 
L 312.349923 123.075006 
L 311.344828 123.203168 
L 311.344828 123.140818 
L 311.344828 116.498962 
L 310.339733 116.635169 
L 310.339733 116.555162 
L 310.339733 115.824843 
L 309.334638 115.962225 
L 309.334638 115.88 
L 309.334638 113.118802 
L 308.329543 113.25913 
L 308.329543 113.168649 
L 308.329543 109.921899 
L 307.324448 110.065166 
L 307.324448 109.964444 
L 307.324448 107.556244 
L 305.314258 107.738543 
L 305.314258 107.189449 
L 304.309164 107.336054 
L 304.309164 107.225193 
L 304.309164 105.164214 
L 303.304069 105.312388 
L 303.304069 103.24549 
L 302.298974 103.395 
L 302.298974 102.763243 
L 301.293879 102.913502 
L 301.293879 97.860426 
L 300.288784 98.012248 
L 300.288784 97.422344 
L 299.283689 97.574795 
L 299.283689 95.435493 
L 298.278594 95.588548 
L 298.278594 93.656364 
L 297.273499 93.809855 
L 297.273499 92.124651 
L 296.268404 92.278475 
L 296.268404 82.22 
L 295.263309 82.369642 
L 295.263309 81.712308 
L 294.258214 81.862169 
L 294.258214 80.289608 
L 293.253119 80.438919 
L 293.253119 76.381538 
L 292.248024 76.527712 
L 292.248024 71.821887 
L 291.242929 71.963243 
L 291.242929 67.072408 
L 290.237834 67.2075 
L 290.237834 65.67562 
L 289.232739 65.809017 
L 289.232739 65.496812 
L 288.227644 65.630465 
L 288.227644 64.999532 
L 287.222549 65.132903 
L 287.222549 63.846409 
L 286.217454 63.978333 
L 286.217454 61.306585 
L 285.212359 61.434373 
L 285.212359 60.744615 
L 284.207265 60.871852 
L 284.207265 60.172174 
L 282.197075 60.42625 
L 282.197075 57.896997 
L 281.19198 58.02 
L 281.19198 54.980526 
L 280.186885 55.097558 
L 280.186885 54.310698 
L 279.18179 54.426667 
L 279.18179 54.028361 
L 278.176695 54.144161 
L 278.176695 52.930169 
L 277.1716 53.04381 
L 277.1716 51.801787 
L 276.166505 51.913103 
L 276.166505 51.492318 
L 275.16141 51.603333 
L 275.16141 50.32 
L 274.156315 50.428451 
L 274.156315 49.114306 
L 273.15122 49.22 
L 273.15122 48.77448 
L 271.14103 48.985704 
L 271.14103 48.534493 
L 270.135935 48.64 
L 270.135935 47.725128 
L 269.13084 47.828824 
L 269.13084 46.897778 
L 268.125745 46.999554 
L 268.125745 46.527463 
L 265.11046 46.833208 
L 265.11046 44.891648 
L 263.100271 45.087568 
L 263.100271 44.589767 
L 261.090081 44.785625 
L 261.090081 44.280784 
L 260.084986 44.378268 
L 260.084986 43.353333 
L 259.079891 43.448287 
L 259.079891 42.403534 
L 258.074796 42.495806 
L 258.074796 41.965344 
L 256.064606 42.148571 
L 256.064606 41.610164 
L 254.054416 41.792727 
L 254.054416 40.139247 
L 253.049321 40.225882 
L 253.049321 39.66346 
L 252.044226 39.748814 
L 252.044226 39.179574 
L 251.039131 39.26359 
L 251.039131 38.106207 
L 249.028941 38.267826 
L 249.028941 37.677205 
L 246.013656 37.91823 
L 246.013656 37.315556 
L 241.993277 37.637647 
L 241.993277 35.767706 
L 240.988182 35.842581 
L 240.988182 33.257089 
L 235.962707 33.587308 
L 235.962707 31.539512 
L 233.952517 31.657931 
L 233.952517 30.955644 
L 231.942327 31.07 
L 231.942327 30.354171 
L 230.937232 30.408889 
L 230.937232 27.458144 
L 226.916852 27.625263 
L 226.916852 26.853333 
L 225.911757 26.89234 
L 225.911757 26.108235 
L 218.876093 26.364444 
L 218.876093 25.542346 
L 214.855713 25.68 
L 214.855713 24.830345 
L 213.850618 24.86104 
L 213.850618 23.996744 
L 209.830238 24.103333 
L 209.830238 23.208623 
L 203.799668 23.346087 
L 203.799668 22.4075 
L 202.794573 22.42566 
L 202.794573 21.469367 
L 182.692674 21.751884 
L 182.692674 20.644088 
L 178.672295 20.677895 
L 178.672295 19.52 
L 45.999761 19.52 
L 45.999761 19.52 
" clip-path="url(#p6f04c70dd9)" style="fill: none; stroke: #af4035; stroke-width: 1.2; stroke-linecap: square"/>
   </g>
   <g id="line2d_14">
    <path d="M 428.940938 172.49857 
L 428.940938 172.49229 
L 417.884893 172.429849 
L 417.884893 172.410663 
L 417.884893 172.408759 
L 406.828849 172.332101 
L 406.828849 172.330465 
L 406.828849 172.322374 
L 400.798279 172.261795 
L 400.798279 172.231129 
L 400.798279 172.22917 
L 390.747329 172.16933 
L 390.747329 172.154349 
L 390.747329 172.057921 
L 385.721855 172.000677 
L 385.721855 171.967923 
L 385.721855 171.925709 
L 381.701475 171.837215 
L 381.701475 171.833297 
L 381.701475 171.823002 
L 376.676 171.777343 
L 376.676 171.737053 
L 376.676 171.691892 
L 373.660715 171.610304 
L 373.660715 171.597285 
L 373.660715 171.551679 
L 370.64543 171.503623 
L 370.64543 171.458497 
L 370.64543 171.454388 
L 367.630145 171.387036 
L 367.630145 171.362287 
L 367.630145 171.329972 
L 365.619956 171.28404 
L 365.619956 171.232444 
L 365.619956 171.107349 
L 362.604671 171.043863 
L 362.604671 171.018711 
L 362.604671 170.903918 
L 357.579196 170.852067 
L 357.579196 170.833752 
L 357.579196 170.80225 
L 352.553721 170.739723 
L 352.553721 170.734281 
L 352.553721 170.710957 
L 349.538436 170.670769 
L 349.538436 170.626992 
L 349.538436 170.621402 
L 346.523151 170.619647 
L 346.523151 170.538712 
L 346.523151 170.43897 
L 344.512962 170.415119 
L 344.512962 170.348155 
L 344.512962 169.475611 
L 343.507867 169.488872 
L 343.507867 169.377883 
L 343.507867 169.290644 
L 341.497677 169.233312 
L 341.497677 169.207589 
L 341.497677 169.034119 
L 339.487487 168.997876 
L 339.487487 168.952866 
L 339.487487 168.843141 
L 338.482392 168.858673 
L 338.482392 168.747984 
L 338.482392 168.692986 
L 336.472202 168.630305 
L 336.472202 168.614136 
L 336.472202 168.472251 
L 335.467107 168.489147 
L 335.467107 168.378335 
L 335.467107 168.123066 
L 332.451822 168.084033 
L 332.451822 168.066471 
L 332.451822 167.083572 
L 331.446727 167.105216 
L 331.446727 166.994187 
L 331.446727 166.746576 
L 330.441632 166.76938 
L 330.441632 166.658854 
L 330.441632 166.392935 
L 329.436537 166.416958 
L 329.436537 166.306047 
L 329.436537 165.45238 
L 328.431442 165.479495 
L 328.431442 165.368936 
L 328.431442 162.955059 
L 327.426347 162.990085 
L 327.426347 162.880967 
L 327.426347 162.308352 
L 326.421252 162.345488 
L 326.421252 162.236912 
L 326.421252 160.967853 
L 325.416158 161.009188 
L 325.416158 160.898538 
L 325.416158 160.709707 
L 324.411063 160.751966 
L 324.411063 160.644057 
L 324.411063 157.543221 
L 323.405968 157.594934 
L 323.405968 157.486805 
L 323.405968 155.956364 
L 322.400873 156.012766 
L 322.400873 155.903527 
L 322.400873 150.263548 
L 321.395778 150.335385 
L 321.395778 150.233024 
L 321.395778 149.840988 
L 320.390683 149.914161 
L 320.390683 149.807648 
L 320.390683 148.760283 
L 319.385588 148.836441 
L 319.385588 148.734201 
L 319.385588 145.274552 
L 318.380493 145.359406 
L 318.380493 145.264076 
L 318.380493 142.990373 
L 317.375398 143.080761 
L 317.375398 142.991366 
L 317.375398 142.81099 
L 316.370303 142.902114 
L 316.370303 142.811327 
L 316.370303 137.991698 
L 315.365208 137.693611 
L 315.365208 130.030011 
L 314.360113 130.146582 
L 314.360113 130.054884 
L 314.360113 120.189261 
L 313.355018 120.32 
L 313.355018 120.250819 
L 313.355018 118.608472 
L 312.349923 118.741477 
L 312.349923 118.667849 
L 312.349923 114.375072 
L 311.344828 114.512743 
L 311.344828 114.426977 
L 311.344828 107.839871 
L 310.339733 107.982783 
L 310.339733 106.904868 
L 309.334638 107.04883 
L 309.334638 106.939142 
L 309.334638 101.081939 
L 308.329543 101.228633 
L 308.329543 97.825085 
L 306.319353 97.401679 
L 306.319353 96.22155 
L 304.309164 96.52 
L 304.309164 89.668305 
L 303.304069 89.460299 
L 303.304069 88.919142 
L 302.298974 89.068387 
L 302.298974 87.022203 
L 301.293879 86.40196 
L 301.293879 86.01217 
L 300.288784 86.161256 
L 300.288784 83.745806 
L 299.283689 83.894134 
L 299.283689 83.686667 
L 298.278594 83.835545 
L 298.278594 82.139385 
L 296.268404 82.436865 
L 296.268404 76.930579 
L 295.263309 77.075556 
L 295.263309 62.173061 
L 294.258214 62.297778 
L 294.258214 58.947711 
L 293.253119 59.066828 
L 293.253119 56.953846 
L 292.248024 57.069383 
L 292.248024 56.708854 
L 291.242929 56.095 
L 291.242929 54.231111 
L 290.237834 53.577692 
L 290.237834 53.192026 
L 288.227644 53.409968 
L 287.222549 53.129121 
L 287.222549 52.339672 
L 286.217454 50.833333 
L 285.212359 49.695676 
L 285.212359 48.853333 
L 284.207265 48.953447 
L 284.207265 48.526849 
L 283.20217 48.626529 
L 283.20217 46.885854 
L 282.197075 46.537544 
L 282.197075 46.090423 
L 280.186885 45.82605 
L 280.186885 40.623704 
L 279.18179 40.206567 
L 279.18179 38.697358 
L 278.176695 38.257643 
L 278.176695 35.099767 
L 277.1716 35.160625 
L 277.1716 34.071181 
L 276.166505 33.575556 
L 276.166505 31.889478 
L 275.16141 31.939355 
L 275.16141 29.026173 
L 274.156315 29.065455 
L 274.156315 28.466058 
L 273.15122 27.896569 
L 271.14103 27.967257 
L 271.14103 27.350508 
L 270.135935 27.38383 
L 270.135935 26.129442 
L 269.13084 26.157931 
L 269.13084 25.52 
L 261.090081 25.735247 
L 261.090081 25.06955 
L 249.028941 25.386667 
L 248.023846 23.983768 
L 244.003466 24.071724 
L 240.988182 23.389347 
L 231.942327 23.572632 
L 230.937232 21.990588 
L 227.921947 22.03087 
L 225.911757 21.221657 
L 184.702864 21.72 
L 180.682485 20.660741 
L 152.539826 20.959252 
L 149.524541 19.52 
L 45.999761 19.52 
L 45.999761 19.52 
" clip-path="url(#p6f04c70dd9)" style="fill: none; stroke: #00937f; stroke-width: 1.2; stroke-linecap: square"/>
   </g>
   <g id="line2d_15">
    <path d="M 428.940938 172.49857 
L 428.940938 172.488623 
L 418.889988 172.443462 
L 418.889988 172.404232 
L 418.889988 172.400494 
L 405.823754 172.333473 
L 405.823754 172.328369 
L 405.823754 172.303307 
L 394.767709 172.243137 
L 394.767709 172.229196 
L 394.767709 172.217238 
L 389.742234 172.178516 
L 389.742234 172.124599 
L 389.742234 172.11342 
L 383.711665 172.047113 
L 383.711665 172.027141 
L 383.711665 172.000308 
L 381.701475 171.984047 
L 381.701475 171.898181 
L 381.701475 171.89099 
L 373.660715 171.806728 
L 373.660715 171.794599 
L 373.660715 171.791688 
L 371.650525 171.717724 
L 371.650525 171.691102 
L 371.650525 171.648783 
L 368.63524 171.611499 
L 368.63524 171.554668 
L 368.63524 171.547138 
L 365.619956 171.470362 
L 365.619956 171.451926 
L 365.619956 171.400459 
L 360.594481 171.338815 
L 360.594481 171.322407 
L 360.594481 171.271143 
L 357.579196 171.264922 
L 357.579196 171.181752 
L 357.579196 171.147826 
L 355.569006 171.158554 
L 355.569006 171.051897 
L 355.569006 170.812694 
L 354.563911 170.821176 
L 354.563911 170.714184 
L 354.563911 170.376934 
L 353.558816 170.386339 
L 353.558816 170.275886 
L 353.558816 170.191329 
L 352.553721 170.201972 
L 352.553721 170.091032 
L 352.553721 169.987093 
L 348.533341 169.929728 
L 348.533341 169.921366 
L 348.533341 169.287917 
L 347.528246 169.301207 
L 347.528246 169.191726 
L 347.528246 169.01532 
L 346.523151 169.029898 
L 346.523151 168.919081 
L 346.523151 168.855224 
L 345.518057 168.870355 
L 345.518057 168.759419 
L 345.518057 168.519237 
L 343.507867 168.49863 
L 343.507867 168.441003 
L 343.507867 168.213364 
L 342.502772 168.228828 
L 342.502772 168.118098 
L 342.502772 167.538433 
L 339.487487 167.545774 
L 339.487487 167.486456 
L 339.487487 166.74465 
L 337.477297 166.69021 
L 337.477297 166.678701 
L 337.477297 166.177021 
L 336.472202 166.201138 
L 336.472202 166.09119 
L 336.472202 165.586667 
L 335.467107 165.612708 
L 335.467107 165.502646 
L 335.467107 165.167458 
L 333.456917 165.137054 
L 333.456917 165.111447 
L 333.456917 164.725272 
L 331.446727 164.757027 
L 331.446727 164.673722 
L 331.446727 164.090073 
L 330.441632 164.121251 
L 330.441632 164.010508 
L 330.441632 163.356287 
L 329.436537 163.385111 
L 329.436537 163.275131 
L 329.436537 161.83324 
L 328.431442 161.871548 
L 328.431442 161.760761 
L 328.431442 161.254127 
L 327.426347 161.294312 
L 327.426347 161.185904 
L 327.426347 160.605954 
L 326.421252 160.64822 
L 326.421252 160.539335 
L 326.421252 159.96178 
L 325.416158 160.006111 
L 325.416158 159.898619 
L 325.416158 158.982818 
L 324.411063 159.03019 
L 324.411063 158.921095 
L 324.411063 157.709029 
L 323.405968 157.754421 
L 323.405968 157.648454 
L 323.405968 157.456508 
L 322.400873 157.508658 
L 322.400873 157.398949 
L 322.400873 157.225271 
L 321.395778 157.278276 
L 321.395778 157.171298 
L 321.395778 156.567007 
L 320.390683 156.62209 
L 320.390683 156.512718 
L 320.390683 154.074117 
L 318.380493 154.171831 
L 318.380493 154.090764 
L 318.380493 152.227143 
L 317.375398 152.294885 
L 317.375398 152.185983 
L 317.375398 149.373659 
L 316.370303 149.449111 
L 316.370303 149.350805 
L 316.370303 146.964872 
L 315.365208 147.04662 
L 315.365208 146.94434 
L 315.365208 144.938283 
L 314.360113 145.025198 
L 314.360113 144.92612 
L 314.360113 141.371446 
L 313.355018 141.466792 
L 313.355018 141.366154 
L 313.355018 138.980371 
L 312.349923 139.081181 
L 312.349923 138.993773 
L 312.349923 133.352677 
L 311.344828 133.464828 
L 311.344828 133.425325 
L 311.344828 117.750453 
L 310.339733 117.885385 
L 310.339733 117.808858 
L 310.339733 115.159769 
L 309.334638 115.297778 
L 309.334638 115.213642 
L 309.334638 103.954483 
L 308.329543 104.100311 
L 308.329543 93.292455 
L 307.324448 93.44 
L 307.324448 90.103333 
L 306.319353 90.250689 
L 306.319353 87.373132 
L 305.314258 87.52 
L 305.314258 84.8325 
L 304.309164 84.978613 
L 304.309164 74.575 
L 303.304069 74.712982 
L 303.304069 73.712405 
L 302.298974 73.849949 
L 302.298974 64.738837 
L 301.293879 64.864444 
L 301.293879 56.054535 
L 300.288784 56.164578 
L 300.288784 54.733415 
L 299.283689 54.841101 
L 299.283689 52.245 
L 298.278594 52.347586 
L 298.278594 50.024792 
L 297.273499 50.122564 
L 297.273499 48.924531 
L 296.268404 49.02 
L 296.268404 47.79541 
L 294.258214 47.982046 
L 294.258214 46.726667 
L 293.253119 46.817659 
L 293.253119 45.533514 
L 292.248024 45.621695 
L 292.248024 43.863643 
L 290.237834 44.032111 
L 290.237834 43.129756 
L 289.232739 43.212308 
L 289.232739 40.42 
L 288.227644 40.49491 
L 288.227644 39.53444 
L 287.222549 39.606957 
L 287.222549 39.12 
L 286.217454 39.191533 
L 286.217454 36.184179 
L 285.212359 36.246592 
L 285.212359 35.210566 
L 283.20217 35.329886 
L 283.20217 34.802443 
L 282.197075 34.860996 
L 282.197075 34.327692 
L 280.186885 34.442481 
L 280.186885 33.901323 
L 279.18179 33.9575 
L 279.18179 31.742222 
L 277.1716 31.84 
L 277.1716 30.697419 
L 276.166505 30.742672 
L 276.166505 29.577143 
L 275.16141 29.618361 
L 275.16141 25.368101 
L 270.135935 25.494138 
L 270.135935 24.206957 
L 269.13084 24.227424 
L 269.13084 23.572632 
L 257.069701 23.797778 
L 257.069701 23.101395 
L 248.023846 23.257864 
L 248.023846 22.524878 
L 242.998371 22.6 
L 242.998371 21.841608 
L 239.983087 21.877143 
L 239.983087 21.099487 
L 226.916852 21.212308 
L 226.916852 20.370829 
L 220.886283 20.4 
L 220.886283 19.52 
L 45.999761 19.52 
L 45.999761 19.52 
" clip-path="url(#p6f04c70dd9)" style="fill: none; stroke: #3d6384; stroke-width: 1.2; stroke-linecap: square"/>
   </g>
   <g id="line2d_16">
    <path d="M 428.940938 172.49857 
L 428.940938 172.48797 
L 412.859418 172.430173 
L 412.859418 172.419935 
L 412.859418 172.404988 
L 406.828849 172.342775 
L 406.828849 172.311563 
L 406.828849 172.277981 
L 399.793184 172.2003 
L 399.793184 172.190916 
L 399.793184 172.188631 
L 393.762614 172.135784 
L 393.762614 172.10004 
L 393.762614 172.072694 
L 386.72695 171.995069 
L 386.72695 171.990602 
L 386.72695 171.979136 
L 384.71676 171.967887 
L 384.71676 171.877034 
L 384.71676 171.855696 
L 379.691285 171.778405 
L 379.691285 171.769041 
L 379.691285 171.68344 
L 375.670905 171.64237 
L 375.670905 171.594193 
L 375.670905 171.439605 
L 370.64543 171.403139 
L 370.64543 171.35984 
L 370.64543 171.248053 
L 366.625051 171.177208 
L 366.625051 171.164741 
L 366.625051 171.130952 
L 363.609766 171.077764 
L 363.609766 171.042073 
L 363.609766 170.994099 
L 362.604671 171.001962 
L 362.604671 170.890874 
L 362.604671 170.886878 
L 360.594481 170.854992 
L 360.594481 170.792254 
L 360.594481 170.746742 
L 357.579196 170.711104 
L 357.579196 170.661831 
L 357.579196 170.653594 
L 355.569006 170.589385 
L 355.569006 170.560679 
L 355.569006 170.541538 
L 353.558816 170.526099 
L 353.558816 170.449432 
L 353.558816 170.407862 
L 350.543531 170.334446 
L 350.543531 170.327034 
L 350.543531 170.307249 
L 347.528246 170.26625 
L 347.528246 170.227291 
L 347.528246 170.192189 
L 344.512962 170.121427 
L 344.512962 170.113834 
L 344.512962 169.95674 
L 340.492582 169.954453 
L 340.492582 169.892538 
L 340.492582 169.882596 
L 339.487487 169.894718 
L 339.487487 169.783875 
L 339.487487 169.610419 
L 338.482392 169.623469 
L 338.482392 169.512667 
L 338.482392 169.425528 
L 337.477297 169.439225 
L 337.477297 169.328147 
L 337.477297 168.947928 
L 336.472202 168.963227 
L 336.472202 168.852354 
L 336.472202 168.647969 
L 335.467107 168.664296 
L 335.467107 168.553371 
L 335.467107 168.494278 
L 333.456917 168.488125 
L 333.456917 168.416999 
L 333.456917 168.297185 
L 332.451822 168.314829 
L 332.451822 168.203866 
L 332.451822 168.139345 
L 330.441632 168.16002 
L 330.441632 168.064749 
L 330.441632 167.742959 
L 328.431442 167.737025 
L 328.431442 167.671372 
L 328.431442 167.246587 
L 327.426347 167.268006 
L 327.426347 167.157303 
L 327.426347 167.007389 
L 326.421252 167.029668 
L 326.421252 166.918986 
L 326.421252 164.969552 
L 325.416158 164.998503 
L 325.416158 164.888548 
L 325.416158 163.818663 
L 324.411063 163.851369 
L 324.411063 163.740541 
L 324.411063 161.667263 
L 323.405968 161.70677 
L 323.405968 161.597419 
L 323.405968 159.983694 
L 322.400873 160.028442 
L 322.400873 159.920128 
L 322.400873 159.207732 
L 321.395778 159.254956 
L 321.395778 159.148065 
L 321.395778 158.760993 
L 320.390683 158.809713 
L 320.390683 158.700825 
L 320.390683 158.187396 
L 318.380493 158.266345 
L 318.380493 158.182257 
L 318.380493 156.705334 
L 317.375398 156.760629 
L 317.375398 156.651846 
L 317.375398 156.387738 
L 316.370303 156.444155 
L 316.370303 156.337918 
L 316.370303 155.477317 
L 315.365208 155.536558 
L 315.365208 155.426181 
L 315.365208 155.249969 
L 314.360113 155.31008 
L 314.360113 155.204633 
L 314.360113 153.103913 
L 313.355018 153.170273 
L 313.355018 153.068677 
L 313.355018 151.857388 
L 312.349923 151.927407 
L 312.349923 151.824094 
L 312.349923 150.960575 
L 311.344828 151.033274 
L 311.344828 150.933333 
L 311.344828 147.723046 
L 310.339733 147.804444 
L 310.339733 147.706106 
L 310.339733 147.117132 
L 309.334638 147.200365 
L 309.334638 147.096948 
L 309.334638 143.764838 
L 308.329543 143.856531 
L 308.329543 143.746667 
L 308.329543 130.347068 
L 307.324448 130.466237 
L 307.324448 130.373448 
L 307.324448 128.732528 
L 306.319353 128.854826 
L 306.319353 128.754568 
L 306.319353 126.373428 
L 305.314258 126.499882 
L 305.314258 126.388327 
L 305.314258 120.044899 
L 304.309164 120.180377 
L 304.309164 120.108394 
L 304.309164 118.397437 
L 303.304069 118.535342 
L 303.304069 118.458547 
L 303.304069 114.678209 
L 302.298974 114.820448 
L 302.298974 114.732575 
L 302.298974 114.02 
L 299.283689 114.361463 
L 299.283689 114.271145 
L 298.278594 114.416024 
L 298.278594 114.325513 
L 298.278594 113.960678 
L 297.273499 114.10642 
L 297.273499 114.01459 
L 297.273499 106.795563 
L 296.268404 106.947083 
L 296.268404 105.770883 
L 295.263309 105.92354 
L 295.263309 101.999401 
L 294.258214 102.154146 
L 294.258214 101.066667 
L 293.253119 101.22229 
L 293.253119 101.084054 
L 292.248024 101.240307 
L 292.248024 100.962308 
L 291.242929 101.119229 
L 291.242929 99.841569 
L 290.237834 99.999371 
L 290.237834 97.92 
L 289.232739 98.078704 
L 289.232739 93.887521 
L 287.222549 94.206695 
L 287.222549 86.962623 
L 286.217454 87.120939 
L 286.217454 84.616618 
L 285.212359 84.774237 
L 285.212359 84.124878 
L 284.207265 84.282836 
L 284.207265 81.12 
L 282.197075 81.433486 
L 282.197075 80.725128 
L 281.19198 80.882468 
L 281.19198 79.67625 
L 280.186885 79.833316 
L 280.186885 76.541622 
L 279.18179 76.696152 
L 279.18179 74.823867 
L 278.176695 74.977064 
L 278.176695 72.4575 
L 277.1716 72.608319 
L 277.1716 72.32 
L 276.166505 72.471289 
L 276.166505 71.002558 
L 274.156315 71.303626 
L 274.156315 71.003871 
L 273.15122 71.155294 
L 273.15122 69.316407 
L 272.146125 69.465946 
L 272.146125 69.15253 
L 271.14103 69.302477 
L 271.14103 68.668936 
L 270.135935 68.81878 
L 270.135935 67.852308 
L 268.125745 68.151579 
L 268.125745 66.494843 
L 267.12065 66.643028 
L 267.12065 64.581093 
L 266.115555 64.726452 
L 266.115555 64.02 
L 265.11046 64.164951 
L 265.11046 63.085789 
L 262.095176 63.52 
L 262.095176 62.784214 
L 261.090081 62.929396 
L 261.090081 62.557037 
L 259.079891 62.848814 
L 259.079891 61.32756 
L 257.069701 61.616886 
L 257.069701 60.837073 
L 256.064606 60.981538 
L 256.064606 60.586667 
L 254.054416 60.87689 
L 254.054416 60.477447 
L 252.044226 60.77 
L 252.044226 57.453824 
L 251.039131 57.593801 
L 251.039131 57.164444 
L 250.034036 57.304387 
L 250.034036 56.433858 
L 248.023846 56.712453 
L 248.023846 55.824183 
L 247.018751 55.962748 
L 247.018751 54.140155 
L 246.013656 54.274864 
L 246.013656 53.339608 
L 245.008561 53.472756 
L 245.008561 50.070607 
L 242.998371 50.32 
L 242.998371 48.275187 
L 239.983087 48.637647 
L 239.983087 45.957768 
L 237.972897 46.186667 
L 237.972897 42.791111 
L 236.967802 42.895 
L 236.967802 42.309238 
L 234.957612 42.515475 
L 234.957612 41.92 
L 232.947422 42.125505 
L 232.947422 41.52 
L 231.942327 41.621852 
L 231.942327 41.008372 
L 230.937232 41.108785 
L 230.937232 39.859623 
L 229.932137 39.956019 
L 229.932137 38.029615 
L 228.927042 38.119034 
L 228.927042 37.461748 
L 227.921947 37.549268 
L 227.921947 36.882745 
L 226.916852 36.968276 
L 226.916852 34.92 
L 224.906662 35.075556 
L 224.906662 34.372792 
L 212.845523 35.336216 
L 212.845523 33.826011 
L 206.814953 34.31096 
L 206.814953 33.52 
L 201.789478 33.929357 
L 201.789478 33.108235 
L 199.779289 33.27 
L 199.779289 32.43018 
L 184.702864 33.704211 
L 183.697769 33.798146 
L 183.697769 32.866667 
L 176.662105 33.52 
L 176.662105 32.534085 
L 175.65701 32.626383 
L 175.65701 31.62 
L 174.651915 31.70705 
L 174.651915 28.578824 
L 170.631535 28.853333 
L 170.631535 26.627692 
L 163.59587 27.032195 
L 163.59587 25.831475 
L 162.590775 25.883636 
L 162.590775 24.653333 
L 146.509256 25.443077 
L 140.478686 25.805714 
L 140.478686 24.282887 
L 126.407357 25.086265 
L 115.351313 25.936667 
L 106.305458 26.853333 
L 99.269793 27.77 
L 93.239224 28.76 
L 88.213749 29.786667 
L 86.203559 30.264186 
L 86.203559 26.853333 
L 81.178084 27.844324 
L 77.157705 28.853333 
L 74.14242 29.786667 
L 71.127135 30.927407 
L 68.11185 32.353333 
L 66.10166 33.52 
L 64.09147 34.92 
L 62.08128 36.631111 
L 60.07109 38.77 
L 59.065995 40.053333 
L 58.0609 41.52 
L 57.055805 43.212308 
L 56.050711 45.186667 
L 55.045616 47.52 
L 55.045616 34.92 
L 54.040521 36.631111 
L 53.035426 38.77 
L 52.030331 41.52 
L 52.030331 19.52 
L 45.999761 19.52 
L 45.999761 19.52 
" clip-path="url(#p6f04c70dd9)" style="fill: none; stroke: #6d9bc3; stroke-width: 1.2; stroke-linecap: square"/>
   </g>
   <g id="patch_3">
    <path d="M 38.340938 173.52 
L 38.340938 7.2 
" style="fill: none; stroke: #bbbbbb; stroke-linejoin: miter; stroke-linecap: square"/>
   </g>
   <g id="patch_4">
    <path d="M 38.340938 173.52 
L 428.940938 173.52 
" style="fill: none; stroke: #bbbbbb; stroke-linejoin: miter; stroke-linecap: square"/>
   </g>
   <g id="legend_1">
    <g id="line2d_17">
     <path d="M 436.140938 17.86375 
L 444.140938 17.86375 
L 452.140938 17.86375 
" style="fill: none; stroke: #af4035; stroke-width: 1.2; stroke-linecap: square"/>
    </g>
    <g id="text_15">
     <!-- Logistic Regression (AP = 0.646) -->
     <g style="fill: #4b4b4b" transform="translate(458.540937 20.66375) scale(0.08 -0.08)">
      <defs>
       <path id="Ubuntu-4c" d="M 3219 538 
L 3219 0 
L 550 0 
L 550 4435 
L 1171 4435 
L 1171 538 
L 3219 538 
z
" transform="scale(0.015625)"/>
       <path id="Ubuntu-6f" d="M 3450 1664 
Q 3450 1267 3334 947 
Q 3219 627 3011 396 
Q 2803 166 2515 41 
Q 2227 -83 1888 -83 
Q 1549 -83 1261 41 
Q 973 166 765 396 
Q 557 627 441 947 
Q 326 1267 326 1664 
Q 326 2054 441 2377 
Q 557 2701 765 2931 
Q 973 3162 1261 3286 
Q 1549 3411 1888 3411 
Q 2227 3411 2515 3286 
Q 2803 3162 3011 2931 
Q 3219 2701 3334 2377 
Q 3450 2054 3450 1664 
z
M 2829 1664 
Q 2829 2227 2576 2556 
Q 2323 2886 1888 2886 
Q 1453 2886 1200 2556 
Q 947 2227 947 1664 
Q 947 1101 1200 771 
Q 1453 442 1888 442 
Q 2323 442 2576 771 
Q 2829 1101 2829 1664 
z
" transform="scale(0.015625)"/>
       <path id="Ubuntu-67" d="M 2598 333 
Q 2522 282 2301 202 
Q 2080 122 1786 122 
Q 1485 122 1219 218 
Q 954 314 755 515 
Q 557 717 441 1017 
Q 326 1318 326 1734 
Q 326 2099 435 2403 
Q 544 2707 752 2928 
Q 960 3149 1261 3273 
Q 1562 3398 1939 3398 
Q 2355 3398 2665 3337 
Q 2976 3277 3187 3226 
L 3187 256 
Q 3187 -512 2790 -857 
Q 2394 -1203 1587 -1203 
Q 1274 -1203 995 -1152 
Q 717 -1101 512 -1030 
L 621 -512 
Q 800 -582 1059 -636 
Q 1318 -691 1600 -691 
Q 2131 -691 2364 -480 
Q 2598 -269 2598 192 
L 2598 333 
z
M 2592 2803 
Q 2502 2829 2352 2851 
Q 2202 2874 1946 2874 
Q 1466 2874 1206 2560 
Q 947 2246 947 1728 
Q 947 1440 1020 1235 
Q 1094 1030 1219 896 
Q 1344 762 1507 698 
Q 1670 634 1843 634 
Q 2080 634 2278 701 
Q 2477 768 2592 858 
L 2592 2803 
z
" transform="scale(0.015625)"/>
       <path id="Ubuntu-69" d="M 1107 0 
L 512 0 
L 512 3328 
L 1107 3328 
L 1107 0 
z
M 806 3930 
Q 646 3930 534 4035 
Q 422 4141 422 4320 
Q 422 4499 534 4604 
Q 646 4710 806 4710 
Q 966 4710 1078 4604 
Q 1190 4499 1190 4320 
Q 1190 4141 1078 4035 
Q 966 3930 806 3930 
z
" transform="scale(0.015625)"/>
       <path id="Ubuntu-73" d="M 1286 429 
Q 1651 429 1827 525 
Q 2003 621 2003 832 
Q 2003 1050 1830 1178 
Q 1658 1306 1261 1466 
Q 1069 1542 893 1622 
Q 717 1702 589 1811 
Q 461 1920 384 2073 
Q 307 2227 307 2451 
Q 307 2893 633 3152 
Q 960 3411 1523 3411 
Q 1664 3411 1805 3395 
Q 1946 3379 2067 3356 
Q 2189 3334 2281 3308 
Q 2374 3283 2426 3264 
L 2317 2752 
Q 2221 2803 2016 2857 
Q 1811 2912 1523 2912 
Q 1274 2912 1088 2813 
Q 902 2714 902 2502 
Q 902 2394 944 2310 
Q 986 2227 1072 2160 
Q 1158 2093 1286 2035 
Q 1414 1978 1594 1914 
Q 1830 1824 2016 1737 
Q 2202 1651 2333 1536 
Q 2464 1421 2534 1257 
Q 2605 1094 2605 858 
Q 2605 397 2262 160 
Q 1920 -77 1286 -77 
Q 845 -77 595 -3 
Q 346 70 256 109 
L 365 621 
Q 467 582 691 505 
Q 915 429 1286 429 
z
" transform="scale(0.015625)"/>
       <path id="Ubuntu-74" d="M 1069 3328 
L 2330 3328 
L 2330 2829 
L 1069 2829 
L 1069 1293 
Q 1069 1043 1107 880 
Q 1146 717 1222 624 
Q 1299 531 1414 492 
Q 1530 454 1683 454 
Q 1952 454 2115 515 
Q 2278 576 2342 602 
L 2458 109 
Q 2368 64 2144 -3 
Q 1920 -70 1632 -70 
Q 1293 -70 1072 16 
Q 851 102 716 275 
Q 582 448 528 701 
Q 474 954 474 1286 
L 474 4256 
L 1069 4358 
L 1069 3328 
z
" transform="scale(0.015625)"/>
       <path id="Ubuntu-63" d="M 1958 -77 
Q 1555 -77 1251 51 
Q 947 179 739 409 
Q 531 640 428 957 
Q 326 1274 326 1658 
Q 326 2042 438 2362 
Q 550 2682 755 2915 
Q 960 3149 1257 3280 
Q 1555 3411 1920 3411 
Q 2144 3411 2368 3372 
Q 2592 3334 2797 3251 
L 2662 2746 
Q 2528 2810 2352 2848 
Q 2176 2886 1978 2886 
Q 1478 2886 1212 2572 
Q 947 2259 947 1658 
Q 947 1389 1008 1165 
Q 1069 941 1200 781 
Q 1331 621 1536 534 
Q 1741 448 2035 448 
Q 2272 448 2464 493 
Q 2656 538 2765 589 
L 2848 90 
Q 2797 58 2701 29 
Q 2605 0 2483 -22 
Q 2362 -45 2224 -61 
Q 2086 -77 1958 -77 
z
" transform="scale(0.015625)"/>
       <path id="Ubuntu-20" transform="scale(0.015625)"/>
       <path id="Ubuntu-52" d="M 2720 1856 
Q 2822 1728 2979 1520 
Q 3136 1312 3302 1059 
Q 3469 806 3632 531 
Q 3795 256 3910 0 
L 3232 0 
Q 3104 243 2953 492 
Q 2803 742 2649 969 
Q 2496 1197 2345 1395 
Q 2195 1594 2074 1741 
Q 1990 1734 1904 1734 
Q 1818 1734 1728 1734 
L 1171 1734 
L 1171 0 
L 550 0 
L 550 4371 
Q 813 4435 1136 4457 
Q 1459 4480 1728 4480 
Q 2662 4480 3152 4128 
Q 3642 3776 3642 3078 
Q 3642 2637 3408 2323 
Q 3174 2010 2720 1856 
z
M 1779 3936 
Q 1382 3936 1171 3917 
L 1171 2246 
L 1613 2246 
Q 1933 2246 2189 2278 
Q 2445 2310 2621 2400 
Q 2797 2490 2893 2653 
Q 2989 2816 2989 3085 
Q 2989 3334 2893 3500 
Q 2797 3667 2633 3763 
Q 2470 3859 2249 3897 
Q 2029 3936 1779 3936 
z
" transform="scale(0.015625)"/>
       <path id="Ubuntu-65" d="M 326 1658 
Q 326 2099 454 2428 
Q 582 2758 793 2976 
Q 1005 3194 1280 3302 
Q 1555 3411 1843 3411 
Q 2515 3411 2873 2992 
Q 3232 2573 3232 1715 
Q 3232 1677 3232 1616 
Q 3232 1555 3226 1504 
L 947 1504 
Q 986 986 1248 717 
Q 1510 448 2067 448 
Q 2381 448 2595 502 
Q 2810 557 2918 608 
L 3002 109 
Q 2893 51 2621 -13 
Q 2349 -77 2003 -77 
Q 1568 -77 1251 54 
Q 934 186 729 416 
Q 525 646 425 963 
Q 326 1280 326 1658 
z
M 2611 1984 
Q 2618 2387 2410 2646 
Q 2202 2906 1837 2906 
Q 1632 2906 1475 2826 
Q 1318 2746 1209 2618 
Q 1101 2490 1040 2323 
Q 979 2157 960 1984 
L 2611 1984 
z
" transform="scale(0.015625)"/>
       <path id="Ubuntu-72" d="M 1741 3398 
Q 1818 3398 1917 3388 
Q 2016 3379 2112 3363 
Q 2208 3347 2288 3331 
Q 2368 3315 2406 3302 
L 2304 2784 
Q 2234 2810 2070 2845 
Q 1907 2880 1651 2880 
Q 1485 2880 1321 2845 
Q 1158 2810 1107 2797 
L 1107 0 
L 512 0 
L 512 3187 
Q 723 3264 1036 3331 
Q 1350 3398 1741 3398 
z
" transform="scale(0.015625)"/>
       <path id="Ubuntu-6e" d="M 512 3232 
Q 717 3283 1056 3340 
Q 1395 3398 1837 3398 
Q 2234 3398 2496 3286 
Q 2758 3174 2915 2972 
Q 3072 2771 3136 2489 
Q 3200 2208 3200 1869 
L 3200 0 
L 2605 0 
L 2605 1741 
Q 2605 2048 2563 2265 
Q 2522 2483 2426 2617 
Q 2330 2752 2170 2813 
Q 2010 2874 1773 2874 
Q 1677 2874 1574 2867 
Q 1472 2861 1379 2851 
Q 1286 2842 1212 2829 
Q 1139 2816 1107 2810 
L 1107 0 
L 512 0 
L 512 3232 
z
" transform="scale(0.015625)"/>
       <path id="Ubuntu-28" d="M 1094 1914 
Q 1094 1094 1331 396 
Q 1568 -301 2029 -896 
L 1606 -1184 
Q 1107 -576 803 214 
Q 499 1005 499 1914 
Q 499 2822 803 3612 
Q 1107 4403 1606 5011 
L 2029 4723 
Q 1568 4128 1331 3430 
Q 1094 2733 1094 1914 
z
" transform="scale(0.015625)"/>
       <path id="Ubuntu-41" d="M 3514 0 
Q 3405 288 3309 566 
Q 3213 845 3110 1133 
L 1101 1133 
L 698 0 
L 51 0 
Q 307 704 531 1302 
Q 755 1901 969 2438 
Q 1184 2976 1395 3465 
Q 1606 3955 1837 4435 
L 2406 4435 
Q 2637 3955 2848 3465 
Q 3059 2976 3273 2438 
Q 3488 1901 3712 1302 
Q 3936 704 4192 0 
L 3514 0 
z
M 2931 1645 
Q 2726 2202 2524 2723 
Q 2323 3245 2106 3725 
Q 1882 3245 1680 2723 
Q 1478 2202 1280 1645 
L 2931 1645 
z
" transform="scale(0.015625)"/>
       <path id="Ubuntu-50" d="M 1728 4480 
Q 2662 4480 3164 4125 
Q 3667 3770 3667 3066 
Q 3667 2682 3529 2410 
Q 3392 2138 3133 1968 
Q 2874 1798 2502 1721 
Q 2131 1645 1664 1645 
L 1171 1645 
L 1171 0 
L 550 0 
L 550 4371 
Q 813 4435 1136 4457 
Q 1459 4480 1728 4480 
z
M 1779 3936 
Q 1382 3936 1171 3917 
L 1171 2176 
L 1638 2176 
Q 1958 2176 2214 2217 
Q 2470 2259 2646 2358 
Q 2822 2458 2918 2630 
Q 3014 2803 3014 3072 
Q 3014 3328 2915 3494 
Q 2816 3661 2646 3760 
Q 2477 3859 2253 3897 
Q 2029 3936 1779 3936 
z
" transform="scale(0.015625)"/>
       <path id="Ubuntu-3d" d="M 339 1485 
L 3270 1485 
L 3270 979 
L 339 979 
L 339 1485 
z
M 339 2848 
L 3270 2848 
L 3270 2342 
L 339 2342 
L 339 2848 
z
" transform="scale(0.015625)"/>
       <path id="Ubuntu-29" d="M 979 1914 
Q 979 2733 742 3430 
Q 506 4128 45 4723 
L 467 5011 
Q 966 4403 1270 3612 
Q 1574 2822 1574 1914 
Q 1574 1005 1270 214 
Q 966 -576 467 -1184 
L 45 -896 
Q 506 -301 742 396 
Q 979 1094 979 1914 
z
" transform="scale(0.015625)"/>
      </defs>
      <use xlink:href="#Ubuntu-4c"/>
      <use xlink:href="#Ubuntu-6f" x="50.649994"/>
      <use xlink:href="#Ubuntu-67" x="109.649979"/>
      <use xlink:href="#Ubuntu-69" x="167.449966"/>
      <use xlink:href="#Ubuntu-73" x="192.749954"/>
      <use xlink:href="#Ubuntu-74" x="237.349945"/>
      <use xlink:href="#Ubuntu-69" x="277.549942"/>
      <use xlink:href="#Ubuntu-63" x="302.84993"/>
      <use xlink:href="#Ubuntu-20" x="349.349915"/>
      <use xlink:href="#Ubuntu-52" x="372.449905"/>
      <use xlink:href="#Ubuntu-65" x="435.349899"/>
      <use xlink:href="#Ubuntu-67" x="491.249893"/>
      <use xlink:href="#Ubuntu-72" x="549.049881"/>
      <use xlink:href="#Ubuntu-65" x="587.649872"/>
      <use xlink:href="#Ubuntu-73" x="643.549866"/>
      <use xlink:href="#Ubuntu-73" x="688.149857"/>
      <use xlink:href="#Ubuntu-69" x="732.749847"/>
      <use xlink:href="#Ubuntu-6f" x="758.049835"/>
      <use xlink:href="#Ubuntu-6e" x="817.04982"/>
      <use xlink:href="#Ubuntu-20" x="874.449814"/>
      <use xlink:href="#Ubuntu-28" x="897.549805"/>
      <use xlink:href="#Ubuntu-41" x="929.949799"/>
      <use xlink:href="#Ubuntu-50" x="996.249786"/>
      <use xlink:href="#Ubuntu-20" x="1057.049774"/>
      <use xlink:href="#Ubuntu-3d" x="1080.149765"/>
      <use xlink:href="#Ubuntu-20" x="1136.549759"/>
      <use xlink:href="#Ubuntu-30" x="1159.64975"/>
      <use xlink:href="#Ubuntu-2e" x="1216.049744"/>
      <use xlink:href="#Ubuntu-36" x="1240.649734"/>
      <use xlink:href="#Ubuntu-34" x="1297.049728"/>
      <use xlink:href="#Ubuntu-36" x="1353.449722"/>
      <use xlink:href="#Ubuntu-29" x="1409.849716"/>
     </g>
    </g>
    <g id="PathCollection_5">
     <path d="M 444.140938 33.810534 
C 445.078572 33.810534 445.97793 33.438008 446.640938 32.775 
C 447.303945 32.111992 447.676471 31.212635 447.676471 30.275 
C 447.676471 29.337365 447.303945 28.438008 446.640938 27.775 
C 445.97793 27.111992 445.078572 26.739466 444.140938 26.739466 
C 443.203303 26.739466 442.303945 27.111992 441.640938 27.775 
C 440.97793 28.438008 440.605404 29.337365 440.605404 30.275 
C 440.605404 31.212635 440.97793 32.111992 441.640938 32.775 
C 442.303945 33.438008 443.203303 33.810534 444.140938 33.810534 
L 444.140938 33.810534 
z
" style="fill: none; stroke: #505050; stroke-width: 1.5"/>
    </g>
    <g id="text_16">
     <!-- Optimal Threshold -->
     <g style="fill: #4b4b4b" transform="translate(458.540937 32.375) scale(0.08 -0.08)">
      <defs>
       <path id="Ubuntu-4f" d="M 371 2221 
Q 371 2790 540 3225 
Q 710 3661 1001 3952 
Q 1293 4243 1680 4390 
Q 2067 4538 2502 4538 
Q 2931 4538 3312 4390 
Q 3693 4243 3981 3952 
Q 4269 3661 4438 3225 
Q 4608 2790 4608 2221 
Q 4608 1651 4438 1216 
Q 4269 781 3981 489 
Q 3693 198 3312 51 
Q 2931 -96 2502 -96 
Q 2067 -96 1680 51 
Q 1293 198 1001 489 
Q 710 781 540 1216 
Q 371 1651 371 2221 
z
M 1024 2221 
Q 1024 1818 1126 1488 
Q 1229 1158 1417 928 
Q 1606 698 1878 573 
Q 2150 448 2490 448 
Q 2829 448 3097 573 
Q 3366 698 3555 928 
Q 3744 1158 3846 1488 
Q 3949 1818 3949 2221 
Q 3949 2624 3846 2953 
Q 3744 3283 3555 3513 
Q 3366 3744 3097 3869 
Q 2829 3994 2490 3994 
Q 2150 3994 1878 3869 
Q 1606 3744 1417 3513 
Q 1229 3283 1126 2953 
Q 1024 2624 1024 2221 
z
" transform="scale(0.015625)"/>
       <path id="Ubuntu-70" d="M 2822 1658 
Q 2822 2240 2534 2553 
Q 2246 2867 1766 2867 
Q 1498 2867 1347 2848 
Q 1197 2829 1107 2803 
L 1107 704 
Q 1216 614 1421 531 
Q 1626 448 1869 448 
Q 2125 448 2307 541 
Q 2490 634 2605 797 
Q 2720 960 2771 1181 
Q 2822 1402 2822 1658 
z
M 3443 1658 
Q 3443 1280 3344 960 
Q 3245 640 3053 409 
Q 2861 179 2582 51 
Q 2304 -77 1946 -77 
Q 1658 -77 1437 0 
Q 1216 77 1107 147 
L 1107 -1184 
L 512 -1184 
L 512 3226 
Q 723 3277 1040 3337 
Q 1357 3398 1773 3398 
Q 2157 3398 2464 3276 
Q 2771 3155 2988 2931 
Q 3206 2707 3324 2384 
Q 3443 2061 3443 1658 
z
" transform="scale(0.015625)"/>
       <path id="Ubuntu-6d" d="M 512 3232 
Q 717 3283 1053 3340 
Q 1389 3398 1830 3398 
Q 2150 3398 2368 3312 
Q 2586 3226 2733 3059 
Q 2778 3091 2874 3148 
Q 2970 3206 3110 3260 
Q 3251 3315 3424 3356 
Q 3597 3398 3795 3398 
Q 4179 3398 4422 3286 
Q 4666 3174 4803 2969 
Q 4941 2765 4989 2483 
Q 5037 2202 5037 1869 
L 5037 0 
L 4442 0 
L 4442 1741 
Q 4442 2035 4413 2246 
Q 4384 2458 4304 2598 
Q 4224 2739 4086 2806 
Q 3949 2874 3731 2874 
Q 3430 2874 3235 2794 
Q 3040 2714 2970 2650 
Q 3021 2483 3046 2284 
Q 3072 2086 3072 1869 
L 3072 0 
L 2477 0 
L 2477 1741 
Q 2477 2035 2445 2246 
Q 2413 2458 2333 2598 
Q 2253 2739 2115 2806 
Q 1978 2874 1766 2874 
Q 1677 2874 1574 2867 
Q 1472 2861 1379 2851 
Q 1286 2842 1209 2829 
Q 1133 2816 1107 2810 
L 1107 0 
L 512 0 
L 512 3232 
z
" transform="scale(0.015625)"/>
       <path id="Ubuntu-61" d="M 1638 429 
Q 1850 429 2013 438 
Q 2176 448 2285 474 
L 2285 1466 
Q 2221 1498 2077 1520 
Q 1933 1542 1728 1542 
Q 1594 1542 1443 1523 
Q 1293 1504 1168 1443 
Q 1043 1382 960 1276 
Q 877 1171 877 998 
Q 877 678 1081 553 
Q 1286 429 1638 429 
z
M 1587 3411 
Q 1946 3411 2192 3318 
Q 2438 3226 2588 3056 
Q 2739 2886 2803 2652 
Q 2867 2419 2867 2138 
L 2867 58 
Q 2790 45 2652 22 
Q 2515 0 2342 -19 
Q 2170 -38 1968 -54 
Q 1766 -70 1568 -70 
Q 1286 -70 1049 -12 
Q 813 45 640 169 
Q 467 294 371 499 
Q 275 704 275 992 
Q 275 1267 387 1465 
Q 499 1664 691 1785 
Q 883 1907 1139 1964 
Q 1395 2022 1677 2022 
Q 1766 2022 1862 2012 
Q 1958 2003 2044 1987 
Q 2131 1971 2195 1958 
Q 2259 1946 2285 1939 
L 2285 2106 
Q 2285 2253 2253 2397 
Q 2221 2541 2137 2653 
Q 2054 2765 1910 2832 
Q 1766 2899 1536 2899 
Q 1242 2899 1021 2857 
Q 800 2816 691 2771 
L 621 3264 
Q 736 3315 1005 3363 
Q 1274 3411 1587 3411 
z
" transform="scale(0.015625)"/>
       <path id="Ubuntu-6c" d="M 1510 -64 
Q 960 -51 729 173 
Q 499 397 499 870 
L 499 4864 
L 1094 4966 
L 1094 966 
Q 1094 819 1120 723 
Q 1146 627 1203 569 
Q 1261 512 1357 483 
Q 1453 454 1594 435 
L 1510 -64 
z
" transform="scale(0.015625)"/>
       <path id="Ubuntu-54" d="M 3514 4435 
L 3514 3898 
L 2118 3898 
L 2118 0 
L 1498 0 
L 1498 3898 
L 102 3898 
L 102 4435 
L 3514 4435 
z
" transform="scale(0.015625)"/>
       <path id="Ubuntu-68" d="M 512 0 
L 512 4864 
L 1107 4966 
L 1107 3264 
Q 1274 3328 1462 3363 
Q 1651 3398 1837 3398 
Q 2234 3398 2496 3286 
Q 2758 3174 2915 2972 
Q 3072 2771 3136 2489 
Q 3200 2208 3200 1869 
L 3200 0 
L 2605 0 
L 2605 1741 
Q 2605 2048 2563 2265 
Q 2522 2483 2426 2617 
Q 2330 2752 2170 2813 
Q 2010 2874 1773 2874 
Q 1677 2874 1574 2861 
Q 1472 2848 1379 2832 
Q 1286 2816 1212 2797 
Q 1139 2778 1107 2765 
L 1107 0 
L 512 0 
z
" transform="scale(0.015625)"/>
       <path id="Ubuntu-64" d="M 2662 2624 
Q 2554 2714 2349 2797 
Q 2144 2880 1901 2880 
Q 1645 2880 1462 2787 
Q 1280 2694 1165 2531 
Q 1050 2368 998 2144 
Q 947 1920 947 1664 
Q 947 1082 1235 765 
Q 1523 448 2003 448 
Q 2246 448 2409 470 
Q 2573 493 2662 518 
L 2662 2624 
z
M 2662 4864 
L 3258 4966 
L 3258 96 
Q 3053 38 2733 -19 
Q 2413 -77 1997 -77 
Q 1613 -77 1305 44 
Q 998 166 780 390 
Q 563 614 444 937 
Q 326 1261 326 1664 
Q 326 2048 425 2368 
Q 525 2688 717 2918 
Q 909 3149 1187 3277 
Q 1466 3405 1824 3405 
Q 2112 3405 2333 3328 
Q 2554 3251 2662 3181 
L 2662 4864 
z
" transform="scale(0.015625)"/>
      </defs>
      <use xlink:href="#Ubuntu-4f"/>
      <use xlink:href="#Ubuntu-70" x="77.799988"/>
      <use xlink:href="#Ubuntu-74" x="136.699982"/>
      <use xlink:href="#Ubuntu-69" x="176.899979"/>
      <use xlink:href="#Ubuntu-6d" x="202.199966"/>
      <use xlink:href="#Ubuntu-61" x="288.299957"/>
      <use xlink:href="#Ubuntu-6c" x="340.499954"/>
      <use xlink:href="#Ubuntu-20" x="367.799942"/>
      <use xlink:href="#Ubuntu-54" x="390.899933"/>
      <use xlink:href="#Ubuntu-68" x="447.399918"/>
      <use xlink:href="#Ubuntu-72" x="504.499908"/>
      <use xlink:href="#Ubuntu-65" x="543.099899"/>
      <use xlink:href="#Ubuntu-73" x="598.999893"/>
      <use xlink:href="#Ubuntu-68" x="643.599884"/>
      <use xlink:href="#Ubuntu-6f" x="700.699875"/>
      <use xlink:href="#Ubuntu-6c" x="759.69986"/>
      <use xlink:href="#Ubuntu-64" x="786.999847"/>
     </g>
    </g>
    <g id="line2d_18">
     <path d="M 436.140938 41.31875 
L 444.140938 41.31875 
L 452.140938 41.31875 
" style="fill: none; stroke: #00937f; stroke-width: 1.2; stroke-linecap: square"/>
    </g>
    <g id="text_17">
     <!-- Random Forest (AP = 0.669) -->
     <g style="fill: #4b4b4b" transform="translate(458.540937 44.11875) scale(0.08 -0.08)">
      <defs>
       <path id="Ubuntu-46" d="M 550 0 
L 550 4435 
L 3226 4435 
L 3226 3904 
L 1171 3904 
L 1171 2566 
L 2995 2566 
L 2995 2042 
L 1171 2042 
L 1171 0 
L 550 0 
z
" transform="scale(0.015625)"/>
       <path id="Ubuntu-39" d="M 3206 2662 
Q 3206 1344 2550 669 
Q 1894 -6 602 -13 
L 582 486 
Q 986 486 1309 563 
Q 1632 640 1875 809 
Q 2118 979 2281 1248 
Q 2445 1517 2522 1907 
Q 2355 1830 2144 1782 
Q 1933 1734 1709 1734 
Q 1331 1734 1068 1846 
Q 806 1958 640 2147 
Q 474 2336 400 2582 
Q 326 2829 326 3098 
Q 326 3334 409 3590 
Q 493 3846 662 4057 
Q 832 4269 1094 4403 
Q 1357 4538 1715 4538 
Q 2080 4538 2358 4410 
Q 2637 4282 2825 4038 
Q 3014 3795 3110 3446 
Q 3206 3098 3206 2662 
z
M 1773 2221 
Q 1997 2221 2195 2262 
Q 2394 2304 2579 2387 
Q 2586 2458 2586 2525 
Q 2586 2592 2586 2662 
Q 2586 2938 2547 3190 
Q 2509 3443 2409 3632 
Q 2310 3821 2144 3933 
Q 1978 4045 1722 4045 
Q 1510 4045 1363 3955 
Q 1216 3866 1120 3728 
Q 1024 3590 982 3427 
Q 941 3264 941 3110 
Q 941 2675 1149 2448 
Q 1357 2221 1773 2221 
z
" transform="scale(0.015625)"/>
      </defs>
      <use xlink:href="#Ubuntu-52"/>
      <use xlink:href="#Ubuntu-61" x="62.899994"/>
      <use xlink:href="#Ubuntu-6e" x="115.099991"/>
      <use xlink:href="#Ubuntu-64" x="172.499985"/>
      <use xlink:href="#Ubuntu-6f" x="231.399979"/>
      <use xlink:href="#Ubuntu-6d" x="290.399963"/>
      <use xlink:href="#Ubuntu-20" x="376.499954"/>
      <use xlink:href="#Ubuntu-46" x="399.599945"/>
      <use xlink:href="#Ubuntu-6f" x="451.924942"/>
      <use xlink:href="#Ubuntu-72" x="510.924927"/>
      <use xlink:href="#Ubuntu-65" x="549.524918"/>
      <use xlink:href="#Ubuntu-73" x="605.424911"/>
      <use xlink:href="#Ubuntu-74" x="650.024902"/>
      <use xlink:href="#Ubuntu-20" x="690.224899"/>
      <use xlink:href="#Ubuntu-28" x="713.32489"/>
      <use xlink:href="#Ubuntu-41" x="745.724884"/>
      <use xlink:href="#Ubuntu-50" x="812.024872"/>
      <use xlink:href="#Ubuntu-20" x="872.82486"/>
      <use xlink:href="#Ubuntu-3d" x="895.92485"/>
      <use xlink:href="#Ubuntu-20" x="952.324844"/>
      <use xlink:href="#Ubuntu-30" x="975.424835"/>
      <use xlink:href="#Ubuntu-2e" x="1031.824829"/>
      <use xlink:href="#Ubuntu-36" x="1056.42482"/>
      <use xlink:href="#Ubuntu-36" x="1112.824814"/>
      <use xlink:href="#Ubuntu-39" x="1169.224808"/>
      <use xlink:href="#Ubuntu-29" x="1225.624802"/>
     </g>
    </g>
    <g id="PathCollection_6">
     <path d="M 444.140938 57.241784 
L 447.676471 50.170716 
L 440.605404 50.170716 
L 444.140938 57.241784 
z
" style="fill: none; stroke: #505050; stroke-width: 1.5"/>
    </g>
    <g id="text_18">
     <!-- Optimal Threshold -->
     <g style="fill: #4b4b4b" transform="translate(458.540937 55.80625) scale(0.08 -0.08)">
      <use xlink:href="#Ubuntu-4f"/>
      <use xlink:href="#Ubuntu-70" x="77.799988"/>
      <use xlink:href="#Ubuntu-74" x="136.699982"/>
      <use xlink:href="#Ubuntu-69" x="176.899979"/>
      <use xlink:href="#Ubuntu-6d" x="202.199966"/>
      <use xlink:href="#Ubuntu-61" x="288.299957"/>
      <use xlink:href="#Ubuntu-6c" x="340.499954"/>
      <use xlink:href="#Ubuntu-20" x="367.799942"/>
      <use xlink:href="#Ubuntu-54" x="390.899933"/>
      <use xlink:href="#Ubuntu-68" x="447.399918"/>
      <use xlink:href="#Ubuntu-72" x="504.499908"/>
      <use xlink:href="#Ubuntu-65" x="543.099899"/>
      <use xlink:href="#Ubuntu-73" x="598.999893"/>
      <use xlink:href="#Ubuntu-68" x="643.599884"/>
      <use xlink:href="#Ubuntu-6f" x="700.699875"/>
      <use xlink:href="#Ubuntu-6c" x="759.69986"/>
      <use xlink:href="#Ubuntu-64" x="786.999847"/>
     </g>
    </g>
    <g id="line2d_19">
     <path d="M 436.140938 64.75 
L 444.140938 64.75 
L 452.140938 64.75 
" style="fill: none; stroke: #3d6384; stroke-width: 1.2; stroke-linecap: square"/>
    </g>
    <g id="text_19">
     <!-- XGBoost (AP = 0.679) -->
     <g style="fill: #4b4b4b" transform="translate(458.540937 67.55) scale(0.08 -0.08)">
      <defs>
       <path id="Ubuntu-58" d="M 3213 0 
Q 3117 192 2982 425 
Q 2848 659 2688 912 
Q 2528 1165 2355 1417 
Q 2182 1670 2022 1894 
Q 1862 1670 1689 1417 
Q 1517 1165 1360 912 
Q 1203 659 1065 425 
Q 928 192 832 0 
L 147 0 
Q 435 563 816 1145 
Q 1197 1728 1626 2342 
L 205 4435 
L 922 4435 
L 2016 2784 
L 3098 4435 
L 3808 4435 
L 2413 2368 
Q 2848 1747 3232 1158 
Q 3616 570 3910 0 
L 3213 0 
z
" transform="scale(0.015625)"/>
       <path id="Ubuntu-47" d="M 3258 2182 
L 3878 2182 
L 3878 109 
Q 3802 83 3658 51 
Q 3514 19 3325 -13 
Q 3136 -45 2912 -67 
Q 2688 -90 2458 -90 
Q 1990 -90 1606 64 
Q 1222 218 947 512 
Q 672 806 521 1235 
Q 371 1664 371 2221 
Q 371 2778 540 3210 
Q 710 3642 998 3936 
Q 1286 4230 1673 4384 
Q 2061 4538 2502 4538 
Q 2803 4538 3036 4499 
Q 3270 4461 3436 4409 
Q 3603 4358 3708 4307 
Q 3814 4256 3853 4230 
L 3654 3712 
Q 3469 3834 3161 3914 
Q 2854 3994 2534 3994 
Q 2195 3994 1916 3872 
Q 1638 3750 1443 3520 
Q 1248 3290 1139 2960 
Q 1030 2630 1030 2221 
Q 1030 1824 1123 1497 
Q 1216 1171 1405 937 
Q 1594 704 1872 576 
Q 2150 448 2528 448 
Q 2797 448 2985 477 
Q 3174 506 3258 531 
L 3258 2182 
z
" transform="scale(0.015625)"/>
       <path id="Ubuntu-42" d="M 1747 -38 
Q 1613 -38 1456 -32 
Q 1299 -26 1142 -13 
Q 986 0 832 19 
Q 678 38 550 70 
L 550 4371 
Q 678 4403 832 4422 
Q 986 4442 1142 4454 
Q 1299 4467 1452 4473 
Q 1606 4480 1741 4480 
Q 2125 4480 2461 4422 
Q 2797 4365 3043 4227 
Q 3290 4090 3430 3866 
Q 3571 3642 3571 3315 
Q 3571 2950 3398 2716 
Q 3226 2483 2938 2368 
Q 3328 2253 3558 2003 
Q 3789 1754 3789 1299 
Q 3789 634 3299 298 
Q 2810 -38 1747 -38 
z
M 1165 2067 
L 1165 506 
Q 1235 499 1331 493 
Q 1414 486 1526 483 
Q 1638 480 1786 480 
Q 2061 480 2307 515 
Q 2554 550 2739 640 
Q 2925 730 3037 890 
Q 3149 1050 3149 1293 
Q 3149 1510 3065 1660 
Q 2982 1811 2825 1900 
Q 2669 1990 2451 2028 
Q 2234 2067 1965 2067 
L 1165 2067 
z
M 1165 2566 
L 1818 2566 
Q 2048 2566 2253 2598 
Q 2458 2630 2608 2713 
Q 2758 2797 2844 2931 
Q 2931 3066 2931 3270 
Q 2931 3462 2841 3593 
Q 2752 3725 2595 3805 
Q 2438 3885 2227 3923 
Q 2016 3962 1779 3962 
Q 1542 3962 1408 3955 
Q 1274 3949 1165 3936 
L 1165 2566 
z
" transform="scale(0.015625)"/>
       <path id="Ubuntu-37" d="M 1043 0 
Q 1082 512 1226 1078 
Q 1370 1645 1581 2179 
Q 1792 2714 2045 3171 
Q 2298 3629 2541 3917 
L 384 3917 
L 384 4435 
L 3206 4435 
L 3206 3942 
Q 2995 3699 2739 3273 
Q 2483 2848 2256 2320 
Q 2029 1792 1865 1193 
Q 1702 595 1664 0 
L 1043 0 
z
" transform="scale(0.015625)"/>
      </defs>
      <use xlink:href="#Ubuntu-58"/>
      <use xlink:href="#Ubuntu-47" x="60.724991"/>
      <use xlink:href="#Ubuntu-42" x="127.924988"/>
      <use xlink:href="#Ubuntu-6f" x="192.224976"/>
      <use xlink:href="#Ubuntu-6f" x="251.22496"/>
      <use xlink:href="#Ubuntu-73" x="310.224945"/>
      <use xlink:href="#Ubuntu-74" x="354.824936"/>
      <use xlink:href="#Ubuntu-20" x="395.024933"/>
      <use xlink:href="#Ubuntu-28" x="418.124924"/>
      <use xlink:href="#Ubuntu-41" x="450.524918"/>
      <use xlink:href="#Ubuntu-50" x="516.824905"/>
      <use xlink:href="#Ubuntu-20" x="577.624893"/>
      <use xlink:href="#Ubuntu-3d" x="600.724884"/>
      <use xlink:href="#Ubuntu-20" x="657.124878"/>
      <use xlink:href="#Ubuntu-30" x="680.224869"/>
      <use xlink:href="#Ubuntu-2e" x="736.624863"/>
      <use xlink:href="#Ubuntu-36" x="761.224854"/>
      <use xlink:href="#Ubuntu-37" x="817.624847"/>
      <use xlink:href="#Ubuntu-39" x="874.024841"/>
      <use xlink:href="#Ubuntu-29" x="930.424835"/>
     </g>
    </g>
    <g id="PathCollection_7">
     <path d="M 440.605404 80.673034 
L 447.676471 80.673034 
L 447.676471 73.601966 
L 440.605404 73.601966 
L 440.605404 80.673034 
z
" style="fill: none; stroke: #505050; stroke-width: 1.5"/>
    </g>
    <g id="text_20">
     <!-- Optimal Threshold -->
     <g style="fill: #4b4b4b" transform="translate(458.540937 79.2375) scale(0.08 -0.08)">
      <use xlink:href="#Ubuntu-4f"/>
      <use xlink:href="#Ubuntu-70" x="77.799988"/>
      <use xlink:href="#Ubuntu-74" x="136.699982"/>
      <use xlink:href="#Ubuntu-69" x="176.899979"/>
      <use xlink:href="#Ubuntu-6d" x="202.199966"/>
      <use xlink:href="#Ubuntu-61" x="288.299957"/>
      <use xlink:href="#Ubuntu-6c" x="340.499954"/>
      <use xlink:href="#Ubuntu-20" x="367.799942"/>
      <use xlink:href="#Ubuntu-54" x="390.899933"/>
      <use xlink:href="#Ubuntu-68" x="447.399918"/>
      <use xlink:href="#Ubuntu-72" x="504.499908"/>
      <use xlink:href="#Ubuntu-65" x="543.099899"/>
      <use xlink:href="#Ubuntu-73" x="598.999893"/>
      <use xlink:href="#Ubuntu-68" x="643.599884"/>
      <use xlink:href="#Ubuntu-6f" x="700.699875"/>
      <use xlink:href="#Ubuntu-6c" x="759.69986"/>
      <use xlink:href="#Ubuntu-64" x="786.999847"/>
     </g>
    </g>
    <g id="line2d_20">
     <path d="M 436.140938 88.18125 
L 444.140938 88.18125 
L 452.140938 88.18125 
" style="fill: none; stroke: #6d9bc3; stroke-width: 1.2; stroke-linecap: square"/>
    </g>
    <g id="text_21">
     <!-- LightGBM (AP = 0.590) -->
     <g style="fill: #4b4b4b" transform="translate(458.540937 90.98125) scale(0.08 -0.08)">
      <defs>
       <path id="Ubuntu-4d" d="M 2541 614 
Q 2477 768 2371 1005 
Q 2266 1242 2144 1517 
Q 2022 1792 1884 2083 
Q 1747 2374 1625 2633 
Q 1504 2893 1398 3097 
Q 1293 3302 1229 3411 
Q 1158 2656 1113 1776 
Q 1069 896 1037 0 
L 429 0 
Q 454 576 486 1161 
Q 518 1747 560 2313 
Q 602 2880 650 3417 
Q 698 3955 755 4435 
L 1299 4435 
Q 1472 4154 1670 3770 
Q 1869 3386 2067 2966 
Q 2266 2547 2451 2128 
Q 2637 1709 2790 1363 
Q 2944 1709 3129 2128 
Q 3315 2547 3513 2966 
Q 3712 3386 3910 3770 
Q 4109 4154 4282 4435 
L 4826 4435 
Q 5043 2291 5152 0 
L 4544 0 
Q 4512 896 4467 1776 
Q 4422 2656 4352 3411 
Q 4288 3302 4182 3097 
Q 4077 2893 3955 2633 
Q 3834 2374 3696 2083 
Q 3558 1792 3436 1517 
Q 3315 1242 3209 1005 
Q 3104 768 3040 614 
L 2541 614 
z
" transform="scale(0.015625)"/>
       <path id="Ubuntu-35" d="M 1274 2726 
Q 2240 2688 2691 2304 
Q 3142 1920 3142 1261 
Q 3142 966 3043 716 
Q 2944 467 2742 288 
Q 2541 109 2233 6 
Q 1926 -96 1504 -96 
Q 1338 -96 1165 -70 
Q 992 -45 845 -6 
Q 698 32 582 70 
Q 467 109 416 134 
L 531 653 
Q 640 602 886 518 
Q 1133 435 1491 435 
Q 1779 435 1974 499 
Q 2170 563 2291 672 
Q 2413 781 2467 925 
Q 2522 1069 2522 1229 
Q 2522 1472 2438 1661 
Q 2355 1850 2144 1978 
Q 1933 2106 1581 2173 
Q 1229 2240 691 2240 
Q 730 2554 752 2829 
Q 774 3104 793 3366 
Q 813 3629 825 3888 
Q 838 4147 851 4435 
L 2989 4435 
L 2989 3930 
L 1370 3930 
Q 1363 3834 1350 3670 
Q 1338 3507 1325 3331 
Q 1312 3155 1299 2988 
Q 1286 2822 1274 2726 
z
" transform="scale(0.015625)"/>
      </defs>
      <use xlink:href="#Ubuntu-4c"/>
      <use xlink:href="#Ubuntu-69" x="51.899994"/>
      <use xlink:href="#Ubuntu-67" x="77.199982"/>
      <use xlink:href="#Ubuntu-68" x="134.999969"/>
      <use xlink:href="#Ubuntu-74" x="192.09996"/>
      <use xlink:href="#Ubuntu-47" x="232.299957"/>
      <use xlink:href="#Ubuntu-42" x="299.499954"/>
      <use xlink:href="#Ubuntu-4d" x="363.799942"/>
      <use xlink:href="#Ubuntu-20" x="450.899933"/>
      <use xlink:href="#Ubuntu-28" x="473.999924"/>
      <use xlink:href="#Ubuntu-41" x="506.399918"/>
      <use xlink:href="#Ubuntu-50" x="572.699905"/>
      <use xlink:href="#Ubuntu-20" x="633.499893"/>
      <use xlink:href="#Ubuntu-3d" x="656.599884"/>
      <use xlink:href="#Ubuntu-20" x="712.999878"/>
      <use xlink:href="#Ubuntu-30" x="736.099869"/>
      <use xlink:href="#Ubuntu-2e" x="792.499863"/>
      <use xlink:href="#Ubuntu-35" x="817.099854"/>
      <use xlink:href="#Ubuntu-39" x="873.499847"/>
      <use xlink:href="#Ubuntu-30" x="929.899841"/>
      <use xlink:href="#Ubuntu-29" x="986.299835"/>
     </g>
    </g>
    <g id="PathCollection_8">
     <path d="M 444.140938 105.5925 
L 449.140938 100.5925 
L 444.140938 95.5925 
L 439.140938 100.5925 
L 444.140938 105.5925 
z
" style="fill: none; stroke: #505050; stroke-width: 1.5"/>
    </g>
    <g id="text_22">
     <!-- Optimal Threshold -->
     <g style="fill: #4b4b4b" transform="translate(458.540937 102.6925) scale(0.08 -0.08)">
      <use xlink:href="#Ubuntu-4f"/>
      <use xlink:href="#Ubuntu-70" x="77.799988"/>
      <use xlink:href="#Ubuntu-74" x="136.699982"/>
      <use xlink:href="#Ubuntu-69" x="176.899979"/>
      <use xlink:href="#Ubuntu-6d" x="202.199966"/>
      <use xlink:href="#Ubuntu-61" x="288.299957"/>
      <use xlink:href="#Ubuntu-6c" x="340.499954"/>
      <use xlink:href="#Ubuntu-20" x="367.799942"/>
      <use xlink:href="#Ubuntu-54" x="390.899933"/>
      <use xlink:href="#Ubuntu-68" x="447.399918"/>
      <use xlink:href="#Ubuntu-72" x="504.499908"/>
      <use xlink:href="#Ubuntu-65" x="543.099899"/>
      <use xlink:href="#Ubuntu-73" x="598.999893"/>
      <use xlink:href="#Ubuntu-68" x="643.599884"/>
      <use xlink:href="#Ubuntu-6f" x="700.699875"/>
      <use xlink:href="#Ubuntu-6c" x="759.69986"/>
      <use xlink:href="#Ubuntu-64" x="786.999847"/>
     </g>
    </g>
   </g>
  </g>
 </g>
 <defs>
  <clipPath id="p6f04c70dd9">
   <rect x="38.340938" y="7.2" width="390.6" height="166.32"/>
  </clipPath>
 </defs>
</svg>
