<?xml version="1.0" encoding="utf-8" standalone="no"?>
<!DOCTYPE svg PUBLIC "-//W3C//DTD SVG 1.1//EN"
  "http://www.w3.org/Graphics/SVG/1.1/DTD/svg11.dtd">
<svg xmlns:xlink="http://www.w3.org/1999/xlink" width="589.904219pt" height="208.619219pt" viewBox="0 0 589.904219 208.619219" xmlns="http://www.w3.org/2000/svg" version="1.1">
 <metadata>
  <rdf:RDF xmlns:dc="http://purl.org/dc/elements/1.1/" xmlns:cc="http://creativecommons.org/ns#" xmlns:rdf="http://www.w3.org/1999/02/22-rdf-syntax-ns#">
   <cc:Work>
    <dc:type rdf:resource="http://purl.org/dc/dcmitype/StillImage"/>
    <dc:date>2024-03-18T12:57:10.580522</dc:date>
    <dc:format>image/svg+xml</dc:format>
    <dc:creator>
     <cc:Agent>
      <dc:title>Matplotlib v3.7.3, https://matplotlib.org/</dc:title>
     </cc:Agent>
    </dc:creator>
   </cc:Work>
  </rdf:RDF>
 </metadata>
 <defs>
  <style type="text/css">*{stroke-linejoin: round; stroke-linecap: butt}</style>
 </defs>
 <g id="figure_1">
  <g id="patch_1">
   <path d="M 0 208.619219 
L 589.904219 208.619219 
L 589.904219 0 
L 0 0 
L 0 208.619219 
z
" style="fill: none"/>
  </g>
  <g id="axes_1">
   <g id="patch_2">
    <path d="M 38.404219 173.52 
L 429.004219 173.52 
L 429.004219 7.2 
L 38.404219 7.2 
L 38.404219 173.52 
z
" style="fill: none"/>
   </g>
   <g id="matplotlib.axis_1">
    <g id="xtick_1">
     <g id="line2d_1">
      <path d="M 46.063042 173.52 
L 46.063042 7.2 
" clip-path="url(#pb4c0ff7021)" style="fill: none; stroke-dasharray: 0.5,0.825; stroke-dashoffset: 0; stroke: #d9d9d9; stroke-width: 0.5"/>
     </g>
     <g id="text_1">
      <!-- 0.0 -->
      <g style="fill: #757575" transform="translate(40.566792 183.2275) scale(0.08 -0.08)">
       <defs>
        <path id="Ubuntu-30" d="M 320 2221 
Q 320 3334 713 3936 
Q 1107 4538 1805 4538 
Q 2502 4538 2896 3936 
Q 3290 3334 3290 2221 
Q 3290 1107 2896 505 
Q 2502 -96 1805 -96 
Q 1107 -96 713 505 
Q 320 1107 320 2221 
z
M 2662 2221 
Q 2662 2586 2620 2912 
Q 2579 3238 2480 3481 
Q 2381 3725 2214 3869 
Q 2048 4013 1805 4013 
Q 1562 4013 1395 3869 
Q 1229 3725 1129 3481 
Q 1030 3238 988 2912 
Q 947 2586 947 2221 
Q 947 1856 988 1529 
Q 1030 1203 1129 960 
Q 1229 717 1395 573 
Q 1562 429 1805 429 
Q 2048 429 2214 573 
Q 2381 717 2480 960 
Q 2579 1203 2620 1529 
Q 2662 1856 2662 2221 
z
" transform="scale(0.015625)"/>
        <path id="Ubuntu-2e" d="M 1216 346 
Q 1216 173 1101 45 
Q 986 -83 787 -83 
Q 589 -83 473 45 
Q 358 173 358 346 
Q 358 518 473 646 
Q 589 774 787 774 
Q 986 774 1101 646 
Q 1216 518 1216 346 
z
" transform="scale(0.015625)"/>
       </defs>
       <use xlink:href="#Ubuntu-30"/>
       <use xlink:href="#Ubuntu-2e" x="56.399994"/>
       <use xlink:href="#Ubuntu-30" x="80.999985"/>
      </g>
     </g>
    </g>
    <g id="xtick_2">
     <g id="line2d_2">
      <path d="M 122.651278 173.52 
L 122.651278 7.2 
" clip-path="url(#pb4c0ff7021)" style="fill: none; stroke-dasharray: 0.5,0.825; stroke-dashoffset: 0; stroke: #d9d9d9; stroke-width: 0.5"/>
     </g>
     <g id="text_2">
      <!-- 0.2 -->
      <g style="fill: #757575" transform="translate(117.155028 183.2275) scale(0.08 -0.08)">
       <defs>
        <path id="Ubuntu-32" d="M 2989 3302 
Q 2989 3072 2896 2857 
Q 2803 2643 2649 2435 
Q 2496 2227 2304 2025 
Q 2112 1824 1920 1632 
Q 1811 1523 1667 1376 
Q 1523 1229 1395 1069 
Q 1267 909 1180 761 
Q 1094 614 1094 506 
L 3136 506 
L 3136 0 
L 448 0 
Q 442 38 442 76 
Q 442 115 442 147 
Q 442 448 541 707 
Q 640 966 800 1196 
Q 960 1427 1158 1632 
Q 1357 1837 1549 2029 
Q 1709 2182 1853 2332 
Q 1997 2483 2109 2633 
Q 2221 2784 2288 2944 
Q 2355 3104 2355 3283 
Q 2355 3475 2294 3609 
Q 2234 3744 2131 3833 
Q 2029 3923 1891 3964 
Q 1754 4006 1600 4006 
Q 1414 4006 1260 3955 
Q 1107 3904 985 3837 
Q 864 3770 781 3696 
Q 698 3622 653 3584 
L 358 4006 
Q 416 4070 531 4163 
Q 646 4256 806 4339 
Q 966 4422 1164 4480 
Q 1363 4538 1594 4538 
Q 2291 4538 2640 4214 
Q 2989 3891 2989 3302 
z
" transform="scale(0.015625)"/>
       </defs>
       <use xlink:href="#Ubuntu-30"/>
       <use xlink:href="#Ubuntu-2e" x="56.399994"/>
       <use xlink:href="#Ubuntu-32" x="80.999985"/>
      </g>
     </g>
    </g>
    <g id="xtick_3">
     <g id="line2d_3">
      <path d="M 199.239513 173.52 
L 199.239513 7.2 
" clip-path="url(#pb4c0ff7021)" style="fill: none; stroke-dasharray: 0.5,0.825; stroke-dashoffset: 0; stroke: #d9d9d9; stroke-width: 0.5"/>
     </g>
     <g id="text_3">
      <!-- 0.4 -->
      <g style="fill: #757575" transform="translate(193.743263 183.2275) scale(0.08 -0.08)">
       <defs>
        <path id="Ubuntu-34" d="M 256 1536 
Q 378 1818 589 2192 
Q 800 2566 1065 2963 
Q 1331 3360 1635 3744 
Q 1939 4128 2246 4435 
L 2816 4435 
L 2816 1619 
L 3341 1619 
L 3341 1133 
L 2816 1133 
L 2816 0 
L 2240 0 
L 2240 1133 
L 256 1133 
L 256 1536 
z
M 2240 3731 
Q 2048 3526 1853 3273 
Q 1658 3021 1472 2745 
Q 1286 2470 1123 2182 
Q 960 1894 832 1619 
L 2240 1619 
L 2240 3731 
z
" transform="scale(0.015625)"/>
       </defs>
       <use xlink:href="#Ubuntu-30"/>
       <use xlink:href="#Ubuntu-2e" x="56.399994"/>
       <use xlink:href="#Ubuntu-34" x="80.999985"/>
      </g>
     </g>
    </g>
    <g id="xtick_4">
     <g id="line2d_4">
      <path d="M 275.827748 173.52 
L 275.827748 7.2 
" clip-path="url(#pb4c0ff7021)" style="fill: none; stroke-dasharray: 0.5,0.825; stroke-dashoffset: 0; stroke: #d9d9d9; stroke-width: 0.5"/>
     </g>
     <g id="text_4">
      <!-- 0.6 -->
      <g style="fill: #757575" transform="translate(270.331498 183.2275) scale(0.08 -0.08)">
       <defs>
        <path id="Ubuntu-36" d="M 403 1779 
Q 403 2426 582 2922 
Q 762 3418 1091 3757 
Q 1421 4096 1891 4272 
Q 2362 4448 2950 4454 
L 2995 3955 
Q 2618 3949 2307 3872 
Q 1997 3795 1753 3628 
Q 1510 3462 1344 3196 
Q 1178 2931 1094 2541 
Q 1261 2618 1469 2669 
Q 1677 2720 1901 2720 
Q 2278 2720 2540 2605 
Q 2803 2490 2969 2301 
Q 3136 2112 3209 1865 
Q 3283 1619 3283 1350 
Q 3283 1107 3200 851 
Q 3117 595 2947 384 
Q 2778 173 2515 38 
Q 2253 -96 1894 -96 
Q 1165 -96 784 403 
Q 403 902 403 1779 
z
M 1837 2234 
Q 1613 2234 1421 2192 
Q 1229 2150 1037 2067 
Q 1030 1997 1027 1923 
Q 1024 1850 1024 1779 
Q 1024 1498 1062 1248 
Q 1101 998 1200 809 
Q 1299 621 1465 509 
Q 1632 397 1888 397 
Q 2099 397 2246 486 
Q 2394 576 2490 717 
Q 2586 858 2627 1021 
Q 2669 1184 2669 1338 
Q 2669 1773 2461 2003 
Q 2253 2234 1837 2234 
z
" transform="scale(0.015625)"/>
       </defs>
       <use xlink:href="#Ubuntu-30"/>
       <use xlink:href="#Ubuntu-2e" x="56.399994"/>
       <use xlink:href="#Ubuntu-36" x="80.999985"/>
      </g>
     </g>
    </g>
    <g id="xtick_5">
     <g id="line2d_5">
      <path d="M 352.415983 173.52 
L 352.415983 7.2 
" clip-path="url(#pb4c0ff7021)" style="fill: none; stroke-dasharray: 0.5,0.825; stroke-dashoffset: 0; stroke: #d9d9d9; stroke-width: 0.5"/>
     </g>
     <g id="text_5">
      <!-- 0.8 -->
      <g style="fill: #757575" transform="translate(346.919733 183.2275) scale(0.08 -0.08)">
       <defs>
        <path id="Ubuntu-38" d="M 3258 1152 
Q 3258 883 3165 656 
Q 3072 429 2889 259 
Q 2707 90 2432 -3 
Q 2157 -96 1798 -96 
Q 1382 -96 1104 22 
Q 826 141 659 320 
Q 493 499 422 713 
Q 352 928 352 1120 
Q 352 1306 413 1475 
Q 474 1645 573 1792 
Q 672 1939 803 2057 
Q 934 2176 1082 2266 
Q 454 2624 454 3322 
Q 454 3565 550 3785 
Q 646 4006 822 4172 
Q 998 4339 1248 4438 
Q 1498 4538 1805 4538 
Q 2163 4538 2419 4429 
Q 2675 4320 2838 4150 
Q 3002 3981 3075 3776 
Q 3149 3571 3149 3379 
Q 3149 3194 3094 3030 
Q 3040 2867 2947 2726 
Q 2854 2586 2736 2477 
Q 2618 2368 2490 2285 
Q 3245 1926 3258 1152 
z
M 954 1114 
Q 954 998 995 873 
Q 1037 749 1139 643 
Q 1242 538 1402 467 
Q 1562 397 1805 397 
Q 2022 397 2185 461 
Q 2349 525 2451 624 
Q 2554 723 2605 851 
Q 2656 979 2656 1114 
Q 2656 1318 2579 1472 
Q 2502 1626 2358 1741 
Q 2214 1856 2012 1936 
Q 1811 2016 1555 2074 
Q 1267 1914 1110 1677 
Q 954 1440 954 1114 
z
M 2554 3386 
Q 2554 3482 2512 3597 
Q 2470 3712 2380 3811 
Q 2291 3910 2150 3977 
Q 2010 4045 1805 4045 
Q 1600 4045 1456 3981 
Q 1312 3917 1222 3817 
Q 1133 3718 1091 3600 
Q 1050 3482 1050 3366 
Q 1050 3226 1101 3085 
Q 1152 2944 1261 2822 
Q 1370 2701 1546 2605 
Q 1722 2509 1965 2451 
Q 2234 2611 2394 2825 
Q 2554 3040 2554 3386 
z
" transform="scale(0.015625)"/>
       </defs>
       <use xlink:href="#Ubuntu-30"/>
       <use xlink:href="#Ubuntu-2e" x="56.399994"/>
       <use xlink:href="#Ubuntu-38" x="80.999985"/>
      </g>
     </g>
    </g>
    <g id="xtick_6">
     <g id="line2d_6">
      <path d="M 429.004219 173.52 
L 429.004219 7.2 
" clip-path="url(#pb4c0ff7021)" style="fill: none; stroke-dasharray: 0.5,0.825; stroke-dashoffset: 0; stroke: #d9d9d9; stroke-width: 0.5"/>
     </g>
     <g id="text_6">
      <!-- 1.0 -->
      <g style="fill: #757575" transform="translate(423.507969 183.2275) scale(0.08 -0.08)">
       <defs>
        <path id="Ubuntu-31" d="M 595 3520 
Q 960 3661 1305 3881 
Q 1651 4102 1939 4435 
L 2362 4435 
L 2362 0 
L 1766 0 
L 1766 3610 
Q 1690 3539 1578 3462 
Q 1466 3386 1334 3315 
Q 1203 3245 1059 3181 
Q 915 3117 781 3072 
L 595 3520 
z
" transform="scale(0.015625)"/>
       </defs>
       <use xlink:href="#Ubuntu-31"/>
       <use xlink:href="#Ubuntu-2e" x="56.399994"/>
       <use xlink:href="#Ubuntu-30" x="80.999985"/>
      </g>
     </g>
    </g>
    <g id="text_7">
     <!-- False Positive Rate (1-Specifity) -->
     <g style="fill: #4c4c4c" transform="translate(38.404219 199.754219) scale(0.09 -0.09)">
      <defs>
       <path id="Ubuntu-Bold-46" d="M 512 0 
L 512 4435 
L 3482 4435 
L 3482 3597 
L 1510 3597 
L 1510 2669 
L 3264 2669 
L 3264 1830 
L 1510 1830 
L 1510 0 
L 512 0 
z
" transform="scale(0.015625)"/>
       <path id="Ubuntu-Bold-61" d="M 1734 666 
Q 1875 666 2003 672 
Q 2131 678 2208 691 
L 2208 1414 
Q 2150 1427 2035 1440 
Q 1920 1453 1824 1453 
Q 1690 1453 1571 1437 
Q 1453 1421 1363 1376 
Q 1274 1331 1222 1254 
Q 1171 1178 1171 1062 
Q 1171 838 1321 752 
Q 1472 666 1734 666 
z
M 1658 3456 
Q 2080 3456 2361 3360 
Q 2643 3264 2812 3085 
Q 2982 2906 3052 2650 
Q 3123 2394 3123 2080 
L 3123 96 
Q 2918 51 2553 -9 
Q 2189 -70 1670 -70 
Q 1344 -70 1078 -12 
Q 813 45 621 176 
Q 429 307 326 518 
Q 224 730 224 1037 
Q 224 1331 342 1536 
Q 461 1741 659 1862 
Q 858 1984 1114 2038 
Q 1370 2093 1645 2093 
Q 1830 2093 1974 2077 
Q 2118 2061 2208 2035 
L 2208 2125 
Q 2208 2368 2061 2515 
Q 1914 2662 1549 2662 
Q 1306 2662 1069 2627 
Q 832 2592 659 2528 
L 538 3296 
Q 621 3322 745 3350 
Q 870 3379 1017 3401 
Q 1165 3424 1328 3440 
Q 1491 3456 1658 3456 
z
" transform="scale(0.015625)"/>
       <path id="Ubuntu-Bold-6c" d="M 1792 -64 
Q 1376 -58 1117 25 
Q 858 109 707 259 
Q 557 410 502 624 
Q 448 838 448 1107 
L 448 4813 
L 1402 4966 
L 1402 1299 
Q 1402 1171 1421 1068 
Q 1440 966 1494 896 
Q 1549 826 1651 781 
Q 1754 736 1926 723 
L 1792 -64 
z
" transform="scale(0.015625)"/>
       <path id="Ubuntu-Bold-73" d="M 1414 685 
Q 1677 685 1785 736 
Q 1894 787 1894 934 
Q 1894 1050 1753 1136 
Q 1613 1222 1325 1331 
Q 1101 1414 918 1504 
Q 736 1594 608 1718 
Q 480 1843 409 2016 
Q 339 2189 339 2432 
Q 339 2906 691 3181 
Q 1043 3456 1658 3456 
Q 1965 3456 2246 3401 
Q 2528 3347 2694 3283 
L 2528 2541 
Q 2362 2598 2166 2643 
Q 1971 2688 1728 2688 
Q 1280 2688 1280 2438 
Q 1280 2381 1299 2336 
Q 1318 2291 1376 2249 
Q 1434 2208 1533 2160 
Q 1632 2112 1786 2054 
Q 2099 1939 2304 1827 
Q 2509 1715 2627 1584 
Q 2746 1453 2794 1293 
Q 2842 1133 2842 922 
Q 2842 422 2467 166 
Q 2093 -90 1408 -90 
Q 960 -90 662 -13 
Q 365 64 250 115 
L 410 890 
Q 653 794 909 739 
Q 1165 685 1414 685 
z
" transform="scale(0.015625)"/>
       <path id="Ubuntu-Bold-65" d="M 288 1658 
Q 288 2106 425 2442 
Q 563 2778 787 3002 
Q 1011 3226 1302 3341 
Q 1594 3456 1901 3456 
Q 2618 3456 3034 3017 
Q 3450 2579 3450 1728 
Q 3450 1645 3443 1545 
Q 3437 1446 3430 1370 
L 1267 1370 
Q 1299 1075 1542 902 
Q 1786 730 2195 730 
Q 2458 730 2710 778 
Q 2963 826 3123 896 
L 3251 122 
Q 3174 83 3046 44 
Q 2918 6 2761 -22 
Q 2605 -51 2425 -70 
Q 2246 -90 2067 -90 
Q 1613 -90 1277 44 
Q 941 179 720 412 
Q 499 646 393 966 
Q 288 1286 288 1658 
z
M 2528 2022 
Q 2522 2144 2486 2259 
Q 2451 2374 2377 2464 
Q 2304 2554 2192 2611 
Q 2080 2669 1914 2669 
Q 1754 2669 1638 2614 
Q 1523 2560 1446 2470 
Q 1370 2381 1328 2262 
Q 1286 2144 1267 2022 
L 2528 2022 
z
" transform="scale(0.015625)"/>
       <path id="Ubuntu-Bold-20" transform="scale(0.015625)"/>
       <path id="Ubuntu-Bold-50" d="M 1843 4486 
Q 2835 4486 3366 4137 
Q 3898 3789 3898 2995 
Q 3898 2195 3360 1840 
Q 2822 1485 1824 1485 
L 1510 1485 
L 1510 0 
L 512 0 
L 512 4371 
Q 838 4435 1203 4460 
Q 1568 4486 1843 4486 
z
M 1907 3635 
Q 1798 3635 1692 3628 
Q 1587 3622 1510 3616 
L 1510 2336 
L 1824 2336 
Q 2342 2336 2604 2477 
Q 2867 2618 2867 3002 
Q 2867 3187 2800 3308 
Q 2733 3430 2608 3504 
Q 2483 3578 2304 3606 
Q 2125 3635 1907 3635 
z
" transform="scale(0.015625)"/>
       <path id="Ubuntu-Bold-6f" d="M 3597 1690 
Q 3597 1293 3481 963 
Q 3366 634 3148 400 
Q 2931 166 2627 38 
Q 2323 -90 1946 -90 
Q 1574 -90 1270 38 
Q 966 166 748 400 
Q 531 634 409 963 
Q 288 1293 288 1690 
Q 288 2086 413 2412 
Q 538 2739 758 2969 
Q 979 3200 1283 3328 
Q 1587 3456 1946 3456 
Q 2310 3456 2614 3328 
Q 2918 3200 3136 2969 
Q 3354 2739 3475 2412 
Q 3597 2086 3597 1690 
z
M 2624 1690 
Q 2624 2131 2448 2384 
Q 2272 2637 1946 2637 
Q 1619 2637 1440 2384 
Q 1261 2131 1261 1690 
Q 1261 1248 1440 989 
Q 1619 730 1946 730 
Q 2272 730 2448 989 
Q 2624 1248 2624 1690 
z
" transform="scale(0.015625)"/>
       <path id="Ubuntu-Bold-69" d="M 1402 0 
L 448 0 
L 448 3366 
L 1402 3366 
L 1402 0 
z
M 1491 4339 
Q 1491 4077 1321 3926 
Q 1152 3776 922 3776 
Q 691 3776 521 3926 
Q 352 4077 352 4339 
Q 352 4602 521 4752 
Q 691 4902 922 4902 
Q 1152 4902 1321 4752 
Q 1491 4602 1491 4339 
z
" transform="scale(0.015625)"/>
       <path id="Ubuntu-Bold-74" d="M 416 4205 
L 1370 4358 
L 1370 3366 
L 2515 3366 
L 2515 2573 
L 1370 2573 
L 1370 1389 
Q 1370 1088 1475 909 
Q 1581 730 1901 730 
Q 2054 730 2217 758 
Q 2381 787 2515 838 
L 2650 96 
Q 2477 26 2265 -25 
Q 2054 -77 1747 -77 
Q 1357 -77 1101 28 
Q 845 134 691 323 
Q 538 512 477 781 
Q 416 1050 416 1376 
L 416 4205 
z
" transform="scale(0.015625)"/>
       <path id="Ubuntu-Bold-76" d="M 1363 0 
Q 1037 640 701 1497 
Q 365 2355 64 3366 
L 1075 3366 
Q 1139 3117 1225 2825 
Q 1312 2534 1405 2236 
Q 1498 1939 1590 1657 
Q 1683 1376 1773 1146 
Q 1856 1376 1952 1657 
Q 2048 1939 2141 2236 
Q 2234 2534 2320 2825 
Q 2406 3117 2470 3366 
L 3456 3366 
Q 3155 2355 2819 1497 
Q 2483 640 2157 0 
L 1363 0 
z
" transform="scale(0.015625)"/>
       <path id="Ubuntu-Bold-52" d="M 1811 4486 
Q 2810 4486 3341 4131 
Q 3872 3776 3872 3027 
Q 3872 2560 3657 2269 
Q 3443 1978 3040 1811 
Q 3174 1645 3321 1430 
Q 3469 1216 3613 982 
Q 3757 749 3891 496 
Q 4026 243 4141 0 
L 3021 0 
Q 2899 218 2774 442 
Q 2650 666 2518 877 
Q 2387 1088 2259 1277 
Q 2131 1466 2003 1619 
L 1510 1619 
L 1510 0 
L 512 0 
L 512 4371 
Q 838 4435 1187 4460 
Q 1536 4486 1811 4486 
z
M 1869 3635 
Q 1760 3635 1673 3628 
Q 1587 3622 1510 3616 
L 1510 2413 
L 1792 2413 
Q 2355 2413 2598 2553 
Q 2842 2694 2842 3034 
Q 2842 3360 2595 3497 
Q 2349 3635 1869 3635 
z
" transform="scale(0.015625)"/>
       <path id="Ubuntu-Bold-28" d="M 1389 1914 
Q 1389 1158 1625 473 
Q 1862 -211 2246 -755 
L 1581 -1184 
Q 1037 -550 742 237 
Q 448 1024 448 1914 
Q 448 2803 742 3590 
Q 1037 4378 1581 5011 
L 2246 4582 
Q 1862 4038 1625 3353 
Q 1389 2669 1389 1914 
z
" transform="scale(0.015625)"/>
       <path id="Ubuntu-Bold-31" d="M 448 3514 
Q 634 3590 835 3689 
Q 1037 3789 1229 3907 
Q 1421 4026 1597 4157 
Q 1773 4288 1914 4435 
L 2579 4435 
L 2579 0 
L 1626 0 
L 1626 3194 
Q 1434 3066 1197 2960 
Q 960 2854 736 2778 
L 448 3514 
z
" transform="scale(0.015625)"/>
       <path id="Ubuntu-Bold-2d" d="M 160 2342 
L 2016 2342 
L 2016 1478 
L 160 1478 
L 160 2342 
z
" transform="scale(0.015625)"/>
       <path id="Ubuntu-Bold-53" d="M 1722 762 
Q 1933 762 2070 797 
Q 2208 832 2291 893 
Q 2374 954 2406 1037 
Q 2438 1120 2438 1222 
Q 2438 1440 2233 1584 
Q 2029 1728 1530 1894 
Q 1312 1971 1094 2070 
Q 877 2170 704 2320 
Q 531 2470 422 2684 
Q 314 2899 314 3206 
Q 314 3514 429 3760 
Q 544 4006 755 4179 
Q 966 4352 1267 4445 
Q 1568 4538 1946 4538 
Q 2394 4538 2720 4442 
Q 3046 4346 3258 4230 
L 2970 3443 
Q 2784 3539 2557 3612 
Q 2330 3686 2010 3686 
Q 1651 3686 1494 3587 
Q 1338 3488 1338 3283 
Q 1338 3162 1395 3078 
Q 1453 2995 1558 2928 
Q 1664 2861 1801 2806 
Q 1939 2752 2106 2694 
Q 2451 2566 2707 2441 
Q 2963 2317 3132 2150 
Q 3302 1984 3385 1760 
Q 3469 1536 3469 1216 
Q 3469 595 3033 252 
Q 2598 -90 1722 -90 
Q 1427 -90 1190 -54 
Q 954 -19 771 32 
Q 589 83 457 140 
Q 326 198 237 250 
L 518 1043 
Q 717 934 1008 848 
Q 1299 762 1722 762 
z
" transform="scale(0.015625)"/>
       <path id="Ubuntu-Bold-70" d="M 2605 1658 
Q 2605 2099 2406 2364 
Q 2208 2630 1818 2630 
Q 1690 2630 1581 2620 
Q 1472 2611 1402 2598 
L 1402 877 
Q 1491 819 1635 780 
Q 1779 742 1926 742 
Q 2605 742 2605 1658 
z
M 3578 1683 
Q 3578 1293 3482 973 
Q 3386 653 3200 422 
Q 3014 192 2739 64 
Q 2464 -64 2106 -64 
Q 1907 -64 1734 -25 
Q 1562 13 1402 83 
L 1402 -1184 
L 448 -1184 
L 448 3251 
Q 576 3290 742 3325 
Q 909 3360 1091 3385 
Q 1274 3411 1462 3427 
Q 1651 3443 1824 3443 
Q 2240 3443 2566 3318 
Q 2893 3194 3117 2966 
Q 3341 2739 3459 2412 
Q 3578 2086 3578 1683 
z
" transform="scale(0.015625)"/>
       <path id="Ubuntu-Bold-63" d="M 288 1683 
Q 288 2048 406 2371 
Q 525 2694 749 2934 
Q 973 3174 1293 3315 
Q 1613 3456 2022 3456 
Q 2291 3456 2515 3408 
Q 2739 3360 2950 3270 
L 2752 2509 
Q 2618 2560 2458 2598 
Q 2298 2637 2099 2637 
Q 1677 2637 1469 2374 
Q 1261 2112 1261 1683 
Q 1261 1229 1456 979 
Q 1651 730 2138 730 
Q 2310 730 2508 762 
Q 2707 794 2874 864 
L 3008 83 
Q 2842 13 2592 -38 
Q 2342 -90 2042 -90 
Q 1581 -90 1248 48 
Q 915 186 700 422 
Q 486 659 387 982 
Q 288 1306 288 1683 
z
" transform="scale(0.015625)"/>
       <path id="Ubuntu-Bold-66" d="M 1907 4966 
Q 2176 4966 2400 4912 
Q 2624 4858 2746 4806 
L 2560 4045 
Q 2432 4102 2281 4131 
Q 2131 4160 2003 4160 
Q 1830 4160 1712 4112 
Q 1594 4064 1526 3981 
Q 1459 3898 1430 3782 
Q 1402 3667 1402 3533 
L 1402 3366 
L 2579 3366 
L 2579 2573 
L 1402 2573 
L 1402 0 
L 448 0 
L 448 3546 
Q 448 4198 816 4582 
Q 1184 4966 1907 4966 
z
" transform="scale(0.015625)"/>
       <path id="Ubuntu-Bold-79" d="M 3437 3366 
Q 3149 2394 2835 1542 
Q 2522 691 2150 -109 
Q 2016 -397 1881 -598 
Q 1747 -800 1587 -931 
Q 1427 -1062 1225 -1123 
Q 1024 -1184 755 -1184 
Q 531 -1184 342 -1142 
Q 154 -1101 32 -1050 
L 198 -288 
Q 346 -339 461 -358 
Q 576 -378 704 -378 
Q 960 -378 1097 -240 
Q 1235 -102 1331 141 
Q 1005 781 678 1577 
Q 352 2374 64 3366 
L 1075 3366 
Q 1139 3117 1225 2825 
Q 1312 2534 1408 2236 
Q 1504 1939 1603 1657 
Q 1702 1376 1792 1146 
Q 1875 1376 1964 1657 
Q 2054 1939 2140 2236 
Q 2227 2534 2307 2825 
Q 2387 3117 2451 3366 
L 3437 3366 
z
" transform="scale(0.015625)"/>
       <path id="Ubuntu-Bold-29" d="M 890 1914 
Q 890 2669 653 3353 
Q 416 4038 32 4582 
L 698 5011 
Q 1242 4378 1536 3590 
Q 1830 2803 1830 1914 
Q 1830 1024 1536 237 
Q 1242 -550 698 -1184 
L 32 -755 
Q 416 -211 653 473 
Q 890 1158 890 1914 
z
" transform="scale(0.015625)"/>
      </defs>
      <use xlink:href="#Ubuntu-Bold-46"/>
      <use xlink:href="#Ubuntu-Bold-61" x="55.024994"/>
      <use xlink:href="#Ubuntu-Bold-6c" x="110.324982"/>
      <use xlink:href="#Ubuntu-Bold-73" x="141.924973"/>
      <use xlink:href="#Ubuntu-Bold-65" x="190.424957"/>
      <use xlink:href="#Ubuntu-Bold-20" x="248.824951"/>
      <use xlink:href="#Ubuntu-Bold-50" x="272.824936"/>
      <use xlink:href="#Ubuntu-Bold-6f" x="335.72493"/>
      <use xlink:href="#Ubuntu-Bold-73" x="396.424927"/>
      <use xlink:href="#Ubuntu-Bold-69" x="444.924911"/>
      <use xlink:href="#Ubuntu-Bold-74" x="473.824905"/>
      <use xlink:href="#Ubuntu-Bold-69" x="518.224899"/>
      <use xlink:href="#Ubuntu-Bold-76" x="545.499893"/>
      <use xlink:href="#Ubuntu-Bold-65" x="599.124878"/>
      <use xlink:href="#Ubuntu-Bold-20" x="657.524872"/>
      <use xlink:href="#Ubuntu-Bold-52" x="681.524857"/>
      <use xlink:href="#Ubuntu-Bold-61" x="745.724854"/>
      <use xlink:href="#Ubuntu-Bold-74" x="801.024841"/>
      <use xlink:href="#Ubuntu-Bold-65" x="843.424835"/>
      <use xlink:href="#Ubuntu-Bold-20" x="901.824829"/>
      <use xlink:href="#Ubuntu-Bold-28" x="925.824814"/>
      <use xlink:href="#Ubuntu-Bold-31" x="961.424805"/>
      <use xlink:href="#Ubuntu-Bold-2d" x="1018.224792"/>
      <use xlink:href="#Ubuntu-Bold-53" x="1052.224777"/>
      <use xlink:href="#Ubuntu-Bold-70" x="1110.424774"/>
      <use xlink:href="#Ubuntu-Bold-65" x="1170.824768"/>
      <use xlink:href="#Ubuntu-Bold-63" x="1229.224762"/>
      <use xlink:href="#Ubuntu-Bold-69" x="1279.224747"/>
      <use xlink:href="#Ubuntu-Bold-66" x="1308.124741"/>
      <use xlink:href="#Ubuntu-Bold-69" x="1351.574738"/>
      <use xlink:href="#Ubuntu-Bold-74" x="1380.474731"/>
      <use xlink:href="#Ubuntu-Bold-79" x="1425.874725"/>
      <use xlink:href="#Ubuntu-Bold-29" x="1480.574722"/>
     </g>
    </g>
   </g>
   <g id="matplotlib.axis_2">
    <g id="ytick_1">
     <g id="line2d_7">
      <path d="M 38.404219 173.52 
L 429.004219 173.52 
" clip-path="url(#pb4c0ff7021)" style="fill: none; stroke-dasharray: 0.5,0.825; stroke-dashoffset: 0; stroke: #d9d9d9; stroke-width: 0.5"/>
     </g>
     <g id="text_8">
      <!-- 0.0 -->
      <g style="fill: #757575" transform="translate(23.911719 176.62375) scale(0.08 -0.08)">
       <use xlink:href="#Ubuntu-30"/>
       <use xlink:href="#Ubuntu-2e" x="56.399994"/>
       <use xlink:href="#Ubuntu-30" x="80.999985"/>
      </g>
     </g>
    </g>
    <g id="ytick_2">
     <g id="line2d_8">
      <path d="M 38.404219 142.72 
L 429.004219 142.72 
" clip-path="url(#pb4c0ff7021)" style="fill: none; stroke-dasharray: 0.5,0.825; stroke-dashoffset: 0; stroke: #d9d9d9; stroke-width: 0.5"/>
     </g>
     <g id="text_9">
      <!-- 0.2 -->
      <g style="fill: #757575" transform="translate(23.911719 145.82375) scale(0.08 -0.08)">
       <use xlink:href="#Ubuntu-30"/>
       <use xlink:href="#Ubuntu-2e" x="56.399994"/>
       <use xlink:href="#Ubuntu-32" x="80.999985"/>
      </g>
     </g>
    </g>
    <g id="ytick_3">
     <g id="line2d_9">
      <path d="M 38.404219 111.92 
L 429.004219 111.92 
" clip-path="url(#pb4c0ff7021)" style="fill: none; stroke-dasharray: 0.5,0.825; stroke-dashoffset: 0; stroke: #d9d9d9; stroke-width: 0.5"/>
     </g>
     <g id="text_10">
      <!-- 0.4 -->
      <g style="fill: #757575" transform="translate(23.911719 115.02375) scale(0.08 -0.08)">
       <use xlink:href="#Ubuntu-30"/>
       <use xlink:href="#Ubuntu-2e" x="56.399994"/>
       <use xlink:href="#Ubuntu-34" x="80.999985"/>
      </g>
     </g>
    </g>
    <g id="ytick_4">
     <g id="line2d_10">
      <path d="M 38.404219 81.12 
L 429.004219 81.12 
" clip-path="url(#pb4c0ff7021)" style="fill: none; stroke-dasharray: 0.5,0.825; stroke-dashoffset: 0; stroke: #d9d9d9; stroke-width: 0.5"/>
     </g>
     <g id="text_11">
      <!-- 0.6 -->
      <g style="fill: #757575" transform="translate(23.911719 84.22375) scale(0.08 -0.08)">
       <use xlink:href="#Ubuntu-30"/>
       <use xlink:href="#Ubuntu-2e" x="56.399994"/>
       <use xlink:href="#Ubuntu-36" x="80.999985"/>
      </g>
     </g>
    </g>
    <g id="ytick_5">
     <g id="line2d_11">
      <path d="M 38.404219 50.32 
L 429.004219 50.32 
" clip-path="url(#pb4c0ff7021)" style="fill: none; stroke-dasharray: 0.5,0.825; stroke-dashoffset: 0; stroke: #d9d9d9; stroke-width: 0.5"/>
     </g>
     <g id="text_12">
      <!-- 0.8 -->
      <g style="fill: #757575" transform="translate(23.911719 53.42375) scale(0.08 -0.08)">
       <use xlink:href="#Ubuntu-30"/>
       <use xlink:href="#Ubuntu-2e" x="56.399994"/>
       <use xlink:href="#Ubuntu-38" x="80.999985"/>
      </g>
     </g>
    </g>
    <g id="ytick_6">
     <g id="line2d_12">
      <path d="M 38.404219 19.52 
L 429.004219 19.52 
" clip-path="url(#pb4c0ff7021)" style="fill: none; stroke-dasharray: 0.5,0.825; stroke-dashoffset: 0; stroke: #d9d9d9; stroke-width: 0.5"/>
     </g>
     <g id="text_13">
      <!-- 1.0 -->
      <g style="fill: #757575" transform="translate(23.911719 22.62375) scale(0.08 -0.08)">
       <use xlink:href="#Ubuntu-31"/>
       <use xlink:href="#Ubuntu-2e" x="56.399994"/>
       <use xlink:href="#Ubuntu-30" x="80.999985"/>
      </g>
     </g>
    </g>
    <g id="text_14">
     <!-- True Positive Rate (Recall) -->
     <g style="fill: #4c4c4c" transform="translate(14.246719 119.5875) rotate(-90) scale(0.09 -0.09)">
      <defs>
       <path id="Ubuntu-Bold-54" d="M 3802 4435 
L 3802 3584 
L 2464 3584 
L 2464 0 
L 1466 0 
L 1466 3584 
L 128 3584 
L 128 4435 
L 3802 4435 
z
" transform="scale(0.015625)"/>
       <path id="Ubuntu-Bold-72" d="M 2477 2522 
Q 2349 2554 2176 2589 
Q 2003 2624 1805 2624 
Q 1715 2624 1590 2608 
Q 1466 2592 1402 2573 
L 1402 0 
L 448 0 
L 448 3187 
Q 704 3277 1053 3357 
Q 1402 3437 1830 3437 
Q 1907 3437 2016 3427 
Q 2125 3418 2233 3402 
Q 2342 3386 2451 3363 
Q 2560 3341 2637 3309 
L 2477 2522 
z
" transform="scale(0.015625)"/>
       <path id="Ubuntu-Bold-75" d="M 3322 115 
Q 3078 45 2694 -16 
Q 2310 -77 1888 -77 
Q 1459 -77 1174 38 
Q 890 154 723 362 
Q 557 570 486 858 
Q 416 1146 416 1491 
L 416 3366 
L 1370 3366 
L 1370 1606 
Q 1370 1146 1491 941 
Q 1613 736 1946 736 
Q 2048 736 2163 745 
Q 2278 755 2368 768 
L 2368 3366 
L 3322 3366 
L 3322 115 
z
" transform="scale(0.015625)"/>
      </defs>
      <use xlink:href="#Ubuntu-Bold-54"/>
      <use xlink:href="#Ubuntu-Bold-72" x="54.524994"/>
      <use xlink:href="#Ubuntu-Bold-75" x="96.724991"/>
      <use xlink:href="#Ubuntu-Bold-65" x="155.624985"/>
      <use xlink:href="#Ubuntu-Bold-20" x="214.024979"/>
      <use xlink:href="#Ubuntu-Bold-50" x="238.024963"/>
      <use xlink:href="#Ubuntu-Bold-6f" x="300.924957"/>
      <use xlink:href="#Ubuntu-Bold-73" x="361.624954"/>
      <use xlink:href="#Ubuntu-Bold-69" x="410.124939"/>
      <use xlink:href="#Ubuntu-Bold-74" x="439.024933"/>
      <use xlink:href="#Ubuntu-Bold-69" x="483.424927"/>
      <use xlink:href="#Ubuntu-Bold-76" x="510.699921"/>
      <use xlink:href="#Ubuntu-Bold-65" x="564.324905"/>
      <use xlink:href="#Ubuntu-Bold-20" x="622.724899"/>
      <use xlink:href="#Ubuntu-Bold-52" x="646.724884"/>
      <use xlink:href="#Ubuntu-Bold-61" x="710.924881"/>
      <use xlink:href="#Ubuntu-Bold-74" x="766.224869"/>
      <use xlink:href="#Ubuntu-Bold-65" x="808.624863"/>
      <use xlink:href="#Ubuntu-Bold-20" x="867.024857"/>
      <use xlink:href="#Ubuntu-Bold-28" x="891.024841"/>
      <use xlink:href="#Ubuntu-Bold-52" x="926.624832"/>
      <use xlink:href="#Ubuntu-Bold-65" x="990.824829"/>
      <use xlink:href="#Ubuntu-Bold-63" x="1049.224823"/>
      <use xlink:href="#Ubuntu-Bold-61" x="1096.724808"/>
      <use xlink:href="#Ubuntu-Bold-6c" x="1152.024796"/>
      <use xlink:href="#Ubuntu-Bold-6c" x="1183.624786"/>
      <use xlink:href="#Ubuntu-Bold-29" x="1213.099777"/>
     </g>
    </g>
   </g>
   <g id="PathCollection_1">
    <path d="M 46.190551 100.661833 
C 47.128185 100.661833 48.027543 100.289307 48.690551 99.626299 
C 49.353558 98.963291 49.726085 98.063934 49.726085 97.126299 
C 49.726085 96.188665 49.353558 95.289307 48.690551 94.626299 
C 48.027543 93.963291 47.128185 93.590765 46.190551 93.590765 
C 45.252916 93.590765 44.353558 93.963291 43.690551 94.626299 
C 43.027543 95.289307 42.655017 96.188665 42.655017 97.126299 
C 42.655017 98.063934 43.027543 98.963291 43.690551 99.626299 
C 44.353558 100.289307 45.252916 100.661833 46.190551 100.661833 
L 46.190551 100.661833 
z
" clip-path="url(#pb4c0ff7021)" style="fill: none; stroke: #505050; stroke-width: 1.5"/>
   </g>
   <g id="PathCollection_2">
    <path d="M 46.143574 86.919051 
L 49.679108 79.847983 
L 42.60804 79.847983 
L 46.143574 86.919051 
z
" clip-path="url(#pb4c0ff7021)" style="fill: none; stroke: #505050; stroke-width: 1.5"/>
   </g>
   <g id="PathCollection_3">
    <path d="M 42.587907 84.898054 
L 49.658975 84.898054 
L 49.658975 77.826986 
L 42.587907 77.826986 
L 42.587907 84.898054 
z
" clip-path="url(#pb4c0ff7021)" style="fill: none; stroke: #505050; stroke-width: 1.5"/>
   </g>
   <g id="PathCollection_4">
    <path d="M 46.365036 99.296903 
L 51.365036 94.296903 
L 46.365036 89.296903 
L 41.365036 94.296903 
L 46.365036 99.296903 
z
" clip-path="url(#pb4c0ff7021)" style="fill: none; stroke: #505050; stroke-width: 1.5"/>
   </g>
   <g id="line2d_13">
    <path d="M 46.063042 173.52 
L 46.170418 97.126299 
L 46.190551 97.126299 
L 46.297926 89.04231 
L 46.304637 89.04231 
L 46.412013 82.979318 
L 46.418724 82.979318 
L 46.519388 79.341522 
L 46.53281 79.341522 
L 46.633474 77.724724 
L 46.646896 77.724724 
L 46.754272 75.703727 
L 46.760983 75.703727 
L 46.794538 74.895328 
L 46.908624 74.895328 
L 46.908624 74.491129 
L 47.029421 74.491129 
L 47.029421 74.086929 
L 47.143508 74.086929 
L 47.210618 72.874331 
L 47.559588 72.874331 
L 47.626697 72.065932 
L 47.707229 72.065932 
L 47.801183 71.257533 
L 47.828026 71.257533 
L 47.828026 70.853333 
L 48.076332 70.853333 
L 48.109887 70.044934 
L 48.223974 70.044934 
L 48.223974 69.640735 
L 48.351482 69.640735 
L 48.391748 68.428136 
L 48.552811 68.428136 
L 48.552811 68.023937 
L 48.787695 68.023937 
L 48.787695 67.619738 
L 49.009157 67.619738 
L 49.076266 66.811339 
L 49.713808 66.811339 
L 49.713808 66.407139 
L 49.928559 66.407139 
L 49.928559 66.00294 
L 50.049356 66.00294 
L 50.049356 65.59874 
L 52.310952 65.59874 
L 52.36464 64.790341 
L 53.841053 64.790341 
L 53.841053 64.386142 
L 54.827565 64.386142 
L 54.827565 63.981942 
L 56.491884 63.981942 
L 56.491884 63.577743 
L 64.625576 63.577743 
L 64.625576 63.173543 
L 71.584848 63.173543 
L 71.66538 62.365144 
L 75.853023 62.365144 
L 75.853023 61.960945 
L 77.503921 61.960945 
L 77.503921 61.556745 
L 78.289104 61.556745 
L 78.289104 61.152546 
L 81.449969 61.152546 
L 81.449969 60.748346 
L 85.295353 60.748346 
L 85.295353 60.344147 
L 87.402597 60.344147 
L 87.402597 59.939948 
L 90.603728 59.939948 
L 90.603728 59.535748 
L 100.274231 59.535748 
L 100.274231 59.131549 
L 102.83782 59.131549 
L 102.83782 58.727349 
L 112.494901 58.727349 
L 112.494901 58.32315 
L 113.481413 58.32315 
L 113.481413 57.91895 
L 116.393972 57.91895 
L 116.393972 57.514751 
L 120.863476 57.514751 
L 120.863476 57.110551 
L 124.064607 57.110551 
L 124.064607 56.706352 
L 124.735704 56.706352 
L 124.735704 56.302152 
L 125.084674 56.302152 
L 125.084674 55.897953 
L 129.070988 55.897953 
L 129.070988 55.493753 
L 129.721952 55.493753 
L 129.721952 55.089554 
L 129.91657 55.089554 
L 129.91657 54.685354 
L 130.178298 54.685354 
L 130.178298 54.281155 
L 133.298897 54.281155 
L 133.298897 53.876955 
L 135.392719 53.876955 
L 135.392719 53.068556 
L 135.553782 53.068556 
L 135.553782 52.664357 
L 136.070526 52.664357 
L 136.070526 52.260157 
L 139.587073 52.260157 
L 139.587073 51.855958 
L 142.55332 51.855958 
L 142.55332 51.451759 
L 146.667143 51.451759 
L 146.667143 51.047559 
L 148.378439 51.047559 
L 148.378439 50.64336 
L 150.324619 50.64336 
L 150.324619 50.23916 
L 159.404557 50.23916 
L 159.404557 49.834961 
L 160.686352 49.834961 
L 160.686352 49.430761 
L 163.142566 49.430761 
L 163.142566 49.026562 
L 166.457783 49.026562 
L 166.457783 48.622362 
L 170.752802 48.622362 
L 170.752802 48.218163 
L 171.068217 48.218163 
L 171.068217 47.813963 
L 174.739116 47.813963 
L 174.739116 47.409764 
L 177.457057 47.409764 
L 177.457057 47.005564 
L 179.819318 47.005564 
L 179.819318 46.601365 
L 182.805698 46.601365 
L 182.805698 46.197165 
L 183.449951 46.197165 
L 183.449951 45.792966 
L 183.704967 45.792966 
L 183.704967 45.388766 
L 185.973274 45.388766 
L 185.973274 44.984567 
L 187.738258 44.984567 
L 187.738258 44.580367 
L 188.16776 44.580367 
L 188.16776 44.176168 
L 191.865503 44.176168 
L 191.865503 43.771969 
L 196.375272 43.771969 
L 196.375272 43.367769 
L 200.623314 43.367769 
L 200.623314 42.96357 
L 206.958467 42.96357 
L 206.958467 42.55937 
L 207.642985 42.55937 
L 207.642985 42.155171 
L 211.709831 42.155171 
L 211.709831 41.750971 
L 213.843918 41.750971 
L 213.843918 41.346772 
L 215.447839 41.346772 
L 215.447839 40.942572 
L 219.031496 40.942572 
L 219.031496 40.538373 
L 219.54824 40.538373 
L 219.54824 40.134173 
L 224.514355 40.134173 
L 224.594887 39.325774 
L 232.936618 39.325774 
L 232.936618 38.921575 
L 234.916354 38.921575 
L 234.916354 38.517375 
L 237.466521 38.517375 
L 237.466521 38.113176 
L 237.66785 38.113176 
L 237.66785 37.708976 
L 238.593963 37.708976 
L 238.593963 37.304777 
L 240.493167 37.304777 
L 240.493167 36.900577 
L 246.754499 36.900577 
L 246.754499 36.496378 
L 255.686795 36.496378 
L 255.686795 36.092178 
L 258.975169 36.092178 
L 258.975169 35.687979 
L 260.209987 35.687979 
L 260.209987 35.28378 
L 261.820619 35.28378 
L 261.820619 34.87958 
L 268.887266 34.87958 
L 268.887266 34.475381 
L 283.69837 34.475381 
L 283.69837 34.071181 
L 292.335384 34.071181 
L 292.335384 33.666982 
L 299.516118 33.666982 
L 299.516118 33.262782 
L 304.435257 33.262782 
L 304.435257 32.858583 
L 314.94463 32.858583 
L 314.94463 32.454383 
L 319.602041 32.454383 
L 319.602041 32.050184 
L 320.4946 32.050184 
L 320.581842 31.241785 
L 328.225633 31.241785 
L 328.225633 30.837585 
L 332.305901 30.837585 
L 332.305901 30.433386 
L 334.084307 30.433386 
L 334.084307 30.029186 
L 339.406104 30.029186 
L 339.406104 29.624987 
L 346.781456 29.624987 
L 346.868698 28.816588 
L 352.485778 28.816588 
L 352.485778 28.412388 
L 357.371361 28.412388 
L 357.371361 28.008189 
L 359.357807 28.008189 
L 359.357807 27.60399 
L 359.941661 27.60399 
L 359.941661 27.19979 
L 367.84718 27.19979 
L 367.84718 26.795591 
L 370.48459 26.795591 
L 370.48459 26.391391 
L 371.028178 26.391391 
L 371.028178 25.987192 
L 372.088511 25.987192 
L 372.088511 25.582992 
L 374.571569 25.582992 
L 374.571569 25.178793 
L 376.994228 25.178793 
L 376.994228 24.774593 
L 378.88672 24.774593 
L 378.88672 24.370394 
L 384.027321 24.370394 
L 384.027321 23.966194 
L 385.624531 23.966194 
L 385.624531 23.561995 
L 389.167921 23.561995 
L 389.167921 23.157795 
L 391.375829 23.157795 
L 391.375829 22.753596 
L 397.757958 22.753596 
L 397.757958 22.349396 
L 400.610119 22.349396 
L 400.610119 21.945197 
L 404.193775 21.945197 
L 404.193775 21.540997 
L 406.623145 21.540997 
L 406.623145 21.136798 
L 409.065937 21.136798 
L 409.065937 20.732598 
L 412.468397 20.732598 
L 412.468397 20.328399 
L 416.206405 20.328399 
L 416.206405 19.924199 
L 418.890792 19.924199 
L 418.890792 19.52 
L 429.004219 19.52 
L 429.004219 19.52 
" clip-path="url(#pb4c0ff7021)" style="fill: none; stroke: #af4035; stroke-width: 1.2; stroke-linecap: square"/>
   </g>
   <g id="line2d_14">
    <path d="M 46.063042 173.52 
L 429.004219 19.52 
" clip-path="url(#pb4c0ff7021)" style="fill: none; stroke-dasharray: 2.22,0.96; stroke-dashoffset: 0; stroke: #505050; stroke-width: 0.6"/>
   </g>
   <g id="line2d_15">
    <path d="M 46.063042 173.52 
L 46.163707 81.36252 
L 46.197262 81.36252 
L 46.284504 79.745722 
L 46.304637 79.745722 
L 46.452278 77.320525 
L 46.754272 73.27853 
L 47.056265 73.27853 
L 47.056265 72.874331 
L 47.15693 72.874331 
L 47.217329 72.874331 
L 47.277727 71.257533 
L 47.317993 71.257533 
L 47.358259 71.257533 
L 47.398525 70.449134 
L 47.472345 70.449134 
L 47.5059 69.640735 
L 47.787761 69.640735 
L 47.875003 68.023937 
L 48.042777 68.023937 
L 48.042777 67.619738 
L 48.103176 67.619738 
L 48.378326 67.619738 
L 48.445435 66.811339 
L 48.915203 66.811339 
L 48.915203 66.407139 
L 49.009157 66.407139 
L 49.284306 66.407139 
L 49.284306 66.00294 
L 49.445369 66.00294 
L 49.445369 65.59874 
L 50.633211 65.59874 
L 50.633211 65.194541 
L 50.713742 65.194541 
L 52.01567 65.194541 
L 52.082779 64.790341 
L 53.33773 64.790341 
L 53.418262 63.981942 
L 54.190023 63.981942 
L 54.190023 63.577743 
L 54.210156 63.577743 
L 55.62617 63.577743 
L 55.62617 63.173543 
L 56.18318 63.173543 
L 56.18318 62.769344 
L 56.438197 62.769344 
L 56.438197 62.365144 
L 60.451355 62.365144 
L 60.451355 61.960945 
L 62.122385 61.960945 
L 62.122385 61.556745 
L 66.625444 61.556745 
L 66.625444 61.152546 
L 67.162321 61.152546 
L 67.162321 60.748346 
L 69.994349 60.748346 
L 69.994349 60.344147 
L 71.66538 60.344147 
L 71.66538 59.939948 
L 80.295683 59.939948 
L 80.295683 59.535748 
L 85.2014 59.535748 
L 85.2014 59.131549 
L 87.489839 59.131549 
L 87.489839 58.727349 
L 89.912498 58.727349 
L 89.912498 58.32315 
L 98.334761 58.32315 
L 98.334761 57.91895 
L 98.609911 57.91895 
L 98.609911 57.514751 
L 99.281007 57.514751 
L 99.281007 57.110551 
L 103.294165 57.110551 
L 103.294165 56.706352 
L 105.206791 56.706352 
L 105.206791 56.302152 
L 106.414765 56.302152 
L 106.414765 55.897953 
L 108.629384 55.897953 
L 108.629384 55.493753 
L 110.837292 55.493753 
L 110.837292 55.089554 
L 110.850714 55.089554 
L 111.823804 55.089554 
L 111.823804 54.685354 
L 111.904336 54.685354 
L 114.971247 54.685354 
L 114.971247 54.281155 
L 116.407394 54.281155 
L 116.407394 53.876955 
L 119.964207 53.876955 
L 119.964207 53.472756 
L 142.929134 53.472756 
L 142.929134 53.068556 
L 144.351859 53.068556 
L 144.351859 52.664357 
L 150.599769 52.664357 
L 150.599769 52.260157 
L 150.888341 52.260157 
L 150.888341 51.855958 
L 151.71379 51.855958 
L 151.71379 51.451759 
L 153.579438 51.451759 
L 153.579438 51.047559 
L 155.847745 51.047559 
L 155.847745 50.64336 
L 156.23027 50.64336 
L 156.23027 50.23916 
L 157.391267 50.23916 
L 157.391267 49.834961 
L 157.793925 49.834961 
L 157.793925 49.430761 
L 157.941567 49.430761 
L 157.941567 49.026562 
L 159.579042 49.026562 
L 159.579042 48.622362 
L 161.867482 48.622362 
L 161.867482 48.218163 
L 164.068679 48.218163 
L 164.068679 47.813963 
L 164.451204 47.813963 
L 164.451204 47.409764 
L 165.404161 47.409764 
L 165.404161 47.005564 
L 167.806687 47.005564 
L 167.806687 46.601365 
L 168.390542 46.601365 
L 168.390542 46.197165 
L 175.423635 46.197165 
L 175.423635 45.792966 
L 179.966959 45.792966 
L 179.966959 45.388766 
L 180.148155 45.388766 
L 180.148155 44.984567 
L 190.912546 44.984567 
L 190.912546 44.580367 
L 194.925704 44.580367 
L 194.925704 44.176168 
L 198.965705 44.176168 
L 198.965705 43.771969 
L 203.64996 43.771969 
L 203.64996 43.367769 
L 205.502187 43.367769 
L 205.502187 42.96357 
L 209.448235 42.96357 
L 209.448235 42.55937 
L 214.575414 42.55937 
L 214.575414 42.155171 
L 215.045181 42.155171 
L 215.045181 41.750971 
L 220.299868 41.750971 
L 220.299868 41.346772 
L 223.655352 41.346772 
L 223.655352 40.942572 
L 229.849574 40.942572 
L 229.849574 40.538373 
L 238.969777 40.538373 
L 238.996621 39.729974 
L 243.909049 39.729974 
L 243.909049 39.325774 
L 245.533103 39.325774 
L 245.533103 38.921575 
L 247.230977 38.921575 
L 247.230977 38.517375 
L 248.948985 38.517375 
L 248.948985 38.113176 
L 252.022607 38.113176 
L 252.022607 37.708976 
L 257.80075 37.708976 
L 257.80075 37.304777 
L 262.901084 37.304777 
L 262.901084 36.900577 
L 273.712451 36.900577 
L 273.712451 36.496378 
L 273.947335 36.496378 
L 273.947335 36.092178 
L 279.436906 36.092178 
L 279.436906 35.687979 
L 281.436774 35.687979 
L 281.436774 35.28378 
L 281.530728 35.28378 
L 286.214982 35.28378 
L 286.214982 34.87958 
L 306.213663 34.87958 
L 306.213663 34.475381 
L 310.575791 34.475381 
L 310.575791 34.071181 
L 311.112668 34.071181 
L 311.112668 33.666982 
L 314.286956 33.666982 
L 314.286956 33.262782 
L 317.427688 33.262782 
L 317.427688 32.858583 
L 318.810147 32.858583 
L 318.810147 32.454383 
L 321.930747 32.454383 
L 321.930747 32.050184 
L 324.293007 32.050184 
L 324.293007 31.645984 
L 325.937194 31.645984 
L 325.937194 31.241785 
L 326.319719 31.241785 
L 326.319719 30.837585 
L 333.648094 30.837585 
L 333.648094 30.433386 
L 335.178195 30.433386 
L 335.178195 30.029186 
L 335.345969 30.029186 
L 335.345969 29.624987 
L 339.372549 29.624987 
L 339.372549 29.220787 
L 344.412485 29.220787 
L 344.412485 28.816588 
L 353.452157 28.816588 
L 353.452157 28.412388 
L 355.988902 28.412388 
L 355.988902 28.008189 
L 356.337872 28.008189 
L 356.337872 27.60399 
L 356.411693 27.60399 
L 358.747109 27.60399 
L 358.747109 27.19979 
L 365.256747 27.19979 
L 365.256747 26.795591 
L 366.498276 26.795591 
L 366.498276 26.391391 
L 367.337147 26.391391 
L 367.337147 25.987192 
L 367.558609 25.987192 
L 367.558609 25.582992 
L 372.309973 25.582992 
L 372.309973 25.178793 
L 377.591504 25.178793 
L 377.591504 24.774593 
L 384.349447 24.774593 
L 384.349447 24.370394 
L 387.691508 24.370394 
L 387.691508 23.966194 
L 394.348787 23.966194 
L 394.348787 23.561995 
L 394.92593 23.561995 
L 394.92593 23.157795 
L 399.78467 23.157795 
L 399.78467 22.753596 
L 402.844871 22.753596 
L 402.844871 22.349396 
L 407.972049 22.349396 
L 407.972049 21.945197 
L 409.287399 21.945197 
L 409.287399 21.540997 
L 412.206669 21.540997 
L 412.206669 21.136798 
L 413.052251 21.136798 
L 413.052251 20.732598 
L 415.045408 20.732598 
L 415.045408 20.328399 
L 425.648735 20.328399 
L 425.648735 19.924199 
L 425.729267 19.924199 
L 426.648669 19.924199 
L 426.648669 19.52 
L 426.688935 19.52 
L 429.004219 19.52 
L 429.004219 19.52 
" clip-path="url(#pb4c0ff7021)" style="fill: none; stroke: #00937f; stroke-width: 1.2; stroke-linecap: square"/>
   </g>
   <g id="line2d_16">
    <path d="M 46.063042 173.52 
L 429.004219 19.52 
" clip-path="url(#pb4c0ff7021)" style="fill: none; stroke-dasharray: 2.22,0.96; stroke-dashoffset: 0; stroke: #505050; stroke-width: 0.6"/>
   </g>
   <g id="line2d_17">
    <path d="M 46.063042 173.52 
L 46.170418 80.95832 
L 46.18384 80.95832 
L 46.25766 76.916325 
L 46.297926 76.916325 
L 46.398591 74.086929 
L 46.418724 74.086929 
L 46.519388 71.661732 
L 46.566365 71.661732 
L 46.593209 70.853333 
L 46.774405 70.853333 
L 46.774405 70.449134 
L 46.995867 70.449134 
L 47.022711 69.640735 
L 47.338126 69.640735 
L 47.432079 68.832336 
L 47.539455 68.832336 
L 47.539455 68.428136 
L 47.673674 68.428136 
L 47.673674 68.023937 
L 48.19713 68.023937 
L 48.19713 67.619738 
L 48.955469 67.619738 
L 48.955469 67.215538 
L 49.015868 67.215538 
L 49.183642 67.215538 
L 49.183642 66.811339 
L 51.102978 66.811339 
L 51.102978 66.407139 
L 52.237132 66.407139 
L 52.237132 66.00294 
L 52.85454 66.00294 
L 52.85454 65.59874 
L 53.955139 65.59874 
L 53.955139 65.194541 
L 54.7269 65.194541 
L 54.7269 64.790341 
L 54.814143 64.790341 
L 55.807366 64.790341 
L 55.807366 64.386142 
L 55.914741 64.386142 
L 57.397865 64.386142 
L 57.397865 63.981942 
L 57.478396 63.981942 
L 58.719925 63.981942 
L 58.740058 63.173543 
L 58.82059 63.173543 
L 60.927833 63.173543 
L 60.927833 62.769344 
L 61.015076 62.769344 
L 61.659329 62.769344 
L 61.659329 62.365144 
L 61.672751 62.365144 
L 61.968033 62.365144 
L 61.968033 61.960945 
L 62.303581 61.960945 
L 62.350558 61.556745 
L 63.96119 61.556745 
L 63.96119 61.152546 
L 64.048433 61.152546 
L 65.457736 61.152546 
L 65.457736 60.748346 
L 66.591889 60.748346 
L 66.591889 60.344147 
L 66.645577 60.344147 
L 67.853551 60.344147 
L 67.853551 59.939948 
L 69.108502 59.939948 
L 69.108502 59.535748 
L 72.927042 59.535748 
L 72.974018 59.131549 
L 75.282591 59.131549 
L 75.282591 58.727349 
L 75.322857 58.727349 
L 77.651562 58.727349 
L 77.752227 57.91895 
L 79.403124 57.91895 
L 79.403124 57.514751 
L 79.503789 57.514751 
L 79.765517 57.514751 
L 79.765517 57.110551 
L 81.772096 57.110551 
L 81.772096 56.706352 
L 84.932961 56.706352 
L 84.932961 56.302152 
L 85.000071 56.302152 
L 87.999873 56.302152 
L 87.999873 55.897953 
L 88.020006 55.897953 
L 88.644125 55.897953 
L 88.644125 55.493753 
L 94.616886 55.493753 
L 94.616886 55.089554 
L 94.663862 55.089554 
L 94.85848 55.089554 
L 94.85848 54.685354 
L 94.959145 54.685354 
L 95.053099 54.685354 
L 95.053099 54.281155 
L 101.703666 54.281155 
L 101.824464 53.876955 
L 104.998751 53.876955 
L 104.998751 53.472756 
L 105.099416 53.472756 
L 105.649715 53.472756 
L 105.649715 53.068556 
L 105.743668 53.068556 
L 110.300415 53.068556 
L 110.300415 52.664357 
L 110.40779 52.664357 
L 112.877426 52.664357 
L 112.877426 52.260157 
L 112.924403 52.260157 
L 117.541548 52.260157 
L 117.622079 51.855958 
L 130.688331 51.855958 
L 130.795707 51.047559 
L 130.829261 51.047559 
L 130.829261 50.64336 
L 130.923215 50.64336 
L 133.238498 50.64336 
L 133.238498 50.23916 
L 133.292186 50.23916 
L 139.016641 50.23916 
L 139.016641 49.834961 
L 144.929002 49.834961 
L 145.043089 49.430761 
L 161.565489 49.430761 
L 161.599043 49.026562 
L 178.79254 49.026562 
L 178.906626 48.622362 
L 179.040846 48.622362 
L 179.040846 48.218163 
L 179.14151 48.218163 
L 186.053806 48.218163 
L 186.053806 47.813963 
L 186.147759 47.813963 
L 186.469886 47.813963 
L 186.469886 47.409764 
L 186.530284 47.409764 
L 187.805368 47.409764 
L 187.805368 47.005564 
L 187.892611 47.005564 
L 192.268161 47.005564 
L 192.268161 46.601365 
L 192.274872 46.601365 
L 194.288162 46.601365 
L 194.382115 46.197165 
L 196.019591 46.197165 
L 196.019591 45.792966 
L 196.120256 45.792966 
L 198.905307 45.792966 
L 199.093214 44.984567 
L 204.27408 44.984567 
L 204.27408 44.580367 
L 204.361323 44.580367 
L 204.596206 44.580367 
L 204.737137 44.176168 
L 211.998403 44.176168 
L 212.166177 43.771969 
L 217.736279 43.771969 
L 217.736279 43.367769 
L 222.125251 43.367769 
L 222.199072 42.96357 
L 222.829903 42.96357 
L 222.943989 42.55937 
L 229.6818 42.55937 
L 229.6818 42.155171 
L 229.782464 42.155171 
L 238.815425 42.155171 
L 238.815425 41.750971 
L 238.855691 41.750971 
L 240.526722 41.750971 
L 240.640808 41.346772 
L 242.258151 41.346772 
L 242.862138 40.538373 
L 246.009581 40.538373 
L 246.009581 40.134173 
L 246.029714 40.134173 
L 247.492705 40.134173 
L 247.566526 39.729974 
L 251.270979 39.729974 
L 251.270979 39.325774 
L 251.378355 39.325774 
L 254.579486 39.325774 
L 254.579486 38.921575 
L 254.666728 38.921575 
L 255.331114 38.921575 
L 255.847858 38.517375 
L 268.558429 38.517375 
L 268.558429 38.113176 
L 272.309859 38.113176 
L 272.309859 37.708976 
L 272.417235 37.708976 
L 279.571125 37.708976 
L 279.571125 37.304777 
L 280.765677 37.304777 
L 280.866342 36.900577 
L 284.919766 36.900577 
L 284.919766 36.496378 
L 285.02043 36.496378 
L 290.926081 36.496378 
L 290.926081 36.092178 
L 291.020034 36.092178 
L 294.261431 36.092178 
L 294.261431 35.687979 
L 294.335252 35.687979 
L 295.053325 35.687979 
L 295.053325 35.28378 
L 295.073458 35.28378 
L 307.247152 35.28378 
L 307.247152 34.87958 
L 307.347816 34.87958 
L 310.84423 34.87958 
L 310.958316 34.475381 
L 313.327287 34.475381 
L 313.327287 34.071181 
L 313.407819 34.071181 
L 314.937919 34.071181 
L 315.045295 33.666982 
L 319.004765 33.666982 
L 319.10543 33.262782 
L 324.595 33.262782 
L 324.722509 32.858583 
L 325.762708 32.858583 
L 325.762708 32.454383 
L 325.84324 32.454383 
L 328.681979 32.454383 
L 328.681979 32.050184 
L 328.782643 32.050184 
L 329.252411 32.050184 
L 329.306099 31.241785 
L 329.353076 31.241785 
L 333.567563 31.241785 
L 333.681649 30.837585 
L 340.97647 30.837585 
L 341.1174 30.433386 
L 342.332085 30.433386 
L 342.452882 29.624987 
L 346.070093 29.624987 
L 346.070093 29.220787 
L 346.170758 29.220787 
L 347.747835 29.220787 
L 347.821656 28.816588 
L 355.48558 28.816588 
L 355.572822 28.412388 
L 355.673487 28.412388 
L 355.821128 28.008189 
L 358.539069 28.008189 
L 358.653156 27.60399 
L 363.632693 27.60399 
L 363.646115 27.19979 
L 364.276946 27.19979 
L 364.276946 26.795591 
L 364.37761 26.795591 
L 364.538674 26.795591 
L 364.921199 26.391391 
L 365.988242 26.391391 
L 366.464721 25.987192 
L 368.726317 25.987192 
L 368.840403 25.582992 
L 374.269575 25.582992 
L 374.363529 25.178793 
L 375.786254 25.178793 
L 375.90034 24.774593 
L 383.651506 24.774593 
L 383.752171 23.966194 
L 386.067454 23.966194 
L 386.067454 23.561995 
L 386.168119 23.561995 
L 399.737693 23.561995 
L 399.871913 23.157795 
L 399.945733 23.157795 
L 400.053109 22.753596 
L 403.636765 22.753596 
L 403.636765 22.349396 
L 403.737429 22.349396 
L 408.367996 22.349396 
L 408.367996 21.945197 
L 408.475372 21.945197 
L 410.703413 21.945197 
L 410.817499 21.540997 
L 411.186602 21.540997 
L 411.347666 21.136798 
L 415.320558 21.136798 
L 415.461488 20.732598 
L 424.608536 20.732598 
L 424.608536 20.328399 
L 424.7092 20.328399 
L 425.078303 20.328399 
L 425.427274 19.52 
L 429.004219 19.52 
L 429.004219 19.52 
" clip-path="url(#pb4c0ff7021)" style="fill: none; stroke: #3d6384; stroke-width: 1.2; stroke-linecap: square"/>
   </g>
   <g id="line2d_18">
    <path d="M 46.063042 173.52 
L 429.004219 19.52 
" clip-path="url(#pb4c0ff7021)" style="fill: none; stroke-dasharray: 2.22,0.96; stroke-dashoffset: 0; stroke: #505050; stroke-width: 0.6"/>
   </g>
   <g id="line2d_19">
    <path d="M 46.063042 173.52 
L 46.170418 108.848084 
L 46.177129 108.848084 
L 46.284504 96.7221 
L 46.291215 96.7221 
L 46.39188 93.488504 
L 46.438856 93.488504 
L 46.512677 90.659108 
L 46.566365 90.659108 
L 46.67374 84.596115 
L 46.714006 84.596115 
L 46.787827 82.170919 
L 46.828092 82.170919 
L 46.935468 79.745722 
L 46.982445 79.745722 
L 47.069687 78.937323 
L 47.103242 78.937323 
L 47.123375 77.724724 
L 47.217329 77.724724 
L 47.317993 76.512126 
L 47.579721 76.512126 
L 47.579721 75.703727 
L 47.754206 75.703727 
L 47.848159 74.895328 
L 47.908558 74.895328 
L 47.982379 73.27853 
L 48.190419 73.27853 
L 48.257528 72.470131 
L 48.734007 72.470131 
L 48.841382 70.044934 
L 49.156798 70.044934 
L 49.156798 69.640735 
L 49.317861 69.640735 
L 49.317861 69.236535 
L 50.00238 69.236535 
L 50.00238 68.832336 
L 50.317795 68.832336 
L 50.317795 68.428136 
L 50.55939 68.428136 
L 50.55939 68.023937 
L 53.40484 68.023937 
L 53.40484 67.619738 
L 54.592681 67.619738 
L 54.592681 67.215538 
L 54.86783 67.215538 
L 54.86783 66.811339 
L 56.424775 66.811339 
L 56.424775 66.407139 
L 56.968363 66.407139 
L 56.968363 66.00294 
L 57.787101 66.00294 
L 57.787101 65.59874 
L 59.424577 65.59874 
L 59.424577 65.194541 
L 59.666172 65.194541 
L 59.666172 64.790341 
L 60.538597 64.790341 
L 60.538597 64.386142 
L 60.900989 64.386142 
L 60.900989 63.981942 
L 62.605575 63.981942 
L 62.632419 63.173543 
L 63.410891 63.173543 
L 63.410891 62.769344 
L 64.075277 62.769344 
L 64.075277 62.365144 
L 65.283251 62.365144 
L 65.283251 61.960945 
L 68.356873 61.960945 
L 68.356873 61.556745 
L 73.812889 61.556745 
L 73.812889 61.152546 
L 77.91329 61.152546 
L 77.91329 60.748346 
L 88.617282 60.748346 
L 88.617282 60.344147 
L 90.469508 60.344147 
L 90.469508 59.939948 
L 94.395424 59.939948 
L 94.402135 59.535748 
L 94.791371 59.535748 
L 94.791371 59.131549 
L 98.730708 59.131549 
L 98.730708 58.727349 
L 98.770974 58.727349 
L 98.891771 58.727349 
L 98.891771 58.32315 
L 100.737287 58.32315 
L 100.737287 57.91895 
L 102.884797 57.91895 
L 102.884797 57.514751 
L 102.958617 57.514751 
L 103.354564 57.514751 
L 103.354564 57.110551 
L 105.428253 57.110551 
L 105.428253 56.706352 
L 109.669584 56.706352 
L 109.669584 56.302152 
L 109.756826 56.302152 
L 117.56168 56.302152 
L 117.56168 55.897953 
L 117.669056 55.897953 
L 121.292978 55.897953 
L 121.292978 55.493753 
L 127.34627 55.493753 
L 127.34627 55.089554 
L 129.024011 55.089554 
L 129.024011 54.685354 
L 129.124676 54.685354 
L 129.144809 54.685354 
L 129.144809 54.281155 
L 129.238762 54.281155 
L 129.366271 54.281155 
L 129.366271 53.876955 
L 130.211853 53.876955 
L 130.211853 53.472756 
L 130.292384 53.472756 
L 134.386074 53.472756 
L 134.386074 53.068556 
L 134.473316 53.068556 
L 134.889396 53.068556 
L 134.889396 52.664357 
L 134.990061 52.664357 
L 137.218102 52.664357 
L 137.218102 52.260157 
L 137.258367 52.260157 
L 139.338767 52.260157 
L 139.338767 51.855958 
L 140.392389 51.855958 
L 140.392389 51.451759 
L 140.499764 51.451759 
L 141.499698 51.451759 
L 141.499698 51.047559 
L 142.331858 51.047559 
L 142.331858 50.64336 
L 142.633852 50.64336 
L 142.633852 50.23916 
L 145.626943 50.23916 
L 145.626943 49.834961 
L 149.640101 49.834961 
L 149.640101 49.430761 
L 150.868208 49.430761 
L 150.868208 49.026562 
L 150.948739 49.026562 
L 152.613059 49.026562 
L 152.613059 48.622362 
L 152.646614 48.622362 
L 155.753791 48.622362 
L 155.753791 48.218163 
L 155.800768 48.218163 
L 158.042231 48.218163 
L 158.042231 47.813963 
L 158.639507 47.813963 
L 158.666351 47.409764 
L 160.60582 47.409764 
L 160.60582 47.005564 
L 165.343763 47.005564 
L 165.343763 46.601365 
L 167.585226 46.601365 
L 167.585226 46.197165 
L 173.235859 46.197165 
L 173.235859 45.792966 
L 177.665097 45.792966 
L 177.665097 45.388766 
L 180.430016 45.388766 
L 180.430016 44.984567 
L 181.91985 44.984567 
L 181.91985 44.580367 
L 184.644503 44.580367 
L 184.644503 44.176168 
L 184.986762 44.176168 
L 184.986762 43.771969 
L 187.389288 43.771969 
L 187.389288 43.367769 
L 187.429554 43.367769 
L 190.825303 43.367769 
L 190.825303 42.96357 
L 190.878991 42.96357 
L 201.589693 42.96357 
L 201.596404 42.55937 
L 202.703714 42.55937 
L 202.703714 41.750971 
L 205.428366 41.750971 
L 205.428366 41.346772 
L 205.52232 41.346772 
L 206.804114 41.346772 
L 206.804114 40.942572 
L 206.884646 40.942572 
L 224.400269 40.942572 
L 224.574754 40.134173 
L 230.493827 40.134173 
L 230.513959 39.729974 
L 230.661601 39.729974 
L 230.661601 39.325774 
L 230.768976 39.325774 
L 240.848848 39.325774 
L 240.848848 38.921575 
L 240.942802 38.921575 
L 242.479613 38.921575 
L 242.479613 38.517375 
L 242.533301 38.517375 
L 243.338617 38.517375 
L 243.345328 38.113176 
L 251.41862 38.113176 
L 251.41862 37.708976 
L 251.519285 37.708976 
L 253.069518 37.708976 
L 253.069518 37.304777 
L 253.176894 37.304777 
L 268.196037 37.304777 
L 268.196037 36.900577 
L 268.303412 36.900577 
L 271.162284 36.900577 
L 271.162284 36.496378 
L 273.537966 36.496378 
L 273.537966 36.092178 
L 273.605076 36.092178 
L 274.081555 36.092178 
L 274.081555 35.687979 
L 282.490396 35.687979 
L 282.490396 35.28378 
L 285.980098 35.28378 
L 285.980098 34.87958 
L 286.033786 34.87958 
L 287.906146 34.87958 
L 287.906146 34.475381 
L 289.489934 34.475381 
L 289.489934 34.071181 
L 289.550333 34.071181 
L 290.811994 34.071181 
L 290.811994 33.666982 
L 302.072996 33.666982 
L 302.072996 33.262782 
L 302.126684 33.262782 
L 305.683496 33.262782 
L 305.683496 32.858583 
L 308.039046 32.858583 
L 308.039046 32.454383 
L 308.106155 32.454383 
L 310.515392 32.454383 
L 310.515392 32.050184 
L 310.555658 32.050184 
L 315.166092 32.050184 
L 315.273468 31.645984 
L 316.944498 31.645984 
L 316.944498 31.241785 
L 317.031741 31.241785 
L 319.360446 31.241785 
L 319.360446 30.837585 
L 319.380579 30.837585 
L 321.528089 30.837585 
L 321.528089 30.029186 
L 321.615331 30.029186 
L 323.266229 30.029186 
L 323.266229 29.624987 
L 323.319917 29.624987 
L 332.970287 29.624987 
L 332.970287 29.220787 
L 340.325506 29.220787 
L 340.325506 28.816588 
L 340.338928 28.816588 
L 342.379062 28.816588 
L 342.379062 28.412388 
L 342.486437 28.412388 
L 358.82093 28.412388 
L 358.82093 28.008189 
L 358.921594 28.008189 
L 367.632429 28.008189 
L 367.759938 27.60399 
L 375.115157 27.60399 
L 375.115157 27.19979 
L 375.846652 27.19979 
L 375.974161 26.795591 
L 377.155291 26.795591 
L 377.155291 26.391391 
L 381.899944 26.391391 
L 381.926788 25.987192 
L 389.745064 25.987192 
L 389.745064 25.582992 
L 389.85244 25.582992 
L 392.442873 25.582992 
L 392.442873 25.178793 
L 392.503271 25.178793 
L 392.885796 25.178793 
L 392.885796 24.774593 
L 396.791579 24.774593 
L 396.791579 24.370394 
L 396.811712 24.370394 
L 401.878492 24.370394 
L 401.878492 23.966194 
L 401.905336 23.966194 
L 403.992446 23.966194 
L 403.992446 23.561995 
L 404.16022 23.561995 
L 404.16022 23.157795 
L 404.260885 23.157795 
L 404.36826 23.157795 
L 404.36826 22.753596 
L 404.455503 22.753596 
L 408.649857 22.753596 
L 408.649857 22.349396 
L 408.723678 22.349396 
L 409.065937 22.349396 
L 409.065937 21.945197 
L 409.15318 21.945197 
L 412.085872 21.945197 
L 412.085872 21.540997 
L 413.132783 21.540997 
L 413.132783 21.136798 
L 413.199892 21.136798 
L 413.568996 21.136798 
L 413.568996 20.732598 
L 413.622683 20.732598 
L 415.293714 20.732598 
L 415.293714 20.328399 
L 419.0183 20.328399 
L 419.0183 19.924199 
L 419.092121 19.924199 
L 425.044748 19.924199 
L 425.044748 19.52 
L 429.004219 19.52 
L 429.004219 19.52 
" clip-path="url(#pb4c0ff7021)" style="fill: none; stroke: #6d9bc3; stroke-width: 1.2; stroke-linecap: square"/>
   </g>
   <g id="line2d_20">
    <path d="M 46.063042 173.52 
L 429.004219 19.52 
" clip-path="url(#pb4c0ff7021)" style="fill: none; stroke-dasharray: 2.22,0.96; stroke-dashoffset: 0; stroke: #505050; stroke-width: 0.6"/>
   </g>
   <g id="patch_3">
    <path d="M 38.404219 173.52 
L 38.404219 7.2 
" style="fill: none; stroke: #bbbbbb; stroke-linejoin: miter; stroke-linecap: square"/>
   </g>
   <g id="patch_4">
    <path d="M 38.404219 173.52 
L 429.004219 173.52 
" style="fill: none; stroke: #bbbbbb; stroke-linejoin: miter; stroke-linecap: square"/>
   </g>
   <g id="legend_1">
    <g id="line2d_21">
     <path d="M 436.204219 17.86375 
L 444.204219 17.86375 
L 452.204219 17.86375 
" style="fill: none; stroke: #af4035; stroke-width: 1.2; stroke-linecap: square"/>
    </g>
    <g id="text_15">
     <!-- Logistic Regression (AUC = 0.861) -->
     <g style="fill: #4b4b4b" transform="translate(458.604219 20.66375) scale(0.08 -0.08)">
      <defs>
       <path id="Ubuntu-4c" d="M 3219 538 
L 3219 0 
L 550 0 
L 550 4435 
L 1171 4435 
L 1171 538 
L 3219 538 
z
" transform="scale(0.015625)"/>
       <path id="Ubuntu-6f" d="M 3450 1664 
Q 3450 1267 3334 947 
Q 3219 627 3011 396 
Q 2803 166 2515 41 
Q 2227 -83 1888 -83 
Q 1549 -83 1261 41 
Q 973 166 765 396 
Q 557 627 441 947 
Q 326 1267 326 1664 
Q 326 2054 441 2377 
Q 557 2701 765 2931 
Q 973 3162 1261 3286 
Q 1549 3411 1888 3411 
Q 2227 3411 2515 3286 
Q 2803 3162 3011 2931 
Q 3219 2701 3334 2377 
Q 3450 2054 3450 1664 
z
M 2829 1664 
Q 2829 2227 2576 2556 
Q 2323 2886 1888 2886 
Q 1453 2886 1200 2556 
Q 947 2227 947 1664 
Q 947 1101 1200 771 
Q 1453 442 1888 442 
Q 2323 442 2576 771 
Q 2829 1101 2829 1664 
z
" transform="scale(0.015625)"/>
       <path id="Ubuntu-67" d="M 2598 333 
Q 2522 282 2301 202 
Q 2080 122 1786 122 
Q 1485 122 1219 218 
Q 954 314 755 515 
Q 557 717 441 1017 
Q 326 1318 326 1734 
Q 326 2099 435 2403 
Q 544 2707 752 2928 
Q 960 3149 1261 3273 
Q 1562 3398 1939 3398 
Q 2355 3398 2665 3337 
Q 2976 3277 3187 3226 
L 3187 256 
Q 3187 -512 2790 -857 
Q 2394 -1203 1587 -1203 
Q 1274 -1203 995 -1152 
Q 717 -1101 512 -1030 
L 621 -512 
Q 800 -582 1059 -636 
Q 1318 -691 1600 -691 
Q 2131 -691 2364 -480 
Q 2598 -269 2598 192 
L 2598 333 
z
M 2592 2803 
Q 2502 2829 2352 2851 
Q 2202 2874 1946 2874 
Q 1466 2874 1206 2560 
Q 947 2246 947 1728 
Q 947 1440 1020 1235 
Q 1094 1030 1219 896 
Q 1344 762 1507 698 
Q 1670 634 1843 634 
Q 2080 634 2278 701 
Q 2477 768 2592 858 
L 2592 2803 
z
" transform="scale(0.015625)"/>
       <path id="Ubuntu-69" d="M 1107 0 
L 512 0 
L 512 3328 
L 1107 3328 
L 1107 0 
z
M 806 3930 
Q 646 3930 534 4035 
Q 422 4141 422 4320 
Q 422 4499 534 4604 
Q 646 4710 806 4710 
Q 966 4710 1078 4604 
Q 1190 4499 1190 4320 
Q 1190 4141 1078 4035 
Q 966 3930 806 3930 
z
" transform="scale(0.015625)"/>
       <path id="Ubuntu-73" d="M 1286 429 
Q 1651 429 1827 525 
Q 2003 621 2003 832 
Q 2003 1050 1830 1178 
Q 1658 1306 1261 1466 
Q 1069 1542 893 1622 
Q 717 1702 589 1811 
Q 461 1920 384 2073 
Q 307 2227 307 2451 
Q 307 2893 633 3152 
Q 960 3411 1523 3411 
Q 1664 3411 1805 3395 
Q 1946 3379 2067 3356 
Q 2189 3334 2281 3308 
Q 2374 3283 2426 3264 
L 2317 2752 
Q 2221 2803 2016 2857 
Q 1811 2912 1523 2912 
Q 1274 2912 1088 2813 
Q 902 2714 902 2502 
Q 902 2394 944 2310 
Q 986 2227 1072 2160 
Q 1158 2093 1286 2035 
Q 1414 1978 1594 1914 
Q 1830 1824 2016 1737 
Q 2202 1651 2333 1536 
Q 2464 1421 2534 1257 
Q 2605 1094 2605 858 
Q 2605 397 2262 160 
Q 1920 -77 1286 -77 
Q 845 -77 595 -3 
Q 346 70 256 109 
L 365 621 
Q 467 582 691 505 
Q 915 429 1286 429 
z
" transform="scale(0.015625)"/>
       <path id="Ubuntu-74" d="M 1069 3328 
L 2330 3328 
L 2330 2829 
L 1069 2829 
L 1069 1293 
Q 1069 1043 1107 880 
Q 1146 717 1222 624 
Q 1299 531 1414 492 
Q 1530 454 1683 454 
Q 1952 454 2115 515 
Q 2278 576 2342 602 
L 2458 109 
Q 2368 64 2144 -3 
Q 1920 -70 1632 -70 
Q 1293 -70 1072 16 
Q 851 102 716 275 
Q 582 448 528 701 
Q 474 954 474 1286 
L 474 4256 
L 1069 4358 
L 1069 3328 
z
" transform="scale(0.015625)"/>
       <path id="Ubuntu-63" d="M 1958 -77 
Q 1555 -77 1251 51 
Q 947 179 739 409 
Q 531 640 428 957 
Q 326 1274 326 1658 
Q 326 2042 438 2362 
Q 550 2682 755 2915 
Q 960 3149 1257 3280 
Q 1555 3411 1920 3411 
Q 2144 3411 2368 3372 
Q 2592 3334 2797 3251 
L 2662 2746 
Q 2528 2810 2352 2848 
Q 2176 2886 1978 2886 
Q 1478 2886 1212 2572 
Q 947 2259 947 1658 
Q 947 1389 1008 1165 
Q 1069 941 1200 781 
Q 1331 621 1536 534 
Q 1741 448 2035 448 
Q 2272 448 2464 493 
Q 2656 538 2765 589 
L 2848 90 
Q 2797 58 2701 29 
Q 2605 0 2483 -22 
Q 2362 -45 2224 -61 
Q 2086 -77 1958 -77 
z
" transform="scale(0.015625)"/>
       <path id="Ubuntu-20" transform="scale(0.015625)"/>
       <path id="Ubuntu-52" d="M 2720 1856 
Q 2822 1728 2979 1520 
Q 3136 1312 3302 1059 
Q 3469 806 3632 531 
Q 3795 256 3910 0 
L 3232 0 
Q 3104 243 2953 492 
Q 2803 742 2649 969 
Q 2496 1197 2345 1395 
Q 2195 1594 2074 1741 
Q 1990 1734 1904 1734 
Q 1818 1734 1728 1734 
L 1171 1734 
L 1171 0 
L 550 0 
L 550 4371 
Q 813 4435 1136 4457 
Q 1459 4480 1728 4480 
Q 2662 4480 3152 4128 
Q 3642 3776 3642 3078 
Q 3642 2637 3408 2323 
Q 3174 2010 2720 1856 
z
M 1779 3936 
Q 1382 3936 1171 3917 
L 1171 2246 
L 1613 2246 
Q 1933 2246 2189 2278 
Q 2445 2310 2621 2400 
Q 2797 2490 2893 2653 
Q 2989 2816 2989 3085 
Q 2989 3334 2893 3500 
Q 2797 3667 2633 3763 
Q 2470 3859 2249 3897 
Q 2029 3936 1779 3936 
z
" transform="scale(0.015625)"/>
       <path id="Ubuntu-65" d="M 326 1658 
Q 326 2099 454 2428 
Q 582 2758 793 2976 
Q 1005 3194 1280 3302 
Q 1555 3411 1843 3411 
Q 2515 3411 2873 2992 
Q 3232 2573 3232 1715 
Q 3232 1677 3232 1616 
Q 3232 1555 3226 1504 
L 947 1504 
Q 986 986 1248 717 
Q 1510 448 2067 448 
Q 2381 448 2595 502 
Q 2810 557 2918 608 
L 3002 109 
Q 2893 51 2621 -13 
Q 2349 -77 2003 -77 
Q 1568 -77 1251 54 
Q 934 186 729 416 
Q 525 646 425 963 
Q 326 1280 326 1658 
z
M 2611 1984 
Q 2618 2387 2410 2646 
Q 2202 2906 1837 2906 
Q 1632 2906 1475 2826 
Q 1318 2746 1209 2618 
Q 1101 2490 1040 2323 
Q 979 2157 960 1984 
L 2611 1984 
z
" transform="scale(0.015625)"/>
       <path id="Ubuntu-72" d="M 1741 3398 
Q 1818 3398 1917 3388 
Q 2016 3379 2112 3363 
Q 2208 3347 2288 3331 
Q 2368 3315 2406 3302 
L 2304 2784 
Q 2234 2810 2070 2845 
Q 1907 2880 1651 2880 
Q 1485 2880 1321 2845 
Q 1158 2810 1107 2797 
L 1107 0 
L 512 0 
L 512 3187 
Q 723 3264 1036 3331 
Q 1350 3398 1741 3398 
z
" transform="scale(0.015625)"/>
       <path id="Ubuntu-6e" d="M 512 3232 
Q 717 3283 1056 3340 
Q 1395 3398 1837 3398 
Q 2234 3398 2496 3286 
Q 2758 3174 2915 2972 
Q 3072 2771 3136 2489 
Q 3200 2208 3200 1869 
L 3200 0 
L 2605 0 
L 2605 1741 
Q 2605 2048 2563 2265 
Q 2522 2483 2426 2617 
Q 2330 2752 2170 2813 
Q 2010 2874 1773 2874 
Q 1677 2874 1574 2867 
Q 1472 2861 1379 2851 
Q 1286 2842 1212 2829 
Q 1139 2816 1107 2810 
L 1107 0 
L 512 0 
L 512 3232 
z
" transform="scale(0.015625)"/>
       <path id="Ubuntu-28" d="M 1094 1914 
Q 1094 1094 1331 396 
Q 1568 -301 2029 -896 
L 1606 -1184 
Q 1107 -576 803 214 
Q 499 1005 499 1914 
Q 499 2822 803 3612 
Q 1107 4403 1606 5011 
L 2029 4723 
Q 1568 4128 1331 3430 
Q 1094 2733 1094 1914 
z
" transform="scale(0.015625)"/>
       <path id="Ubuntu-41" d="M 3514 0 
Q 3405 288 3309 566 
Q 3213 845 3110 1133 
L 1101 1133 
L 698 0 
L 51 0 
Q 307 704 531 1302 
Q 755 1901 969 2438 
Q 1184 2976 1395 3465 
Q 1606 3955 1837 4435 
L 2406 4435 
Q 2637 3955 2848 3465 
Q 3059 2976 3273 2438 
Q 3488 1901 3712 1302 
Q 3936 704 4192 0 
L 3514 0 
z
M 2931 1645 
Q 2726 2202 2524 2723 
Q 2323 3245 2106 3725 
Q 1882 3245 1680 2723 
Q 1478 2202 1280 1645 
L 2931 1645 
z
" transform="scale(0.015625)"/>
       <path id="Ubuntu-55" d="M 2202 -96 
Q 1766 -96 1446 38 
Q 1126 173 921 406 
Q 717 640 617 960 
Q 518 1280 518 1651 
L 518 4435 
L 1139 4435 
L 1139 1722 
Q 1139 1056 1433 755 
Q 1728 454 2202 454 
Q 2438 454 2633 528 
Q 2829 602 2969 755 
Q 3110 909 3187 1149 
Q 3264 1389 3264 1722 
L 3264 4435 
L 3885 4435 
L 3885 1651 
Q 3885 1280 3785 960 
Q 3686 640 3478 406 
Q 3270 173 2953 38 
Q 2637 -96 2202 -96 
z
" transform="scale(0.015625)"/>
       <path id="Ubuntu-43" d="M 2458 -96 
Q 1990 -96 1606 57 
Q 1222 211 947 505 
Q 672 800 521 1232 
Q 371 1664 371 2221 
Q 371 2778 540 3210 
Q 710 3642 998 3936 
Q 1286 4230 1670 4384 
Q 2054 4538 2490 4538 
Q 2765 4538 2985 4499 
Q 3206 4461 3369 4409 
Q 3533 4358 3635 4307 
Q 3738 4256 3776 4230 
L 3597 3718 
Q 3539 3757 3430 3801 
Q 3322 3846 3184 3891 
Q 3046 3936 2883 3965 
Q 2720 3994 2554 3994 
Q 2202 3994 1920 3872 
Q 1638 3750 1440 3520 
Q 1242 3290 1136 2960 
Q 1030 2630 1030 2221 
Q 1030 1824 1123 1497 
Q 1216 1171 1401 937 
Q 1587 704 1865 576 
Q 2144 448 2515 448 
Q 2944 448 3225 537 
Q 3507 627 3648 698 
L 3808 186 
Q 3763 154 3648 106 
Q 3533 58 3360 13 
Q 3187 -32 2956 -64 
Q 2726 -96 2458 -96 
z
" transform="scale(0.015625)"/>
       <path id="Ubuntu-3d" d="M 339 1485 
L 3270 1485 
L 3270 979 
L 339 979 
L 339 1485 
z
M 339 2848 
L 3270 2848 
L 3270 2342 
L 339 2342 
L 339 2848 
z
" transform="scale(0.015625)"/>
       <path id="Ubuntu-29" d="M 979 1914 
Q 979 2733 742 3430 
Q 506 4128 45 4723 
L 467 5011 
Q 966 4403 1270 3612 
Q 1574 2822 1574 1914 
Q 1574 1005 1270 214 
Q 966 -576 467 -1184 
L 45 -896 
Q 506 -301 742 396 
Q 979 1094 979 1914 
z
" transform="scale(0.015625)"/>
      </defs>
      <use xlink:href="#Ubuntu-4c"/>
      <use xlink:href="#Ubuntu-6f" x="50.649994"/>
      <use xlink:href="#Ubuntu-67" x="109.649979"/>
      <use xlink:href="#Ubuntu-69" x="167.449966"/>
      <use xlink:href="#Ubuntu-73" x="192.749954"/>
      <use xlink:href="#Ubuntu-74" x="237.349945"/>
      <use xlink:href="#Ubuntu-69" x="277.549942"/>
      <use xlink:href="#Ubuntu-63" x="302.84993"/>
      <use xlink:href="#Ubuntu-20" x="349.349915"/>
      <use xlink:href="#Ubuntu-52" x="372.449905"/>
      <use xlink:href="#Ubuntu-65" x="435.349899"/>
      <use xlink:href="#Ubuntu-67" x="491.249893"/>
      <use xlink:href="#Ubuntu-72" x="549.049881"/>
      <use xlink:href="#Ubuntu-65" x="587.649872"/>
      <use xlink:href="#Ubuntu-73" x="643.549866"/>
      <use xlink:href="#Ubuntu-73" x="688.149857"/>
      <use xlink:href="#Ubuntu-69" x="732.749847"/>
      <use xlink:href="#Ubuntu-6f" x="758.049835"/>
      <use xlink:href="#Ubuntu-6e" x="817.04982"/>
      <use xlink:href="#Ubuntu-20" x="874.449814"/>
      <use xlink:href="#Ubuntu-28" x="897.549805"/>
      <use xlink:href="#Ubuntu-41" x="929.949799"/>
      <use xlink:href="#Ubuntu-55" x="995.249786"/>
      <use xlink:href="#Ubuntu-43" x="1064.049774"/>
      <use xlink:href="#Ubuntu-20" x="1126.049759"/>
      <use xlink:href="#Ubuntu-3d" x="1149.14975"/>
      <use xlink:href="#Ubuntu-20" x="1205.549744"/>
      <use xlink:href="#Ubuntu-30" x="1228.649734"/>
      <use xlink:href="#Ubuntu-2e" x="1285.049728"/>
      <use xlink:href="#Ubuntu-38" x="1309.649719"/>
      <use xlink:href="#Ubuntu-36" x="1366.049713"/>
      <use xlink:href="#Ubuntu-31" x="1422.449707"/>
      <use xlink:href="#Ubuntu-29" x="1478.849701"/>
     </g>
    </g>
    <g id="PathCollection_5">
     <path d="M 444.204219 33.810534 
C 445.141853 33.810534 446.041211 33.438008 446.704219 32.775 
C 447.367227 32.111992 447.739753 31.212635 447.739753 30.275 
C 447.739753 29.337365 447.367227 28.438008 446.704219 27.775 
C 446.041211 27.111992 445.141853 26.739466 444.204219 26.739466 
C 443.266584 26.739466 442.367227 27.111992 441.704219 27.775 
C 441.041211 28.438008 440.668685 29.337365 440.668685 30.275 
C 440.668685 31.212635 441.041211 32.111992 441.704219 32.775 
C 442.367227 33.438008 443.266584 33.810534 444.204219 33.810534 
L 444.204219 33.810534 
z
" style="fill: none; stroke: #505050; stroke-width: 1.5"/>
    </g>
    <g id="text_16">
     <!-- 0.5 Predict Probability Threshold -->
     <g style="fill: #4b4b4b" transform="translate(458.604219 32.375) scale(0.08 -0.08)">
      <defs>
       <path id="Ubuntu-35" d="M 1274 2726 
Q 2240 2688 2691 2304 
Q 3142 1920 3142 1261 
Q 3142 966 3043 716 
Q 2944 467 2742 288 
Q 2541 109 2233 6 
Q 1926 -96 1504 -96 
Q 1338 -96 1165 -70 
Q 992 -45 845 -6 
Q 698 32 582 70 
Q 467 109 416 134 
L 531 653 
Q 640 602 886 518 
Q 1133 435 1491 435 
Q 1779 435 1974 499 
Q 2170 563 2291 672 
Q 2413 781 2467 925 
Q 2522 1069 2522 1229 
Q 2522 1472 2438 1661 
Q 2355 1850 2144 1978 
Q 1933 2106 1581 2173 
Q 1229 2240 691 2240 
Q 730 2554 752 2829 
Q 774 3104 793 3366 
Q 813 3629 825 3888 
Q 838 4147 851 4435 
L 2989 4435 
L 2989 3930 
L 1370 3930 
Q 1363 3834 1350 3670 
Q 1338 3507 1325 3331 
Q 1312 3155 1299 2988 
Q 1286 2822 1274 2726 
z
" transform="scale(0.015625)"/>
       <path id="Ubuntu-50" d="M 1728 4480 
Q 2662 4480 3164 4125 
Q 3667 3770 3667 3066 
Q 3667 2682 3529 2410 
Q 3392 2138 3133 1968 
Q 2874 1798 2502 1721 
Q 2131 1645 1664 1645 
L 1171 1645 
L 1171 0 
L 550 0 
L 550 4371 
Q 813 4435 1136 4457 
Q 1459 4480 1728 4480 
z
M 1779 3936 
Q 1382 3936 1171 3917 
L 1171 2176 
L 1638 2176 
Q 1958 2176 2214 2217 
Q 2470 2259 2646 2358 
Q 2822 2458 2918 2630 
Q 3014 2803 3014 3072 
Q 3014 3328 2915 3494 
Q 2816 3661 2646 3760 
Q 2477 3859 2253 3897 
Q 2029 3936 1779 3936 
z
" transform="scale(0.015625)"/>
       <path id="Ubuntu-64" d="M 2662 2624 
Q 2554 2714 2349 2797 
Q 2144 2880 1901 2880 
Q 1645 2880 1462 2787 
Q 1280 2694 1165 2531 
Q 1050 2368 998 2144 
Q 947 1920 947 1664 
Q 947 1082 1235 765 
Q 1523 448 2003 448 
Q 2246 448 2409 470 
Q 2573 493 2662 518 
L 2662 2624 
z
M 2662 4864 
L 3258 4966 
L 3258 96 
Q 3053 38 2733 -19 
Q 2413 -77 1997 -77 
Q 1613 -77 1305 44 
Q 998 166 780 390 
Q 563 614 444 937 
Q 326 1261 326 1664 
Q 326 2048 425 2368 
Q 525 2688 717 2918 
Q 909 3149 1187 3277 
Q 1466 3405 1824 3405 
Q 2112 3405 2333 3328 
Q 2554 3251 2662 3181 
L 2662 4864 
z
" transform="scale(0.015625)"/>
       <path id="Ubuntu-62" d="M 1107 3181 
Q 1216 3251 1437 3328 
Q 1658 3405 1946 3405 
Q 2304 3405 2582 3277 
Q 2861 3149 3053 2918 
Q 3245 2688 3344 2368 
Q 3443 2048 3443 1664 
Q 3443 1261 3324 937 
Q 3206 614 2988 390 
Q 2771 166 2464 44 
Q 2157 -77 1773 -77 
Q 1357 -77 1037 -19 
Q 717 38 512 96 
L 512 4864 
L 1107 4966 
L 1107 3181 
z
M 1107 518 
Q 1197 493 1360 470 
Q 1523 448 1766 448 
Q 2246 448 2534 765 
Q 2822 1082 2822 1664 
Q 2822 1920 2771 2144 
Q 2720 2368 2605 2531 
Q 2490 2694 2307 2787 
Q 2125 2880 1869 2880 
Q 1626 2880 1421 2797 
Q 1216 2714 1107 2624 
L 1107 518 
z
" transform="scale(0.015625)"/>
       <path id="Ubuntu-61" d="M 1638 429 
Q 1850 429 2013 438 
Q 2176 448 2285 474 
L 2285 1466 
Q 2221 1498 2077 1520 
Q 1933 1542 1728 1542 
Q 1594 1542 1443 1523 
Q 1293 1504 1168 1443 
Q 1043 1382 960 1276 
Q 877 1171 877 998 
Q 877 678 1081 553 
Q 1286 429 1638 429 
z
M 1587 3411 
Q 1946 3411 2192 3318 
Q 2438 3226 2588 3056 
Q 2739 2886 2803 2652 
Q 2867 2419 2867 2138 
L 2867 58 
Q 2790 45 2652 22 
Q 2515 0 2342 -19 
Q 2170 -38 1968 -54 
Q 1766 -70 1568 -70 
Q 1286 -70 1049 -12 
Q 813 45 640 169 
Q 467 294 371 499 
Q 275 704 275 992 
Q 275 1267 387 1465 
Q 499 1664 691 1785 
Q 883 1907 1139 1964 
Q 1395 2022 1677 2022 
Q 1766 2022 1862 2012 
Q 1958 2003 2044 1987 
Q 2131 1971 2195 1958 
Q 2259 1946 2285 1939 
L 2285 2106 
Q 2285 2253 2253 2397 
Q 2221 2541 2137 2653 
Q 2054 2765 1910 2832 
Q 1766 2899 1536 2899 
Q 1242 2899 1021 2857 
Q 800 2816 691 2771 
L 621 3264 
Q 736 3315 1005 3363 
Q 1274 3411 1587 3411 
z
" transform="scale(0.015625)"/>
       <path id="Ubuntu-6c" d="M 1510 -64 
Q 960 -51 729 173 
Q 499 397 499 870 
L 499 4864 
L 1094 4966 
L 1094 966 
Q 1094 819 1120 723 
Q 1146 627 1203 569 
Q 1261 512 1357 483 
Q 1453 454 1594 435 
L 1510 -64 
z
" transform="scale(0.015625)"/>
       <path id="Ubuntu-79" d="M 122 -621 
Q 192 -653 304 -681 
Q 416 -710 525 -710 
Q 877 -710 1075 -553 
Q 1274 -397 1434 -45 
Q 1030 723 681 1584 
Q 333 2445 102 3328 
L 742 3328 
Q 813 3040 912 2707 
Q 1011 2374 1132 2022 
Q 1254 1670 1395 1318 
Q 1536 966 1690 640 
Q 1933 1312 2112 1971 
Q 2291 2630 2451 3328 
L 3066 3328 
Q 2835 2387 2553 1520 
Q 2272 653 1946 -102 
Q 1818 -390 1680 -598 
Q 1542 -806 1376 -940 
Q 1210 -1075 1002 -1139 
Q 794 -1203 531 -1203 
Q 461 -1203 384 -1193 
Q 307 -1184 233 -1168 
Q 160 -1152 99 -1133 
Q 38 -1114 13 -1101 
L 122 -621 
z
" transform="scale(0.015625)"/>
       <path id="Ubuntu-54" d="M 3514 4435 
L 3514 3898 
L 2118 3898 
L 2118 0 
L 1498 0 
L 1498 3898 
L 102 3898 
L 102 4435 
L 3514 4435 
z
" transform="scale(0.015625)"/>
       <path id="Ubuntu-68" d="M 512 0 
L 512 4864 
L 1107 4966 
L 1107 3264 
Q 1274 3328 1462 3363 
Q 1651 3398 1837 3398 
Q 2234 3398 2496 3286 
Q 2758 3174 2915 2972 
Q 3072 2771 3136 2489 
Q 3200 2208 3200 1869 
L 3200 0 
L 2605 0 
L 2605 1741 
Q 2605 2048 2563 2265 
Q 2522 2483 2426 2617 
Q 2330 2752 2170 2813 
Q 2010 2874 1773 2874 
Q 1677 2874 1574 2861 
Q 1472 2848 1379 2832 
Q 1286 2816 1212 2797 
Q 1139 2778 1107 2765 
L 1107 0 
L 512 0 
z
" transform="scale(0.015625)"/>
      </defs>
      <use xlink:href="#Ubuntu-30"/>
      <use xlink:href="#Ubuntu-2e" x="56.399994"/>
      <use xlink:href="#Ubuntu-35" x="80.999985"/>
      <use xlink:href="#Ubuntu-20" x="137.399979"/>
      <use xlink:href="#Ubuntu-50" x="160.499969"/>
      <use xlink:href="#Ubuntu-72" x="221.299957"/>
      <use xlink:href="#Ubuntu-65" x="259.899948"/>
      <use xlink:href="#Ubuntu-64" x="315.799942"/>
      <use xlink:href="#Ubuntu-69" x="374.699936"/>
      <use xlink:href="#Ubuntu-63" x="399.999924"/>
      <use xlink:href="#Ubuntu-74" x="446.499908"/>
      <use xlink:href="#Ubuntu-20" x="486.699905"/>
      <use xlink:href="#Ubuntu-50" x="509.799896"/>
      <use xlink:href="#Ubuntu-72" x="570.599884"/>
      <use xlink:href="#Ubuntu-6f" x="609.199875"/>
      <use xlink:href="#Ubuntu-62" x="668.19986"/>
      <use xlink:href="#Ubuntu-61" x="727.099854"/>
      <use xlink:href="#Ubuntu-62" x="779.29985"/>
      <use xlink:href="#Ubuntu-69" x="838.199844"/>
      <use xlink:href="#Ubuntu-6c" x="863.499832"/>
      <use xlink:href="#Ubuntu-69" x="890.79982"/>
      <use xlink:href="#Ubuntu-74" x="916.099808"/>
      <use xlink:href="#Ubuntu-79" x="956.299805"/>
      <use xlink:href="#Ubuntu-20" x="1005.999802"/>
      <use xlink:href="#Ubuntu-54" x="1029.099792"/>
      <use xlink:href="#Ubuntu-68" x="1085.599777"/>
      <use xlink:href="#Ubuntu-72" x="1142.699768"/>
      <use xlink:href="#Ubuntu-65" x="1181.299759"/>
      <use xlink:href="#Ubuntu-73" x="1237.199753"/>
      <use xlink:href="#Ubuntu-68" x="1281.799744"/>
      <use xlink:href="#Ubuntu-6f" x="1338.899734"/>
      <use xlink:href="#Ubuntu-6c" x="1397.899719"/>
      <use xlink:href="#Ubuntu-64" x="1425.199707"/>
     </g>
    </g>
    <g id="line2d_22">
     <path d="M 436.204219 41.3425 
L 444.204219 41.3425 
L 452.204219 41.3425 
" style="fill: none; stroke: #00937f; stroke-width: 1.2; stroke-linecap: square"/>
    </g>
    <g id="text_17">
     <!-- Random Forest (AUC = 0.861) -->
     <g style="fill: #4b4b4b" transform="translate(458.604219 44.1425) scale(0.08 -0.08)">
      <defs>
       <path id="Ubuntu-6d" d="M 512 3232 
Q 717 3283 1053 3340 
Q 1389 3398 1830 3398 
Q 2150 3398 2368 3312 
Q 2586 3226 2733 3059 
Q 2778 3091 2874 3148 
Q 2970 3206 3110 3260 
Q 3251 3315 3424 3356 
Q 3597 3398 3795 3398 
Q 4179 3398 4422 3286 
Q 4666 3174 4803 2969 
Q 4941 2765 4989 2483 
Q 5037 2202 5037 1869 
L 5037 0 
L 4442 0 
L 4442 1741 
Q 4442 2035 4413 2246 
Q 4384 2458 4304 2598 
Q 4224 2739 4086 2806 
Q 3949 2874 3731 2874 
Q 3430 2874 3235 2794 
Q 3040 2714 2970 2650 
Q 3021 2483 3046 2284 
Q 3072 2086 3072 1869 
L 3072 0 
L 2477 0 
L 2477 1741 
Q 2477 2035 2445 2246 
Q 2413 2458 2333 2598 
Q 2253 2739 2115 2806 
Q 1978 2874 1766 2874 
Q 1677 2874 1574 2867 
Q 1472 2861 1379 2851 
Q 1286 2842 1209 2829 
Q 1133 2816 1107 2810 
L 1107 0 
L 512 0 
L 512 3232 
z
" transform="scale(0.015625)"/>
       <path id="Ubuntu-46" d="M 550 0 
L 550 4435 
L 3226 4435 
L 3226 3904 
L 1171 3904 
L 1171 2566 
L 2995 2566 
L 2995 2042 
L 1171 2042 
L 1171 0 
L 550 0 
z
" transform="scale(0.015625)"/>
      </defs>
      <use xlink:href="#Ubuntu-52"/>
      <use xlink:href="#Ubuntu-61" x="62.899994"/>
      <use xlink:href="#Ubuntu-6e" x="115.099991"/>
      <use xlink:href="#Ubuntu-64" x="172.499985"/>
      <use xlink:href="#Ubuntu-6f" x="231.399979"/>
      <use xlink:href="#Ubuntu-6d" x="290.399963"/>
      <use xlink:href="#Ubuntu-20" x="376.499954"/>
      <use xlink:href="#Ubuntu-46" x="399.599945"/>
      <use xlink:href="#Ubuntu-6f" x="451.924942"/>
      <use xlink:href="#Ubuntu-72" x="510.924927"/>
      <use xlink:href="#Ubuntu-65" x="549.524918"/>
      <use xlink:href="#Ubuntu-73" x="605.424911"/>
      <use xlink:href="#Ubuntu-74" x="650.024902"/>
      <use xlink:href="#Ubuntu-20" x="690.224899"/>
      <use xlink:href="#Ubuntu-28" x="713.32489"/>
      <use xlink:href="#Ubuntu-41" x="745.724884"/>
      <use xlink:href="#Ubuntu-55" x="811.024872"/>
      <use xlink:href="#Ubuntu-43" x="879.82486"/>
      <use xlink:href="#Ubuntu-20" x="941.824844"/>
      <use xlink:href="#Ubuntu-3d" x="964.924835"/>
      <use xlink:href="#Ubuntu-20" x="1021.324829"/>
      <use xlink:href="#Ubuntu-30" x="1044.42482"/>
      <use xlink:href="#Ubuntu-2e" x="1100.824814"/>
      <use xlink:href="#Ubuntu-38" x="1125.424805"/>
      <use xlink:href="#Ubuntu-36" x="1181.824799"/>
      <use xlink:href="#Ubuntu-31" x="1238.224792"/>
      <use xlink:href="#Ubuntu-29" x="1294.624786"/>
     </g>
    </g>
    <g id="PathCollection_6">
     <path d="M 444.204219 57.265534 
L 447.739753 50.194466 
L 440.668685 50.194466 
L 444.204219 57.265534 
z
" style="fill: none; stroke: #505050; stroke-width: 1.5"/>
    </g>
    <g id="text_18">
     <!-- 0.5 Predict Probability Threshold -->
     <g style="fill: #4b4b4b" transform="translate(458.604219 55.83) scale(0.08 -0.08)">
      <use xlink:href="#Ubuntu-30"/>
      <use xlink:href="#Ubuntu-2e" x="56.399994"/>
      <use xlink:href="#Ubuntu-35" x="80.999985"/>
      <use xlink:href="#Ubuntu-20" x="137.399979"/>
      <use xlink:href="#Ubuntu-50" x="160.499969"/>
      <use xlink:href="#Ubuntu-72" x="221.299957"/>
      <use xlink:href="#Ubuntu-65" x="259.899948"/>
      <use xlink:href="#Ubuntu-64" x="315.799942"/>
      <use xlink:href="#Ubuntu-69" x="374.699936"/>
      <use xlink:href="#Ubuntu-63" x="399.999924"/>
      <use xlink:href="#Ubuntu-74" x="446.499908"/>
      <use xlink:href="#Ubuntu-20" x="486.699905"/>
      <use xlink:href="#Ubuntu-50" x="509.799896"/>
      <use xlink:href="#Ubuntu-72" x="570.599884"/>
      <use xlink:href="#Ubuntu-6f" x="609.199875"/>
      <use xlink:href="#Ubuntu-62" x="668.19986"/>
      <use xlink:href="#Ubuntu-61" x="727.099854"/>
      <use xlink:href="#Ubuntu-62" x="779.29985"/>
      <use xlink:href="#Ubuntu-69" x="838.199844"/>
      <use xlink:href="#Ubuntu-6c" x="863.499832"/>
      <use xlink:href="#Ubuntu-69" x="890.79982"/>
      <use xlink:href="#Ubuntu-74" x="916.099808"/>
      <use xlink:href="#Ubuntu-79" x="956.299805"/>
      <use xlink:href="#Ubuntu-20" x="1005.999802"/>
      <use xlink:href="#Ubuntu-54" x="1029.099792"/>
      <use xlink:href="#Ubuntu-68" x="1085.599777"/>
      <use xlink:href="#Ubuntu-72" x="1142.699768"/>
      <use xlink:href="#Ubuntu-65" x="1181.299759"/>
      <use xlink:href="#Ubuntu-73" x="1237.199753"/>
      <use xlink:href="#Ubuntu-68" x="1281.799744"/>
      <use xlink:href="#Ubuntu-6f" x="1338.899734"/>
      <use xlink:href="#Ubuntu-6c" x="1397.899719"/>
      <use xlink:href="#Ubuntu-64" x="1425.199707"/>
     </g>
    </g>
    <g id="line2d_23">
     <path d="M 436.204219 64.7975 
L 444.204219 64.7975 
L 452.204219 64.7975 
" style="fill: none; stroke: #3d6384; stroke-width: 1.2; stroke-linecap: square"/>
    </g>
    <g id="text_19">
     <!-- XGBoost (AUC = 0.859) -->
     <g style="fill: #4b4b4b" transform="translate(458.604219 67.5975) scale(0.08 -0.08)">
      <defs>
       <path id="Ubuntu-58" d="M 3213 0 
Q 3117 192 2982 425 
Q 2848 659 2688 912 
Q 2528 1165 2355 1417 
Q 2182 1670 2022 1894 
Q 1862 1670 1689 1417 
Q 1517 1165 1360 912 
Q 1203 659 1065 425 
Q 928 192 832 0 
L 147 0 
Q 435 563 816 1145 
Q 1197 1728 1626 2342 
L 205 4435 
L 922 4435 
L 2016 2784 
L 3098 4435 
L 3808 4435 
L 2413 2368 
Q 2848 1747 3232 1158 
Q 3616 570 3910 0 
L 3213 0 
z
" transform="scale(0.015625)"/>
       <path id="Ubuntu-47" d="M 3258 2182 
L 3878 2182 
L 3878 109 
Q 3802 83 3658 51 
Q 3514 19 3325 -13 
Q 3136 -45 2912 -67 
Q 2688 -90 2458 -90 
Q 1990 -90 1606 64 
Q 1222 218 947 512 
Q 672 806 521 1235 
Q 371 1664 371 2221 
Q 371 2778 540 3210 
Q 710 3642 998 3936 
Q 1286 4230 1673 4384 
Q 2061 4538 2502 4538 
Q 2803 4538 3036 4499 
Q 3270 4461 3436 4409 
Q 3603 4358 3708 4307 
Q 3814 4256 3853 4230 
L 3654 3712 
Q 3469 3834 3161 3914 
Q 2854 3994 2534 3994 
Q 2195 3994 1916 3872 
Q 1638 3750 1443 3520 
Q 1248 3290 1139 2960 
Q 1030 2630 1030 2221 
Q 1030 1824 1123 1497 
Q 1216 1171 1405 937 
Q 1594 704 1872 576 
Q 2150 448 2528 448 
Q 2797 448 2985 477 
Q 3174 506 3258 531 
L 3258 2182 
z
" transform="scale(0.015625)"/>
       <path id="Ubuntu-42" d="M 1747 -38 
Q 1613 -38 1456 -32 
Q 1299 -26 1142 -13 
Q 986 0 832 19 
Q 678 38 550 70 
L 550 4371 
Q 678 4403 832 4422 
Q 986 4442 1142 4454 
Q 1299 4467 1452 4473 
Q 1606 4480 1741 4480 
Q 2125 4480 2461 4422 
Q 2797 4365 3043 4227 
Q 3290 4090 3430 3866 
Q 3571 3642 3571 3315 
Q 3571 2950 3398 2716 
Q 3226 2483 2938 2368 
Q 3328 2253 3558 2003 
Q 3789 1754 3789 1299 
Q 3789 634 3299 298 
Q 2810 -38 1747 -38 
z
M 1165 2067 
L 1165 506 
Q 1235 499 1331 493 
Q 1414 486 1526 483 
Q 1638 480 1786 480 
Q 2061 480 2307 515 
Q 2554 550 2739 640 
Q 2925 730 3037 890 
Q 3149 1050 3149 1293 
Q 3149 1510 3065 1660 
Q 2982 1811 2825 1900 
Q 2669 1990 2451 2028 
Q 2234 2067 1965 2067 
L 1165 2067 
z
M 1165 2566 
L 1818 2566 
Q 2048 2566 2253 2598 
Q 2458 2630 2608 2713 
Q 2758 2797 2844 2931 
Q 2931 3066 2931 3270 
Q 2931 3462 2841 3593 
Q 2752 3725 2595 3805 
Q 2438 3885 2227 3923 
Q 2016 3962 1779 3962 
Q 1542 3962 1408 3955 
Q 1274 3949 1165 3936 
L 1165 2566 
z
" transform="scale(0.015625)"/>
       <path id="Ubuntu-39" d="M 3206 2662 
Q 3206 1344 2550 669 
Q 1894 -6 602 -13 
L 582 486 
Q 986 486 1309 563 
Q 1632 640 1875 809 
Q 2118 979 2281 1248 
Q 2445 1517 2522 1907 
Q 2355 1830 2144 1782 
Q 1933 1734 1709 1734 
Q 1331 1734 1068 1846 
Q 806 1958 640 2147 
Q 474 2336 400 2582 
Q 326 2829 326 3098 
Q 326 3334 409 3590 
Q 493 3846 662 4057 
Q 832 4269 1094 4403 
Q 1357 4538 1715 4538 
Q 2080 4538 2358 4410 
Q 2637 4282 2825 4038 
Q 3014 3795 3110 3446 
Q 3206 3098 3206 2662 
z
M 1773 2221 
Q 1997 2221 2195 2262 
Q 2394 2304 2579 2387 
Q 2586 2458 2586 2525 
Q 2586 2592 2586 2662 
Q 2586 2938 2547 3190 
Q 2509 3443 2409 3632 
Q 2310 3821 2144 3933 
Q 1978 4045 1722 4045 
Q 1510 4045 1363 3955 
Q 1216 3866 1120 3728 
Q 1024 3590 982 3427 
Q 941 3264 941 3110 
Q 941 2675 1149 2448 
Q 1357 2221 1773 2221 
z
" transform="scale(0.015625)"/>
      </defs>
      <use xlink:href="#Ubuntu-58"/>
      <use xlink:href="#Ubuntu-47" x="60.724991"/>
      <use xlink:href="#Ubuntu-42" x="127.924988"/>
      <use xlink:href="#Ubuntu-6f" x="192.224976"/>
      <use xlink:href="#Ubuntu-6f" x="251.22496"/>
      <use xlink:href="#Ubuntu-73" x="310.224945"/>
      <use xlink:href="#Ubuntu-74" x="354.824936"/>
      <use xlink:href="#Ubuntu-20" x="395.024933"/>
      <use xlink:href="#Ubuntu-28" x="418.124924"/>
      <use xlink:href="#Ubuntu-41" x="450.524918"/>
      <use xlink:href="#Ubuntu-55" x="515.824905"/>
      <use xlink:href="#Ubuntu-43" x="584.624893"/>
      <use xlink:href="#Ubuntu-20" x="646.624878"/>
      <use xlink:href="#Ubuntu-3d" x="669.724869"/>
      <use xlink:href="#Ubuntu-20" x="726.124863"/>
      <use xlink:href="#Ubuntu-30" x="749.224854"/>
      <use xlink:href="#Ubuntu-2e" x="805.624847"/>
      <use xlink:href="#Ubuntu-38" x="830.224838"/>
      <use xlink:href="#Ubuntu-35" x="886.624832"/>
      <use xlink:href="#Ubuntu-39" x="943.024826"/>
      <use xlink:href="#Ubuntu-29" x="999.42482"/>
     </g>
    </g>
    <g id="PathCollection_7">
     <path d="M 440.668685 80.720534 
L 447.739753 80.720534 
L 447.739753 73.649466 
L 440.668685 73.649466 
L 440.668685 80.720534 
z
" style="fill: none; stroke: #505050; stroke-width: 1.5"/>
    </g>
    <g id="text_20">
     <!-- 0.5 Predict Probability Threshold -->
     <g style="fill: #4b4b4b" transform="translate(458.604219 79.285) scale(0.08 -0.08)">
      <use xlink:href="#Ubuntu-30"/>
      <use xlink:href="#Ubuntu-2e" x="56.399994"/>
      <use xlink:href="#Ubuntu-35" x="80.999985"/>
      <use xlink:href="#Ubuntu-20" x="137.399979"/>
      <use xlink:href="#Ubuntu-50" x="160.499969"/>
      <use xlink:href="#Ubuntu-72" x="221.299957"/>
      <use xlink:href="#Ubuntu-65" x="259.899948"/>
      <use xlink:href="#Ubuntu-64" x="315.799942"/>
      <use xlink:href="#Ubuntu-69" x="374.699936"/>
      <use xlink:href="#Ubuntu-63" x="399.999924"/>
      <use xlink:href="#Ubuntu-74" x="446.499908"/>
      <use xlink:href="#Ubuntu-20" x="486.699905"/>
      <use xlink:href="#Ubuntu-50" x="509.799896"/>
      <use xlink:href="#Ubuntu-72" x="570.599884"/>
      <use xlink:href="#Ubuntu-6f" x="609.199875"/>
      <use xlink:href="#Ubuntu-62" x="668.19986"/>
      <use xlink:href="#Ubuntu-61" x="727.099854"/>
      <use xlink:href="#Ubuntu-62" x="779.29985"/>
      <use xlink:href="#Ubuntu-69" x="838.199844"/>
      <use xlink:href="#Ubuntu-6c" x="863.499832"/>
      <use xlink:href="#Ubuntu-69" x="890.79982"/>
      <use xlink:href="#Ubuntu-74" x="916.099808"/>
      <use xlink:href="#Ubuntu-79" x="956.299805"/>
      <use xlink:href="#Ubuntu-20" x="1005.999802"/>
      <use xlink:href="#Ubuntu-54" x="1029.099792"/>
      <use xlink:href="#Ubuntu-68" x="1085.599777"/>
      <use xlink:href="#Ubuntu-72" x="1142.699768"/>
      <use xlink:href="#Ubuntu-65" x="1181.299759"/>
      <use xlink:href="#Ubuntu-73" x="1237.199753"/>
      <use xlink:href="#Ubuntu-68" x="1281.799744"/>
      <use xlink:href="#Ubuntu-6f" x="1338.899734"/>
      <use xlink:href="#Ubuntu-6c" x="1397.899719"/>
      <use xlink:href="#Ubuntu-64" x="1425.199707"/>
     </g>
    </g>
    <g id="line2d_24">
     <path d="M 436.204219 88.2525 
L 444.204219 88.2525 
L 452.204219 88.2525 
" style="fill: none; stroke: #6d9bc3; stroke-width: 1.2; stroke-linecap: square"/>
    </g>
    <g id="text_21">
     <!-- LightGBM (AUC = 0.860) -->
     <g style="fill: #4b4b4b" transform="translate(458.604219 91.0525) scale(0.08 -0.08)">
      <defs>
       <path id="Ubuntu-4d" d="M 2541 614 
Q 2477 768 2371 1005 
Q 2266 1242 2144 1517 
Q 2022 1792 1884 2083 
Q 1747 2374 1625 2633 
Q 1504 2893 1398 3097 
Q 1293 3302 1229 3411 
Q 1158 2656 1113 1776 
Q 1069 896 1037 0 
L 429 0 
Q 454 576 486 1161 
Q 518 1747 560 2313 
Q 602 2880 650 3417 
Q 698 3955 755 4435 
L 1299 4435 
Q 1472 4154 1670 3770 
Q 1869 3386 2067 2966 
Q 2266 2547 2451 2128 
Q 2637 1709 2790 1363 
Q 2944 1709 3129 2128 
Q 3315 2547 3513 2966 
Q 3712 3386 3910 3770 
Q 4109 4154 4282 4435 
L 4826 4435 
Q 5043 2291 5152 0 
L 4544 0 
Q 4512 896 4467 1776 
Q 4422 2656 4352 3411 
Q 4288 3302 4182 3097 
Q 4077 2893 3955 2633 
Q 3834 2374 3696 2083 
Q 3558 1792 3436 1517 
Q 3315 1242 3209 1005 
Q 3104 768 3040 614 
L 2541 614 
z
" transform="scale(0.015625)"/>
      </defs>
      <use xlink:href="#Ubuntu-4c"/>
      <use xlink:href="#Ubuntu-69" x="51.899994"/>
      <use xlink:href="#Ubuntu-67" x="77.199982"/>
      <use xlink:href="#Ubuntu-68" x="134.999969"/>
      <use xlink:href="#Ubuntu-74" x="192.09996"/>
      <use xlink:href="#Ubuntu-47" x="232.299957"/>
      <use xlink:href="#Ubuntu-42" x="299.499954"/>
      <use xlink:href="#Ubuntu-4d" x="363.799942"/>
      <use xlink:href="#Ubuntu-20" x="450.899933"/>
      <use xlink:href="#Ubuntu-28" x="473.999924"/>
      <use xlink:href="#Ubuntu-41" x="506.399918"/>
      <use xlink:href="#Ubuntu-55" x="571.699905"/>
      <use xlink:href="#Ubuntu-43" x="640.499893"/>
      <use xlink:href="#Ubuntu-20" x="702.499878"/>
      <use xlink:href="#Ubuntu-3d" x="725.599869"/>
      <use xlink:href="#Ubuntu-20" x="781.999863"/>
      <use xlink:href="#Ubuntu-30" x="805.099854"/>
      <use xlink:href="#Ubuntu-2e" x="861.499847"/>
      <use xlink:href="#Ubuntu-38" x="886.099838"/>
      <use xlink:href="#Ubuntu-36" x="942.499832"/>
      <use xlink:href="#Ubuntu-30" x="998.899826"/>
      <use xlink:href="#Ubuntu-29" x="1055.29982"/>
     </g>
    </g>
    <g id="PathCollection_8">
     <path d="M 444.204219 105.66375 
L 449.204219 100.66375 
L 444.204219 95.66375 
L 439.204219 100.66375 
L 444.204219 105.66375 
z
" style="fill: none; stroke: #505050; stroke-width: 1.5"/>
    </g>
    <g id="text_22">
     <!-- 0.5 Predict Probability Threshold -->
     <g style="fill: #4b4b4b" transform="translate(458.604219 102.76375) scale(0.08 -0.08)">
      <use xlink:href="#Ubuntu-30"/>
      <use xlink:href="#Ubuntu-2e" x="56.399994"/>
      <use xlink:href="#Ubuntu-35" x="80.999985"/>
      <use xlink:href="#Ubuntu-20" x="137.399979"/>
      <use xlink:href="#Ubuntu-50" x="160.499969"/>
      <use xlink:href="#Ubuntu-72" x="221.299957"/>
      <use xlink:href="#Ubuntu-65" x="259.899948"/>
      <use xlink:href="#Ubuntu-64" x="315.799942"/>
      <use xlink:href="#Ubuntu-69" x="374.699936"/>
      <use xlink:href="#Ubuntu-63" x="399.999924"/>
      <use xlink:href="#Ubuntu-74" x="446.499908"/>
      <use xlink:href="#Ubuntu-20" x="486.699905"/>
      <use xlink:href="#Ubuntu-50" x="509.799896"/>
      <use xlink:href="#Ubuntu-72" x="570.599884"/>
      <use xlink:href="#Ubuntu-6f" x="609.199875"/>
      <use xlink:href="#Ubuntu-62" x="668.19986"/>
      <use xlink:href="#Ubuntu-61" x="727.099854"/>
      <use xlink:href="#Ubuntu-62" x="779.29985"/>
      <use xlink:href="#Ubuntu-69" x="838.199844"/>
      <use xlink:href="#Ubuntu-6c" x="863.499832"/>
      <use xlink:href="#Ubuntu-69" x="890.79982"/>
      <use xlink:href="#Ubuntu-74" x="916.099808"/>
      <use xlink:href="#Ubuntu-79" x="956.299805"/>
      <use xlink:href="#Ubuntu-20" x="1005.999802"/>
      <use xlink:href="#Ubuntu-54" x="1029.099792"/>
      <use xlink:href="#Ubuntu-68" x="1085.599777"/>
      <use xlink:href="#Ubuntu-72" x="1142.699768"/>
      <use xlink:href="#Ubuntu-65" x="1181.299759"/>
      <use xlink:href="#Ubuntu-73" x="1237.199753"/>
      <use xlink:href="#Ubuntu-68" x="1281.799744"/>
      <use xlink:href="#Ubuntu-6f" x="1338.899734"/>
      <use xlink:href="#Ubuntu-6c" x="1397.899719"/>
      <use xlink:href="#Ubuntu-64" x="1425.199707"/>
     </g>
    </g>
   </g>
  </g>
 </g>
 <defs>
  <clipPath id="pb4c0ff7021">
   <rect x="38.404219" y="7.2" width="390.6" height="166.32"/>
  </clipPath>
 </defs>
</svg>
