<?xml version="1.0" encoding="utf-8" standalone="no"?>
<!DOCTYPE svg PUBLIC "-//W3C//DTD SVG 1.1//EN"
  "http://www.w3.org/Graphics/SVG/1.1/DTD/svg11.dtd">
<svg xmlns:xlink="http://www.w3.org/1999/xlink" width="512.939375pt" height="233.190937pt" viewBox="0 0 512.939375 233.190937" xmlns="http://www.w3.org/2000/svg" version="1.1">
 <metadata>
  <rdf:RDF xmlns:dc="http://purl.org/dc/elements/1.1/" xmlns:cc="http://creativecommons.org/ns#" xmlns:rdf="http://www.w3.org/1999/02/22-rdf-syntax-ns#">
   <cc:Work>
    <dc:type rdf:resource="http://purl.org/dc/dcmitype/StillImage"/>
    <dc:date>2024-03-18T14:16:51.404479</dc:date>
    <dc:format>image/svg+xml</dc:format>
    <dc:creator>
     <cc:Agent>
      <dc:title>Matplotlib v3.8.3, https://matplotlib.org/</dc:title>
     </cc:Agent>
    </dc:creator>
   </cc:Work>
  </rdf:RDF>
 </metadata>
 <defs>
  <style type="text/css">*{stroke-linejoin: round; stroke-linecap: butt}</style>
 </defs>
 <g id="figure_1">
  <g id="patch_1">
   <path d="M 0 233.190937 
L 512.939375 233.190937 
L 512.939375 0 
L 0 0 
L 0 233.190937 
z
" style="fill: none"/>
  </g>
  <g id="axes_1">
   <g id="patch_2">
    <path d="M 59.339375 191.63125 
L 505.739375 191.63125 
L 505.739375 25.31125 
L 59.339375 25.31125 
L 59.339375 191.63125 
z
" style="fill: none"/>
   </g>
   <g id="matplotlib.axis_1">
    <g id="xtick_1">
     <g id="line2d_1">
      <path d="M 79.630284 191.63125 
L 79.630284 25.31125 
" clip-path="url(#p0895ad1c4e)" style="fill: none; stroke-dasharray: 0.5,0.825; stroke-dashoffset: 0; stroke: #d9d9d9; stroke-width: 0.5"/>
     </g>
     <g id="text_1">
      <!-- Base -->
      <g style="fill: #757575" transform="translate(70.950284 207.83875) scale(0.08 -0.08)">
       <defs>
        <path id="Ubuntu-42" d="M 1747 -38 
Q 1613 -38 1456 -32 
Q 1299 -26 1142 -13 
Q 986 0 832 19 
Q 678 38 550 70 
L 550 4371 
Q 678 4403 832 4422 
Q 986 4442 1142 4454 
Q 1299 4467 1452 4473 
Q 1606 4480 1741 4480 
Q 2125 4480 2461 4422 
Q 2797 4365 3043 4227 
Q 3290 4090 3430 3866 
Q 3571 3642 3571 3315 
Q 3571 2950 3398 2716 
Q 3226 2483 2938 2368 
Q 3328 2253 3558 2003 
Q 3789 1754 3789 1299 
Q 3789 634 3299 298 
Q 2810 -38 1747 -38 
z
M 1165 2067 
L 1165 506 
Q 1235 499 1331 493 
Q 1414 486 1526 483 
Q 1638 480 1786 480 
Q 2061 480 2307 515 
Q 2554 550 2739 640 
Q 2925 730 3037 890 
Q 3149 1050 3149 1293 
Q 3149 1510 3065 1660 
Q 2982 1811 2825 1900 
Q 2669 1990 2451 2028 
Q 2234 2067 1965 2067 
L 1165 2067 
z
M 1165 2566 
L 1818 2566 
Q 2048 2566 2253 2598 
Q 2458 2630 2608 2713 
Q 2758 2797 2844 2931 
Q 2931 3066 2931 3270 
Q 2931 3462 2841 3593 
Q 2752 3725 2595 3805 
Q 2438 3885 2227 3923 
Q 2016 3962 1779 3962 
Q 1542 3962 1408 3955 
Q 1274 3949 1165 3936 
L 1165 2566 
z
" transform="scale(0.015625)"/>
        <path id="Ubuntu-61" d="M 1638 429 
Q 1850 429 2013 438 
Q 2176 448 2285 474 
L 2285 1466 
Q 2221 1498 2077 1520 
Q 1933 1542 1728 1542 
Q 1594 1542 1443 1523 
Q 1293 1504 1168 1443 
Q 1043 1382 960 1276 
Q 877 1171 877 998 
Q 877 678 1081 553 
Q 1286 429 1638 429 
z
M 1587 3411 
Q 1946 3411 2192 3318 
Q 2438 3226 2588 3056 
Q 2739 2886 2803 2652 
Q 2867 2419 2867 2138 
L 2867 58 
Q 2790 45 2652 22 
Q 2515 0 2342 -19 
Q 2170 -38 1968 -54 
Q 1766 -70 1568 -70 
Q 1286 -70 1049 -12 
Q 813 45 640 169 
Q 467 294 371 499 
Q 275 704 275 992 
Q 275 1267 387 1465 
Q 499 1664 691 1785 
Q 883 1907 1139 1964 
Q 1395 2022 1677 2022 
Q 1766 2022 1862 2012 
Q 1958 2003 2044 1987 
Q 2131 1971 2195 1958 
Q 2259 1946 2285 1939 
L 2285 2106 
Q 2285 2253 2253 2397 
Q 2221 2541 2137 2653 
Q 2054 2765 1910 2832 
Q 1766 2899 1536 2899 
Q 1242 2899 1021 2857 
Q 800 2816 691 2771 
L 621 3264 
Q 736 3315 1005 3363 
Q 1274 3411 1587 3411 
z
" transform="scale(0.015625)"/>
        <path id="Ubuntu-73" d="M 1286 429 
Q 1651 429 1827 525 
Q 2003 621 2003 832 
Q 2003 1050 1830 1178 
Q 1658 1306 1261 1466 
Q 1069 1542 893 1622 
Q 717 1702 589 1811 
Q 461 1920 384 2073 
Q 307 2227 307 2451 
Q 307 2893 633 3152 
Q 960 3411 1523 3411 
Q 1664 3411 1805 3395 
Q 1946 3379 2067 3356 
Q 2189 3334 2281 3308 
Q 2374 3283 2426 3264 
L 2317 2752 
Q 2221 2803 2016 2857 
Q 1811 2912 1523 2912 
Q 1274 2912 1088 2813 
Q 902 2714 902 2502 
Q 902 2394 944 2310 
Q 986 2227 1072 2160 
Q 1158 2093 1286 2035 
Q 1414 1978 1594 1914 
Q 1830 1824 2016 1737 
Q 2202 1651 2333 1536 
Q 2464 1421 2534 1257 
Q 2605 1094 2605 858 
Q 2605 397 2262 160 
Q 1920 -77 1286 -77 
Q 845 -77 595 -3 
Q 346 70 256 109 
L 365 621 
Q 467 582 691 505 
Q 915 429 1286 429 
z
" transform="scale(0.015625)"/>
        <path id="Ubuntu-65" d="M 326 1658 
Q 326 2099 454 2428 
Q 582 2758 793 2976 
Q 1005 3194 1280 3302 
Q 1555 3411 1843 3411 
Q 2515 3411 2873 2992 
Q 3232 2573 3232 1715 
Q 3232 1677 3232 1616 
Q 3232 1555 3226 1504 
L 947 1504 
Q 986 986 1248 717 
Q 1510 448 2067 448 
Q 2381 448 2595 502 
Q 2810 557 2918 608 
L 3002 109 
Q 2893 51 2621 -13 
Q 2349 -77 2003 -77 
Q 1568 -77 1251 54 
Q 934 186 729 416 
Q 525 646 425 963 
Q 326 1280 326 1658 
z
M 2611 1984 
Q 2618 2387 2410 2646 
Q 2202 2906 1837 2906 
Q 1632 2906 1475 2826 
Q 1318 2746 1209 2618 
Q 1101 2490 1040 2323 
Q 979 2157 960 1984 
L 2611 1984 
z
" transform="scale(0.015625)"/>
       </defs>
       <use xlink:href="#Ubuntu-42"/>
       <use xlink:href="#Ubuntu-61" x="64.299988"/>
       <use xlink:href="#Ubuntu-73" x="116.499985"/>
       <use xlink:href="#Ubuntu-65" x="161.099976"/>
      </g>
     </g>
    </g>
    <g id="xtick_2">
     <g id="line2d_2">
      <path d="M 214.903011 191.63125 
L 214.903011 25.31125 
" clip-path="url(#p0895ad1c4e)" style="fill: none; stroke-dasharray: 0.5,0.825; stroke-dashoffset: 0; stroke: #d9d9d9; stroke-width: 0.5"/>
     </g>
     <g id="text_2">
      <!-- RUS -->
      <g style="fill: #757575" transform="translate(207.506761 207.83875) scale(0.08 -0.08)">
       <defs>
        <path id="Ubuntu-52" d="M 2720 1856 
Q 2822 1728 2979 1520 
Q 3136 1312 3302 1059 
Q 3469 806 3632 531 
Q 3795 256 3910 0 
L 3232 0 
Q 3104 243 2953 492 
Q 2803 742 2649 969 
Q 2496 1197 2345 1395 
Q 2195 1594 2074 1741 
Q 1990 1734 1904 1734 
Q 1818 1734 1728 1734 
L 1171 1734 
L 1171 0 
L 550 0 
L 550 4371 
Q 813 4435 1136 4457 
Q 1459 4480 1728 4480 
Q 2662 4480 3152 4128 
Q 3642 3776 3642 3078 
Q 3642 2637 3408 2323 
Q 3174 2010 2720 1856 
z
M 1779 3936 
Q 1382 3936 1171 3917 
L 1171 2246 
L 1613 2246 
Q 1933 2246 2189 2278 
Q 2445 2310 2621 2400 
Q 2797 2490 2893 2653 
Q 2989 2816 2989 3085 
Q 2989 3334 2893 3500 
Q 2797 3667 2633 3763 
Q 2470 3859 2249 3897 
Q 2029 3936 1779 3936 
z
" transform="scale(0.015625)"/>
        <path id="Ubuntu-55" d="M 2202 -96 
Q 1766 -96 1446 38 
Q 1126 173 921 406 
Q 717 640 617 960 
Q 518 1280 518 1651 
L 518 4435 
L 1139 4435 
L 1139 1722 
Q 1139 1056 1433 755 
Q 1728 454 2202 454 
Q 2438 454 2633 528 
Q 2829 602 2969 755 
Q 3110 909 3187 1149 
Q 3264 1389 3264 1722 
L 3264 4435 
L 3885 4435 
L 3885 1651 
Q 3885 1280 3785 960 
Q 3686 640 3478 406 
Q 3270 173 2953 38 
Q 2637 -96 2202 -96 
z
" transform="scale(0.015625)"/>
        <path id="Ubuntu-53" d="M 1581 442 
Q 2554 442 2554 1107 
Q 2554 1312 2467 1456 
Q 2381 1600 2233 1705 
Q 2086 1811 1897 1888 
Q 1709 1965 1498 2042 
Q 1254 2125 1036 2230 
Q 819 2336 659 2480 
Q 499 2624 406 2822 
Q 314 3021 314 3302 
Q 314 3885 710 4211 
Q 1107 4538 1805 4538 
Q 2208 4538 2537 4451 
Q 2867 4365 3021 4262 
L 2822 3757 
Q 2688 3840 2422 3920 
Q 2157 4000 1805 4000 
Q 1626 4000 1472 3961 
Q 1318 3923 1203 3846 
Q 1088 3770 1021 3651 
Q 954 3533 954 3373 
Q 954 3194 1024 3072 
Q 1094 2950 1222 2857 
Q 1350 2765 1520 2688 
Q 1690 2611 1894 2534 
Q 2182 2419 2422 2304 
Q 2662 2189 2838 2029 
Q 3014 1869 3110 1648 
Q 3206 1427 3206 1114 
Q 3206 531 2780 217 
Q 2355 -96 1581 -96 
Q 1318 -96 1097 -61 
Q 877 -26 704 22 
Q 531 70 406 124 
Q 282 179 211 218 
L 397 730 
Q 544 646 845 544 
Q 1146 442 1581 442 
z
" transform="scale(0.015625)"/>
       </defs>
       <use xlink:href="#Ubuntu-52"/>
       <use xlink:href="#Ubuntu-55" x="62.899994"/>
       <use xlink:href="#Ubuntu-53" x="131.699982"/>
      </g>
     </g>
    </g>
    <g id="xtick_3">
     <g id="line2d_3">
      <path d="M 350.175739 191.63125 
L 350.175739 25.31125 
" clip-path="url(#p0895ad1c4e)" style="fill: none; stroke-dasharray: 0.5,0.825; stroke-dashoffset: 0; stroke: #d9d9d9; stroke-width: 0.5"/>
     </g>
     <g id="text_3">
      <!-- SMOTE+RUS -->
      <g style="fill: #757575" transform="translate(327.365739 207.83875) scale(0.08 -0.08)">
       <defs>
        <path id="Ubuntu-4d" d="M 2541 614 
Q 2477 768 2371 1005 
Q 2266 1242 2144 1517 
Q 2022 1792 1884 2083 
Q 1747 2374 1625 2633 
Q 1504 2893 1398 3097 
Q 1293 3302 1229 3411 
Q 1158 2656 1113 1776 
Q 1069 896 1037 0 
L 429 0 
Q 454 576 486 1161 
Q 518 1747 560 2313 
Q 602 2880 650 3417 
Q 698 3955 755 4435 
L 1299 4435 
Q 1472 4154 1670 3770 
Q 1869 3386 2067 2966 
Q 2266 2547 2451 2128 
Q 2637 1709 2790 1363 
Q 2944 1709 3129 2128 
Q 3315 2547 3513 2966 
Q 3712 3386 3910 3770 
Q 4109 4154 4282 4435 
L 4826 4435 
Q 5043 2291 5152 0 
L 4544 0 
Q 4512 896 4467 1776 
Q 4422 2656 4352 3411 
Q 4288 3302 4182 3097 
Q 4077 2893 3955 2633 
Q 3834 2374 3696 2083 
Q 3558 1792 3436 1517 
Q 3315 1242 3209 1005 
Q 3104 768 3040 614 
L 2541 614 
z
" transform="scale(0.015625)"/>
        <path id="Ubuntu-4f" d="M 371 2221 
Q 371 2790 540 3225 
Q 710 3661 1001 3952 
Q 1293 4243 1680 4390 
Q 2067 4538 2502 4538 
Q 2931 4538 3312 4390 
Q 3693 4243 3981 3952 
Q 4269 3661 4438 3225 
Q 4608 2790 4608 2221 
Q 4608 1651 4438 1216 
Q 4269 781 3981 489 
Q 3693 198 3312 51 
Q 2931 -96 2502 -96 
Q 2067 -96 1680 51 
Q 1293 198 1001 489 
Q 710 781 540 1216 
Q 371 1651 371 2221 
z
M 1024 2221 
Q 1024 1818 1126 1488 
Q 1229 1158 1417 928 
Q 1606 698 1878 573 
Q 2150 448 2490 448 
Q 2829 448 3097 573 
Q 3366 698 3555 928 
Q 3744 1158 3846 1488 
Q 3949 1818 3949 2221 
Q 3949 2624 3846 2953 
Q 3744 3283 3555 3513 
Q 3366 3744 3097 3869 
Q 2829 3994 2490 3994 
Q 2150 3994 1878 3869 
Q 1606 3744 1417 3513 
Q 1229 3283 1126 2953 
Q 1024 2624 1024 2221 
z
" transform="scale(0.015625)"/>
        <path id="Ubuntu-54" d="M 3514 4435 
L 3514 3898 
L 2118 3898 
L 2118 0 
L 1498 0 
L 1498 3898 
L 102 3898 
L 102 4435 
L 3514 4435 
z
" transform="scale(0.015625)"/>
        <path id="Ubuntu-45" d="M 550 0 
L 550 4435 
L 3258 4435 
L 3258 3904 
L 1171 3904 
L 1171 2586 
L 3027 2586 
L 3027 2067 
L 1171 2067 
L 1171 531 
L 3418 531 
L 3418 0 
L 550 0 
z
" transform="scale(0.015625)"/>
        <path id="Ubuntu-2b" d="M 339 2170 
L 1549 2170 
L 1549 3488 
L 2061 3488 
L 2061 2170 
L 3270 2170 
L 3270 1664 
L 2061 1664 
L 2061 339 
L 1549 339 
L 1549 1664 
L 339 1664 
L 339 2170 
z
" transform="scale(0.015625)"/>
       </defs>
       <use xlink:href="#Ubuntu-53"/>
       <use xlink:href="#Ubuntu-4d" x="53.199997"/>
       <use xlink:href="#Ubuntu-4f" x="140.299988"/>
       <use xlink:href="#Ubuntu-54" x="215.349976"/>
       <use xlink:href="#Ubuntu-45" x="271.84996"/>
       <use xlink:href="#Ubuntu-2b" x="328.949951"/>
       <use xlink:href="#Ubuntu-52" x="385.349945"/>
       <use xlink:href="#Ubuntu-55" x="448.249939"/>
       <use xlink:href="#Ubuntu-53" x="517.049927"/>
      </g>
     </g>
    </g>
    <g id="xtick_4">
     <g id="line2d_4">
      <path d="M 485.448466 191.63125 
L 485.448466 25.31125 
" clip-path="url(#p0895ad1c4e)" style="fill: none; stroke-dasharray: 0.5,0.825; stroke-dashoffset: 0; stroke: #d9d9d9; stroke-width: 0.5"/>
     </g>
     <g id="text_4">
      <!-- Weighted -->
      <g style="fill: #757575" transform="translate(467.817841 207.83875) scale(0.08 -0.08)">
       <defs>
        <path id="Ubuntu-57" d="M 2976 3008 
Q 2707 2150 2432 1420 
Q 2157 691 1882 0 
L 1261 0 
Q 922 979 662 2067 
Q 403 3155 179 4435 
L 832 4435 
Q 922 3936 1018 3437 
Q 1114 2938 1216 2467 
Q 1318 1997 1420 1568 
Q 1523 1139 1632 774 
Q 1888 1446 2176 2249 
Q 2464 3053 2714 3910 
L 3251 3910 
Q 3501 3053 3795 2249 
Q 4090 1446 4346 774 
Q 4448 1133 4550 1561 
Q 4653 1990 4752 2460 
Q 4851 2931 4947 3433 
Q 5043 3936 5133 4435 
L 5766 4435 
Q 5536 3155 5277 2067 
Q 5018 979 4685 0 
L 4064 0 
Q 3782 691 3513 1420 
Q 3245 2150 2976 3008 
z
" transform="scale(0.015625)"/>
        <path id="Ubuntu-69" d="M 1107 0 
L 512 0 
L 512 3328 
L 1107 3328 
L 1107 0 
z
M 806 3930 
Q 646 3930 534 4035 
Q 422 4141 422 4320 
Q 422 4499 534 4604 
Q 646 4710 806 4710 
Q 966 4710 1078 4604 
Q 1190 4499 1190 4320 
Q 1190 4141 1078 4035 
Q 966 3930 806 3930 
z
" transform="scale(0.015625)"/>
        <path id="Ubuntu-67" d="M 2598 333 
Q 2522 282 2301 202 
Q 2080 122 1786 122 
Q 1485 122 1219 218 
Q 954 314 755 515 
Q 557 717 441 1017 
Q 326 1318 326 1734 
Q 326 2099 435 2403 
Q 544 2707 752 2928 
Q 960 3149 1261 3273 
Q 1562 3398 1939 3398 
Q 2355 3398 2665 3337 
Q 2976 3277 3187 3226 
L 3187 256 
Q 3187 -512 2790 -857 
Q 2394 -1203 1587 -1203 
Q 1274 -1203 995 -1152 
Q 717 -1101 512 -1030 
L 621 -512 
Q 800 -582 1059 -636 
Q 1318 -691 1600 -691 
Q 2131 -691 2364 -480 
Q 2598 -269 2598 192 
L 2598 333 
z
M 2592 2803 
Q 2502 2829 2352 2851 
Q 2202 2874 1946 2874 
Q 1466 2874 1206 2560 
Q 947 2246 947 1728 
Q 947 1440 1020 1235 
Q 1094 1030 1219 896 
Q 1344 762 1507 698 
Q 1670 634 1843 634 
Q 2080 634 2278 701 
Q 2477 768 2592 858 
L 2592 2803 
z
" transform="scale(0.015625)"/>
        <path id="Ubuntu-68" d="M 512 0 
L 512 4864 
L 1107 4966 
L 1107 3264 
Q 1274 3328 1462 3363 
Q 1651 3398 1837 3398 
Q 2234 3398 2496 3286 
Q 2758 3174 2915 2972 
Q 3072 2771 3136 2489 
Q 3200 2208 3200 1869 
L 3200 0 
L 2605 0 
L 2605 1741 
Q 2605 2048 2563 2265 
Q 2522 2483 2426 2617 
Q 2330 2752 2170 2813 
Q 2010 2874 1773 2874 
Q 1677 2874 1574 2861 
Q 1472 2848 1379 2832 
Q 1286 2816 1212 2797 
Q 1139 2778 1107 2765 
L 1107 0 
L 512 0 
z
" transform="scale(0.015625)"/>
        <path id="Ubuntu-74" d="M 1069 3328 
L 2330 3328 
L 2330 2829 
L 1069 2829 
L 1069 1293 
Q 1069 1043 1107 880 
Q 1146 717 1222 624 
Q 1299 531 1414 492 
Q 1530 454 1683 454 
Q 1952 454 2115 515 
Q 2278 576 2342 602 
L 2458 109 
Q 2368 64 2144 -3 
Q 1920 -70 1632 -70 
Q 1293 -70 1072 16 
Q 851 102 716 275 
Q 582 448 528 701 
Q 474 954 474 1286 
L 474 4256 
L 1069 4358 
L 1069 3328 
z
" transform="scale(0.015625)"/>
        <path id="Ubuntu-64" d="M 2662 2624 
Q 2554 2714 2349 2797 
Q 2144 2880 1901 2880 
Q 1645 2880 1462 2787 
Q 1280 2694 1165 2531 
Q 1050 2368 998 2144 
Q 947 1920 947 1664 
Q 947 1082 1235 765 
Q 1523 448 2003 448 
Q 2246 448 2409 470 
Q 2573 493 2662 518 
L 2662 2624 
z
M 2662 4864 
L 3258 4966 
L 3258 96 
Q 3053 38 2733 -19 
Q 2413 -77 1997 -77 
Q 1613 -77 1305 44 
Q 998 166 780 390 
Q 563 614 444 937 
Q 326 1261 326 1664 
Q 326 2048 425 2368 
Q 525 2688 717 2918 
Q 909 3149 1187 3277 
Q 1466 3405 1824 3405 
Q 2112 3405 2333 3328 
Q 2554 3251 2662 3181 
L 2662 4864 
z
" transform="scale(0.015625)"/>
       </defs>
       <use xlink:href="#Ubuntu-57"/>
       <use xlink:href="#Ubuntu-65" x="90.649994"/>
       <use xlink:href="#Ubuntu-69" x="146.549988"/>
       <use xlink:href="#Ubuntu-67" x="171.849976"/>
       <use xlink:href="#Ubuntu-68" x="229.649963"/>
       <use xlink:href="#Ubuntu-74" x="286.749954"/>
       <use xlink:href="#Ubuntu-65" x="325.949951"/>
       <use xlink:href="#Ubuntu-64" x="381.849945"/>
      </g>
     </g>
    </g>
    <g id="text_5">
     <!-- None -->
     <g style="fill: #505050" transform="translate(59.339375 224.325938) scale(0.09 -0.09)">
      <defs>
       <path id="Ubuntu-Bold-4e" d="M 3488 0 
Q 3059 762 2560 1504 
Q 2061 2246 1498 2906 
L 1498 0 
L 512 0 
L 512 4435 
L 1325 4435 
Q 1536 4224 1792 3917 
Q 2048 3610 2313 3261 
Q 2579 2912 2841 2537 
Q 3104 2163 3334 1818 
L 3334 4435 
L 4326 4435 
L 4326 0 
L 3488 0 
z
" transform="scale(0.015625)"/>
       <path id="Ubuntu-Bold-6f" d="M 3597 1690 
Q 3597 1293 3481 963 
Q 3366 634 3148 400 
Q 2931 166 2627 38 
Q 2323 -90 1946 -90 
Q 1574 -90 1270 38 
Q 966 166 748 400 
Q 531 634 409 963 
Q 288 1293 288 1690 
Q 288 2086 413 2412 
Q 538 2739 758 2969 
Q 979 3200 1283 3328 
Q 1587 3456 1946 3456 
Q 2310 3456 2614 3328 
Q 2918 3200 3136 2969 
Q 3354 2739 3475 2412 
Q 3597 2086 3597 1690 
z
M 2624 1690 
Q 2624 2131 2448 2384 
Q 2272 2637 1946 2637 
Q 1619 2637 1440 2384 
Q 1261 2131 1261 1690 
Q 1261 1248 1440 989 
Q 1619 730 1946 730 
Q 2272 730 2448 989 
Q 2624 1248 2624 1690 
z
" transform="scale(0.015625)"/>
       <path id="Ubuntu-Bold-6e" d="M 448 3251 
Q 691 3322 1075 3382 
Q 1459 3443 1882 3443 
Q 2310 3443 2595 3331 
Q 2880 3219 3046 3014 
Q 3213 2810 3283 2528 
Q 3354 2246 3354 1901 
L 3354 0 
L 2400 0 
L 2400 1786 
Q 2400 2246 2278 2438 
Q 2157 2630 1824 2630 
Q 1722 2630 1606 2620 
Q 1491 2611 1402 2598 
L 1402 0 
L 448 0 
L 448 3251 
z
" transform="scale(0.015625)"/>
       <path id="Ubuntu-Bold-65" d="M 288 1658 
Q 288 2106 425 2442 
Q 563 2778 787 3002 
Q 1011 3226 1302 3341 
Q 1594 3456 1901 3456 
Q 2618 3456 3034 3017 
Q 3450 2579 3450 1728 
Q 3450 1645 3443 1545 
Q 3437 1446 3430 1370 
L 1267 1370 
Q 1299 1075 1542 902 
Q 1786 730 2195 730 
Q 2458 730 2710 778 
Q 2963 826 3123 896 
L 3251 122 
Q 3174 83 3046 44 
Q 2918 6 2761 -22 
Q 2605 -51 2425 -70 
Q 2246 -90 2067 -90 
Q 1613 -90 1277 44 
Q 941 179 720 412 
Q 499 646 393 966 
Q 288 1286 288 1658 
z
M 2528 2022 
Q 2522 2144 2486 2259 
Q 2451 2374 2377 2464 
Q 2304 2554 2192 2611 
Q 2080 2669 1914 2669 
Q 1754 2669 1638 2614 
Q 1523 2560 1446 2470 
Q 1370 2381 1328 2262 
Q 1286 2144 1267 2022 
L 2528 2022 
z
" transform="scale(0.015625)"/>
      </defs>
      <use xlink:href="#Ubuntu-Bold-4e"/>
      <use xlink:href="#Ubuntu-Bold-6f" x="75.599991"/>
      <use xlink:href="#Ubuntu-Bold-6e" x="136.299988"/>
      <use xlink:href="#Ubuntu-Bold-65" x="195.199982"/>
     </g>
    </g>
   </g>
   <g id="matplotlib.axis_2">
    <g id="ytick_1">
     <g id="line2d_5">
      <path d="M 59.339375 184.07125 
L 505.739375 184.07125 
" clip-path="url(#p0895ad1c4e)" style="fill: none; stroke-dasharray: 0.5,0.825; stroke-dashoffset: 0; stroke: #d9d9d9; stroke-width: 0.5"/>
     </g>
     <g id="text_6">
      <!-- 0.8600 -->
      <g style="fill: #757575" transform="translate(24.809375 187.175) scale(0.08 -0.08)">
       <defs>
        <path id="Ubuntu-30" d="M 320 2221 
Q 320 3334 713 3936 
Q 1107 4538 1805 4538 
Q 2502 4538 2896 3936 
Q 3290 3334 3290 2221 
Q 3290 1107 2896 505 
Q 2502 -96 1805 -96 
Q 1107 -96 713 505 
Q 320 1107 320 2221 
z
M 2662 2221 
Q 2662 2586 2620 2912 
Q 2579 3238 2480 3481 
Q 2381 3725 2214 3869 
Q 2048 4013 1805 4013 
Q 1562 4013 1395 3869 
Q 1229 3725 1129 3481 
Q 1030 3238 988 2912 
Q 947 2586 947 2221 
Q 947 1856 988 1529 
Q 1030 1203 1129 960 
Q 1229 717 1395 573 
Q 1562 429 1805 429 
Q 2048 429 2214 573 
Q 2381 717 2480 960 
Q 2579 1203 2620 1529 
Q 2662 1856 2662 2221 
z
" transform="scale(0.015625)"/>
        <path id="Ubuntu-2e" d="M 1216 346 
Q 1216 173 1101 45 
Q 986 -83 787 -83 
Q 589 -83 473 45 
Q 358 173 358 346 
Q 358 518 473 646 
Q 589 774 787 774 
Q 986 774 1101 646 
Q 1216 518 1216 346 
z
" transform="scale(0.015625)"/>
        <path id="Ubuntu-38" d="M 3258 1152 
Q 3258 883 3165 656 
Q 3072 429 2889 259 
Q 2707 90 2432 -3 
Q 2157 -96 1798 -96 
Q 1382 -96 1104 22 
Q 826 141 659 320 
Q 493 499 422 713 
Q 352 928 352 1120 
Q 352 1306 413 1475 
Q 474 1645 573 1792 
Q 672 1939 803 2057 
Q 934 2176 1082 2266 
Q 454 2624 454 3322 
Q 454 3565 550 3785 
Q 646 4006 822 4172 
Q 998 4339 1248 4438 
Q 1498 4538 1805 4538 
Q 2163 4538 2419 4429 
Q 2675 4320 2838 4150 
Q 3002 3981 3075 3776 
Q 3149 3571 3149 3379 
Q 3149 3194 3094 3030 
Q 3040 2867 2947 2726 
Q 2854 2586 2736 2477 
Q 2618 2368 2490 2285 
Q 3245 1926 3258 1152 
z
M 954 1114 
Q 954 998 995 873 
Q 1037 749 1139 643 
Q 1242 538 1402 467 
Q 1562 397 1805 397 
Q 2022 397 2185 461 
Q 2349 525 2451 624 
Q 2554 723 2605 851 
Q 2656 979 2656 1114 
Q 2656 1318 2579 1472 
Q 2502 1626 2358 1741 
Q 2214 1856 2012 1936 
Q 1811 2016 1555 2074 
Q 1267 1914 1110 1677 
Q 954 1440 954 1114 
z
M 2554 3386 
Q 2554 3482 2512 3597 
Q 2470 3712 2380 3811 
Q 2291 3910 2150 3977 
Q 2010 4045 1805 4045 
Q 1600 4045 1456 3981 
Q 1312 3917 1222 3817 
Q 1133 3718 1091 3600 
Q 1050 3482 1050 3366 
Q 1050 3226 1101 3085 
Q 1152 2944 1261 2822 
Q 1370 2701 1546 2605 
Q 1722 2509 1965 2451 
Q 2234 2611 2394 2825 
Q 2554 3040 2554 3386 
z
" transform="scale(0.015625)"/>
        <path id="Ubuntu-36" d="M 403 1779 
Q 403 2426 582 2922 
Q 762 3418 1091 3757 
Q 1421 4096 1891 4272 
Q 2362 4448 2950 4454 
L 2995 3955 
Q 2618 3949 2307 3872 
Q 1997 3795 1753 3628 
Q 1510 3462 1344 3196 
Q 1178 2931 1094 2541 
Q 1261 2618 1469 2669 
Q 1677 2720 1901 2720 
Q 2278 2720 2540 2605 
Q 2803 2490 2969 2301 
Q 3136 2112 3209 1865 
Q 3283 1619 3283 1350 
Q 3283 1107 3200 851 
Q 3117 595 2947 384 
Q 2778 173 2515 38 
Q 2253 -96 1894 -96 
Q 1165 -96 784 403 
Q 403 902 403 1779 
z
M 1837 2234 
Q 1613 2234 1421 2192 
Q 1229 2150 1037 2067 
Q 1030 1997 1027 1923 
Q 1024 1850 1024 1779 
Q 1024 1498 1062 1248 
Q 1101 998 1200 809 
Q 1299 621 1465 509 
Q 1632 397 1888 397 
Q 2099 397 2246 486 
Q 2394 576 2490 717 
Q 2586 858 2627 1021 
Q 2669 1184 2669 1338 
Q 2669 1773 2461 2003 
Q 2253 2234 1837 2234 
z
" transform="scale(0.015625)"/>
       </defs>
       <use xlink:href="#Ubuntu-30"/>
       <use xlink:href="#Ubuntu-2e" x="56.399994"/>
       <use xlink:href="#Ubuntu-38" x="80.999985"/>
       <use xlink:href="#Ubuntu-36" x="137.399979"/>
       <use xlink:href="#Ubuntu-30" x="193.799973"/>
       <use xlink:href="#Ubuntu-30" x="250.199966"/>
      </g>
     </g>
    </g>
    <g id="ytick_2">
     <g id="line2d_6">
      <path d="M 59.339375 164.176513 
L 505.739375 164.176513 
" clip-path="url(#p0895ad1c4e)" style="fill: none; stroke-dasharray: 0.5,0.825; stroke-dashoffset: 0; stroke: #d9d9d9; stroke-width: 0.5"/>
     </g>
     <g id="text_7">
      <!-- 0.8625 -->
      <g style="fill: #757575" transform="translate(24.809375 167.280263) scale(0.08 -0.08)">
       <defs>
        <path id="Ubuntu-32" d="M 2989 3302 
Q 2989 3072 2896 2857 
Q 2803 2643 2649 2435 
Q 2496 2227 2304 2025 
Q 2112 1824 1920 1632 
Q 1811 1523 1667 1376 
Q 1523 1229 1395 1069 
Q 1267 909 1180 761 
Q 1094 614 1094 506 
L 3136 506 
L 3136 0 
L 448 0 
Q 442 38 442 76 
Q 442 115 442 147 
Q 442 448 541 707 
Q 640 966 800 1196 
Q 960 1427 1158 1632 
Q 1357 1837 1549 2029 
Q 1709 2182 1853 2332 
Q 1997 2483 2109 2633 
Q 2221 2784 2288 2944 
Q 2355 3104 2355 3283 
Q 2355 3475 2294 3609 
Q 2234 3744 2131 3833 
Q 2029 3923 1891 3964 
Q 1754 4006 1600 4006 
Q 1414 4006 1260 3955 
Q 1107 3904 985 3837 
Q 864 3770 781 3696 
Q 698 3622 653 3584 
L 358 4006 
Q 416 4070 531 4163 
Q 646 4256 806 4339 
Q 966 4422 1164 4480 
Q 1363 4538 1594 4538 
Q 2291 4538 2640 4214 
Q 2989 3891 2989 3302 
z
" transform="scale(0.015625)"/>
        <path id="Ubuntu-35" d="M 1274 2726 
Q 2240 2688 2691 2304 
Q 3142 1920 3142 1261 
Q 3142 966 3043 716 
Q 2944 467 2742 288 
Q 2541 109 2233 6 
Q 1926 -96 1504 -96 
Q 1338 -96 1165 -70 
Q 992 -45 845 -6 
Q 698 32 582 70 
Q 467 109 416 134 
L 531 653 
Q 640 602 886 518 
Q 1133 435 1491 435 
Q 1779 435 1974 499 
Q 2170 563 2291 672 
Q 2413 781 2467 925 
Q 2522 1069 2522 1229 
Q 2522 1472 2438 1661 
Q 2355 1850 2144 1978 
Q 1933 2106 1581 2173 
Q 1229 2240 691 2240 
Q 730 2554 752 2829 
Q 774 3104 793 3366 
Q 813 3629 825 3888 
Q 838 4147 851 4435 
L 2989 4435 
L 2989 3930 
L 1370 3930 
Q 1363 3834 1350 3670 
Q 1338 3507 1325 3331 
Q 1312 3155 1299 2988 
Q 1286 2822 1274 2726 
z
" transform="scale(0.015625)"/>
       </defs>
       <use xlink:href="#Ubuntu-30"/>
       <use xlink:href="#Ubuntu-2e" x="56.399994"/>
       <use xlink:href="#Ubuntu-38" x="80.999985"/>
       <use xlink:href="#Ubuntu-36" x="137.399979"/>
       <use xlink:href="#Ubuntu-32" x="193.799973"/>
       <use xlink:href="#Ubuntu-35" x="250.199966"/>
      </g>
     </g>
    </g>
    <g id="ytick_3">
     <g id="line2d_7">
      <path d="M 59.339375 144.281776 
L 505.739375 144.281776 
" clip-path="url(#p0895ad1c4e)" style="fill: none; stroke-dasharray: 0.5,0.825; stroke-dashoffset: 0; stroke: #d9d9d9; stroke-width: 0.5"/>
     </g>
     <g id="text_8">
      <!-- 0.8650 -->
      <g style="fill: #757575" transform="translate(24.809375 147.385526) scale(0.08 -0.08)">
       <use xlink:href="#Ubuntu-30"/>
       <use xlink:href="#Ubuntu-2e" x="56.399994"/>
       <use xlink:href="#Ubuntu-38" x="80.999985"/>
       <use xlink:href="#Ubuntu-36" x="137.399979"/>
       <use xlink:href="#Ubuntu-35" x="193.799973"/>
       <use xlink:href="#Ubuntu-30" x="250.199966"/>
      </g>
     </g>
    </g>
    <g id="ytick_4">
     <g id="line2d_8">
      <path d="M 59.339375 124.387039 
L 505.739375 124.387039 
" clip-path="url(#p0895ad1c4e)" style="fill: none; stroke-dasharray: 0.5,0.825; stroke-dashoffset: 0; stroke: #d9d9d9; stroke-width: 0.5"/>
     </g>
     <g id="text_9">
      <!-- 0.8675 -->
      <g style="fill: #757575" transform="translate(24.809375 127.490789) scale(0.08 -0.08)">
       <defs>
        <path id="Ubuntu-37" d="M 1043 0 
Q 1082 512 1226 1078 
Q 1370 1645 1581 2179 
Q 1792 2714 2045 3171 
Q 2298 3629 2541 3917 
L 384 3917 
L 384 4435 
L 3206 4435 
L 3206 3942 
Q 2995 3699 2739 3273 
Q 2483 2848 2256 2320 
Q 2029 1792 1865 1193 
Q 1702 595 1664 0 
L 1043 0 
z
" transform="scale(0.015625)"/>
       </defs>
       <use xlink:href="#Ubuntu-30"/>
       <use xlink:href="#Ubuntu-2e" x="56.399994"/>
       <use xlink:href="#Ubuntu-38" x="80.999985"/>
       <use xlink:href="#Ubuntu-36" x="137.399979"/>
       <use xlink:href="#Ubuntu-37" x="193.799973"/>
       <use xlink:href="#Ubuntu-35" x="250.199966"/>
      </g>
     </g>
    </g>
    <g id="ytick_5">
     <g id="line2d_9">
      <path d="M 59.339375 104.492303 
L 505.739375 104.492303 
" clip-path="url(#p0895ad1c4e)" style="fill: none; stroke-dasharray: 0.5,0.825; stroke-dashoffset: 0; stroke: #d9d9d9; stroke-width: 0.5"/>
     </g>
     <g id="text_10">
      <!-- 0.8700 -->
      <g style="fill: #757575" transform="translate(24.809375 107.596053) scale(0.08 -0.08)">
       <use xlink:href="#Ubuntu-30"/>
       <use xlink:href="#Ubuntu-2e" x="56.399994"/>
       <use xlink:href="#Ubuntu-38" x="80.999985"/>
       <use xlink:href="#Ubuntu-37" x="137.399979"/>
       <use xlink:href="#Ubuntu-30" x="193.799973"/>
       <use xlink:href="#Ubuntu-30" x="250.199966"/>
      </g>
     </g>
    </g>
    <g id="ytick_6">
     <g id="line2d_10">
      <path d="M 59.339375 84.597566 
L 505.739375 84.597566 
" clip-path="url(#p0895ad1c4e)" style="fill: none; stroke-dasharray: 0.5,0.825; stroke-dashoffset: 0; stroke: #d9d9d9; stroke-width: 0.5"/>
     </g>
     <g id="text_11">
      <!-- 0.8725 -->
      <g style="fill: #757575" transform="translate(24.809375 87.701316) scale(0.08 -0.08)">
       <use xlink:href="#Ubuntu-30"/>
       <use xlink:href="#Ubuntu-2e" x="56.399994"/>
       <use xlink:href="#Ubuntu-38" x="80.999985"/>
       <use xlink:href="#Ubuntu-37" x="137.399979"/>
       <use xlink:href="#Ubuntu-32" x="193.799973"/>
       <use xlink:href="#Ubuntu-35" x="250.199966"/>
      </g>
     </g>
    </g>
    <g id="ytick_7">
     <g id="line2d_11">
      <path d="M 59.339375 64.702829 
L 505.739375 64.702829 
" clip-path="url(#p0895ad1c4e)" style="fill: none; stroke-dasharray: 0.5,0.825; stroke-dashoffset: 0; stroke: #d9d9d9; stroke-width: 0.5"/>
     </g>
     <g id="text_12">
      <!-- 0.8750 -->
      <g style="fill: #757575" transform="translate(24.809375 67.806579) scale(0.08 -0.08)">
       <use xlink:href="#Ubuntu-30"/>
       <use xlink:href="#Ubuntu-2e" x="56.399994"/>
       <use xlink:href="#Ubuntu-38" x="80.999985"/>
       <use xlink:href="#Ubuntu-37" x="137.399979"/>
       <use xlink:href="#Ubuntu-35" x="193.799973"/>
       <use xlink:href="#Ubuntu-30" x="250.199966"/>
      </g>
     </g>
    </g>
    <g id="ytick_8">
     <g id="line2d_12">
      <path d="M 59.339375 44.808092 
L 505.739375 44.808092 
" clip-path="url(#p0895ad1c4e)" style="fill: none; stroke-dasharray: 0.5,0.825; stroke-dashoffset: 0; stroke: #d9d9d9; stroke-width: 0.5"/>
     </g>
     <g id="text_13">
      <!-- 0.8775 -->
      <g style="fill: #757575" transform="translate(24.809375 47.911842) scale(0.08 -0.08)">
       <use xlink:href="#Ubuntu-30"/>
       <use xlink:href="#Ubuntu-2e" x="56.399994"/>
       <use xlink:href="#Ubuntu-38" x="80.999985"/>
       <use xlink:href="#Ubuntu-37" x="137.399979"/>
       <use xlink:href="#Ubuntu-37" x="193.799973"/>
       <use xlink:href="#Ubuntu-35" x="250.199966"/>
      </g>
     </g>
    </g>
    <g id="text_14">
     <!-- AUC ROC -->
     <g style="fill: #505050" transform="translate(14.959375 69.145625) rotate(-90) scale(0.1 -0.1)">
      <defs>
       <path id="Ubuntu-Bold-41" d="M 3482 0 
Q 3411 230 3324 473 
Q 3238 717 3155 960 
L 1427 960 
Q 1344 717 1257 473 
Q 1171 230 1101 0 
L 64 0 
Q 314 717 538 1325 
Q 762 1933 976 2470 
Q 1190 3008 1398 3491 
Q 1606 3974 1830 4435 
L 2784 4435 
Q 3002 3974 3213 3491 
Q 3424 3008 3638 2470 
Q 3853 1933 4077 1325 
Q 4301 717 4550 0 
L 3482 0 
z
M 2285 3430 
Q 2253 3334 2189 3168 
Q 2125 3002 2041 2784 
Q 1958 2566 1859 2304 
Q 1760 2042 1658 1754 
L 2918 1754 
Q 2816 2042 2720 2304 
Q 2624 2566 2537 2784 
Q 2451 3002 2387 3168 
Q 2323 3334 2285 3430 
z
" transform="scale(0.015625)"/>
       <path id="Ubuntu-Bold-55" d="M 2246 -90 
Q 1779 -90 1440 41 
Q 1101 173 880 406 
Q 659 640 553 963 
Q 448 1286 448 1677 
L 448 4435 
L 1446 4435 
L 1446 1760 
Q 1446 1491 1507 1302 
Q 1568 1114 1673 995 
Q 1779 877 1929 825 
Q 2080 774 2259 774 
Q 2624 774 2851 998 
Q 3078 1222 3078 1760 
L 3078 4435 
L 4077 4435 
L 4077 1677 
Q 4077 1286 3968 960 
Q 3859 634 3635 400 
Q 3411 166 3065 38 
Q 2720 -90 2246 -90 
z
" transform="scale(0.015625)"/>
       <path id="Ubuntu-Bold-43" d="M 2534 -90 
Q 1453 -90 886 512 
Q 320 1114 320 2221 
Q 320 2771 493 3203 
Q 666 3635 966 3932 
Q 1267 4230 1683 4384 
Q 2099 4538 2586 4538 
Q 2867 4538 3097 4496 
Q 3328 4454 3501 4400 
Q 3674 4346 3789 4288 
Q 3904 4230 3955 4198 
L 3667 3392 
Q 3462 3501 3190 3577 
Q 2918 3654 2573 3654 
Q 2342 3654 2121 3577 
Q 1901 3501 1731 3331 
Q 1562 3162 1459 2893 
Q 1357 2624 1357 2240 
Q 1357 1933 1424 1667 
Q 1491 1402 1641 1210 
Q 1792 1018 2035 906 
Q 2278 794 2624 794 
Q 2842 794 3014 819 
Q 3187 845 3321 880 
Q 3456 915 3558 960 
Q 3661 1005 3744 1043 
L 4019 243 
Q 3808 115 3424 12 
Q 3040 -90 2534 -90 
z
" transform="scale(0.015625)"/>
       <path id="Ubuntu-Bold-20" transform="scale(0.015625)"/>
       <path id="Ubuntu-Bold-52" d="M 1811 4486 
Q 2810 4486 3341 4131 
Q 3872 3776 3872 3027 
Q 3872 2560 3657 2269 
Q 3443 1978 3040 1811 
Q 3174 1645 3321 1430 
Q 3469 1216 3613 982 
Q 3757 749 3891 496 
Q 4026 243 4141 0 
L 3021 0 
Q 2899 218 2774 442 
Q 2650 666 2518 877 
Q 2387 1088 2259 1277 
Q 2131 1466 2003 1619 
L 1510 1619 
L 1510 0 
L 512 0 
L 512 4371 
Q 838 4435 1187 4460 
Q 1536 4486 1811 4486 
z
M 1869 3635 
Q 1760 3635 1673 3628 
Q 1587 3622 1510 3616 
L 1510 2413 
L 1792 2413 
Q 2355 2413 2598 2553 
Q 2842 2694 2842 3034 
Q 2842 3360 2595 3497 
Q 2349 3635 1869 3635 
z
" transform="scale(0.015625)"/>
       <path id="Ubuntu-Bold-4f" d="M 1350 2221 
Q 1350 1894 1430 1632 
Q 1510 1370 1660 1181 
Q 1811 992 2028 889 
Q 2246 787 2528 787 
Q 2803 787 3024 889 
Q 3245 992 3395 1181 
Q 3546 1370 3626 1632 
Q 3706 1894 3706 2221 
Q 3706 2547 3626 2812 
Q 3546 3078 3395 3267 
Q 3245 3456 3024 3558 
Q 2803 3661 2528 3661 
Q 2246 3661 2028 3555 
Q 1811 3450 1660 3261 
Q 1510 3072 1430 2806 
Q 1350 2541 1350 2221 
z
M 4736 2221 
Q 4736 1651 4566 1219 
Q 4397 787 4102 496 
Q 3808 205 3401 57 
Q 2995 -90 2528 -90 
Q 2074 -90 1670 57 
Q 1267 205 966 496 
Q 666 787 493 1219 
Q 320 1651 320 2221 
Q 320 2790 499 3222 
Q 678 3654 982 3948 
Q 1286 4243 1686 4390 
Q 2086 4538 2528 4538 
Q 2982 4538 3385 4390 
Q 3789 4243 4089 3948 
Q 4390 3654 4563 3222 
Q 4736 2790 4736 2221 
z
" transform="scale(0.015625)"/>
      </defs>
      <use xlink:href="#Ubuntu-Bold-41"/>
      <use xlink:href="#Ubuntu-Bold-55" x="70.099991"/>
      <use xlink:href="#Ubuntu-Bold-43" x="140.799973"/>
      <use xlink:href="#Ubuntu-Bold-20" x="205.59996"/>
      <use xlink:href="#Ubuntu-Bold-52" x="229.599945"/>
      <use xlink:href="#Ubuntu-Bold-4f" x="294.549942"/>
      <use xlink:href="#Ubuntu-Bold-43" x="373.549927"/>
     </g>
    </g>
   </g>
   <g id="PolyCollection_1"/>
   <g id="PolyCollection_2"/>
   <g id="PolyCollection_3"/>
   <g id="PolyCollection_4"/>
   <g id="PathCollection_1">
    <defs>
     <path id="C0_0_0210dd96ea" d="M -3.162278 3.162278 
L 3.162278 3.162278 
L 3.162278 -3.162278 
L -3.162278 -3.162278 
z
"/>
    </defs>
    <g clip-path="url(#p0895ad1c4e)">
     <use xlink:href="#C0_0_0210dd96ea" x="79.630284" y="56.744934" style="fill: #af4035; stroke: #ffffff; stroke-width: 0.505964"/>
    </g>
    <g clip-path="url(#p0895ad1c4e)">
     <use xlink:href="#C0_0_0210dd96ea" x="214.903011" y="56.744934" style="fill: #af4035; stroke: #ffffff; stroke-width: 0.505964"/>
    </g>
    <g clip-path="url(#p0895ad1c4e)">
     <use xlink:href="#C0_0_0210dd96ea" x="350.175739" y="32.87125" style="fill: #af4035; stroke: #ffffff; stroke-width: 0.505964"/>
    </g>
    <g clip-path="url(#p0895ad1c4e)">
     <use xlink:href="#C0_0_0210dd96ea" x="485.448466" y="56.744934" style="fill: #af4035; stroke: #ffffff; stroke-width: 0.505964"/>
    </g>
    <g clip-path="url(#p0895ad1c4e)">
     <use xlink:href="#C0_0_0210dd96ea" x="79.630284" y="80.618618" style="fill: #00937f; stroke: #ffffff; stroke-width: 0.505964"/>
    </g>
    <g clip-path="url(#p0895ad1c4e)">
     <use xlink:href="#C0_0_0210dd96ea" x="214.903011" y="72.660724" style="fill: #00937f; stroke: #ffffff; stroke-width: 0.505964"/>
    </g>
    <g clip-path="url(#p0895ad1c4e)">
     <use xlink:href="#C0_0_0210dd96ea" x="350.175739" y="64.702829" style="fill: #00937f; stroke: #ffffff; stroke-width: 0.505964"/>
    </g>
    <g clip-path="url(#p0895ad1c4e)">
     <use xlink:href="#C0_0_0210dd96ea" x="485.448466" y="80.618618" style="fill: #00937f; stroke: #ffffff; stroke-width: 0.505964"/>
    </g>
    <g clip-path="url(#p0895ad1c4e)">
     <use xlink:href="#C0_0_0210dd96ea" x="79.630284" y="64.702829" style="fill: #3d6384; stroke: #ffffff; stroke-width: 0.505964"/>
    </g>
    <g clip-path="url(#p0895ad1c4e)">
     <use xlink:href="#C0_0_0210dd96ea" x="214.903011" y="64.702829" style="fill: #3d6384; stroke: #ffffff; stroke-width: 0.505964"/>
    </g>
    <g clip-path="url(#p0895ad1c4e)">
     <use xlink:href="#C0_0_0210dd96ea" x="350.175739" y="184.07125" style="fill: #3d6384; stroke: #ffffff; stroke-width: 0.505964"/>
    </g>
    <g clip-path="url(#p0895ad1c4e)">
     <use xlink:href="#C0_0_0210dd96ea" x="485.448466" y="48.787039" style="fill: #3d6384; stroke: #ffffff; stroke-width: 0.505964"/>
    </g>
    <g clip-path="url(#p0895ad1c4e)">
     <use xlink:href="#C0_0_0210dd96ea" x="79.630284" y="104.492303" style="fill: #6d9bc3; stroke: #ffffff; stroke-width: 0.505964"/>
    </g>
    <g clip-path="url(#p0895ad1c4e)">
     <use xlink:href="#C0_0_0210dd96ea" x="214.903011" y="80.618618" style="fill: #6d9bc3; stroke: #ffffff; stroke-width: 0.505964"/>
    </g>
    <g clip-path="url(#p0895ad1c4e)">
     <use xlink:href="#C0_0_0210dd96ea" x="350.175739" y="152.239671" style="fill: #6d9bc3; stroke: #ffffff; stroke-width: 0.505964"/>
    </g>
    <g clip-path="url(#p0895ad1c4e)">
     <use xlink:href="#C0_0_0210dd96ea" x="485.448466" y="128.365987" style="fill: #6d9bc3; stroke: #ffffff; stroke-width: 0.505964"/>
    </g>
   </g>
   <g id="line2d_13">
    <path d="M 79.630284 56.744934 
L 214.903011 56.744934 
L 350.175739 32.87125 
L 485.448466 56.744934 
" clip-path="url(#p0895ad1c4e)" style="fill: none; stroke: #af4035; stroke-opacity: 0.25; stroke-width: 1.5; stroke-linecap: square"/>
   </g>
   <g id="line2d_14">
    <path d="M 79.630284 80.618618 
L 214.903011 72.660724 
L 350.175739 64.702829 
L 485.448466 80.618618 
" clip-path="url(#p0895ad1c4e)" style="fill: none; stroke: #00937f; stroke-opacity: 0.25; stroke-width: 1.5; stroke-linecap: square"/>
   </g>
   <g id="line2d_15">
    <path d="M 79.630284 64.702829 
L 214.903011 64.702829 
L 350.175739 184.07125 
L 485.448466 48.787039 
" clip-path="url(#p0895ad1c4e)" style="fill: none; stroke: #3d6384; stroke-opacity: 0.25; stroke-width: 1.5; stroke-linecap: square"/>
   </g>
   <g id="line2d_16">
    <path d="M 79.630284 104.492303 
L 214.903011 80.618618 
L 350.175739 152.239671 
L 485.448466 128.365987 
" clip-path="url(#p0895ad1c4e)" style="fill: none; stroke: #6d9bc3; stroke-opacity: 0.25; stroke-width: 1.5; stroke-linecap: square"/>
   </g>
   <g id="line2d_17"/>
   <g id="line2d_18"/>
   <g id="line2d_19"/>
   <g id="line2d_20"/>
   <g id="patch_3">
    <path d="M 59.339375 191.63125 
L 59.339375 25.31125 
" style="fill: none; stroke: #bbbbbb; stroke-linejoin: miter; stroke-linecap: square"/>
   </g>
   <g id="patch_4">
    <path d="M 59.339375 191.63125 
L 505.739375 191.63125 
" style="fill: none; stroke: #bbbbbb; stroke-linejoin: miter; stroke-linecap: square"/>
   </g>
   <g id="legend_1">
    <g id="line2d_21">
     <defs>
      <path id="me7a9edb31f" d="M -2.5 2.5 
L 2.5 2.5 
L 2.5 -2.5 
L -2.5 -2.5 
z
" style="stroke: #af4035; stroke-linejoin: miter"/>
     </defs>
     <g>
      <use xlink:href="#me7a9edb31f" x="74.539375" y="13.8075" style="fill: #af4035; stroke: #af4035; stroke-linejoin: miter"/>
     </g>
    </g>
    <g id="text_15">
     <!-- Logistic Regression -->
     <g style="fill: #4b4b4b" transform="translate(88.939375 16.6075) scale(0.08 -0.08)">
      <defs>
       <path id="Ubuntu-4c" d="M 3219 538 
L 3219 0 
L 550 0 
L 550 4435 
L 1171 4435 
L 1171 538 
L 3219 538 
z
" transform="scale(0.015625)"/>
       <path id="Ubuntu-6f" d="M 3450 1664 
Q 3450 1267 3334 947 
Q 3219 627 3011 396 
Q 2803 166 2515 41 
Q 2227 -83 1888 -83 
Q 1549 -83 1261 41 
Q 973 166 765 396 
Q 557 627 441 947 
Q 326 1267 326 1664 
Q 326 2054 441 2377 
Q 557 2701 765 2931 
Q 973 3162 1261 3286 
Q 1549 3411 1888 3411 
Q 2227 3411 2515 3286 
Q 2803 3162 3011 2931 
Q 3219 2701 3334 2377 
Q 3450 2054 3450 1664 
z
M 2829 1664 
Q 2829 2227 2576 2556 
Q 2323 2886 1888 2886 
Q 1453 2886 1200 2556 
Q 947 2227 947 1664 
Q 947 1101 1200 771 
Q 1453 442 1888 442 
Q 2323 442 2576 771 
Q 2829 1101 2829 1664 
z
" transform="scale(0.015625)"/>
       <path id="Ubuntu-63" d="M 1958 -77 
Q 1555 -77 1251 51 
Q 947 179 739 409 
Q 531 640 428 957 
Q 326 1274 326 1658 
Q 326 2042 438 2362 
Q 550 2682 755 2915 
Q 960 3149 1257 3280 
Q 1555 3411 1920 3411 
Q 2144 3411 2368 3372 
Q 2592 3334 2797 3251 
L 2662 2746 
Q 2528 2810 2352 2848 
Q 2176 2886 1978 2886 
Q 1478 2886 1212 2572 
Q 947 2259 947 1658 
Q 947 1389 1008 1165 
Q 1069 941 1200 781 
Q 1331 621 1536 534 
Q 1741 448 2035 448 
Q 2272 448 2464 493 
Q 2656 538 2765 589 
L 2848 90 
Q 2797 58 2701 29 
Q 2605 0 2483 -22 
Q 2362 -45 2224 -61 
Q 2086 -77 1958 -77 
z
" transform="scale(0.015625)"/>
       <path id="Ubuntu-20" transform="scale(0.015625)"/>
       <path id="Ubuntu-72" d="M 1741 3398 
Q 1818 3398 1917 3388 
Q 2016 3379 2112 3363 
Q 2208 3347 2288 3331 
Q 2368 3315 2406 3302 
L 2304 2784 
Q 2234 2810 2070 2845 
Q 1907 2880 1651 2880 
Q 1485 2880 1321 2845 
Q 1158 2810 1107 2797 
L 1107 0 
L 512 0 
L 512 3187 
Q 723 3264 1036 3331 
Q 1350 3398 1741 3398 
z
" transform="scale(0.015625)"/>
       <path id="Ubuntu-6e" d="M 512 3232 
Q 717 3283 1056 3340 
Q 1395 3398 1837 3398 
Q 2234 3398 2496 3286 
Q 2758 3174 2915 2972 
Q 3072 2771 3136 2489 
Q 3200 2208 3200 1869 
L 3200 0 
L 2605 0 
L 2605 1741 
Q 2605 2048 2563 2265 
Q 2522 2483 2426 2617 
Q 2330 2752 2170 2813 
Q 2010 2874 1773 2874 
Q 1677 2874 1574 2867 
Q 1472 2861 1379 2851 
Q 1286 2842 1212 2829 
Q 1139 2816 1107 2810 
L 1107 0 
L 512 0 
L 512 3232 
z
" transform="scale(0.015625)"/>
      </defs>
      <use xlink:href="#Ubuntu-4c"/>
      <use xlink:href="#Ubuntu-6f" x="50.649994"/>
      <use xlink:href="#Ubuntu-67" x="109.649979"/>
      <use xlink:href="#Ubuntu-69" x="167.449966"/>
      <use xlink:href="#Ubuntu-73" x="192.749954"/>
      <use xlink:href="#Ubuntu-74" x="237.349945"/>
      <use xlink:href="#Ubuntu-69" x="277.549942"/>
      <use xlink:href="#Ubuntu-63" x="302.84993"/>
      <use xlink:href="#Ubuntu-20" x="349.349915"/>
      <use xlink:href="#Ubuntu-52" x="372.449905"/>
      <use xlink:href="#Ubuntu-65" x="435.349899"/>
      <use xlink:href="#Ubuntu-67" x="491.249893"/>
      <use xlink:href="#Ubuntu-72" x="549.049881"/>
      <use xlink:href="#Ubuntu-65" x="587.649872"/>
      <use xlink:href="#Ubuntu-73" x="643.549866"/>
      <use xlink:href="#Ubuntu-73" x="688.149857"/>
      <use xlink:href="#Ubuntu-69" x="732.749847"/>
      <use xlink:href="#Ubuntu-6f" x="758.049835"/>
      <use xlink:href="#Ubuntu-6e" x="817.04982"/>
     </g>
    </g>
    <g id="line2d_22">
     <defs>
      <path id="m0bbe7dd319" d="M -2.5 2.5 
L 2.5 2.5 
L 2.5 -2.5 
L -2.5 -2.5 
z
" style="stroke: #00937f; stroke-linejoin: miter"/>
     </defs>
     <g>
      <use xlink:href="#m0bbe7dd319" x="182.894375" y="13.8075" style="fill: #00937f; stroke: #00937f; stroke-linejoin: miter"/>
     </g>
    </g>
    <g id="text_16">
     <!-- Random Forest -->
     <g style="fill: #4b4b4b" transform="translate(197.294375 16.6075) scale(0.08 -0.08)">
      <defs>
       <path id="Ubuntu-6d" d="M 512 3232 
Q 717 3283 1053 3340 
Q 1389 3398 1830 3398 
Q 2150 3398 2368 3312 
Q 2586 3226 2733 3059 
Q 2778 3091 2874 3148 
Q 2970 3206 3110 3260 
Q 3251 3315 3424 3356 
Q 3597 3398 3795 3398 
Q 4179 3398 4422 3286 
Q 4666 3174 4803 2969 
Q 4941 2765 4989 2483 
Q 5037 2202 5037 1869 
L 5037 0 
L 4442 0 
L 4442 1741 
Q 4442 2035 4413 2246 
Q 4384 2458 4304 2598 
Q 4224 2739 4086 2806 
Q 3949 2874 3731 2874 
Q 3430 2874 3235 2794 
Q 3040 2714 2970 2650 
Q 3021 2483 3046 2284 
Q 3072 2086 3072 1869 
L 3072 0 
L 2477 0 
L 2477 1741 
Q 2477 2035 2445 2246 
Q 2413 2458 2333 2598 
Q 2253 2739 2115 2806 
Q 1978 2874 1766 2874 
Q 1677 2874 1574 2867 
Q 1472 2861 1379 2851 
Q 1286 2842 1209 2829 
Q 1133 2816 1107 2810 
L 1107 0 
L 512 0 
L 512 3232 
z
" transform="scale(0.015625)"/>
       <path id="Ubuntu-46" d="M 550 0 
L 550 4435 
L 3226 4435 
L 3226 3904 
L 1171 3904 
L 1171 2566 
L 2995 2566 
L 2995 2042 
L 1171 2042 
L 1171 0 
L 550 0 
z
" transform="scale(0.015625)"/>
      </defs>
      <use xlink:href="#Ubuntu-52"/>
      <use xlink:href="#Ubuntu-61" x="62.899994"/>
      <use xlink:href="#Ubuntu-6e" x="115.099991"/>
      <use xlink:href="#Ubuntu-64" x="172.499985"/>
      <use xlink:href="#Ubuntu-6f" x="231.399979"/>
      <use xlink:href="#Ubuntu-6d" x="290.399963"/>
      <use xlink:href="#Ubuntu-20" x="376.499954"/>
      <use xlink:href="#Ubuntu-46" x="399.599945"/>
      <use xlink:href="#Ubuntu-6f" x="451.924942"/>
      <use xlink:href="#Ubuntu-72" x="510.924927"/>
      <use xlink:href="#Ubuntu-65" x="549.524918"/>
      <use xlink:href="#Ubuntu-73" x="605.424911"/>
      <use xlink:href="#Ubuntu-74" x="650.024902"/>
     </g>
    </g>
    <g id="line2d_23">
     <defs>
      <path id="med65890786" d="M -2.5 2.5 
L 2.5 2.5 
L 2.5 -2.5 
L -2.5 -2.5 
z
" style="stroke: #3d6384; stroke-linejoin: miter"/>
     </defs>
     <g>
      <use xlink:href="#med65890786" x="276.513125" y="13.8075" style="fill: #3d6384; stroke: #3d6384; stroke-linejoin: miter"/>
     </g>
    </g>
    <g id="text_17">
     <!-- XGBoost -->
     <g style="fill: #4b4b4b" transform="translate(290.913125 16.6075) scale(0.08 -0.08)">
      <defs>
       <path id="Ubuntu-58" d="M 3213 0 
Q 3117 192 2982 425 
Q 2848 659 2688 912 
Q 2528 1165 2355 1417 
Q 2182 1670 2022 1894 
Q 1862 1670 1689 1417 
Q 1517 1165 1360 912 
Q 1203 659 1065 425 
Q 928 192 832 0 
L 147 0 
Q 435 563 816 1145 
Q 1197 1728 1626 2342 
L 205 4435 
L 922 4435 
L 2016 2784 
L 3098 4435 
L 3808 4435 
L 2413 2368 
Q 2848 1747 3232 1158 
Q 3616 570 3910 0 
L 3213 0 
z
" transform="scale(0.015625)"/>
       <path id="Ubuntu-47" d="M 3258 2182 
L 3878 2182 
L 3878 109 
Q 3802 83 3658 51 
Q 3514 19 3325 -13 
Q 3136 -45 2912 -67 
Q 2688 -90 2458 -90 
Q 1990 -90 1606 64 
Q 1222 218 947 512 
Q 672 806 521 1235 
Q 371 1664 371 2221 
Q 371 2778 540 3210 
Q 710 3642 998 3936 
Q 1286 4230 1673 4384 
Q 2061 4538 2502 4538 
Q 2803 4538 3036 4499 
Q 3270 4461 3436 4409 
Q 3603 4358 3708 4307 
Q 3814 4256 3853 4230 
L 3654 3712 
Q 3469 3834 3161 3914 
Q 2854 3994 2534 3994 
Q 2195 3994 1916 3872 
Q 1638 3750 1443 3520 
Q 1248 3290 1139 2960 
Q 1030 2630 1030 2221 
Q 1030 1824 1123 1497 
Q 1216 1171 1405 937 
Q 1594 704 1872 576 
Q 2150 448 2528 448 
Q 2797 448 2985 477 
Q 3174 506 3258 531 
L 3258 2182 
z
" transform="scale(0.015625)"/>
      </defs>
      <use xlink:href="#Ubuntu-58"/>
      <use xlink:href="#Ubuntu-47" x="60.724991"/>
      <use xlink:href="#Ubuntu-42" x="127.924988"/>
      <use xlink:href="#Ubuntu-6f" x="192.224976"/>
      <use xlink:href="#Ubuntu-6f" x="251.22496"/>
      <use xlink:href="#Ubuntu-73" x="310.224945"/>
      <use xlink:href="#Ubuntu-74" x="354.824936"/>
     </g>
    </g>
    <g id="line2d_24">
     <defs>
      <path id="mc5b1ea25cd" d="M -2.5 2.5 
L 2.5 2.5 
L 2.5 -2.5 
L -2.5 -2.5 
z
" style="stroke: #6d9bc3; stroke-linejoin: miter"/>
     </defs>
     <g>
      <use xlink:href="#mc5b1ea25cd" x="346.514375" y="13.8075" style="fill: #6d9bc3; stroke: #6d9bc3; stroke-linejoin: miter"/>
     </g>
    </g>
    <g id="text_18">
     <!-- LightGBM -->
     <g style="fill: #4b4b4b" transform="translate(360.914375 16.6075) scale(0.08 -0.08)">
      <use xlink:href="#Ubuntu-4c"/>
      <use xlink:href="#Ubuntu-69" x="51.899994"/>
      <use xlink:href="#Ubuntu-67" x="77.199982"/>
      <use xlink:href="#Ubuntu-68" x="134.999969"/>
      <use xlink:href="#Ubuntu-74" x="192.09996"/>
      <use xlink:href="#Ubuntu-47" x="232.299957"/>
      <use xlink:href="#Ubuntu-42" x="299.499954"/>
      <use xlink:href="#Ubuntu-4d" x="363.799942"/>
     </g>
    </g>
   </g>
  </g>
 </g>
 <defs>
  <clipPath id="p0895ad1c4e">
   <rect x="59.339375" y="25.31125" width="446.4" height="166.32"/>
  </clipPath>
 </defs>
</svg>
